<svg xmlns="http://www.w3.org/2000/svg" xmlns:xlink="http://www.w3.org/1999/xlink" version="1.1" x="0px" y="0px" viewBox="0 0 73 91.25" style="enable-background:new 0 0 73 73;" xml:space="preserve"><g><path d="M39.93026,35.51905c1.73964,1.78156,3.45943,3.85951,4.85767,5.92872c0.53991,0.79946,1.58796,0.93471,2.30431,0.46945   c1.3386-0.85669,0.19148-0.15621,5.08857-3.24655c1.01344-0.6408,1.15088-1.58857,0.71849-2.26329   c-1.51044-2.35536-3.43023-4.32858-5.55325-5.70592c-0.66887-0.43462-1.53621-0.45275-2.2108-0.04675   c-1.59712,0.9617-3.27329,1.94806-4.96453,2.96841c-0.67048,0.40329-0.79234,1.33157-0.24045,1.89545   C39.93026,35.51858,39.93026,35.51858,39.93026,35.51905z M46.25257,40.68682c-0.06153,0.03872-0.15551,0.01995-0.20896-0.05487   c-0.83378-1.20456-2.58038-3.47999-3.91483-4.9739c0.91068-0.5447,1.40398-0.8437,3.90385-2.31409   c1.68284,1.02725,3.31351,2.53332,4.70029,4.46526C49.61351,38.52969,46.85257,40.30665,46.25257,40.68682z"/><path d="M28.12053,36.68791c-3.40829,0.86304-5.43875,4.50367-4.52562,8.11567c0.91535,3.61283,4.43527,5.84858,7.84135,4.98552   c3.48126-0.88081,5.42558-4.56533,4.52657-8.11567C35.05547,38.09013,31.57889,35.81886,28.12053,36.68791z M31.0775,48.36835   c-2.62968,0.66505-5.34525-1.09634-6.06182-3.92449h0.00095c-0.71562-2.82815,0.83871-5.67014,3.46363-6.33519   c2.5745-0.65042,5.33058,1.03336,6.06087,3.92449C35.27539,44.93212,33.64379,47.71805,31.0775,48.36835z"/><path d="M13.00557,38.12011c1.73024-1.44386,1.89011-3.82468,2.86441-5.46881c1.21853-2.05849,4.56384-2.9612,6.86529-1.94751   c-0.00746,0.7755-0.00149,1.50914,0.00352,1.92676c-3.06878,2.6199-4.57153,6.81311-3.8794,11.13823   c0.73566,4.60004,4.12868,8.79265,8.64475,10.68143c4.04164,1.68868,7.86703,1.05241,10.0116-0.61794   c0.00251-0.00149,0.0056-0.00078,0.00811-0.00227c2.34785-1.42782,3.37452-2.02882,5.54109-3.33786   c4.11866,4.13097,8.33559,10.26402,10.89922,14.87517c0.54589,1.00538,1.81517,1.37866,2.82529,0.80913h0.00095l10.659-6.01889   c1.01314-0.57174,1.35285-1.86082,0.75666-2.85677c-3.22102-5.91413-11.1922-21.38339-17.13685-27.11171   c-4.96885-4.77586-10.10979-5.82796-15.39418-4.49705l-4.68556-0.83114c0.72202-1.4153,0.55376-3.76361,1.38951-5.35228   c1.33393-2.53618,5.04182-2.97652,7.85661-2.10585c2.38853,0.73993,4.49129,2.09937,7.03317,2.72272   c2.63446,0.64645,5.9874,0.18749,7.5322-2.29382C57.6767,13.21571,52.34064,4.7982,39.87587,7.24326   c-4.54195,0.89084-8.91268,2.78242-13.39651,3.09341c-6.01316,0.41082-10.12524-2.1235-10.41474-2.22607   c-2.02188-1.03241-4.53611-2.3191-6.69062-0.98041c-1.81578,1.12592-2.15546,3.4641-1.86826,5.27655   c0.26915,1.70102,1.00347,3.32773,1.1784,4.90203c0.47253,4.29373-2.8862,8.23613-3.89586,12.60026   c-0.63643,2.74514-0.20801,5.33046,1.17553,7.09328C7.60646,39.09682,10.93823,39.84641,13.00557,38.12011z M39.68027,45.60842   c-0.60501-0.4441-1.4133,0.21119-1.09825,0.8974c0.89501,1.94936,0.08302,4.57762-1.88925,6.11335   c-0.00179,0.00143-0.00244,0.00388-0.00423,0.00531c-0.00221,0.00173-0.00501,0.00197-0.00722,0.00376   c-1.66234,1.35316-4.96904,1.99052-8.61231,0.46992c-4.05807-1.69746-7.10473-5.45068-7.76311-9.56123   c-0.69058-4.31498,1.08238-8.46639,4.51625-10.61851c6.5074-1.45702,10.92099,2.41698,15.40485,7.33999   c6.15068,6.76641,11.30408,13.8647,15.71352,21.60795l-1.76884,1.00808C50.38653,56.60305,45.60537,49.94131,39.68027,45.60842z    M50.05302,31.24486c5.01352,4.83134,12.67968,18.74744,15.86345,24.93585l-8.7023,4.9597   c-4.46324-7.83717-9.67836-15.02032-15.90322-21.86814c-3.98058-4.37132-7.9388-8.07133-13.83733-8.10661   c1.7509-1.12496,3.56191-2.18743,5.47501-3.0061C39.37551,25.40141,44.91686,26.30876,50.05302,31.24486z M32.7523,26.66164   c-0.12732,0.05218-0.25315,0.09625-0.38095,0.15112c-2.94712,1.26064-5.60358,3.03801-8.17357,4.76135   c-0.00107-0.87241,0.00972-1.96982,0.06029-2.71753c0.07824-1.14595,0.54578-2.52997,1.62399-2.97796   c0.65802-0.27241,1.4399-0.17598,2.38464-0.01103c-0.65861,0.60286-1.39827,1.17285-1.95622,1.54963   c-0.33587,0.22614-0.4246,0.68128-0.19847,1.01714c0.22709,0.33491,0.68223,0.42508,1.01714,0.19799   c0.24146-0.16286,1.77308-1.21519,2.90502-2.45287L32.7523,26.66164z M6.21571,30.24012   c0.99081-4.27575,4.46054-8.24002,3.92449-13.09261c-0.19827-1.79945-0.92699-3.32642-1.18603-4.97026   c-0.20419-1.28574-0.01431-3.05334,1.19271-3.80188c1.5773-0.98153,3.87752,0.33758,5.64772,1.2428   c3.331,1.6841,7.06275,2.44171,10.78591,2.18027c4.72023-0.32623,9.0676-2.23204,13.5778-3.11726   c11.12085-2.18293,15.57572,4.88083,13.39841,8.37568c-1.15073,1.84822-3.88441,2.14974-5.93874,1.64498   c-2.27878-0.55774-4.57787-1.9644-6.9492-2.69886c-3.46267-1.07201-7.86615-0.44559-9.58747,2.82338   c-0.88631,1.68494-0.78385,3.53138-1.29767,5.14392c-0.05934,0.18666-0.18755,0.39759-0.34195,0.61604   c-1.39173-0.24669-2.83055-0.59669-4.12164-0.06119c-1.73815,0.72173-2.45047,2.59055-2.54584,4.63099   c-2.90693-0.94164-6.67458,0.23085-8.16564,2.74806c-1.02767,1.73752-1.22067,3.98809-2.5419,5.09096   c-1.40676,1.17704-3.80992,0.55537-4.95022-0.8974C6.00866,34.68559,5.68043,32.55064,6.21571,30.24012z"/><path d="M54.49371,23.00038L53.197,26.91151c-0.12691,0.38405,0.0811,0.79864,0.46468,0.92602   c0.38187,0.1265,0.79833-0.07888,0.92649-0.46516l1.29671-3.91113c0.1269-0.38405-0.0811-0.79864-0.46468-0.92602   C55.03186,22.40784,54.62062,22.61633,54.49371,23.00038z"/><path d="M57.17683,30.19957l4.41016-1.25855c0.3893-0.11116,0.61448-0.5162,0.5038-0.9055   c-0.11164-0.38787-0.50857-0.61496-0.90646-0.50379l-4.41016,1.25854c-0.3893,0.11116-0.61448,0.51668-0.5038,0.90598   C56.3808,30.07988,56.78063,30.31118,57.17683,30.19957z"/><path d="M57.90009,32.67993c-0.18797,0.35781-0.05057,0.80103,0.30724,0.98947l3.54473,1.86492   c0.3545,0.18658,0.79951,0.05453,0.99043-0.30724c0.18797-0.35781,0.05057-0.80102-0.30724-0.98947l-3.54473-1.86492   C58.5327,32.18472,58.08902,32.32212,57.90009,32.67993z"/></g><text x="0" y="88" fill="#000000" font-size="5px" font-weight="bold" font-family="'Helvetica Neue', Helvetica, Arial-Unicode, Arial, Sans-serif">Created by Vectors Market</text><text x="0" y="93" fill="#000000" font-size="5px" font-weight="bold" font-family="'Helvetica Neue', Helvetica, Arial-Unicode, Arial, Sans-serif">from the Noun Project</text></svg>