<svg xmlns="http://www.w3.org/2000/svg" version="1.1" viewBox="-5.0 -10.0 110.0 135.0">
 <g>
  <path d="m57.344 85.781c-23.438 0-42.656-19.062-42.656-42.656s19.219-42.5 42.656-42.5 42.656 19.062 42.656 42.656-19.062 42.5-42.656 42.5zm0-82.188c-21.875 0-39.531 17.812-39.531 39.531s17.812 39.531 39.531 39.531 39.531-17.812 39.531-39.531-17.656-39.531-39.531-39.531z"/>
  <path d="m40.938 57.031c-7.8125 0-15.938-0.625-23.125-1.25-0.78125-0.15625-1.4062-0.78125-1.4062-1.7188 0.15625-0.78125 0.78125-1.4062 1.7188-1.4062 9.6875 0.9375 20.938 1.7188 31.094 1.0938 7.8125-0.625 14.375-5.1562 17.656-12.344 3.2812-7.3438 2.5-15.469-2.3438-21.719l-12.5-16.406c-0.3125-0.3125-0.3125-0.625-0.3125-0.9375 0-0.78125 0.625-1.5625 1.5625-1.5625 0.46875 0 0.9375 0.15625 1.25 0.625l12.344 16.406c5.4688 7.3438 6.5625 16.562 2.6562 24.844-3.75 8.125-11.25 13.438-20.156 14.062-2.8125 0.3125-5.625 0.3125-8.4375 0.3125z"/>
  <path d="m94.062 63.281c-0.46875 0-1.0938-0.3125-1.25-0.78125-10.625-17.969-34.844-30.312-72.031-36.719-0.78125-0.15625-1.4062-0.9375-1.25-1.7188s0.9375-1.4062 1.7188-1.25c38.125 6.5625 62.969 19.375 74.062 38.125 0.46875 0.78125 0.15625 1.7188-0.46875 2.0312-0.3125 0.3125-0.625 0.3125-0.78125 0.3125z"/>
  <path d="m46.562 84.219c-0.46875 0-0.9375-0.15625-1.25-0.625-0.46875-0.625-0.3125-1.5625 0.3125-2.1875 27.656-20.625 39.375-43.438 36.094-70-0.15625-0.78125 0.46875-1.5625 1.25-1.7188s1.5625 0.46875 1.7188 1.25c3.4375 27.656-8.75 51.562-37.344 72.969-0.15625 0.3125-0.46875 0.3125-0.78125 0.3125z"/>
  <path d="m78.906 79.688c-0.78125 0-1.4062-0.625-1.5625-1.4062-1.5625-17.656 4.8438-31.875 19.531-43.125 0.625-0.46875 1.5625-0.3125 2.1875 0.3125 0.46875 0.625 0.3125 1.5625-0.3125 2.1875-13.75 10.625-19.844 23.906-18.281 40.469 0.15625 0.625-0.46875 1.4062-1.5625 1.5625 0.15625-0.15625 0.15625 0 0 0z"/>
  <path d="m1.5625 74.688c-0.3125 0-0.625-0.15625-0.9375-0.3125-0.625-0.46875-0.78125-1.5625-0.15625-2.1875l10.469-12.5c0.46875-0.625 1.5625-0.78125 2.1875-0.15625 0.625 0.46875 0.78125 1.5625 0.15625 2.1875l-10.625 12.344c-0.3125 0.46875-0.78125 0.625-1.0938 0.625z"/>
  <path d="m6.875 98.281c-0.3125 0-0.78125-0.15625-0.9375-0.3125-0.625-0.625-0.625-1.5625-0.15625-2.1875l14.062-15.781c0.625-0.625 1.5625-0.625 2.1875-0.15625 0.625 0.625 0.625 1.5625 0.15625 2.1875l-14.062 15.781c-0.46875 0.3125-0.9375 0.46875-1.25 0.46875z"/>
  <path d="m30.156 99.375c-0.46875 0-0.78125-0.15625-1.0938-0.46875-0.625-0.625-0.46875-1.5625 0.15625-2.1875l9.8438-9.0625c0.625-0.625 1.5625-0.46875 2.1875 0.15625s0.46875 1.5625-0.15625 2.1875l-9.8438 9.0625c-0.46875 0.3125-0.78125 0.3125-1.0938 0.3125z"/>
 </g>
<text x="0.0" y="117.5" font-size="5.0" font-weight="bold" font-family="Arbeit Regular, Helvetica, Arial-Unicode, Arial, Sans-serif" fill="#000000">Created by Haider Ali</text><text x="0.0" y="122.5" font-size="5.0" font-weight="bold" font-family="Arbeit Regular, Helvetica, Arial-Unicode, Arial, Sans-serif" fill="#000000">from Noun Project</text></svg>