<svg xmlns="http://www.w3.org/2000/svg" data-name="Слой 1" viewBox="0 0 100 125" x="0px" y="0px"><title>диалог</title><path d="M93.4516,44.11987A19.64257,19.64257,0,0,0,77.23413,30.11206c-5.34131-.5744-10.7077-0.99908-16.0741-1.235-6.08728-.26764-12.095,1.65332-18.26819.6264-2.11383-.35162-4.40051.33594-6.60828,0.54871l-0.07214-.463c-1.83154.25311-3.6665,0.433-5.54633,0.52856-5.66534.9682-11.33545,1.91553-16.93848,3.16364-3.983.88733-7.611,6.03088-7.47278,9.77454,0.12616,3.4176,1.29761,6.52368,4.18762,8.60034,3.71686,2.6709,4.90045,4.32428,2.07678,10.43689-0.97906,2.11938-2.04315,4.21106-2.82953,6.40118-0.26929.75012,0.19031,1.762,0.31689,2.65436a22.47056,22.47056,0,0,0,2.39313-1.01569,5.52793,5.52793,0,0,0,.75677-1.01489c3.944-3.93475,7.00977-8.58325,14.05719-8.13385,5.41827,0.34552,11.12158-1.1062,16.42157-2.68646a26.00971,26.00971,0,0,1,7.98132-1.16467c4.16656,0.05225,8.15735-.0011,10.618,4.53357C63.67987,64.33191,66.00507,66.54,68.067,68.835a2.52854,2.52854,0,0,0,2.167.56311,2.06181,2.06181,0,0,0,.7713-1.8526c-1.21979-4.013,1.55432-7.1153,2.41-10.62939,0.179-.73517,1.89923-1.43347,2.97418-1.55,3.58771-.38879,7.2666-0.16669,10.79578-0.80939A8.23973,8.23973,0,0,0,93.4516,44.11987ZM42.10718,56.3255c-8.293.96912-16.586,1.93823-25.438,2.9726a20.08606,20.08606,0,0,1,.67151-4.548c0.84039-2.32935.207-4.57062-2.22015-4.832-3.78931-.4082-4.84595-2.90973-5.58423-5.96576-0.72949-3.01941.80383-5.18579,3.12531-6.39264a33.44186,33.44186,0,0,1,9.64722-3.61438c6.22479-1.03369,12.56573-1.368,18.85834-1.99329l0.21216,0.915a43.175,43.175,0,0,0-4.39575,2.87488c-3.7381,3.12-3.34137,11.04675.58173,14.75244,1.60248,1.51367,3.06689,3.1734,4.59412,4.76666Zm43.02765-3.95941a80.09627,80.09627,0,0,1-10.50714.2403c-2.66809-.11548-4.08032.222-4.19141,3.47278-0.09045,2.64642-1.35,5.25287-2.09119,7.87708q-0.47662.25232-.95319,0.50464c-1.83014-2.27667-3.51477-4.69562-5.54706-6.7746a8.87469,8.87469,0,0,0-4.34406-2.55573c-3.73468-.692-7.63147-0.56165-11.33411-1.36-5.02386-1.08331-9.80505-7.09064-9.56427-12.084,0.07611-1.57983,1.54315-3.51855,2.92957-4.5343a31.3251,31.3251,0,0,1,18.85156-5.769c8.03821,0.00037,16.18005-.06232,23.7887,3.43707,4.17273,1.91907,7.30121,4.67126,8.64435,9.17761A6.28981,6.28981,0,0,1,85.13483,52.36609Z"/><text x="0" y="115" fill="#000000" font-size="5px" font-weight="bold" font-family="'Helvetica Neue', Helvetica, Arial-Unicode, Arial, Sans-serif">Created by Tatyana</text><text x="0" y="120" fill="#000000" font-size="5px" font-weight="bold" font-family="'Helvetica Neue', Helvetica, Arial-Unicode, Arial, Sans-serif">from the Noun Project</text></svg>