<svg xmlns:dc="http://purl.org/dc/elements/1.1/" xmlns:cc="http://creativecommons.org/ns#" xmlns:rdf="http://www.w3.org/1999/02/22-rdf-syntax-ns#" xmlns:svg="http://www.w3.org/2000/svg" xmlns="http://www.w3.org/2000/svg" xmlns:sodipodi="http://sodipodi.sourceforge.net/DTD/sodipodi-0.dtd" xmlns:inkscape="http://www.inkscape.org/namespaces/inkscape" viewBox="0 0 32 40" version="1.1" x="0px" y="0px"><g transform="translate(0,-1020.3622)"><path style="color:#000000;font-style:normal;font-variant:normal;font-weight:normal;font-stretch:normal;font-size:medium;line-height:normal;font-family:sans-serif;text-indent:0;text-align:start;text-decoration:none;text-decoration-line:none;text-decoration-style:solid;text-decoration-color:#000000;letter-spacing:normal;word-spacing:normal;text-transform:none;direction:ltr;block-progression:tb;writing-mode:lr-tb;baseline-shift:baseline;text-anchor:start;white-space:normal;clip-rule:nonzero;display:inline;overflow:visible;visibility:visible;opacity:1;isolation:auto;mix-blend-mode:normal;color-interpolation:sRGB;color-interpolation-filters:linearRGB;solid-color:#000000;solid-opacity:1;fill:#000000;fill-opacity:1;fill-rule:evenodd;stroke:none;stroke-width:0.99999994px;stroke-linecap:round;stroke-linejoin:round;stroke-miterlimit:4;stroke-dasharray:none;stroke-dashoffset:0;stroke-opacity:1;color-rendering:auto;image-rendering:auto;shape-rendering:auto;text-rendering:auto;enable-background:accumulate" d="m 19.25,1021.9062 c -1.689691,-0.05 -3.4678,0.014 -5.140625,0.5606 -1.593939,0.5206 -3.055398,1.4228 -4.3105469,2.4883 -1.0896343,0.9245 -2.0465432,2.0541 -2.7285156,3.3242 l 0.00195,0 c -0.4241133,0.7895 -0.769828,1.9432 -1.03125,2.9277 -0.2602787,0.9802 -0.4243415,1.7762 -0.4257812,1.7832 -6.3e-6,10e-5 -0.00195,0.01 -0.00195,0.01 a 0.50004997,0.50004997 0 0 0 -0.00977,0.1 l 0,0 a 0.50004997,0.50004997 0 0 0 0.5761719,0.4922 0.50004997,0.50004997 0 0 0 0.037109,-0.01 c 0.048549,-0.01 1.5389073,-0.2369 2.2910156,-0.332 1.3266262,-0.1678 2.6358585,-0.3573 3.9335935,-0.4238 1.680498,-0.085 3.31387,-0.4801 4.634766,-0 0.392006,0.1413 0.767172,0.5768 1.222656,1.0371 0.497312,0.5027 0.969246,0.9894 1.234375,1.5234 0.323428,0.6521 0.524696,1.3887 0.527344,2.0899 0.0011,0.3475 -0.149771,1.024 -0.310547,1.5703 -0.109112,0.3707 -0.159887,0.4977 -0.21875,0.664 -0.158921,0 -0.220575,-0 -0.490234,0.012 -0.475945,0.029 -1.027288,0.075 -1.486328,0.2617 -0.658822,0.2683 -1.298171,0.7114 -1.71875,1.3437 -0.470749,0.7093 -0.733383,1.5943 -0.66211,2.4649 0.07027,0.8361 0.411671,1.7108 1.074219,2.3105 0.679818,0.6148 1.618975,0.9131 2.511719,0.8731 0.767757,-0.034 1.440957,-0.4195 1.958984,-0.8633 0.319366,-0.2735 0.538772,-0.6459 0.724609,-0.9707 0.06386,-0.1116 0.05982,-0.116 0.107422,-0.2071 0.197424,0.068 0.304247,0.1103 0.6875,0.2247 0.615298,0.1836 1.343205,0.3803 1.939453,0.4121 a 0.50004997,0.50004997 0 0 0 0.002,0 c 1.149955,0.061 2.534367,0.1379 3.683593,-0.5703 1.137367,-0.7008 1.594769,-1.9728 2.087891,-2.918 0.860622,-1.6503 1.709173,-3.4344 1.957031,-5.3711 0.23358,-1.8129 0.0033,-3.6826 -0.513672,-5.4082 -0.511432,-1.7083 -1.389727,-3.3189 -2.488281,-4.709 -1.159015,-1.4663 -2.546575,-2.9329 -4.320312,-3.7754 -1.693133,-0.8041 -3.597011,-0.862 -5.335938,-0.9141 z m -0.03125,1 c 1.732947,0.052 3.495137,0.1334 4.9375,0.8184 1.546955,0.7348 2.847071,2.0781 3.964844,3.4922 1.026295,1.2987 1.845919,2.8035 2.316406,4.375 0.48314,1.6128 0.690164,3.3514 0.478516,4.9941 -0.220804,1.7253 -1.003839,3.4097 -1.851563,5.0352 -0.531886,1.0195 -0.972214,2.0676 -1.724609,2.5312 -0.797232,0.4914 -1.97152,0.4821 -3.107422,0.4219 -0.400035,-0.021 -1.121573,-0.1983 -1.707031,-0.373 -0.585459,-0.1748 -1.048829,-0.3418 -1.048829,-0.3418 a 0.50004997,0.50004997 0 0 0 -0.623046,0.2578 c 0,0 -0.115528,0.243 -0.279297,0.5293 -0.163769,0.2862 -0.401162,0.6173 -0.50586,0.707 -0.400396,0.343 -0.911069,0.6032 -1.353515,0.6231 -0.625115,0.028 -1.35115,-0.2103 -1.796875,-0.6133 -0.416476,-0.377 -0.696218,-1.0408 -0.748047,-1.6524 l 0,-0 c -0.04912,-0.6062 0.149741,-1.3033 0.498047,-1.8281 0.274855,-0.4133 0.756888,-0.7624 1.263672,-0.9688 0.209936,-0.085 0.736134,-0.1648 1.169921,-0.1914 0.433788,-0.027 0.78711,-0.02 0.78711,-0.02 a 0.50004997,0.50004997 0 0 0 0.476562,-0.3262 c 0,0 0.172306,-0.4624 0.34375,-1.0449 0.171445,-0.5825 0.353462,-1.2684 0.351563,-1.8555 a 0.50004997,0.50004997 0 0 0 0,-0 c -0.0034,-0.8871 -0.249968,-1.7602 -0.632813,-2.5313 -0.362273,-0.7296 -0.92202,-1.2799 -1.417968,-1.7812 -0.398691,-0.4029 -0.84207,-1.0044 -1.59375,-1.2754 -1.70726,-0.6155 -3.490267,-0.1324 -5.025391,-0.055 -1.360912,0.07 -2.6932004,0.2653 -4.0078125,0.4316 -0.551342,0.07 -1.1083818,0.1564 -1.6210937,0.2344 0.07073,-0.3171 0.095345,-0.4635 0.2460937,-1.0313 0.2535386,-0.9548 0.6127645,-2.0938 0.9453125,-2.7128 0.6144056,-1.1443 1.4894762,-2.1825 2.492187,-3.0332 1.175087,-0.9976 2.534345,-1.8304 3.97461,-2.3008 1.494419,-0.4884 3.157245,-0.5607 4.798828,-0.5118 z"/><path style="color:#000000;font-style:normal;font-variant:normal;font-weight:normal;font-stretch:normal;font-size:medium;line-height:normal;font-family:sans-serif;text-indent:0;text-align:start;text-decoration:none;text-decoration-line:none;text-decoration-style:solid;text-decoration-color:#000000;letter-spacing:normal;word-spacing:normal;text-transform:none;direction:ltr;block-progression:tb;writing-mode:lr-tb;baseline-shift:baseline;text-anchor:start;white-space:normal;clip-rule:nonzero;display:inline;overflow:visible;visibility:visible;opacity:1;isolation:auto;mix-blend-mode:normal;color-interpolation:sRGB;color-interpolation-filters:linearRGB;solid-color:#000000;solid-opacity:1;fill:#000000;fill-opacity:1;fill-rule:evenodd;stroke:none;stroke-width:0.99999994px;stroke-linecap:round;stroke-linejoin:round;stroke-miterlimit:4;stroke-dasharray:none;stroke-dashoffset:0;stroke-opacity:1;color-rendering:auto;image-rendering:auto;shape-rendering:auto;text-rendering:auto;enable-background:accumulate" d="m 15.023438,1031.77 c -0.218775,0 -0.41026,0.1477 -0.472657,0.3574 l -3.449219,11.1285 c -0.315585,0.019 -0.509584,0.02 -0.767578,0.039 -2.6636699,0.1951 -7.9257809,0.7598 -7.9257809,0.7598 -0.1933882,0.021 -0.3571861,0.1518 -0.4199219,0.3359 l -1.96093745,5.7813 c -0.11684174,0.3473 0.16722344,0.6982 0.53125,0.6562 l 9.25585935,-1.0801 c 0.1956369,-0.023 0.3592949,-0.1595 0.4179689,-0.3476 l 1.617187,-5.1816 c 1.648544,-0.087 3.738282,-0.1895 3.738282,-0.1895 0.700696,0.01 0.658912,-1.0603 -0.03906,-0.9981 0,0 -1.880624,0.097 -3.382812,0.1719 l 3.339843,-10.7769 c 0.107325,-0.3264 -0.138885,-0.6613 -0.482424,-0.6562 z m -4.238282,12.5015 -1.410156,4.5215 -8.1484375,0.9511 1.6054687,-4.7265 c 0.3937718,-0.042 5.0606527,-0.5425 7.5742188,-0.7266 0.124888,-0.01 0.23718,-0.01 0.378906,-0.019 z"/><path style="color:#000000;font-style:normal;font-variant:normal;font-weight:normal;font-stretch:normal;font-size:medium;line-height:normal;font-family:sans-serif;text-indent:0;text-align:start;text-decoration:none;text-decoration-line:none;text-decoration-style:solid;text-decoration-color:#000000;letter-spacing:normal;word-spacing:normal;text-transform:none;direction:ltr;block-progression:tb;writing-mode:lr-tb;baseline-shift:baseline;text-anchor:start;white-space:normal;clip-rule:nonzero;display:inline;overflow:visible;visibility:visible;opacity:1;isolation:auto;mix-blend-mode:normal;color-interpolation:sRGB;color-interpolation-filters:linearRGB;solid-color:#000000;solid-opacity:1;fill:#000000;fill-opacity:1;fill-rule:evenodd;stroke:none;stroke-width:0.99999994px;stroke-linecap:round;stroke-linejoin:round;stroke-miterlimit:4;stroke-dasharray:none;stroke-dashoffset:0;stroke-opacity:1;color-rendering:auto;image-rendering:auto;shape-rendering:auto;text-rendering:auto;enable-background:accumulate" d="m 6.9199219,1043.6797 c -0.2184822,-0 -0.4130371,0.1378 -0.4804688,0.3457 l -1.9023437,5.5918 c -0.2148666,0.6315 0.732399,0.9538 0.9472656,0.3223 l 1.9023438,-5.5918 c 0.1155263,-0.324 -0.1228802,-0.6651 -0.4667969,-0.668 z"/><path style="color:#000000;font-style:normal;font-variant:normal;font-weight:normal;font-stretch:normal;font-size:medium;line-height:normal;font-family:sans-serif;text-indent:0;text-align:start;text-decoration:none;text-decoration-line:none;text-decoration-style:solid;text-decoration-color:#000000;letter-spacing:normal;word-spacing:normal;text-transform:none;direction:ltr;block-progression:tb;writing-mode:lr-tb;baseline-shift:baseline;text-anchor:start;white-space:normal;clip-rule:nonzero;display:inline;overflow:visible;visibility:visible;opacity:1;isolation:auto;mix-blend-mode:normal;color-interpolation:sRGB;color-interpolation-filters:linearRGB;solid-color:#000000;solid-opacity:1;fill:#000000;fill-opacity:1;fill-rule:evenodd;stroke:none;stroke-width:0.99999994px;stroke-linecap:round;stroke-linejoin:round;stroke-miterlimit:4;stroke-dasharray:none;stroke-dashoffset:0;stroke-opacity:1;color-rendering:auto;image-rendering:auto;shape-rendering:auto;text-rendering:auto;enable-background:accumulate" d="m 10.515625,1046.2109 a 0.50004997,0.50004997 0 0 0 -0.03516,0 l -8.7382815,0.6426 a 0.50037796,0.50037796 0 0 0 0.074219,0.998 l 8.7382818,-0.6426 a 0.50038133,0.50038133 0 0 0 -0.03906,-1 z"/><path style="color:#000000;font-style:normal;font-variant:normal;font-weight:normal;font-stretch:normal;font-size:medium;line-height:normal;font-family:sans-serif;text-indent:0;text-align:start;text-decoration:none;text-decoration-line:none;text-decoration-style:solid;text-decoration-color:#000000;letter-spacing:normal;word-spacing:normal;text-transform:none;direction:ltr;block-progression:tb;writing-mode:lr-tb;baseline-shift:baseline;text-anchor:start;white-space:normal;clip-rule:nonzero;display:inline;overflow:visible;visibility:visible;opacity:1;isolation:auto;mix-blend-mode:normal;color-interpolation:sRGB;color-interpolation-filters:linearRGB;solid-color:#000000;solid-opacity:1;fill:#000000;fill-opacity:1;fill-rule:evenodd;stroke:none;stroke-width:0.99999994px;stroke-linecap:round;stroke-linejoin:round;stroke-miterlimit:4;stroke-dasharray:none;stroke-dashoffset:0;stroke-opacity:1;color-rendering:auto;image-rendering:auto;shape-rendering:auto;text-rendering:auto;enable-background:accumulate" d="m 29.652344,1034.6152 a 0.50004997,0.50004997 0 0 0 -0.507813,0.4903 c 0,0 -0.04306,1.2099 -0.113281,1.7304 -0.09341,0.6247 -0.197834,1.2254 -0.408203,1.7481 -0.204489,0.5017 -0.52499,0.9851 -0.876953,1.4687 -0.319918,0.4391 -1.214844,1.3789 -1.214844,1.3789 a 0.50004997,0.50004997 0 1 0 0.71875,0.6934 c 0,0 0.87626,-0.8945 1.304688,-1.4824 0.367107,-0.5044 0.739434,-1.0527 0.996093,-1.6836 a 0.50004997,0.50004997 0 0 0 0,-0 c 0.26642,-0.6619 0.37546,-1.3427 0.470703,-1.9804 a 0.50004997,0.50004997 0 0 0 0,-0.01 c 0.08853,-0.6563 0.123047,-1.8301 0.123047,-1.8301 a 0.50004997,0.50004997 0 0 0 -0.492187,-0.5235 z"/><path style="color:#000000;font-style:normal;font-variant:normal;font-weight:normal;font-stretch:normal;font-size:medium;line-height:normal;font-family:sans-serif;text-indent:0;text-align:start;text-decoration:none;text-decoration-line:none;text-decoration-style:solid;text-decoration-color:#000000;letter-spacing:normal;word-spacing:normal;text-transform:none;direction:ltr;block-progression:tb;writing-mode:lr-tb;baseline-shift:baseline;text-anchor:start;white-space:normal;clip-rule:nonzero;display:inline;overflow:visible;visibility:visible;opacity:1;isolation:auto;mix-blend-mode:normal;color-interpolation:sRGB;color-interpolation-filters:linearRGB;solid-color:#000000;solid-opacity:1;fill:#000000;fill-opacity:1;fill-rule:evenodd;stroke:none;stroke-width:0.99999994px;stroke-linecap:round;stroke-linejoin:round;stroke-miterlimit:4;stroke-dasharray:none;stroke-dashoffset:0;stroke-opacity:1;color-rendering:auto;image-rendering:auto;shape-rendering:auto;text-rendering:auto;enable-background:accumulate" d="m 18.900391,1041.5762 c -0.335136,-0.053 -0.751217,-0.067 -1.146485,0.1621 -0.425267,0.245 -0.652741,0.6462 -0.779297,1.0195 -0.108631,0.3176 -0.176626,0.7335 0.02734,1.1484 0.184705,0.3878 0.501962,0.5092 0.628906,0.5918 0.0804,0.053 0.267143,0.1417 0.41211,0.1797 0.19436,0.051 0.424108,0.043 0.599673,0.061 0.24965,0 0.506066,-0.043 0.703125,-0.1445 0.296568,-0.1526 0.613146,-0.3779 0.808594,-0.75 0.174757,-0.331 0.222447,-0.7063 0.134765,-1.0704 -0.08287,-0.3474 -0.291133,-0.6045 -0.519531,-0.7949 -0.246446,-0.21 -0.544709,-0.3511 -0.86914,-0.4023 z m -0.15625,0.9883 c 0.129146,0.02 0.278276,0.09 0.378906,0.1757 l 0.0059,0 c 0.103438,0.086 0.172345,0.1982 0.1875,0.2618 0.0257,0.1067 0.0051,0.2707 -0.04687,0.3692 -0.05186,0.099 -0.20195,0.2341 -0.380859,0.3262 -0.157885,0.081 -0.335297,0.1176 -0.445313,0.1054 -0.0079,0 -0.128656,0.018 -0.285156,-0.086 l -0.002,0 c -0.08902,-0.049 -0.218488,-0.1435 -0.261706,-0.2582 -0.04511,-0.1197 -0.02959,-0.2163 0.02734,-0.3828 0.07234,-0.2138 0.213561,-0.4083 0.332031,-0.4766 l 0.002,0 c 0.169701,-0.081 0.333451,-0.066 0.488227,-0.035 z"/><path style="color:#000000;font-style:normal;font-variant:normal;font-weight:normal;font-stretch:normal;font-size:medium;line-height:normal;font-family:sans-serif;text-indent:0;text-align:start;text-decoration:none;text-decoration-line:none;text-decoration-style:solid;text-decoration-color:#000000;letter-spacing:normal;word-spacing:normal;text-transform:none;direction:ltr;block-progression:tb;writing-mode:lr-tb;baseline-shift:baseline;text-anchor:start;white-space:normal;clip-rule:nonzero;display:inline;overflow:visible;visibility:visible;opacity:1;isolation:auto;mix-blend-mode:normal;color-interpolation:sRGB;color-interpolation-filters:linearRGB;solid-color:#000000;solid-opacity:1;fill:#000000;fill-opacity:1;fill-rule:evenodd;stroke:none;stroke-width:0.99999994px;stroke-linecap:round;stroke-linejoin:round;stroke-miterlimit:4;stroke-dasharray:none;stroke-dashoffset:0;stroke-opacity:1;color-rendering:auto;image-rendering:auto;shape-rendering:auto;text-rendering:auto;enable-background:accumulate" d="m 24.652344,1026.2246 0.04883,0 c -0.741326,-0.076 -1.46995,0.1298 -2.083984,0.4473 -0.643569,0.3328 -1.296888,0.8235 -1.669922,1.541 -0.33615,0.6446 -0.433376,1.4125 -0.267578,2.1191 a 0.50004997,0.50004997 0 0 0 0,0 c 0.155353,0.652 0.571996,1.178 1.02539,1.5683 0.498744,0.4294 1.123116,0.7245 1.779297,0.8282 0.727273,0.1152 1.591219,0.1237 2.330078,-0.3086 0.810501,-0.4741 1.31874,-1.3086 1.582031,-2.125 0.197057,-0.6152 0.132038,-1.2443 0.01172,-1.7852 a 0.50004997,0.50004997 0 0 0 -0.002,-0.014 c -0.119109,-0.4793 -0.327702,-1.0089 -0.757812,-1.4102 -0.528235,-0.4944 -1.225845,-0.7911 -1.931641,-0.8633 a 0.50004997,0.50004997 0 0 0 -0.04883,-0 l -0.01563,0 z m -0.05273,0.9981 a 0.50004997,0.50004997 0 0 0 0.01758,0 c 0.485755,0.05 1.00248,0.2765 1.347656,0.5996 a 0.50004997,0.50004997 0 0 0 0.002,0 c 0.213832,0.1989 0.374249,0.5481 0.466797,0.9179 0.09738,0.4421 0.123886,0.9057 0.01172,1.2559 -0.205552,0.6363 -0.625117,1.2683 -1.134765,1.5664 -0.419945,0.2457 -1.070581,0.2786 -1.669922,0.1836 -0.457267,-0.072 -0.929287,-0.293 -1.283203,-0.5977 -0.337605,-0.2906 -0.616204,-0.6782 -0.703125,-1.041 l 0,-0 c -0.105711,-0.4529 -0.03569,-1.0128 0.179687,-1.4258 0.231919,-0.4473 0.717152,-0.8457 1.242188,-1.1172 0.478247,-0.2473 1.040197,-0.3896 1.523437,-0.3398 z"/><path style="color:#000000;font-style:normal;font-variant:normal;font-weight:normal;font-stretch:normal;font-size:medium;line-height:normal;font-family:sans-serif;text-indent:0;text-align:start;text-decoration:none;text-decoration-line:none;text-decoration-style:solid;text-decoration-color:#000000;letter-spacing:normal;word-spacing:normal;text-transform:none;direction:ltr;block-progression:tb;writing-mode:lr-tb;baseline-shift:baseline;text-anchor:start;white-space:normal;clip-rule:nonzero;display:inline;overflow:visible;visibility:visible;opacity:1;isolation:auto;mix-blend-mode:normal;color-interpolation:sRGB;color-interpolation-filters:linearRGB;solid-color:#000000;solid-opacity:1;fill:#000000;fill-opacity:1;fill-rule:evenodd;stroke:none;stroke-width:0.24999999;stroke-linecap:round;stroke-linejoin:round;stroke-miterlimit:4;stroke-dasharray:none;stroke-dashoffset:0;stroke-opacity:1;color-rendering:auto;image-rendering:auto;shape-rendering:auto;text-rendering:auto;enable-background:accumulate" d="m 23.248047,1027.8906 a 0.12501249,0.12501249 0 0 0 -0.07227,0.037 l -1.595703,1.6114 a 0.12501249,0.12501249 0 1 0 0.177734,0.1757 l 1.595704,-1.6113 a 0.12501249,0.12501249 0 0 0 -0.105469,-0.2129 z"/><path style="color:#000000;font-style:normal;font-variant:normal;font-weight:normal;font-stretch:normal;font-size:medium;line-height:normal;font-family:sans-serif;text-indent:0;text-align:start;text-decoration:none;text-decoration-line:none;text-decoration-style:solid;text-decoration-color:#000000;letter-spacing:normal;word-spacing:normal;text-transform:none;direction:ltr;block-progression:tb;writing-mode:lr-tb;baseline-shift:baseline;text-anchor:start;white-space:normal;clip-rule:nonzero;display:inline;overflow:visible;visibility:visible;opacity:1;isolation:auto;mix-blend-mode:normal;color-interpolation:sRGB;color-interpolation-filters:linearRGB;solid-color:#000000;solid-opacity:1;fill:#000000;fill-opacity:1;fill-rule:evenodd;stroke:none;stroke-width:0.24999999;stroke-linecap:round;stroke-linejoin:round;stroke-miterlimit:4;stroke-dasharray:none;stroke-dashoffset:0;stroke-opacity:1;color-rendering:auto;image-rendering:auto;shape-rendering:auto;text-rendering:auto;enable-background:accumulate" d="m 23.310547,1028.7148 a 0.12501249,0.12501249 0 0 0 -0.08594,0.041 l -1.376953,1.455 a 0.12504306,0.12504306 0 1 0 0.181641,0.1719 l 1.376953,-1.4551 a 0.12501249,0.12501249 0 0 0 -0.0957,-0.2129 z"/><path style="color:#000000;font-style:normal;font-variant:normal;font-weight:normal;font-stretch:normal;font-size:medium;line-height:normal;font-family:sans-serif;text-indent:0;text-align:start;text-decoration:none;text-decoration-line:none;text-decoration-style:solid;text-decoration-color:#000000;letter-spacing:normal;word-spacing:normal;text-transform:none;direction:ltr;block-progression:tb;writing-mode:lr-tb;baseline-shift:baseline;text-anchor:start;white-space:normal;clip-rule:nonzero;display:inline;overflow:visible;visibility:visible;opacity:1;isolation:auto;mix-blend-mode:normal;color-interpolation:sRGB;color-interpolation-filters:linearRGB;solid-color:#000000;solid-opacity:1;fill:#000000;fill-opacity:1;fill-rule:evenodd;stroke:none;stroke-width:0.24999999;stroke-linecap:round;stroke-linejoin:round;stroke-miterlimit:4;stroke-dasharray:none;stroke-dashoffset:0;stroke-opacity:1;color-rendering:auto;image-rendering:auto;shape-rendering:auto;text-rendering:auto;enable-background:accumulate" d="m 23.658203,1029.3047 a 0.12501249,0.12501249 0 0 0 -0.07227,0.039 l -1.427735,1.5292 a 0.12501249,0.12501249 0 1 0 0.181641,0.17 l 1.429687,-1.5274 a 0.12501249,0.12501249 0 0 0 -0.111328,-0.2109 z"/><path style="color:#000000;font-style:normal;font-variant:normal;font-weight:normal;font-stretch:normal;font-size:medium;line-height:normal;font-family:sans-serif;text-indent:0;text-align:start;text-decoration:none;text-decoration-line:none;text-decoration-style:solid;text-decoration-color:#000000;letter-spacing:normal;word-spacing:normal;text-transform:none;direction:ltr;block-progression:tb;writing-mode:lr-tb;baseline-shift:baseline;text-anchor:start;white-space:normal;clip-rule:nonzero;display:inline;overflow:visible;visibility:visible;opacity:1;isolation:auto;mix-blend-mode:normal;color-interpolation:sRGB;color-interpolation-filters:linearRGB;solid-color:#000000;solid-opacity:1;fill:#000000;fill-opacity:1;fill-rule:evenodd;stroke:none;stroke-width:0.24999999;stroke-linecap:round;stroke-linejoin:round;stroke-miterlimit:4;stroke-dasharray:none;stroke-dashoffset:0;stroke-opacity:1;color-rendering:auto;image-rendering:auto;shape-rendering:auto;text-rendering:auto;enable-background:accumulate" d="m 24.050781,1029.9023 a 0.12501249,0.12501249 0 0 0 -0.08398,0.045 l -1.304688,1.4863 a 0.12532084,0.12532084 0 1 0 0.189453,0.1641 l 1.304688,-1.4864 a 0.12501249,0.12501249 0 0 0 -0.105469,-0.209 z"/><path style="color:#000000;font-style:normal;font-variant:normal;font-weight:normal;font-stretch:normal;font-size:medium;line-height:normal;font-family:sans-serif;text-indent:0;text-align:start;text-decoration:none;text-decoration-line:none;text-decoration-style:solid;text-decoration-color:#000000;letter-spacing:normal;word-spacing:normal;text-transform:none;direction:ltr;block-progression:tb;writing-mode:lr-tb;baseline-shift:baseline;text-anchor:start;white-space:normal;clip-rule:nonzero;display:inline;overflow:visible;visibility:visible;opacity:1;isolation:auto;mix-blend-mode:normal;color-interpolation:sRGB;color-interpolation-filters:linearRGB;solid-color:#000000;solid-opacity:1;fill:#000000;fill-opacity:1;fill-rule:evenodd;stroke:none;stroke-width:0.24999999;stroke-linecap:round;stroke-linejoin:round;stroke-miterlimit:4;stroke-dasharray:none;stroke-dashoffset:0;stroke-opacity:1;color-rendering:auto;image-rendering:auto;shape-rendering:auto;text-rendering:auto;enable-background:accumulate" d="m 24.537109,1030.5312 a 0.12501249,0.12501249 0 0 0 -0.0957,0.047 l -1.085937,1.2891 a 0.12541199,0.12541199 0 1 0 0.191406,0.1621 l 1.085937,-1.291 a 0.12501249,0.12501249 0 0 0 -0.0957,-0.2071 z"/><path style="color:#000000;font-style:normal;font-variant:normal;font-weight:normal;font-stretch:normal;font-size:medium;line-height:normal;font-family:sans-serif;text-indent:0;text-align:start;text-decoration:none;text-decoration-line:none;text-decoration-style:solid;text-decoration-color:#000000;letter-spacing:normal;word-spacing:normal;text-transform:none;direction:ltr;block-progression:tb;writing-mode:lr-tb;baseline-shift:baseline;text-anchor:start;white-space:normal;clip-rule:nonzero;display:inline;overflow:visible;visibility:visible;opacity:1;isolation:auto;mix-blend-mode:normal;color-interpolation:sRGB;color-interpolation-filters:linearRGB;solid-color:#000000;solid-opacity:1;fill:#000000;fill-opacity:1;fill-rule:evenodd;stroke:none;stroke-width:0.24999999;stroke-linecap:round;stroke-linejoin:round;stroke-miterlimit:4;stroke-dasharray:none;stroke-dashoffset:0;stroke-opacity:1;color-rendering:auto;image-rendering:auto;shape-rendering:auto;text-rendering:auto;enable-background:accumulate" d="m 24.966797,1031.0898 a 0.12501249,0.12501249 0 0 0 -0.09375,0.049 l -0.765625,0.9922 a 0.12501249,0.12501249 0 1 0 0.197266,0.1523 l 0.767578,-0.9902 a 0.12501249,0.12501249 0 0 0 -0.105469,-0.2032 z"/><path style="color:#000000;font-style:normal;font-variant:normal;font-weight:normal;font-stretch:normal;font-size:medium;line-height:normal;font-family:sans-serif;text-indent:0;text-align:start;text-decoration:none;text-decoration-line:none;text-decoration-style:solid;text-decoration-color:#000000;letter-spacing:normal;word-spacing:normal;text-transform:none;direction:ltr;block-progression:tb;writing-mode:lr-tb;baseline-shift:baseline;text-anchor:start;white-space:normal;clip-rule:nonzero;display:inline;overflow:visible;visibility:visible;opacity:1;isolation:auto;mix-blend-mode:normal;color-interpolation:sRGB;color-interpolation-filters:linearRGB;solid-color:#000000;solid-opacity:1;fill:#000000;fill-opacity:1;fill-rule:evenodd;stroke:none;stroke-width:0.99999994px;stroke-linecap:round;stroke-linejoin:round;stroke-miterlimit:4;stroke-dasharray:none;stroke-dashoffset:0;stroke-opacity:1;color-rendering:auto;image-rendering:auto;shape-rendering:auto;text-rendering:auto;enable-background:accumulate" d="m 14.044922,1026.8594 a 0.50004997,0.50004997 0 0 0 -0.03711,0 l -5.820312,0.3301 a 0.50004997,0.50004997 0 1 0 0.056641,0.9981 l 4.9746094,-0.2813 -0.875,1.8223 -5.5078125,0.3711 a 0.50016922,0.50016922 0 1 0 0.068359,0.998 l 5.7988281,-0.3926 a 0.50004997,0.50004997 0 0 0 0.416016,-0.2812 l 1.367187,-2.8496 a 0.50004997,0.50004997 0 0 0 -0.441406,-0.7168 z"/></g><text x="0" y="47" fill="#000000" font-size="5px" font-weight="bold" font-family="'Helvetica Neue', Helvetica, Arial-Unicode, Arial, Sans-serif">Created by P Thanga Vignesh</text><text x="0" y="52" fill="#000000" font-size="5px" font-weight="bold" font-family="'Helvetica Neue', Helvetica, Arial-Unicode, Arial, Sans-serif">from the Noun Project</text></svg>