<svg xmlns:dc="http://purl.org/dc/elements/1.1/" xmlns:cc="http://creativecommons.org/ns#" xmlns:rdf="http://www.w3.org/1999/02/22-rdf-syntax-ns#" xmlns:svg="http://www.w3.org/2000/svg" xmlns="http://www.w3.org/2000/svg" xmlns:sodipodi="http://sodipodi.sourceforge.net/DTD/sodipodi-0.dtd" xmlns:inkscape="http://www.inkscape.org/namespaces/inkscape" viewBox="0 0 32 40" version="1.1" x="0px" y="0px"><g transform="translate(0,-1020.3622)"><path style="color:#000000;font-style:normal;font-variant:normal;font-weight:normal;font-stretch:normal;font-size:medium;line-height:normal;font-family:sans-serif;text-indent:0;text-align:start;text-decoration:none;text-decoration-line:none;text-decoration-style:solid;text-decoration-color:#000000;letter-spacing:normal;word-spacing:normal;text-transform:none;direction:ltr;block-progression:tb;writing-mode:lr-tb;baseline-shift:baseline;text-anchor:start;white-space:normal;clip-rule:nonzero;display:inline;overflow:visible;visibility:visible;opacity:1;isolation:auto;mix-blend-mode:normal;color-interpolation:sRGB;color-interpolation-filters:linearRGB;solid-color:#000000;solid-opacity:1;fill:#000000;fill-opacity:1;fill-rule:evenodd;stroke:none;stroke-width:1.00000024;stroke-linecap:round;stroke-linejoin:round;stroke-miterlimit:4;stroke-dasharray:none;stroke-dashoffset:0;stroke-opacity:1;color-rendering:auto;image-rendering:auto;shape-rendering:auto;text-rendering:auto;enable-background:accumulate" d="m 16.248047,1026.4883 c -1.243957,-0.033 -2.514458,0.1255 -3.710938,0.5097 l 0.09375,-0.02 -0.0059,0 a 0.50005012,0.50005012 0 0 0 -0.09375,0.02 c -1.748089,0.5616 -3.4921897,1.3811 -4.9257812,2.6036 -1.6078809,1.3718 -3.0757635,3.1047 -3.8496094,5.1386 -0.9480816,2.501 -1.117294,5.3355 -0.6679688,7.9493 0.3171926,1.8296 1.2104062,3.5224 2.2617188,4.9804 0.9019054,1.2523 2.0184256,2.5168 3.4902344,3.2324 2.6210322,1.2723 5.7097312,1.6924 8.5800782,1.3399 2.461712,-0.3022 4.759915,-1.4771 6.75,-2.834 1.523489,-1.0393 3.06762,-2.3338 3.951172,-4.0684 l -0.002,0 c 0.925497,-1.8068 1.025065,-3.8957 1.02539,-5.8007 l 0,-0.01 c 0.02983,-1.6003 -0.04301,-3.3181 -0.679687,-4.8848 -0.785392,-1.923 -2.113435,-3.644 -3.6875,-4.9668 a 0.50005012,0.50005012 0 0 0 0,-0 c -1.466767,-1.232 -3.273365,-1.9332 -4.996094,-2.5176 -1.12561,-0.3825 -2.322149,-0.6422 -3.533203,-0.6738 z m -0.02539,1 c 1.084706,0.028 2.186807,0.2638 3.238282,0.6211 1.691316,0.5737 3.375794,1.2476 4.673828,2.3379 1.458098,1.2252 2.689519,2.8279 3.404296,4.5781 0.550089,1.3536 0.634701,2.9387 0.605469,4.4941 a 0.50005012,0.50005012 0 0 0 0,0.01 c 0,1.8692 -0.119139,3.8035 -0.914062,5.3555 -0.759107,1.4902 -2.163948,2.7005 -3.625,3.6972 -1.914847,1.3056 -4.083705,2.3952 -6.306641,2.668 -2.687145,0.33 -5.601611,-0.073 -8.0214842,-1.248 -1.2296463,-0.598 -2.2576945,-1.7254 -3.1152344,-2.9161 -0.9931092,-1.3773 -1.809342,-2.9484 -2.0898438,-4.5664 -0.4215533,-2.4522 -0.2536784,-5.1214 0.6191406,-7.4238 l -0.00195,0 c 0.6906453,-1.8153 2.0453044,-3.4363 3.5644531,-4.7324 1.2953099,-1.1046 2.9206778,-1.8783 4.5820318,-2.4121 l 0.002,0 a 0.50005012,0.50005012 0 0 0 0.0059,-0 c 1.075545,-0.3454 2.237905,-0.4912 3.378906,-0.4609 z"/><path style="color:#000000;font-style:normal;font-variant:normal;font-weight:normal;font-stretch:normal;font-size:medium;line-height:normal;font-family:sans-serif;text-indent:0;text-align:start;text-decoration:none;text-decoration-line:none;text-decoration-style:solid;text-decoration-color:#000000;letter-spacing:normal;word-spacing:normal;text-transform:none;direction:ltr;block-progression:tb;writing-mode:lr-tb;baseline-shift:baseline;text-anchor:start;white-space:normal;clip-rule:nonzero;display:inline;overflow:visible;visibility:visible;opacity:1;isolation:auto;mix-blend-mode:normal;color-interpolation:sRGB;color-interpolation-filters:linearRGB;solid-color:#000000;solid-opacity:1;fill:#000000;fill-opacity:1;fill-rule:evenodd;stroke:none;stroke-width:1.00000024;stroke-linecap:round;stroke-linejoin:round;stroke-miterlimit:4;stroke-dasharray:none;stroke-dashoffset:0;stroke-opacity:1;color-rendering:auto;image-rendering:auto;shape-rendering:auto;text-rendering:auto;enable-background:accumulate" d="m 16.185547,1029.8359 c -0.923045,-0.024 -1.867004,0.093 -2.757813,0.3789 a 0.50005012,0.50005012 0 0 0 -0.0039,0 c -1.289321,0.4142 -2.580067,1.0185 -3.6464842,1.9278 -1.1872308,1.0127 -2.2766509,2.2946 -2.8535157,3.8105 -0.7032264,1.8546 -0.8262592,3.947 -0.4941406,5.8789 a 0.50005012,0.50005012 0 0 0 0,0 c 0.2368057,1.3657 0.9014261,2.6187 1.6777344,3.6953 0.665186,0.9234 1.491229,1.8654 2.5996091,2.4043 a 0.50005012,0.50005012 0 0 0 0.002,0 c 1.94287,0.9428 4.22296,1.2529 6.345704,0.9922 1.831503,-0.2248 3.527423,-1.0952 4.992187,-2.0938 1.122022,-0.7652 2.269068,-1.7229 2.931641,-3.0234 0.693903,-1.355 0.763423,-2.9014 0.763672,-4.2988 l 0,-0 c 0.02204,-1.1765 -0.02842,-2.4503 -0.50586,-3.625 -0.583611,-1.4287 -1.568239,-2.7038 -2.734375,-3.6836 -1.094811,-0.9193 -2.431847,-1.4347 -3.695312,-1.8633 -0.833142,-0.2831 -1.719745,-0.4753 -2.621094,-0.5 z m -2.757813,0.3789 0.08203,-0.019 a 0.50005012,0.50005012 0 0 0 -0.08203,0.019 z m 2.730469,0.6211 c 0.776761,0.021 1.569934,0.1896 2.328125,0.4473 1.232007,0.4179 2.446945,0.904 3.373047,1.6816 1.050179,0.8824 1.938191,2.0391 2.451172,3.295 l -0.002,0 c 0.390315,0.9603 0.454851,2.1019 0.433594,3.2324 a 0.50005012,0.50005012 0 0 0 0,0.01 c 0,1.3608 -0.09117,2.7519 -0.654297,3.8515 -0.538108,1.0563 -1.543996,1.9298 -2.603516,2.6524 -1.389536,0.9472 -2.958033,1.7322 -4.550781,1.9277 -1.939493,0.2382 -4.047271,-0.055 -5.789063,-0.9004 -0.866195,-0.4211 -1.6057263,-1.2261 -2.2265622,-2.0879 a 0.50005012,0.50005012 0 0 0 0,-0 c -0.7177635,-0.9954 -1.3035185,-2.1259 -1.5039063,-3.2793 l 0,-0 c -0.3039399,-1.7699 -0.1823858,-3.6981 0.4453125,-5.3535 0.4936484,-1.2973 1.4679298,-2.4673 2.566406,-3.4043 0.927913,-0.7912 2.100427,-1.3499 3.302735,-1.7363 8.5e-4,-3e-4 0.0011,-0 0.002,-0 a 0.50005012,0.50005012 0 0 0 0.002,0 c 0.769915,-0.2471 1.605558,-0.3517 2.425781,-0.3301 z"/><path style="color:#000000;font-style:normal;font-variant:normal;font-weight:normal;font-stretch:normal;font-size:medium;line-height:normal;font-family:sans-serif;text-indent:0;text-align:start;text-decoration:none;text-decoration-line:none;text-decoration-style:solid;text-decoration-color:#000000;letter-spacing:normal;word-spacing:normal;text-transform:none;direction:ltr;block-progression:tb;writing-mode:lr-tb;baseline-shift:baseline;text-anchor:start;white-space:normal;clip-rule:nonzero;display:inline;overflow:visible;visibility:visible;opacity:1;isolation:auto;mix-blend-mode:normal;color-interpolation:sRGB;color-interpolation-filters:linearRGB;solid-color:#000000;solid-opacity:1;fill:#000000;fill-opacity:1;fill-rule:evenodd;stroke:none;stroke-width:1.00000024;stroke-linecap:round;stroke-linejoin:round;stroke-miterlimit:4;stroke-dasharray:none;stroke-dashoffset:0;stroke-opacity:1;color-rendering:auto;image-rendering:auto;shape-rendering:auto;text-rendering:auto;enable-background:accumulate" d="m 16.050781,1036.959 c -0.241912,-0.01 -0.488757,0.024 -0.726562,0.1 a 0.50005012,0.50005012 0 0 0 -0.002,0 c -0.313142,0.1002 -0.638666,0.2493 -0.923828,0.4922 -0.292005,0.2486 -0.572732,0.5687 -0.730469,0.9824 -0.182289,0.4792 -0.209603,0.9956 -0.126953,1.4766 a 0.50005012,0.50005012 0 0 0 0,0 c 0.06607,0.378 0.240812,0.6966 0.43164,0.961 0.161505,0.2235 0.374277,0.48 0.708985,0.6425 a 0.50005012,0.50005012 0 0 0 0.002,0 c 0.499786,0.2423 1.060398,0.3172 1.591797,0.252 0.489825,-0.06 0.908855,-0.2813 1.255859,-0.5176 0.267901,-0.1823 0.571315,-0.4239 0.763672,-0.8008 0.19879,-0.3913 0.206971,-0.7867 0.207031,-1.1054 0.0048,-0.2715 -0.0015,-0.5971 -0.138672,-0.9336 -0.154257,-0.3769 -0.405313,-0.6993 -0.703125,-0.9493 -0.302585,-0.2537 -0.639175,-0.378 -0.925781,-0.4746 l -0.002,0 c -0.217175,-0.073 -0.443002,-0.1145 -0.667969,-0.1269 a 0.50005012,0.50005012 0 0 0 -0.01367,0 z m -0.726562,0.1 0.15039,-0.023 a 0.50005012,0.50005012 0 0 0 -0.15039,0.023 z m 0.691406,0.9004 c 0.135933,0.01 0.273003,0.032 0.398437,0.074 a 0.50005012,0.50005012 0 0 0 0,0 c 0.253556,0.085 0.468787,0.178 0.603516,0.291 0.182188,0.1529 0.336597,0.3589 0.419922,0.5625 0.0498,0.1232 0.06855,0.3173 0.06445,0.5429 a 0.50005012,0.50005012 0 0 0 0,0.01 c 0,0.277 -0.02922,0.5177 -0.09961,0.6562 -0.06822,0.1322 -0.229453,0.2869 -0.433594,0.4258 a 0.50005012,0.50005012 0 0 0 -0.002,0 c -0.271328,0.1847 -0.560482,0.3226 -0.8125,0.3535 -0.348703,0.043 -0.736707,-0.014 -1.035156,-0.1582 -0.09314,-0.045 -0.218739,-0.1678 -0.335938,-0.3301 -0.13231,-0.1833 -0.22834,-0.3784 -0.257812,-0.5449 l 0,-0 c -0.05449,-0.3191 -0.03008,-0.6718 0.07617,-0.9511 0.07432,-0.195 0.242048,-0.4032 0.445313,-0.5762 0.147216,-0.1254 0.353202,-0.2282 0.580078,-0.3008 0.119566,-0.038 0.255509,-0.055 0.388672,-0.053 z"/><path style="color:#000000;font-style:normal;font-variant:normal;font-weight:normal;font-stretch:normal;font-size:medium;line-height:normal;font-family:sans-serif;text-indent:0;text-align:start;text-decoration:none;text-decoration-line:none;text-decoration-style:solid;text-decoration-color:#000000;letter-spacing:normal;word-spacing:normal;text-transform:none;direction:ltr;block-progression:tb;writing-mode:lr-tb;baseline-shift:baseline;text-anchor:start;white-space:normal;clip-rule:nonzero;display:inline;overflow:visible;visibility:visible;opacity:1;isolation:auto;mix-blend-mode:normal;color-interpolation:sRGB;color-interpolation-filters:linearRGB;solid-color:#000000;solid-opacity:1;fill:#000000;fill-opacity:1;fill-rule:evenodd;stroke:none;stroke-width:0.99999994px;stroke-linecap:round;stroke-linejoin:round;stroke-miterlimit:4;stroke-dasharray:none;stroke-dashoffset:0;stroke-opacity:1;color-rendering:auto;image-rendering:auto;shape-rendering:auto;text-rendering:auto;enable-background:accumulate" d="m 15.363281,1032.3516 a 0.50004997,0.50004997 0 0 0 -0.501953,0.5449 l 0.326172,4.334 a 0.50047584,0.50047584 0 1 0 0.998047,-0.076 l -0.328125,-4.332 a 0.50004997,0.50004997 0 0 0 -0.494141,-0.4707 z"/><path style="color:#000000;font-style:normal;font-variant:normal;font-weight:normal;font-stretch:normal;font-size:medium;line-height:normal;font-family:sans-serif;text-indent:0;text-align:start;text-decoration:none;text-decoration-line:none;text-decoration-style:solid;text-decoration-color:#000000;letter-spacing:normal;word-spacing:normal;text-transform:none;direction:ltr;block-progression:tb;writing-mode:lr-tb;baseline-shift:baseline;text-anchor:start;white-space:normal;clip-rule:nonzero;display:inline;overflow:visible;visibility:visible;opacity:1;isolation:auto;mix-blend-mode:normal;color-interpolation:sRGB;color-interpolation-filters:linearRGB;solid-color:#000000;solid-opacity:1;fill:#000000;fill-opacity:1;fill-rule:evenodd;stroke:none;stroke-width:0.49999997;stroke-linecap:round;stroke-linejoin:round;stroke-miterlimit:4;stroke-dasharray:none;stroke-dashoffset:0;stroke-opacity:1;color-rendering:auto;image-rendering:auto;shape-rendering:auto;text-rendering:auto;enable-background:accumulate" d="m 9.8554688,1043.1094 a 0.25002499,0.25002499 0 0 0 -0.1972657,0.3965 c 0,0 0.2472844,0.3543 0.5781249,0.7734 0.330841,0.4191 0.73707,0.9008 1.111328,1.1855 0.348615,0.2654 0.877802,0.5083 1.332032,0.6993 0.454229,0.191 0.830078,0.3222 0.830078,0.3222 a 0.25002499,0.25002499 0 1 0 0.166015,-0.4707 c 0,0 -0.363787,-0.1279 -0.802734,-0.3125 -0.438948,-0.1845 -0.957249,-0.4328 -1.222656,-0.6347 -0.291016,-0.2215 -0.700886,-0.6915 -1.021485,-1.0977 -0.320599,-0.4062 -0.560547,-0.75 -0.560547,-0.75 a 0.25002499,0.25002499 0 0 0 -0.2128902,-0.1113 z"/><path style="color:#000000;font-style:normal;font-variant:normal;font-weight:normal;font-stretch:normal;font-size:medium;line-height:normal;font-family:sans-serif;text-indent:0;text-align:start;text-decoration:none;text-decoration-line:none;text-decoration-style:solid;text-decoration-color:#000000;letter-spacing:normal;word-spacing:normal;text-transform:none;direction:ltr;block-progression:tb;writing-mode:lr-tb;baseline-shift:baseline;text-anchor:start;white-space:normal;clip-rule:nonzero;display:inline;overflow:visible;visibility:visible;opacity:1;isolation:auto;mix-blend-mode:normal;color-interpolation:sRGB;color-interpolation-filters:linearRGB;solid-color:#000000;solid-opacity:1;fill:#000000;fill-opacity:1;fill-rule:evenodd;stroke:none;stroke-width:0.99999994px;stroke-linecap:round;stroke-linejoin:round;stroke-miterlimit:4;stroke-dasharray:none;stroke-dashoffset:0;stroke-opacity:1;color-rendering:auto;image-rendering:auto;shape-rendering:auto;text-rendering:auto;enable-background:accumulate" d="m 23.591797,1026.3809 a 0.50004997,0.50004997 0 0 0 -0.304688,0.8945 l 3.664063,2.9531 a 0.50004997,0.50004997 0 1 0 0.626953,-0.7773 l -3.662109,-2.9551 a 0.50004997,0.50004997 0 0 0 -0.324219,-0.1152 z"/><path style="color:#000000;font-style:normal;font-variant:normal;font-weight:normal;font-stretch:normal;font-size:medium;line-height:normal;font-family:sans-serif;text-indent:0;text-align:start;text-decoration:none;text-decoration-line:none;text-decoration-style:solid;text-decoration-color:#000000;letter-spacing:normal;word-spacing:normal;text-transform:none;direction:ltr;block-progression:tb;writing-mode:lr-tb;baseline-shift:baseline;text-anchor:start;white-space:normal;clip-rule:nonzero;display:inline;overflow:visible;visibility:visible;opacity:1;isolation:auto;mix-blend-mode:normal;color-interpolation:sRGB;color-interpolation-filters:linearRGB;solid-color:#000000;solid-opacity:1;fill:#000000;fill-opacity:1;fill-rule:evenodd;stroke:none;stroke-width:0.99999994px;stroke-linecap:butt;stroke-linejoin:miter;stroke-miterlimit:4;stroke-dasharray:none;stroke-dashoffset:0;stroke-opacity:1;color-rendering:auto;image-rendering:auto;shape-rendering:auto;text-rendering:auto;enable-background:accumulate" d="m 15.513672,1024.1094 -0.996094,0.07 0.195313,2.7578 0.998047,-0.07 -0.197266,-2.7578 z"/><path style="color:#000000;font-style:normal;font-variant:normal;font-weight:normal;font-stretch:normal;font-size:medium;line-height:normal;font-family:sans-serif;text-indent:0;text-align:start;text-decoration:none;text-decoration-line:none;text-decoration-style:solid;text-decoration-color:#000000;letter-spacing:normal;word-spacing:normal;text-transform:none;direction:ltr;block-progression:tb;writing-mode:lr-tb;baseline-shift:baseline;text-anchor:start;white-space:normal;clip-rule:nonzero;display:inline;overflow:visible;visibility:visible;opacity:1;isolation:auto;mix-blend-mode:normal;color-interpolation:sRGB;color-interpolation-filters:linearRGB;solid-color:#000000;solid-opacity:1;fill:#000000;fill-opacity:1;fill-rule:evenodd;stroke:none;stroke-width:0.99999994px;stroke-linecap:round;stroke-linejoin:round;stroke-miterlimit:4;stroke-dasharray:none;stroke-dashoffset:0;stroke-opacity:1;color-rendering:auto;image-rendering:auto;shape-rendering:auto;text-rendering:auto;enable-background:accumulate" d="m 16.392578,1023.3828 -2.68164,0.066 a 0.50004997,0.50004997 0 1 0 0.02539,0.9981 l 2.681641,-0.064 a 0.50016115,0.50016115 0 0 0 -0.02539,-1 z"/><path style="color:#000000;font-style:normal;font-variant:normal;font-weight:normal;font-stretch:normal;font-size:medium;line-height:normal;font-family:sans-serif;text-indent:0;text-align:start;text-decoration:none;text-decoration-line:none;text-decoration-style:solid;text-decoration-color:#000000;letter-spacing:normal;word-spacing:normal;text-transform:none;direction:ltr;block-progression:tb;writing-mode:lr-tb;baseline-shift:baseline;text-anchor:start;white-space:normal;clip-rule:nonzero;display:inline;overflow:visible;visibility:visible;opacity:1;isolation:auto;mix-blend-mode:normal;color-interpolation:sRGB;color-interpolation-filters:linearRGB;solid-color:#000000;solid-opacity:1;fill:#000000;fill-opacity:1;fill-rule:evenodd;stroke:none;stroke-width:0.99999994px;stroke-linecap:butt;stroke-linejoin:miter;stroke-miterlimit:4;stroke-dasharray:none;stroke-dashoffset:0;stroke-opacity:1;color-rendering:auto;image-rendering:auto;shape-rendering:auto;text-rendering:auto;enable-background:accumulate" d="m 14.068359,1020.4238 c -0.537466,0.086 -1.059557,0.2615 -1.53125,0.5293 -0.754237,0.4284 -1.384328,1.1386 -1.667968,1.9824 -0.323823,0.9626 -0.176756,2.0065 0.134765,2.8868 0.165018,0.4664 0.497411,0.8909 0.792969,1.2519 0.295558,0.3611 0.560547,0.6348 0.560547,0.6348 l 0.71875,-0.6953 c 0,0 -0.238684,-0.2459 -0.50586,-0.5723 -0.267175,-0.3264 -0.555082,-0.7555 -0.625,-0.9531 -0.258433,-0.7303 -0.347912,-1.5776 -0.126953,-2.2344 0.191068,-0.5684 0.672426,-1.1258 1.210938,-1.4316 0.710233,-0.4033 1.660371,-0.5485 2.478515,-0.4024 0.854758,0.1526 1.744748,0.6148 2.244141,1.2598 0.412921,0.5343 0.606694,1.358 0.550781,2.084 -0.02028,0.2635 -0.250848,0.8502 -0.492187,1.3105 -0.241339,0.4604 -0.47461,0.8184 -0.474609,0.8184 l 0.83789,0.5449 c 0,0 0.257961,-0.394 0.523438,-0.9004 0.265477,-0.5064 0.557654,-1.1013 0.603515,-1.6973 0.07285,-0.9458 -0.145869,-1.9831 -0.757812,-2.7734 -0.698793,-0.9025 -1.791563,-1.4402 -2.859375,-1.6309 -0.526248,-0.094 -1.077768,-0.097 -1.615235,-0.012 z"/><path style="color:#000000;font-style:normal;font-variant:normal;font-weight:normal;font-stretch:normal;font-size:medium;line-height:normal;font-family:sans-serif;text-indent:0;text-align:start;text-decoration:none;text-decoration-line:none;text-decoration-style:solid;text-decoration-color:#000000;letter-spacing:normal;word-spacing:normal;text-transform:none;direction:ltr;block-progression:tb;writing-mode:lr-tb;baseline-shift:baseline;text-anchor:start;white-space:normal;clip-rule:nonzero;display:inline;overflow:visible;visibility:visible;opacity:1;isolation:auto;mix-blend-mode:normal;color-interpolation:sRGB;color-interpolation-filters:linearRGB;solid-color:#000000;solid-opacity:1;fill:#000000;fill-opacity:1;fill-rule:evenodd;stroke:none;stroke-width:0.49999997;stroke-linecap:round;stroke-linejoin:round;stroke-miterlimit:4;stroke-dasharray:none;stroke-dashoffset:0;stroke-opacity:1;color-rendering:auto;image-rendering:auto;shape-rendering:auto;text-rendering:auto;enable-background:accumulate" d="m 15.363281,1038.5898 a 0.25002499,0.25002499 0 0 0 -0.210937,0.1426 l -0.925782,1.8555 a 0.25002499,0.25002499 0 1 0 0.447266,0.2226 l 0.925781,-1.8554 a 0.25002499,0.25002499 0 0 0 -0.236328,-0.3653 z"/><path style="color:#000000;font-style:normal;font-variant:normal;font-weight:normal;font-stretch:normal;font-size:medium;line-height:normal;font-family:sans-serif;text-indent:0;text-align:start;text-decoration:none;text-decoration-line:none;text-decoration-style:solid;text-decoration-color:#000000;letter-spacing:normal;word-spacing:normal;text-transform:none;direction:ltr;block-progression:tb;writing-mode:lr-tb;baseline-shift:baseline;text-anchor:start;white-space:normal;clip-rule:nonzero;display:inline;overflow:visible;visibility:visible;opacity:1;isolation:auto;mix-blend-mode:normal;color-interpolation:sRGB;color-interpolation-filters:linearRGB;solid-color:#000000;solid-opacity:1;fill:#000000;fill-opacity:1;fill-rule:evenodd;stroke:none;stroke-width:0.49999997;stroke-linecap:round;stroke-linejoin:round;stroke-miterlimit:4;stroke-dasharray:none;stroke-dashoffset:0;stroke-opacity:1;color-rendering:auto;image-rendering:auto;shape-rendering:auto;text-rendering:auto;enable-background:accumulate" d="m 15.871094,1039.5879 a 0.25002499,0.25002499 0 0 0 -0.210938,0.1426 l -0.648437,1.3242 a 0.25002499,0.25002499 0 1 0 0.449219,0.2187 l 0.648437,-1.3222 a 0.25002499,0.25002499 0 0 0 -0.238281,-0.3633 z"/><path style="color:#000000;font-style:normal;font-variant:normal;font-weight:normal;font-stretch:normal;font-size:medium;line-height:normal;font-family:sans-serif;text-indent:0;text-align:start;text-decoration:none;text-decoration-line:none;text-decoration-style:solid;text-decoration-color:#000000;letter-spacing:normal;word-spacing:normal;text-transform:none;direction:ltr;block-progression:tb;writing-mode:lr-tb;baseline-shift:baseline;text-anchor:start;white-space:normal;clip-rule:nonzero;display:inline;overflow:visible;visibility:visible;opacity:1;isolation:auto;mix-blend-mode:normal;color-interpolation:sRGB;color-interpolation-filters:linearRGB;solid-color:#000000;solid-opacity:1;fill:#000000;fill-opacity:1;fill-rule:evenodd;stroke:none;stroke-width:0.49999997;stroke-linecap:round;stroke-linejoin:round;stroke-miterlimit:4;stroke-dasharray:none;stroke-dashoffset:0;stroke-opacity:1;color-rendering:auto;image-rendering:auto;shape-rendering:auto;text-rendering:auto;enable-background:accumulate" d="m 16.630859,1040.1211 a 0.25002499,0.25002499 0 0 0 -0.232421,0.1484 l -0.439454,0.9512 a 0.25002499,0.25002499 0 1 0 0.453125,0.2109 l 0.439453,-0.9511 a 0.25002499,0.25002499 0 0 0 -0.220703,-0.3594 z"/></g><text x="0" y="47" fill="#000000" font-size="5px" font-weight="bold" font-family="'Helvetica Neue', Helvetica, Arial-Unicode, Arial, Sans-serif">Created by P Thanga Vignesh</text><text x="0" y="52" fill="#000000" font-size="5px" font-weight="bold" font-family="'Helvetica Neue', Helvetica, Arial-Unicode, Arial, Sans-serif">from the Noun Project</text></svg>