<svg xmlns:dc="http://purl.org/dc/elements/1.1/" xmlns:cc="http://creativecommons.org/ns#" xmlns:rdf="http://www.w3.org/1999/02/22-rdf-syntax-ns#" xmlns:svg="http://www.w3.org/2000/svg" xmlns="http://www.w3.org/2000/svg" xmlns:sodipodi="http://sodipodi.sourceforge.net/DTD/sodipodi-0.dtd" xmlns:inkscape="http://www.inkscape.org/namespaces/inkscape" viewBox="0 0 32 40" version="1.1" x="0px" y="0px"><g transform="translate(0,-1020.3622)"><path style="color:#000000;font-style:normal;font-variant:normal;font-weight:normal;font-stretch:normal;font-size:medium;line-height:normal;font-family:sans-serif;text-indent:0;text-align:start;text-decoration:none;text-decoration-line:none;text-decoration-style:solid;text-decoration-color:#000000;letter-spacing:normal;word-spacing:normal;text-transform:none;direction:ltr;block-progression:tb;writing-mode:lr-tb;baseline-shift:baseline;text-anchor:start;white-space:normal;clip-rule:nonzero;display:inline;overflow:visible;visibility:visible;opacity:1;isolation:auto;mix-blend-mode:normal;color-interpolation:sRGB;color-interpolation-filters:linearRGB;solid-color:#000000;solid-opacity:1;fill:#000000;fill-opacity:1;fill-rule:evenodd;stroke:none;stroke-width:0.99999994px;stroke-linecap:round;stroke-linejoin:round;stroke-miterlimit:4;stroke-dasharray:none;stroke-dashoffset:0;stroke-opacity:1;color-rendering:auto;image-rendering:auto;shape-rendering:auto;text-rendering:auto;enable-background:accumulate" d="m 6.9609375,1020.375 a 0.50004997,0.50004997 0 0 0 -0.4746094,0.5 l 0,4.3203 a 0.50004997,0.50004997 0 0 0 0.4941407,0.5 l 3.7167972,0.047 a 0.50004997,0.50004997 0 0 0 0.0332,0 c 0,0 3.697061,-0.1907 5.486328,-0.1426 1.65672,0.044 3.282483,-0.1222 4.662109,0.3555 0.73847,0.2555 1.460852,0.6594 1.853516,1.2109 0.291797,0.4102 0.367528,1.0745 0.433594,1.7735 0.08777,0.9435 0.0863,1.9015 -0.169922,2.7343 -0.305808,0.9811 -0.892901,1.9122 -1.605469,2.6875 -0.627517,0.6831 -1.399236,1.2656 -2.228516,1.5996 -0.899628,0.3626 -1.999011,0.3544 -3.134765,0.4434 -1.289445,0.101 -2.705604,-0.1746 -4.1875,0.053 -1.493768,0.2297 -3.1039923,0.5235 -4.4921878,1.3672 -1.1491403,0.6984 -2.1028815,1.7222 -2.7890624,2.8574 -0.6265767,1.0364 -1.0105557,2.2367 -1.1230469,3.4395 -0.12051,1.2637 0.038452,2.5826 0.4902343,3.7773 0.3828995,1.0114 0.9639559,2.0475 1.875,2.7598 1.2543334,0.9806 2.8438832,1.3644 4.3066408,1.5801 2.411113,0.3554 4.773918,-0.2339 7.015625,-0.3809 2.552806,-0.1673 7.630859,-0.5762 7.630859,-0.5762 a 0.50004997,0.50004997 0 0 0 0.423828,-0.3144 c 0,0 0.494023,-1.1812 0.603516,-1.9883 l 0,-0 c 0.09706,-0.7176 -0.04883,-1.8008 -0.04883,-1.8008 a 0.50004997,0.50004997 0 0 0 -0.50586,-0.4453 c 0,0 -5.650247,0.1 -8.496093,0.2402 -1.661178,0.082 -3.226204,0.4881 -4.689453,0.3379 -0.783462,-0.08 -1.559753,-0.2528 -2.1855472,-0.6094 a 0.50004997,0.50004997 0 0 0 -0.00195,0 c -0.2902708,-0.1646 -0.5425511,-0.3883 -0.6621094,-0.6152 -0.3123147,-0.5918 -0.4245099,-1.3618 -0.328125,-2.0488 0.080044,-0.5645 0.3500363,-1.149 0.7285157,-1.5528 0.4519301,-0.4822 1.1508991,-0.8082 1.8671871,-1.0117 1.352721,-0.3844 2.957665,-0.038 4.636719,-0.2246 1.830019,-0.2034 3.870142,-0.1618 5.724609,-1.002 1.59771,-0.7242 2.961415,-1.9281 4.042969,-3.2597 1.05757,-1.3022 1.807239,-2.8566 2.28125,-4.4453 0.389507,-1.3043 0.520693,-2.6919 0.431641,-4.0391 -0.103508,-1.5429 -0.305909,-3.2285 -1.144531,-4.6621 -0.651395,-1.1167 -1.644958,-2.1042 -2.845703,-2.6504 -2.199966,-1.0005 -4.659012,-0.6234 -6.808594,-0.7168 -2.280126,-0.099 -6.65815,0.093 -6.716797,0.096 l -0.0098,0 -4.0410154,-0.1914 a 0.50004997,0.50004997 0 0 0 -0.048828,0 z m 0.5253906,1.0234 3.5273439,0.1661 a 0.50004997,0.50004997 0 0 0 0.04492,0 c 0,0 4.495437,-0.1903 6.675781,-0.096 2.283804,0.099 4.592616,-0.2102 6.4375,0.6289 0.970971,0.4416 1.838746,1.2913 2.394531,2.2441 a 0.50004997,0.50004997 0 0 0 0.002,0 c 0.69889,1.1948 0.90918,2.7253 1.009766,4.2246 0.08178,1.2372 -0.03935,2.5093 -0.390625,3.6856 -0.442147,1.4819 -1.143888,2.9223 -2.101562,4.1015 -1.007768,1.2408 -2.266942,2.341 -3.677735,2.9805 -1.583674,0.718 -3.50665,0.7048 -5.423828,0.918 -1.450394,0.1612 -3.121123,-0.221 -4.798828,0.2558 -0.815932,0.2319 -1.6831093,0.607 -2.3242189,1.291 -0.538434,0.5745 -0.879349,1.3276 -0.9882812,2.0957 a 0.50004997,0.50004997 0 0 0 0,0 c -0.1243395,0.8863 0.00512,1.8424 0.4335937,2.6543 0.2490844,0.4727 0.6554953,0.7921 1.0527344,1.0176 0.80967,0.4614 1.722468,0.6465 2.580078,0.7343 1.70475,0.175 3.320928,-0.2585 4.839844,-0.3339 2.641449,-0.1305 7.385764,-0.2138 7.976562,-0.2247 0.02726,0.3655 0.07289,0.8225 0.03516,1.0997 a 0.50004997,0.50004997 0 0 0 -0.002,0 c -0.05489,0.4068 -0.340358,1.1642 -0.451171,1.4667 -0.414412,0.033 -4.860035,0.3901 -7.28125,0.5489 -2.361758,0.1548 -4.649691,0.706 -6.802735,0.3886 -1.3930531,-0.2053 -2.8124129,-0.5753 -3.8378904,-1.3769 -0.6967667,-0.5447 -1.2119178,-1.4227 -1.5546875,-2.3281 -0.3925642,-1.0381 -0.5359493,-2.2139 -0.4296875,-3.3282 0.098406,-1.0522 0.4415659,-2.1178 0.984375,-3.0156 0.6109529,-1.0108 1.4648795,-1.9201 2.4511719,-2.5195 1.1788595,-0.7165 2.6548615,-1.0083 4.1250005,-1.2344 1.254481,-0.1924 2.642914,0.07 4.113281,-0.045 1.06771,-0.084 2.277032,-0.047 3.429687,-0.5117 1.000769,-0.4032 1.880604,-1.0755 2.591797,-1.8496 0.79712,-0.8674 1.466563,-1.9148 1.826172,-3.0703 a 0.50004997,0.50004997 0 0 0 0,-0 c 0.31809,-1.034 0.30245,-2.1177 0.208984,-3.1211 a 0.50004997,0.50004997 0 0 0 0,-0 c -0.0647,-0.6845 -0.103503,-1.5386 -0.615234,-2.2579 -0.58321,-0.8191 -1.494691,-1.2837 -2.339844,-1.5761 -1.663648,-0.5761 -3.40172,-0.3685 -4.96289,-0.4102 -1.895015,-0.051 -5.566407,0.1445 -5.566407,0.1445 l 0.03125,-0 -3.2226559,-0.041 0,-3.3028 z"/><path style="color:#000000;font-style:normal;font-variant:normal;font-weight:normal;font-stretch:normal;font-size:medium;line-height:normal;font-family:sans-serif;text-indent:0;text-align:start;text-decoration:none;text-decoration-line:none;text-decoration-style:solid;text-decoration-color:#000000;letter-spacing:normal;word-spacing:normal;text-transform:none;direction:ltr;block-progression:tb;writing-mode:lr-tb;baseline-shift:baseline;text-anchor:start;white-space:normal;clip-rule:nonzero;display:inline;overflow:visible;visibility:visible;opacity:1;isolation:auto;mix-blend-mode:normal;color-interpolation:sRGB;color-interpolation-filters:linearRGB;solid-color:#000000;solid-opacity:1;fill:#000000;fill-opacity:1;fill-rule:evenodd;stroke:none;stroke-width:0.99999994px;stroke-linecap:butt;stroke-linejoin:miter;stroke-miterlimit:4;stroke-dasharray:none;stroke-dashoffset:0;stroke-opacity:1;color-rendering:auto;image-rendering:auto;shape-rendering:auto;text-rendering:auto;enable-background:accumulate" d="m 9.1074219,1020.9531 -1,0.035 0.1425781,4.1758 1,-0.035 -0.1425781,-4.1758 z"/><path style="color:#000000;font-style:normal;font-variant:normal;font-weight:normal;font-stretch:normal;font-size:medium;line-height:normal;font-family:sans-serif;text-indent:0;text-align:start;text-decoration:none;text-decoration-line:none;text-decoration-style:solid;text-decoration-color:#000000;letter-spacing:normal;word-spacing:normal;text-transform:none;direction:ltr;block-progression:tb;writing-mode:lr-tb;baseline-shift:baseline;text-anchor:start;white-space:normal;clip-rule:nonzero;display:inline;overflow:visible;visibility:visible;opacity:1;isolation:auto;mix-blend-mode:normal;color-interpolation:sRGB;color-interpolation-filters:linearRGB;solid-color:#000000;solid-opacity:1;fill:#000000;fill-opacity:1;fill-rule:evenodd;stroke:none;stroke-width:0.99999994px;stroke-linecap:butt;stroke-linejoin:miter;stroke-miterlimit:4;stroke-dasharray:none;stroke-dashoffset:0;stroke-opacity:1;color-rendering:auto;image-rendering:auto;shape-rendering:auto;text-rendering:auto;enable-background:accumulate" d="m 10.794922,1020.8945 -0.998047,0.055 0.238281,4.2969 0.998047,-0.055 -0.238281,-4.2969 z"/><path style="color:#000000;font-style:normal;font-variant:normal;font-weight:normal;font-stretch:normal;font-size:medium;line-height:normal;font-family:sans-serif;text-indent:0;text-align:start;text-decoration:none;text-decoration-line:none;text-decoration-style:solid;text-decoration-color:#000000;letter-spacing:normal;word-spacing:normal;text-transform:none;direction:ltr;block-progression:tb;writing-mode:lr-tb;baseline-shift:baseline;text-anchor:start;white-space:normal;clip-rule:nonzero;display:inline;overflow:visible;visibility:visible;opacity:1;isolation:auto;mix-blend-mode:normal;color-interpolation:sRGB;color-interpolation-filters:linearRGB;solid-color:#000000;solid-opacity:1;fill:#000000;fill-opacity:1;fill-rule:evenodd;stroke:none;stroke-width:0.99999994px;stroke-linecap:butt;stroke-linejoin:miter;stroke-miterlimit:4;stroke-dasharray:none;stroke-dashoffset:0;stroke-opacity:1;color-rendering:auto;image-rendering:auto;shape-rendering:auto;text-rendering:auto;enable-background:accumulate" d="m 11.701172,1022.6055 -4.6796876,0.1211 0.025391,1 4.648437,-0.1211 c 0,0 3.275209,0.058 4.896485,0.1211 1.575497,0.06 3.11496,-0.031 4.552734,0.2324 1.045073,0.1908 2.075456,0.3598 2.802735,0.875 0.455177,0.3223 0.831206,0.8551 1.066406,1.418 0.293137,0.6985 0.315927,1.5679 0.341797,2.4628 l 0,0 0,0 c 0.03608,0.8739 -0.03664,1.7603 -0.226563,2.6055 -0.239269,1.0251 -0.619276,2.0282 -1.136718,2.9336 -0.477031,0.8349 -1.055969,1.6188 -1.751954,2.2226 -0.777693,0.6744 -1.683886,1.2321 -2.634765,1.5352 -1.383928,0.4409 -2.99937,0.2636 -4.658203,0.4101 -1.525308,0.1348 -3.277309,-0.1652 -4.962891,0.4434 -1.1891359,0.4293 -2.3506904,1.1587 -3.1542969,2.1973 -0.8037194,1.0386 -1.2696466,2.3565 -1.3535156,3.6562 -0.066456,1.036 0.1460733,2.1426 0.703125,3.0547 0.6246603,1.0192 1.6115097,1.8429 2.7246094,2.2695 1.8360041,0.7037 3.7845891,0.2483 5.4746091,0.2266 3.66102,-0.047 10.853516,-0.6738 10.853516,-0.6738 l -0.08789,-0.9961 c 0,0 -7.216884,0.6245 -10.779297,0.6699 -1.838548,0.024 -3.641504,0.4002 -5.1035152,-0.1602 -0.8895895,-0.3409 -1.7267877,-1.0395 -2.2285157,-1.8574 -0.4248693,-0.6957 -0.6130815,-1.6193 -0.5585937,-2.4687 0.071092,-1.1017 0.4814796,-2.25 1.1464844,-3.1094 0.6537792,-0.8449 1.6608286,-1.4909 2.7031252,-1.8672 1.361474,-0.4916 3.011553,-0.2385 4.710937,-0.3887 1.518237,-0.1341 3.215967,0.073 4.873047,-0.455 1.111231,-0.3542 2.126417,-0.9831 2.988281,-1.7305 0.811292,-0.7038 1.447417,-1.5802 1.962891,-2.4824 0.571103,-0.9993 0.984451,-2.0925 1.244141,-3.2071 l 0.002,-0 0,-0 c 0.210294,-0.9359 0.28894,-1.9045 0.25,-2.8594 l 0,-0 c -0.02546,-0.8822 -0.02625,-1.877 -0.419922,-2.8164 l 0,-0 c -0.292452,-0.6992 -0.753081,-1.3805 -1.410156,-1.8457 -0.99014,-0.7014 -2.180355,-0.8585 -3.201172,-1.0449 -1.597942,-0.2927 -3.185517,-0.1903 -4.69336,-0.248 -1.649526,-0.064 -4.917968,-0.1192 -4.917968,-0.1192 l -0.01172,-0 z"/><path style="color:#000000;font-style:normal;font-variant:normal;font-weight:normal;font-stretch:normal;font-size:medium;line-height:normal;font-family:sans-serif;text-indent:0;text-align:start;text-decoration:none;text-decoration-line:none;text-decoration-style:solid;text-decoration-color:#000000;letter-spacing:normal;word-spacing:normal;text-transform:none;direction:ltr;block-progression:tb;writing-mode:lr-tb;baseline-shift:baseline;text-anchor:start;white-space:normal;clip-rule:nonzero;display:inline;overflow:visible;visibility:visible;opacity:1;isolation:auto;mix-blend-mode:normal;color-interpolation:sRGB;color-interpolation-filters:linearRGB;solid-color:#000000;solid-opacity:1;fill:#000000;fill-opacity:1;fill-rule:evenodd;stroke:none;stroke-width:0.24999999;stroke-linecap:butt;stroke-linejoin:miter;stroke-miterlimit:4;stroke-dasharray:none;stroke-dashoffset:0;stroke-opacity:1;color-rendering:auto;image-rendering:auto;shape-rendering:auto;text-rendering:auto;enable-background:accumulate" d="m 11.998047,1023.8223 -0.535156,1.0078 0.220703,0.1172 0.535156,-1.0078 -0.220703,-0.1172 z"/><path style="color:#000000;font-style:normal;font-variant:normal;font-weight:normal;font-stretch:normal;font-size:medium;line-height:normal;font-family:sans-serif;text-indent:0;text-align:start;text-decoration:none;text-decoration-line:none;text-decoration-style:solid;text-decoration-color:#000000;letter-spacing:normal;word-spacing:normal;text-transform:none;direction:ltr;block-progression:tb;writing-mode:lr-tb;baseline-shift:baseline;text-anchor:start;white-space:normal;clip-rule:nonzero;display:inline;overflow:visible;visibility:visible;opacity:1;isolation:auto;mix-blend-mode:normal;color-interpolation:sRGB;color-interpolation-filters:linearRGB;solid-color:#000000;solid-opacity:1;fill:#000000;fill-opacity:1;fill-rule:evenodd;stroke:none;stroke-width:0.24999999;stroke-linecap:butt;stroke-linejoin:miter;stroke-miterlimit:4;stroke-dasharray:none;stroke-dashoffset:0;stroke-opacity:1;color-rendering:auto;image-rendering:auto;shape-rendering:auto;text-rendering:auto;enable-background:accumulate" d="m 12.439453,1023.9883 -0.453125,0.8281 0.220703,0.1211 0.453125,-0.8281 -0.220703,-0.1211 z"/><path style="color:#000000;font-style:normal;font-variant:normal;font-weight:normal;font-stretch:normal;font-size:medium;line-height:normal;font-family:sans-serif;text-indent:0;text-align:start;text-decoration:none;text-decoration-line:none;text-decoration-style:solid;text-decoration-color:#000000;letter-spacing:normal;word-spacing:normal;text-transform:none;direction:ltr;block-progression:tb;writing-mode:lr-tb;baseline-shift:baseline;text-anchor:start;white-space:normal;clip-rule:nonzero;display:inline;overflow:visible;visibility:visible;opacity:1;isolation:auto;mix-blend-mode:normal;color-interpolation:sRGB;color-interpolation-filters:linearRGB;solid-color:#000000;solid-opacity:1;fill:#000000;fill-opacity:1;fill-rule:evenodd;stroke:none;stroke-width:0.24999999;stroke-linecap:butt;stroke-linejoin:miter;stroke-miterlimit:4;stroke-dasharray:none;stroke-dashoffset:0;stroke-opacity:1;color-rendering:auto;image-rendering:auto;shape-rendering:auto;text-rendering:auto;enable-background:accumulate" d="m 13.027344,1024.0078 -0.429688,0.6953 0.212891,0.1309 0.429687,-0.6953 -0.21289,-0.1309 z"/><path style="color:#000000;font-style:normal;font-variant:normal;font-weight:normal;font-stretch:normal;font-size:medium;line-height:normal;font-family:sans-serif;text-indent:0;text-align:start;text-decoration:none;text-decoration-line:none;text-decoration-style:solid;text-decoration-color:#000000;letter-spacing:normal;word-spacing:normal;text-transform:none;direction:ltr;block-progression:tb;writing-mode:lr-tb;baseline-shift:baseline;text-anchor:start;white-space:normal;clip-rule:nonzero;display:inline;overflow:visible;visibility:visible;opacity:1;isolation:auto;mix-blend-mode:normal;color-interpolation:sRGB;color-interpolation-filters:linearRGB;solid-color:#000000;solid-opacity:1;fill:#000000;fill-opacity:1;fill-rule:evenodd;stroke:none;stroke-width:0.24999999;stroke-linecap:butt;stroke-linejoin:miter;stroke-miterlimit:4;stroke-dasharray:none;stroke-dashoffset:0;stroke-opacity:1;color-rendering:auto;image-rendering:auto;shape-rendering:auto;text-rendering:auto;enable-background:accumulate" d="m 13.580078,1024.0605 -0.453125,0.6368 0.203125,0.1445 0.453125,-0.6367 -0.203125,-0.1446 z"/><path style="color:#000000;font-style:normal;font-variant:normal;font-weight:normal;font-stretch:normal;font-size:medium;line-height:normal;font-family:sans-serif;text-indent:0;text-align:start;text-decoration:none;text-decoration-line:none;text-decoration-style:solid;text-decoration-color:#000000;letter-spacing:normal;word-spacing:normal;text-transform:none;direction:ltr;block-progression:tb;writing-mode:lr-tb;baseline-shift:baseline;text-anchor:start;white-space:normal;clip-rule:nonzero;display:inline;overflow:visible;visibility:visible;opacity:1;isolation:auto;mix-blend-mode:normal;color-interpolation:sRGB;color-interpolation-filters:linearRGB;solid-color:#000000;solid-opacity:1;fill:#000000;fill-opacity:1;fill-rule:evenodd;stroke:none;stroke-width:0.24999999;stroke-linecap:butt;stroke-linejoin:miter;stroke-miterlimit:4;stroke-dasharray:none;stroke-dashoffset:0;stroke-opacity:1;color-rendering:auto;image-rendering:auto;shape-rendering:auto;text-rendering:auto;enable-background:accumulate" d="m 14.152344,1024.082 -0.523438,0.6953 0.199219,0.1504 0.525391,-0.6953 -0.201172,-0.1504 z"/><path style="color:#000000;font-style:normal;font-variant:normal;font-weight:normal;font-stretch:normal;font-size:medium;line-height:normal;font-family:sans-serif;text-indent:0;text-align:start;text-decoration:none;text-decoration-line:none;text-decoration-style:solid;text-decoration-color:#000000;letter-spacing:normal;word-spacing:normal;text-transform:none;direction:ltr;block-progression:tb;writing-mode:lr-tb;baseline-shift:baseline;text-anchor:start;white-space:normal;clip-rule:nonzero;display:inline;overflow:visible;visibility:visible;opacity:1;isolation:auto;mix-blend-mode:normal;color-interpolation:sRGB;color-interpolation-filters:linearRGB;solid-color:#000000;solid-opacity:1;fill:#000000;fill-opacity:1;fill-rule:evenodd;stroke:none;stroke-width:0.24999999;stroke-linecap:butt;stroke-linejoin:miter;stroke-miterlimit:4;stroke-dasharray:none;stroke-dashoffset:0;stroke-opacity:1;color-rendering:auto;image-rendering:auto;shape-rendering:auto;text-rendering:auto;enable-background:accumulate" d="m 14.648438,1024.2207 -0.392579,0.5996 0.208985,0.1367 0.392578,-0.5996 -0.208984,-0.1367 z"/><path style="color:#000000;font-style:normal;font-variant:normal;font-weight:normal;font-stretch:normal;font-size:medium;line-height:normal;font-family:sans-serif;text-indent:0;text-align:start;text-decoration:none;text-decoration-line:none;text-decoration-style:solid;text-decoration-color:#000000;letter-spacing:normal;word-spacing:normal;text-transform:none;direction:ltr;block-progression:tb;writing-mode:lr-tb;baseline-shift:baseline;text-anchor:start;white-space:normal;clip-rule:nonzero;display:inline;overflow:visible;visibility:visible;opacity:1;isolation:auto;mix-blend-mode:normal;color-interpolation:sRGB;color-interpolation-filters:linearRGB;solid-color:#000000;solid-opacity:1;fill:#000000;fill-opacity:1;fill-rule:evenodd;stroke:none;stroke-width:0.24999999;stroke-linecap:butt;stroke-linejoin:miter;stroke-miterlimit:4;stroke-dasharray:none;stroke-dashoffset:0;stroke-opacity:1;color-rendering:auto;image-rendering:auto;shape-rendering:auto;text-rendering:auto;enable-background:accumulate" d="m 15.394531,1024.2148 -0.332031,0.5762 0.216797,0.125 0.332031,-0.5762 -0.216797,-0.125 z"/><path style="color:#000000;font-style:normal;font-variant:normal;font-weight:normal;font-stretch:normal;font-size:medium;line-height:normal;font-family:sans-serif;text-indent:0;text-align:start;text-decoration:none;text-decoration-line:none;text-decoration-style:solid;text-decoration-color:#000000;letter-spacing:normal;word-spacing:normal;text-transform:none;direction:ltr;block-progression:tb;writing-mode:lr-tb;baseline-shift:baseline;text-anchor:start;white-space:normal;clip-rule:nonzero;display:inline;overflow:visible;visibility:visible;opacity:1;isolation:auto;mix-blend-mode:normal;color-interpolation:sRGB;color-interpolation-filters:linearRGB;solid-color:#000000;solid-opacity:1;fill:#000000;fill-opacity:1;fill-rule:evenodd;stroke:none;stroke-width:0.24999999;stroke-linecap:butt;stroke-linejoin:miter;stroke-miterlimit:4;stroke-dasharray:none;stroke-dashoffset:0;stroke-opacity:1;color-rendering:auto;image-rendering:auto;shape-rendering:auto;text-rendering:auto;enable-background:accumulate" d="m 18.839844,1047.4531 -0.595703,0.9844 0.214843,0.1309 0.59375,-0.9844 -0.21289,-0.1309 z"/><path style="color:#000000;font-style:normal;font-variant:normal;font-weight:normal;font-stretch:normal;font-size:medium;line-height:normal;font-family:sans-serif;text-indent:0;text-align:start;text-decoration:none;text-decoration-line:none;text-decoration-style:solid;text-decoration-color:#000000;letter-spacing:normal;word-spacing:normal;text-transform:none;direction:ltr;block-progression:tb;writing-mode:lr-tb;baseline-shift:baseline;text-anchor:start;white-space:normal;clip-rule:nonzero;display:inline;overflow:visible;visibility:visible;opacity:1;isolation:auto;mix-blend-mode:normal;color-interpolation:sRGB;color-interpolation-filters:linearRGB;solid-color:#000000;solid-opacity:1;fill:#000000;fill-opacity:1;fill-rule:evenodd;stroke:none;stroke-width:0.24999999;stroke-linecap:butt;stroke-linejoin:miter;stroke-miterlimit:4;stroke-dasharray:none;stroke-dashoffset:0;stroke-opacity:1;color-rendering:auto;image-rendering:auto;shape-rendering:auto;text-rendering:auto;enable-background:accumulate" d="m 19.222656,1047.7168 -0.572265,0.9121 0.210937,0.1328 0.572266,-0.9121 -0.210938,-0.1328 z"/><path style="color:#000000;font-style:normal;font-variant:normal;font-weight:normal;font-stretch:normal;font-size:medium;line-height:normal;font-family:sans-serif;text-indent:0;text-align:start;text-decoration:none;text-decoration-line:none;text-decoration-style:solid;text-decoration-color:#000000;letter-spacing:normal;word-spacing:normal;text-transform:none;direction:ltr;block-progression:tb;writing-mode:lr-tb;baseline-shift:baseline;text-anchor:start;white-space:normal;clip-rule:nonzero;display:inline;overflow:visible;visibility:visible;opacity:1;isolation:auto;mix-blend-mode:normal;color-interpolation:sRGB;color-interpolation-filters:linearRGB;solid-color:#000000;solid-opacity:1;fill:#000000;fill-opacity:1;fill-rule:evenodd;stroke:none;stroke-width:0.24999999;stroke-linecap:butt;stroke-linejoin:miter;stroke-miterlimit:4;stroke-dasharray:none;stroke-dashoffset:0;stroke-opacity:1;color-rendering:auto;image-rendering:auto;shape-rendering:auto;text-rendering:auto;enable-background:accumulate" d="m 19.740234,1047.6309 -0.476562,0.9355 0.222656,0.1133 0.476563,-0.9356 -0.222657,-0.1132 z"/><path style="color:#000000;font-style:normal;font-variant:normal;font-weight:normal;font-stretch:normal;font-size:medium;line-height:normal;font-family:sans-serif;text-indent:0;text-align:start;text-decoration:none;text-decoration-line:none;text-decoration-style:solid;text-decoration-color:#000000;letter-spacing:normal;word-spacing:normal;text-transform:none;direction:ltr;block-progression:tb;writing-mode:lr-tb;baseline-shift:baseline;text-anchor:start;white-space:normal;clip-rule:nonzero;display:inline;overflow:visible;visibility:visible;opacity:1;isolation:auto;mix-blend-mode:normal;color-interpolation:sRGB;color-interpolation-filters:linearRGB;solid-color:#000000;solid-opacity:1;fill:#000000;fill-opacity:1;fill-rule:evenodd;stroke:none;stroke-width:0.24999999;stroke-linecap:butt;stroke-linejoin:miter;stroke-miterlimit:4;stroke-dasharray:none;stroke-dashoffset:0;stroke-opacity:1;color-rendering:auto;image-rendering:auto;shape-rendering:auto;text-rendering:auto;enable-background:accumulate" d="m 20.404297,1047.5645 -0.453125,1.0566 0.230469,0.1 0.453125,-1.0566 -0.230469,-0.1 z"/><path style="color:#000000;font-style:normal;font-variant:normal;font-weight:normal;font-stretch:normal;font-size:medium;line-height:normal;font-family:sans-serif;text-indent:0;text-align:start;text-decoration:none;text-decoration-line:none;text-decoration-style:solid;text-decoration-color:#000000;letter-spacing:normal;word-spacing:normal;text-transform:none;direction:ltr;block-progression:tb;writing-mode:lr-tb;baseline-shift:baseline;text-anchor:start;white-space:normal;clip-rule:nonzero;display:inline;overflow:visible;visibility:visible;opacity:1;isolation:auto;mix-blend-mode:normal;color-interpolation:sRGB;color-interpolation-filters:linearRGB;solid-color:#000000;solid-opacity:1;fill:#000000;fill-opacity:1;fill-rule:evenodd;stroke:none;stroke-width:0.24999999;stroke-linecap:butt;stroke-linejoin:miter;stroke-miterlimit:4;stroke-dasharray:none;stroke-dashoffset:0;stroke-opacity:1;color-rendering:auto;image-rendering:auto;shape-rendering:auto;text-rendering:auto;enable-background:accumulate" d="m 21.005859,1047.6738 -0.5,0.8867 0.216797,0.1231 0.501953,-0.8867 -0.21875,-0.1231 z"/><path style="color:#000000;font-style:normal;font-variant:normal;font-weight:normal;font-stretch:normal;font-size:medium;line-height:normal;font-family:sans-serif;text-indent:0;text-align:start;text-decoration:none;text-decoration-line:none;text-decoration-style:solid;text-decoration-color:#000000;letter-spacing:normal;word-spacing:normal;text-transform:none;direction:ltr;block-progression:tb;writing-mode:lr-tb;baseline-shift:baseline;text-anchor:start;white-space:normal;clip-rule:nonzero;display:inline;overflow:visible;visibility:visible;opacity:1;isolation:auto;mix-blend-mode:normal;color-interpolation:sRGB;color-interpolation-filters:linearRGB;solid-color:#000000;solid-opacity:1;fill:#000000;fill-opacity:1;fill-rule:evenodd;stroke:none;stroke-width:0.24999999;stroke-linecap:butt;stroke-linejoin:miter;stroke-miterlimit:4;stroke-dasharray:none;stroke-dashoffset:0;stroke-opacity:1;color-rendering:auto;image-rendering:auto;shape-rendering:auto;text-rendering:auto;enable-background:accumulate" d="m 21.71875,1047.6758 -0.427734,0.791 0.21875,0.1191 0.429687,-0.791 -0.220703,-0.1191 z"/><path style="color:#000000;font-style:normal;font-variant:normal;font-weight:normal;font-stretch:normal;font-size:medium;line-height:normal;font-family:sans-serif;text-indent:0;text-align:start;text-decoration:none;text-decoration-line:none;text-decoration-style:solid;text-decoration-color:#000000;letter-spacing:normal;word-spacing:normal;text-transform:none;direction:ltr;block-progression:tb;writing-mode:lr-tb;baseline-shift:baseline;text-anchor:start;white-space:normal;clip-rule:nonzero;display:inline;overflow:visible;visibility:visible;opacity:1;isolation:auto;mix-blend-mode:normal;color-interpolation:sRGB;color-interpolation-filters:linearRGB;solid-color:#000000;solid-opacity:1;fill:#000000;fill-opacity:1;fill-rule:evenodd;stroke:none;stroke-width:0.24999999;stroke-linecap:butt;stroke-linejoin:miter;stroke-miterlimit:4;stroke-dasharray:none;stroke-dashoffset:0;stroke-opacity:1;color-rendering:auto;image-rendering:auto;shape-rendering:auto;text-rendering:auto;enable-background:accumulate" d="m 22.701172,1047.668 -0.525391,0.8144 0.210938,0.1367 0.52539,-0.8164 -0.210937,-0.1347 z"/><path style="color:#000000;font-style:normal;font-variant:normal;font-weight:normal;font-stretch:normal;font-size:medium;line-height:normal;font-family:sans-serif;text-indent:0;text-align:start;text-decoration:none;text-decoration-line:none;text-decoration-style:solid;text-decoration-color:#000000;letter-spacing:normal;word-spacing:normal;text-transform:none;direction:ltr;block-progression:tb;writing-mode:lr-tb;baseline-shift:baseline;text-anchor:start;white-space:normal;clip-rule:nonzero;display:inline;overflow:visible;visibility:visible;opacity:1;isolation:auto;mix-blend-mode:normal;color-interpolation:sRGB;color-interpolation-filters:linearRGB;solid-color:#000000;solid-opacity:1;fill:#000000;fill-opacity:1;fill-rule:evenodd;stroke:none;stroke-width:0.24999999;stroke-linecap:butt;stroke-linejoin:miter;stroke-miterlimit:4;stroke-dasharray:none;stroke-dashoffset:0;stroke-opacity:1;color-rendering:auto;image-rendering:auto;shape-rendering:auto;text-rendering:auto;enable-background:accumulate" d="m 23.193359,1047.8242 -0.332031,0.6973 0.22461,0.1074 0.333984,-0.6973 -0.226563,-0.1074 z"/><path style="color:#000000;font-style:normal;font-variant:normal;font-weight:normal;font-stretch:normal;font-size:medium;line-height:normal;font-family:sans-serif;text-indent:0;text-align:start;text-decoration:none;text-decoration-line:none;text-decoration-style:solid;text-decoration-color:#000000;letter-spacing:normal;word-spacing:normal;text-transform:none;direction:ltr;block-progression:tb;writing-mode:lr-tb;baseline-shift:baseline;text-anchor:start;white-space:normal;clip-rule:nonzero;display:inline;overflow:visible;visibility:visible;opacity:1;isolation:auto;mix-blend-mode:normal;color-interpolation:sRGB;color-interpolation-filters:linearRGB;solid-color:#000000;solid-opacity:1;fill:#000000;fill-opacity:1;fill-rule:evenodd;stroke:none;stroke-width:0.24999999;stroke-linecap:butt;stroke-linejoin:miter;stroke-miterlimit:4;stroke-dasharray:none;stroke-dashoffset:0;stroke-opacity:1;color-rendering:auto;image-rendering:auto;shape-rendering:auto;text-rendering:auto;enable-background:accumulate" d="m 23.857422,1047.6641 -0.332031,0.8164 0.230468,0.094 0.333985,-0.8164 -0.232422,-0.094 z"/><path style="color:#000000;font-style:normal;font-variant:normal;font-weight:normal;font-stretch:normal;font-size:medium;line-height:normal;font-family:sans-serif;text-indent:0;text-align:start;text-decoration:none;text-decoration-line:none;text-decoration-style:solid;text-decoration-color:#000000;letter-spacing:normal;word-spacing:normal;text-transform:none;direction:ltr;block-progression:tb;writing-mode:lr-tb;baseline-shift:baseline;text-anchor:start;white-space:normal;clip-rule:nonzero;display:inline;overflow:visible;visibility:visible;opacity:1;isolation:auto;mix-blend-mode:normal;color-interpolation:sRGB;color-interpolation-filters:linearRGB;solid-color:#000000;solid-opacity:1;fill:#000000;fill-opacity:1;fill-rule:evenodd;stroke:none;stroke-width:0.24999999;stroke-linecap:butt;stroke-linejoin:miter;stroke-miterlimit:4;stroke-dasharray:none;stroke-dashoffset:0;stroke-opacity:1;color-rendering:auto;image-rendering:auto;shape-rendering:auto;text-rendering:auto;enable-background:accumulate" d="m 24.429688,1047.7363 -0.28711,0.7207 0.232422,0.092 0.287109,-0.7207 -0.232421,-0.092 z"/></g><text x="0" y="47" fill="#000000" font-size="5px" font-weight="bold" font-family="'Helvetica Neue', Helvetica, Arial-Unicode, Arial, Sans-serif">Created by P Thanga Vignesh</text><text x="0" y="52" fill="#000000" font-size="5px" font-weight="bold" font-family="'Helvetica Neue', Helvetica, Arial-Unicode, Arial, Sans-serif">from the Noun Project</text></svg>