<svg xmlns="http://www.w3.org/2000/svg" version="1.1" viewBox="-5.0 -10.0 110.0 135.0">
 <path d="m15.027 34.242c0.42969-0.6875 1.5078-1.4727 3.207-2.0898 3.0117-1.1016 8.2969-2.0352 14.27-2.5703 8.8789-0.80078 19.273-0.73047 25.828 0.83203 3.2031 0.76172 5.543 1.9531 6.6602 3.4102 0.39844 0.51953 0.78906 1.4062 1.0859 2.6094 0.55859 2.2539 0.90234 5.8164 0.96484 9.7773 0.078125 5.0273-0.29297 10.707-1.2031 15.152-0.66016 3.2227-1.6445 5.8203-2.8633 7.2344-0.39844 0.46094-1.1055 0.91797-2.1328 1.25-1.668 0.53516-4.4141 0.85547-7.7148 0.98828-10.516 0.42969-26.871-0.91016-30.266-1.4922-2.3672-0.40625-4.1406-1.1523-5.4766-2.4492-1.3203-1.2891-2.2422-3.1406-2.7578-5.9219-0.89844-4.8281-0.61328-12.785 0.16406-25.992 0.015625-0.26172 0.097656-0.51562 0.23438-0.73828zm2.8516 1.4766c-0.73047 12.492-1.0391 20.062-0.17969 24.68 0.36719 1.9766 0.92578 3.3359 1.8672 4.2539 0.92188 0.89844 2.1875 1.332 3.8242 1.6094 3.3203 0.57031 19.32 1.8672 29.609 1.4492 2.5547-0.10156 4.7422-0.30469 6.2656-0.66797 0.42188-0.10156 0.78516-0.21094 1.0742-0.33984 0.11328-0.054687 0.21094-0.082031 0.26953-0.14453 0.97266-1.1328 1.6445-3.25 2.1719-5.8242 0.86719-4.2461 1.2109-9.6758 1.1367-14.477-0.050781-3.1719-0.28125-6.0703-0.67578-8.1562-0.21094-1.1172-0.41406-1.9648-0.73438-2.3789-0.38281-0.5-1.0195-0.89844-1.8242-1.2656-1.5078-0.69141-3.5508-1.1914-5.918-1.5508-6.2344-0.94531-14.648-0.87891-21.984-0.21484-4.8555 0.43359-9.2422 1.1328-12.195 1.9766-0.90234 0.25781-1.6641 0.52734-2.2422 0.8125-0.17969 0.089843-0.33984 0.16016-0.46484 0.23438zm20.473 5.2695c3.6875 0.22656 5.9609 1.6797 7.1836 3.5312 1.1836 1.793 1.4297 4.0352 0.86719 6.2266-0.79297 3.0859-3.1992 6.0391-6.4922 7.2344-2.1562 0.78125-4.5234 0.14062-6.3477-1.4453-2.3828-2.0664-3.7852-5.707-2.4297-9.2578 0.84766-2.2148 2.7969-4.457 6.4688-6.1484 0.23438-0.10938 0.49219-0.15625 0.74609-0.14062zm0.20313 3.1484h-0.007813c-2.4766 1.2109-3.8984 2.6953-4.4922 4.2539-0.85156 2.2227 0.066406 4.4922 1.5547 5.7852 0.9375 0.8125 2.125 1.2656 3.2305 0.86719 2.3047-0.83594 3.9766-2.9141 4.5312-5.0742 0.33594-1.3047 0.26172-2.6523-0.44531-3.7227-0.75781-1.1445-2.1914-1.8984-4.375-2.1055zm44.336 20.398c-2.4375-1.6484-5.8789-3.8711-11.406-6.7617-0.50781-0.26563-0.82812-0.78906-0.83594-1.3594-0.10547-6.6445-0.10156-6.6133-0.39063-13.598-0.023437-0.57031 0.26563-1.1094 0.75781-1.4023 7.1289-4.2812 7.1445-4.1953 12.836-6.7773 0.50781-0.23047 1.0938-0.17578 1.5469 0.14453 0.45312 0.32031 0.70312 0.85547 0.65625 1.4062-0.62891 7.5391-0.21875 7.5-0.39063 15.027-0.10547 4.6562-0.58984 5.5898-0.33594 11.965 0.023437 0.58594-0.28516 1.1406-0.80078 1.4297-0.51172 0.28516-1.1484 0.25781-1.6328-0.070313zm-0.76172-4.2422c-0.023437-3.9297 0.32031-5.2656 0.40625-9.1484 0.15234-6.6211-0.13672-7.4609 0.20312-12.57-3.1953 1.4531-4.2422 2-9.3203 5.0469 0.24219 5.7969 0.25391 6.332 0.33984 11.82 3.582 1.9023 6.2695 3.5117 8.3711 4.8555z" fill-rule="evenodd"/>
<text x="0.0" y="117.5" font-size="5.0" font-weight="bold" font-family="Arbeit Regular, Helvetica, Arial-Unicode, Arial, Sans-serif" fill="#000000">Created by Muhammad Ramzan Tohir</text><text x="0.0" y="122.5" font-size="5.0" font-weight="bold" font-family="Arbeit Regular, Helvetica, Arial-Unicode, Arial, Sans-serif" fill="#000000">from Noun Project</text></svg>