<svg xmlns:dc="http://purl.org/dc/elements/1.1/" xmlns:cc="http://creativecommons.org/ns#" xmlns:rdf="http://www.w3.org/1999/02/22-rdf-syntax-ns#" xmlns:svg="http://www.w3.org/2000/svg" xmlns="http://www.w3.org/2000/svg" xmlns:sodipodi="http://sodipodi.sourceforge.net/DTD/sodipodi-0.dtd" xmlns:inkscape="http://www.inkscape.org/namespaces/inkscape" viewBox="0 0 32 40" version="1.1" x="0px" y="0px"><g transform="translate(0,-1020.3622)"><path style="color:#000000;font-style:normal;font-variant:normal;font-weight:normal;font-stretch:normal;font-size:medium;line-height:normal;font-family:sans-serif;text-indent:0;text-align:start;text-decoration:none;text-decoration-line:none;text-decoration-style:solid;text-decoration-color:#000000;letter-spacing:normal;word-spacing:normal;text-transform:none;direction:ltr;block-progression:tb;writing-mode:lr-tb;baseline-shift:baseline;text-anchor:start;white-space:normal;clip-rule:nonzero;display:inline;overflow:visible;visibility:visible;opacity:1;isolation:auto;mix-blend-mode:normal;color-interpolation:sRGB;color-interpolation-filters:linearRGB;solid-color:#000000;solid-opacity:1;fill:#000000;fill-opacity:1;fill-rule:evenodd;stroke:none;stroke-width:1px;stroke-linecap:butt;stroke-linejoin:miter;stroke-miterlimit:4;stroke-dasharray:none;stroke-dashoffset:0;stroke-opacity:1;color-rendering:auto;image-rendering:auto;shape-rendering:auto;text-rendering:auto;enable-background:accumulate" d="m 19.900391,1020.9902 c -1.960392,-0.2502 -3.919696,0.1736 -5.738282,0.6368 -1.873697,0.4771 -3.748273,1.1628 -5.4160152,2.2089 -1.9593419,1.2295 -3.6498976,2.8635 -5.1152344,4.6075 -1.0545177,1.2551 -2.0408389,2.6538 -2.65039065,4.2324 -0.59364597,1.5348 -0.76869704,3.163 -0.88671875,4.7402 l -0.01757813,0 -0.03125,0.4668 c -0.07723771,1.1553 -0.07236402,2.3485 0.14648438,3.5215 0.25504839,1.3695 0.63110485,2.7932 1.38281255,4.0469 1.0353723,1.7269 2.4002798,3.4134 4.1992187,4.4707 2.0956271,1.2315 4.5812605,1.5101 6.8671875,1.7304 2.663059,0.2567 5.44515,0.2452 8.083984,-0.4296 2.076171,-0.531 4.10053,-1.4686 5.802735,-2.793 1.780994,-1.3856 3.423198,-3.1442 4.380859,-5.2461 0.962938,-2.1121 1.124014,-4.499 1.085938,-6.7285 -0.01613,-1.784 -0.407991,-3.5398 -0.923829,-5.2031 -0.47178,-1.5229 -1.06332,-3.0807 -2.011718,-4.4375 -1.034765,-1.4807 -2.349905,-2.8202 -3.886719,-3.8067 -1.572156,-1.0091 -3.384729,-1.7767 -5.271484,-2.0176 z m -0.126953,0.9922 c 1.701096,0.2172 3.388623,0.9232 4.859374,1.8672 1.40784,0.9037 2.638523,2.1527 3.607422,3.5391 0.853462,1.221 1.416373,2.6778 1.875,4.1582 0.499221,1.6098 0.864053,3.2755 0.878907,4.9179 l 0,0 0,0 c 0.03725,2.1681 -0.134291,4.4085 -0.996094,6.2988 -0.865363,1.8993 -2.392767,3.5572 -4.083985,4.873 -1.578783,1.2284 -3.484424,2.1138 -5.4375,2.6133 -2.477273,0.6335 -5.146605,0.6543 -7.740234,0.4043 -2.270877,-0.2189 -4.6045989,-0.5102 -6.455078,-1.5977 -1.5863531,-0.9323 -2.8669577,-2.484 -3.8496094,-4.123 -0.6541069,-1.0909 -1.0105587,-2.3997 -1.2558594,-3.7168 -0.19684941,-1.055 -0.2067376,-2.1658 -0.1328124,-3.2715 0.1165383,-1.7003 0.2859691,-3.4021 0.8710937,-4.914 0.5498673,-1.4241 1.4660085,-2.7375 2.4824219,-3.9473 1.4196064,-1.6895 3.040723,-3.2496 4.8808594,-4.4043 1.5482482,-0.9712 3.3252532,-1.6281 5.1308592,-2.0879 1.790427,-0.456 3.631206,-0.8346 5.365235,-0.6133 z"/><path style="color:#000000;font-style:normal;font-variant:normal;font-weight:normal;font-stretch:normal;font-size:medium;line-height:normal;font-family:sans-serif;text-indent:0;text-align:start;text-decoration:none;text-decoration-line:none;text-decoration-style:solid;text-decoration-color:#000000;letter-spacing:normal;word-spacing:normal;text-transform:none;direction:ltr;block-progression:tb;writing-mode:lr-tb;baseline-shift:baseline;text-anchor:start;white-space:normal;clip-rule:nonzero;display:inline;overflow:visible;visibility:visible;opacity:1;isolation:auto;mix-blend-mode:normal;color-interpolation:sRGB;color-interpolation-filters:linearRGB;solid-color:#000000;solid-opacity:1;fill:#000000;fill-opacity:1;fill-rule:evenodd;stroke:none;stroke-width:1px;stroke-linecap:butt;stroke-linejoin:miter;stroke-miterlimit:4;stroke-dasharray:none;stroke-dashoffset:0;stroke-opacity:1;color-rendering:auto;image-rendering:auto;shape-rendering:auto;text-rendering:auto;enable-background:accumulate" d="m 10.404297,1023.7871 -0.9746095,0.2227 c 0,0 0.5428019,2.3908 0.7167965,3.5468 l 0,0 c 0.161902,1.054 0.373866,2.0619 0.308594,3.0098 -0.08071,1.2023 -0.315232,2.4119 -0.8183592,3.455 l 0,0 c -0.4583433,0.9513 -1.1865358,1.8105 -2.0019532,2.5488 -0.9949175,0.9008 -2.2346272,1.5747 -3.4980468,2.2129 -1.1094513,0.5604 -3.68164067,1.4258 -3.68164068,1.4258 l 0.31835938,0.9492 c 0,0 2.5317522,-0.8346 3.8144531,-1.4824 1.2791396,-0.6462 2.6026783,-1.3528 3.71875,-2.3633 0.8813857,-0.7981 1.6956724,-1.7474 2.2304684,-2.8574 0.580711,-1.204 0.829696,-2.5364 0.916016,-3.8223 0.07828,-1.1367 -0.16281,-2.2164 -0.318359,-3.2285 l 0,-0 c -0.189063,-1.2548 -0.730469,-3.6191 -0.730469,-3.6191 z"/><path style="color:#000000;font-style:normal;font-variant:normal;font-weight:normal;font-stretch:normal;font-size:medium;line-height:normal;font-family:sans-serif;text-indent:0;text-align:start;text-decoration:none;text-decoration-line:none;text-decoration-style:solid;text-decoration-color:#000000;letter-spacing:normal;word-spacing:normal;text-transform:none;direction:ltr;block-progression:tb;writing-mode:lr-tb;baseline-shift:baseline;text-anchor:start;white-space:normal;clip-rule:nonzero;display:inline;overflow:visible;visibility:visible;opacity:1;isolation:auto;mix-blend-mode:normal;color-interpolation:sRGB;color-interpolation-filters:linearRGB;solid-color:#000000;solid-opacity:1;fill:#000000;fill-opacity:1;fill-rule:evenodd;stroke:none;stroke-width:1px;stroke-linecap:butt;stroke-linejoin:miter;stroke-miterlimit:4;stroke-dasharray:none;stroke-dashoffset:0;stroke-opacity:1;color-rendering:auto;image-rendering:auto;shape-rendering:auto;text-rendering:auto;enable-background:accumulate" d="m 26.234375,1024.541 c 0,0 -2.162559,1.2161 -3.240234,1.9375 -1.07084,0.7168 -2.049126,1.5221 -3.041016,2.2676 -1.397717,1.0508 -3.046755,1.9386 -4.363281,3.3125 -1.241835,1.2961 -2.211269,2.8232 -3.03125,4.375 -0.677222,1.2816 -1.09213,2.6488 -1.523438,3.959 -0.629347,1.9118 -1.1985554,3.8584 -1.6113279,5.8437 -0.2808984,1.3535 -0.5625,3.9629 -0.5625,3.9629 l 0.9941407,0.1094 c 0,0 0.2919012,-2.6406 0.5468752,-3.8691 0.401995,-1.9335 0.95975,-3.8441 1.582031,-5.7344 0.43561,-1.3233 0.84074,-2.6347 1.458984,-3.8047 0.794439,-1.5034 1.717627,-2.9506 2.867188,-4.1504 1.172372,-1.2235 2.76403,-2.0919 4.242187,-3.2031 1.015553,-0.7633 1.980132,-1.5583 2.996094,-2.2383 0.9925,-0.6644 3.175781,-1.8965 3.175781,-1.8965 l -0.490234,-0.8711 z"/><path style="color:#000000;font-style:normal;font-variant:normal;font-weight:normal;font-stretch:normal;font-size:medium;line-height:normal;font-family:sans-serif;text-indent:0;text-align:start;text-decoration:none;text-decoration-line:none;text-decoration-style:solid;text-decoration-color:#000000;letter-spacing:normal;word-spacing:normal;text-transform:none;direction:ltr;block-progression:tb;writing-mode:lr-tb;baseline-shift:baseline;text-anchor:start;white-space:normal;clip-rule:nonzero;display:inline;overflow:visible;visibility:visible;opacity:1;isolation:auto;mix-blend-mode:normal;color-interpolation:sRGB;color-interpolation-filters:linearRGB;solid-color:#000000;solid-opacity:1;fill:#000000;fill-opacity:1;fill-rule:evenodd;stroke:none;stroke-width:1px;stroke-linecap:butt;stroke-linejoin:miter;stroke-miterlimit:4;stroke-dasharray:none;stroke-dashoffset:0;stroke-opacity:1;color-rendering:auto;image-rendering:auto;shape-rendering:auto;text-rendering:auto;enable-background:accumulate" d="m 30.283203,1031.4004 c 0,0 -1.143417,1.2019 -1.695312,1.6035 -0.571549,0.4157 -1.234753,0.7446 -1.921875,1.0508 -1.110102,0.4947 -2.541079,0.5953 -3.826172,1.3476 -1.003175,0.5875 -1.973125,1.3563 -2.66211,2.3536 -0.39453,0.5699 -0.633475,1.2371 -0.722656,1.9082 l 0,0 c -0.08928,0.692 0.04385,1.3524 0.183594,1.9434 0.193152,0.8229 0.603633,1.4745 0.792969,2.0918 0.326937,1.0683 0.648273,2.116 0.740234,3.1562 0.08975,1.0324 -0.193359,3.4219 -0.193359,3.4219 l 0.992187,0.1269 c 0,0 0.313539,-2.3216 0.199219,-3.6367 l -0.002,0 c -0.104559,-1.1827 -0.453212,-2.2958 -0.779297,-3.3613 -0.241481,-0.7873 -0.634914,-1.4205 -0.777344,-2.0273 -0.132344,-0.5597 -0.225948,-1.1063 -0.164062,-1.586 0.06974,-0.5227 0.261326,-1.0497 0.552734,-1.4707 0.574737,-0.8319 1.427913,-1.5222 2.34375,-2.0586 1.017872,-0.5959 2.403068,-0.7073 3.730469,-1.2988 0.710377,-0.3166 1.436599,-0.6706 2.101562,-1.1543 0.757177,-0.551 1.837891,-1.7305 1.837891,-1.7305 l -0.730469,-0.6816 z"/><path style="color:#000000;font-style:normal;font-variant:normal;font-weight:normal;font-stretch:normal;font-size:medium;line-height:normal;font-family:sans-serif;text-indent:0;text-align:start;text-decoration:none;text-decoration-line:none;text-decoration-style:solid;text-decoration-color:#000000;letter-spacing:normal;word-spacing:normal;text-transform:none;direction:ltr;block-progression:tb;writing-mode:lr-tb;baseline-shift:baseline;text-anchor:start;white-space:normal;clip-rule:nonzero;display:inline;overflow:visible;visibility:visible;opacity:1;isolation:auto;mix-blend-mode:normal;color-interpolation:sRGB;color-interpolation-filters:linearRGB;solid-color:#000000;solid-opacity:1;fill:#000000;fill-opacity:1;fill-rule:evenodd;stroke:none;stroke-width:0.5;stroke-linecap:round;stroke-linejoin:round;stroke-miterlimit:4;stroke-dasharray:none;stroke-dashoffset:0;stroke-opacity:1;color-rendering:auto;image-rendering:auto;shape-rendering:auto;text-rendering:auto;enable-background:accumulate" d="M 9.0898438,1025.9492 A 0.250025,0.250025 0 0 0 8.875,1026.291 c 0,0 0.282657,0.7698 0.3554688,1.1152 0.087521,0.4154 0.1425781,1.3829 0.1425781,1.3829 a 0.25032237,0.25032237 0 1 0 0.5,-0.025 c 0,0 -0.043353,-0.9437 -0.1523438,-1.461 -0.093467,-0.4435 -0.3769531,-1.1875 -0.3769531,-1.1875 a 0.250025,0.250025 0 0 0 -0.2539062,-0.166 z"/><path style="color:#000000;font-style:normal;font-variant:normal;font-weight:normal;font-stretch:normal;font-size:medium;line-height:normal;font-family:sans-serif;text-indent:0;text-align:start;text-decoration:none;text-decoration-line:none;text-decoration-style:solid;text-decoration-color:#000000;letter-spacing:normal;word-spacing:normal;text-transform:none;direction:ltr;block-progression:tb;writing-mode:lr-tb;baseline-shift:baseline;text-anchor:start;white-space:normal;clip-rule:nonzero;display:inline;overflow:visible;visibility:visible;opacity:1;isolation:auto;mix-blend-mode:normal;color-interpolation:sRGB;color-interpolation-filters:linearRGB;solid-color:#000000;solid-opacity:1;fill:#000000;fill-opacity:1;fill-rule:evenodd;stroke:none;stroke-width:0.5;stroke-linecap:round;stroke-linejoin:round;stroke-miterlimit:4;stroke-dasharray:none;stroke-dashoffset:0;stroke-opacity:1;color-rendering:auto;image-rendering:auto;shape-rendering:auto;text-rendering:auto;enable-background:accumulate" d="m 25.130859,1027.0039 a 0.250025,0.250025 0 0 0 -0.113281,0.029 c 0,0 -0.786427,0.3925 -1.1875,0.6816 -0.440995,0.3173 -1.132812,1.0059 -1.132812,1.0059 a 0.250025,0.250025 0 1 0 0.351562,0.3555 c 0,0 0.716318,-0.6976 1.074219,-0.9551 0.316951,-0.2285 1.121094,-0.6426 1.121094,-0.6426 a 0.250025,0.250025 0 0 0 -0.113282,-0.4746 z"/><path style="color:#000000;font-style:normal;font-variant:normal;font-weight:normal;font-stretch:normal;font-size:medium;line-height:normal;font-family:sans-serif;text-indent:0;text-align:start;text-decoration:none;text-decoration-line:none;text-decoration-style:solid;text-decoration-color:#000000;letter-spacing:normal;word-spacing:normal;text-transform:none;direction:ltr;block-progression:tb;writing-mode:lr-tb;baseline-shift:baseline;text-anchor:start;white-space:normal;clip-rule:nonzero;display:inline;overflow:visible;visibility:visible;opacity:1;isolation:auto;mix-blend-mode:normal;color-interpolation:sRGB;color-interpolation-filters:linearRGB;solid-color:#000000;solid-opacity:1;fill:#000000;fill-opacity:1;fill-rule:evenodd;stroke:none;stroke-width:0.24999997;stroke-linecap:round;stroke-linejoin:round;stroke-miterlimit:4;stroke-dasharray:none;stroke-dashoffset:0;stroke-opacity:1;color-rendering:auto;image-rendering:auto;shape-rendering:auto;text-rendering:auto;enable-background:accumulate" d="m 25.025391,1035.8789 a 0.12501249,0.12501249 0 0 0 -0.09961,0.061 l -0.662109,1.0781 a 0.12501249,0.12501249 0 1 0 0.21289,0.1308 l 0.66211,-1.0781 a 0.12501249,0.12501249 0 0 0 -0.113281,-0.1914 z"/><path style="color:#000000;font-style:normal;font-variant:normal;font-weight:normal;font-stretch:normal;font-size:medium;line-height:normal;font-family:sans-serif;text-indent:0;text-align:start;text-decoration:none;text-decoration-line:none;text-decoration-style:solid;text-decoration-color:#000000;letter-spacing:normal;word-spacing:normal;text-transform:none;direction:ltr;block-progression:tb;writing-mode:lr-tb;baseline-shift:baseline;text-anchor:start;white-space:normal;clip-rule:nonzero;display:inline;overflow:visible;visibility:visible;opacity:1;isolation:auto;mix-blend-mode:normal;color-interpolation:sRGB;color-interpolation-filters:linearRGB;solid-color:#000000;solid-opacity:1;fill:#000000;fill-opacity:1;fill-rule:evenodd;stroke:none;stroke-width:0.24999997;stroke-linecap:round;stroke-linejoin:round;stroke-miterlimit:4;stroke-dasharray:none;stroke-dashoffset:0;stroke-opacity:1;color-rendering:auto;image-rendering:auto;shape-rendering:auto;text-rendering:auto;enable-background:accumulate" d="m 25.855469,1035.4629 a 0.12501249,0.12501249 0 0 0 -0.103516,0.074 l -0.515625,1.127 a 0.12543107,0.12543107 0 1 0 0.228516,0.1035 l 0.515625,-1.127 a 0.12501249,0.12501249 0 0 0 -0.125,-0.1777 z"/><path style="color:#000000;font-style:normal;font-variant:normal;font-weight:normal;font-stretch:normal;font-size:medium;line-height:normal;font-family:sans-serif;text-indent:0;text-align:start;text-decoration:none;text-decoration-line:none;text-decoration-style:solid;text-decoration-color:#000000;letter-spacing:normal;word-spacing:normal;text-transform:none;direction:ltr;block-progression:tb;writing-mode:lr-tb;baseline-shift:baseline;text-anchor:start;white-space:normal;clip-rule:nonzero;display:inline;overflow:visible;visibility:visible;opacity:1;isolation:auto;mix-blend-mode:normal;color-interpolation:sRGB;color-interpolation-filters:linearRGB;solid-color:#000000;solid-opacity:1;fill:#000000;fill-opacity:1;fill-rule:evenodd;stroke:none;stroke-width:0.24999997;stroke-linecap:round;stroke-linejoin:round;stroke-miterlimit:4;stroke-dasharray:none;stroke-dashoffset:0;stroke-opacity:1;color-rendering:auto;image-rendering:auto;shape-rendering:auto;text-rendering:auto;enable-background:accumulate" d="m 26.84375,1035.0938 a 0.12501249,0.12501249 0 0 0 -0.111328,0.08 l -0.515625,1.2754 a 0.12501249,0.12501249 0 1 0 0.230469,0.094 l 0.515625,-1.2754 a 0.12501249,0.12501249 0 0 0 -0.119141,-0.1738 z"/><path style="color:#000000;font-style:normal;font-variant:normal;font-weight:normal;font-stretch:normal;font-size:medium;line-height:normal;font-family:sans-serif;text-indent:0;text-align:start;text-decoration:none;text-decoration-line:none;text-decoration-style:solid;text-decoration-color:#000000;letter-spacing:normal;word-spacing:normal;text-transform:none;direction:ltr;block-progression:tb;writing-mode:lr-tb;baseline-shift:baseline;text-anchor:start;white-space:normal;clip-rule:nonzero;display:inline;overflow:visible;visibility:visible;opacity:1;isolation:auto;mix-blend-mode:normal;color-interpolation:sRGB;color-interpolation-filters:linearRGB;solid-color:#000000;solid-opacity:1;fill:#000000;fill-opacity:1;fill-rule:evenodd;stroke:none;stroke-width:0.24999997;stroke-linecap:round;stroke-linejoin:round;stroke-miterlimit:4;stroke-dasharray:none;stroke-dashoffset:0;stroke-opacity:1;color-rendering:auto;image-rendering:auto;shape-rendering:auto;text-rendering:auto;enable-background:accumulate" d="m 27.673828,1034.7754 a 0.12501249,0.12501249 0 0 0 -0.109375,0.086 l -0.417969,1.1758 a 0.12540626,0.12540626 0 0 0 0.236328,0.084 l 0.416016,-1.1758 a 0.12501249,0.12501249 0 0 0 -0.125,-0.1699 z"/><path style="color:#000000;font-style:normal;font-variant:normal;font-weight:normal;font-stretch:normal;font-size:medium;line-height:normal;font-family:sans-serif;text-indent:0;text-align:start;text-decoration:none;text-decoration-line:none;text-decoration-style:solid;text-decoration-color:#000000;letter-spacing:normal;word-spacing:normal;text-transform:none;direction:ltr;block-progression:tb;writing-mode:lr-tb;baseline-shift:baseline;text-anchor:start;white-space:normal;clip-rule:nonzero;display:inline;overflow:visible;visibility:visible;opacity:1;isolation:auto;mix-blend-mode:normal;color-interpolation:sRGB;color-interpolation-filters:linearRGB;solid-color:#000000;solid-opacity:1;fill:#000000;fill-opacity:1;fill-rule:evenodd;stroke:none;stroke-width:0.24999997;stroke-linecap:round;stroke-linejoin:round;stroke-miterlimit:4;stroke-dasharray:none;stroke-dashoffset:0;stroke-opacity:1;color-rendering:auto;image-rendering:auto;shape-rendering:auto;text-rendering:auto;enable-background:accumulate" d="m 28.486328,1034.4082 a 0.12501249,0.12501249 0 0 0 -0.115234,0.094 l -0.31836,1.1523 a 0.12556272,0.12556272 0 1 0 0.242188,0.066 l 0.316406,-1.1523 a 0.12501249,0.12501249 0 0 0 -0.125,-0.1602 z"/><path style="color:#000000;font-style:normal;font-variant:normal;font-weight:normal;font-stretch:normal;font-size:medium;line-height:normal;font-family:sans-serif;text-indent:0;text-align:start;text-decoration:none;text-decoration-line:none;text-decoration-style:solid;text-decoration-color:#000000;letter-spacing:normal;word-spacing:normal;text-transform:none;direction:ltr;block-progression:tb;writing-mode:lr-tb;baseline-shift:baseline;text-anchor:start;white-space:normal;clip-rule:nonzero;display:inline;overflow:visible;visibility:visible;opacity:1;isolation:auto;mix-blend-mode:normal;color-interpolation:sRGB;color-interpolation-filters:linearRGB;solid-color:#000000;solid-opacity:1;fill:#000000;fill-opacity:1;fill-rule:evenodd;stroke:none;stroke-width:0.24999997;stroke-linecap:round;stroke-linejoin:round;stroke-miterlimit:4;stroke-dasharray:none;stroke-dashoffset:0;stroke-opacity:1;color-rendering:auto;image-rendering:auto;shape-rendering:auto;text-rendering:auto;enable-background:accumulate" d="m 29.238281,1033.8691 a 0.12501249,0.12501249 0 0 0 -0.109375,0.1016 l -0.294922,1.3965 a 0.12564125,0.12564125 0 1 0 0.246094,0.051 l 0.294922,-1.3965 a 0.12501249,0.12501249 0 0 0 -0.136719,-0.1524 z"/><path style="color:#000000;font-style:normal;font-variant:normal;font-weight:normal;font-stretch:normal;font-size:medium;line-height:normal;font-family:sans-serif;text-indent:0;text-align:start;text-decoration:none;text-decoration-line:none;text-decoration-style:solid;text-decoration-color:#000000;letter-spacing:normal;word-spacing:normal;text-transform:none;direction:ltr;block-progression:tb;writing-mode:lr-tb;baseline-shift:baseline;text-anchor:start;white-space:normal;clip-rule:nonzero;display:inline;overflow:visible;visibility:visible;opacity:1;isolation:auto;mix-blend-mode:normal;color-interpolation:sRGB;color-interpolation-filters:linearRGB;solid-color:#000000;solid-opacity:1;fill:#000000;fill-opacity:1;fill-rule:evenodd;stroke:none;stroke-width:1px;stroke-linecap:butt;stroke-linejoin:miter;stroke-miterlimit:4;stroke-dasharray:none;stroke-dashoffset:0;stroke-opacity:1;color-rendering:auto;image-rendering:auto;shape-rendering:auto;text-rendering:auto;enable-background:accumulate" d="m 4.1289062,1028.959 -0.8808593,0.4726 c 0,0 0.7664576,1.4467 1.3125,2.1895 0.5604877,0.7632 1.2147546,1.4184 1.8339843,2.0605 0.3910163,0.4053 0.7976568,0.807 1.2363282,1.1836 0.7540786,0.647 1.541785,1.2684 2.3789066,1.8262 1.0058,0.6704 2.05517,1.3226 3.189453,1.8301 0.79132,0.354 1.621891,0.6309 2.470703,0.8183 0.921363,0.2035 1.864675,0.3078 2.804687,0.3223 1.338243,0.021 2.568609,-0.3196 3.716797,-0.3105 1.381613,0.011 2.759758,0.077 4.046875,0.4004 0.900493,0.2267 1.779433,0.5529 2.517578,1.041 0.264483,0.1749 0.70765,0.5965 1.052735,0.9609 0.345085,0.3645 0.605469,0.6738 0.605468,0.6738 l 0.763672,-0.6465 c 0,0 -0.276819,-0.3285 -0.642578,-0.7148 -0.365758,-0.3863 -0.805963,-0.828 -1.228515,-1.1074 -0.870229,-0.5754 -1.854072,-0.9315 -2.824219,-1.1758 l 0,-0 -0.002,0 c -1.417941,-0.3563 -2.873907,-0.4185 -4.28125,-0.4296 -1.336172,-0.011 -2.563621,0.328 -3.708985,0.3105 -0.875453,-0.014 -1.753691,-0.1107 -2.605468,-0.2988 -0.779969,-0.1722 -1.546454,-0.4289 -2.277344,-0.7559 -1.052287,-0.4707 -2.055687,-1.09 -3.042969,-1.748 -0.7931697,-0.5286 -1.550595,-1.1234 -2.283203,-1.752 -0.4033056,-0.3463 -0.7880544,-0.7273 -1.1679688,-1.1211 -0.626352,-0.6495 -1.2466154,-1.2742 -1.7480468,-1.957 -0.4342487,-0.5908 -1.2363281,-2.0703 -1.2363282,-2.0703 z"/><path style="color:#000000;font-style:normal;font-variant:normal;font-weight:normal;font-stretch:normal;font-size:medium;line-height:normal;font-family:sans-serif;text-indent:0;text-align:start;text-decoration:none;text-decoration-line:none;text-decoration-style:solid;text-decoration-color:#000000;letter-spacing:normal;word-spacing:normal;text-transform:none;direction:ltr;block-progression:tb;writing-mode:lr-tb;baseline-shift:baseline;text-anchor:start;white-space:normal;clip-rule:nonzero;display:inline;overflow:visible;visibility:visible;opacity:1;isolation:auto;mix-blend-mode:normal;color-interpolation:sRGB;color-interpolation-filters:linearRGB;solid-color:#000000;solid-opacity:1;fill:#000000;fill-opacity:1;fill-rule:evenodd;stroke:none;stroke-width:0.24999997;stroke-linecap:round;stroke-linejoin:round;stroke-miterlimit:4;stroke-dasharray:none;stroke-dashoffset:0;stroke-opacity:1;color-rendering:auto;image-rendering:auto;shape-rendering:auto;text-rendering:auto;enable-background:accumulate" d="m 2.3027344,1036.4727 a 0.12501249,0.12501249 0 0 0 -0.1074219,0.088 l -0.8496094,2.6153 a 0.12537702,0.12537702 0 0 0 0.2382813,0.078 l 0.8496094,-2.6172 a 0.12501249,0.12501249 0 0 0 -0.1308594,-0.164 z"/><path style="color:#000000;font-style:normal;font-variant:normal;font-weight:normal;font-stretch:normal;font-size:medium;line-height:normal;font-family:sans-serif;text-indent:0;text-align:start;text-decoration:none;text-decoration-line:none;text-decoration-style:solid;text-decoration-color:#000000;letter-spacing:normal;word-spacing:normal;text-transform:none;direction:ltr;block-progression:tb;writing-mode:lr-tb;baseline-shift:baseline;text-anchor:start;white-space:normal;clip-rule:nonzero;display:inline;overflow:visible;visibility:visible;opacity:1;isolation:auto;mix-blend-mode:normal;color-interpolation:sRGB;color-interpolation-filters:linearRGB;solid-color:#000000;solid-opacity:1;fill:#000000;fill-opacity:1;fill-rule:evenodd;stroke:none;stroke-width:0.24999997;stroke-linecap:round;stroke-linejoin:round;stroke-miterlimit:4;stroke-dasharray:none;stroke-dashoffset:0;stroke-opacity:1;color-rendering:auto;image-rendering:auto;shape-rendering:auto;text-rendering:auto;enable-background:accumulate" d="m 2.8730469,1036.6973 a 0.12501249,0.12501249 0 0 0 -0.1054688,0.09 l -0.6601562,2.1484 a 0.12573087,0.12573087 0 1 0 0.2402343,0.074 l 0.6582032,-2.1485 a 0.12501249,0.12501249 0 0 0 -0.1328125,-0.164 z"/><path style="color:#000000;font-style:normal;font-variant:normal;font-weight:normal;font-stretch:normal;font-size:medium;line-height:normal;font-family:sans-serif;text-indent:0;text-align:start;text-decoration:none;text-decoration-line:none;text-decoration-style:solid;text-decoration-color:#000000;letter-spacing:normal;word-spacing:normal;text-transform:none;direction:ltr;block-progression:tb;writing-mode:lr-tb;baseline-shift:baseline;text-anchor:start;white-space:normal;clip-rule:nonzero;display:inline;overflow:visible;visibility:visible;opacity:1;isolation:auto;mix-blend-mode:normal;color-interpolation:sRGB;color-interpolation-filters:linearRGB;solid-color:#000000;solid-opacity:1;fill:#000000;fill-opacity:1;fill-rule:evenodd;stroke:none;stroke-width:0.24999997;stroke-linecap:round;stroke-linejoin:round;stroke-miterlimit:4;stroke-dasharray:none;stroke-dashoffset:0;stroke-opacity:1;color-rendering:auto;image-rendering:auto;shape-rendering:auto;text-rendering:auto;enable-background:accumulate" d="m 3.6523438,1036.6094 a 0.12501249,0.12501249 0 0 0 -0.1210938,0.088 l -0.625,1.8535 a 0.12569202,0.12569202 0 1 0 0.2382812,0.08 l 0.625,-1.8536 a 0.12501249,0.12501249 0 0 0 -0.1171874,-0.1679 z"/><path style="color:#000000;font-style:normal;font-variant:normal;font-weight:normal;font-stretch:normal;font-size:medium;line-height:normal;font-family:sans-serif;text-indent:0;text-align:start;text-decoration:none;text-decoration-line:none;text-decoration-style:solid;text-decoration-color:#000000;letter-spacing:normal;word-spacing:normal;text-transform:none;direction:ltr;block-progression:tb;writing-mode:lr-tb;baseline-shift:baseline;text-anchor:start;white-space:normal;clip-rule:nonzero;display:inline;overflow:visible;visibility:visible;opacity:1;isolation:auto;mix-blend-mode:normal;color-interpolation:sRGB;color-interpolation-filters:linearRGB;solid-color:#000000;solid-opacity:1;fill:#000000;fill-opacity:1;fill-rule:evenodd;stroke:none;stroke-width:0.24999997;stroke-linecap:round;stroke-linejoin:round;stroke-miterlimit:4;stroke-dasharray:none;stroke-dashoffset:0;stroke-opacity:1;color-rendering:auto;image-rendering:auto;shape-rendering:auto;text-rendering:auto;enable-background:accumulate" d="m 4.2734375,1036.6094 a 0.12501249,0.12501249 0 0 0 -0.1171875,0.092 l -0.5039062,1.6465 a 0.12501249,0.12501249 0 1 0 0.2382812,0.072 l 0.5039062,-1.6465 a 0.12501249,0.12501249 0 0 0 -0.1210937,-0.164 z"/><path style="color:#000000;font-style:normal;font-variant:normal;font-weight:normal;font-stretch:normal;font-size:medium;line-height:normal;font-family:sans-serif;text-indent:0;text-align:start;text-decoration:none;text-decoration-line:none;text-decoration-style:solid;text-decoration-color:#000000;letter-spacing:normal;word-spacing:normal;text-transform:none;direction:ltr;block-progression:tb;writing-mode:lr-tb;baseline-shift:baseline;text-anchor:start;white-space:normal;clip-rule:nonzero;display:inline;overflow:visible;visibility:visible;opacity:1;isolation:auto;mix-blend-mode:normal;color-interpolation:sRGB;color-interpolation-filters:linearRGB;solid-color:#000000;solid-opacity:1;fill:#000000;fill-opacity:1;fill-rule:evenodd;stroke:none;stroke-width:0.24999997;stroke-linecap:round;stroke-linejoin:round;stroke-miterlimit:4;stroke-dasharray:none;stroke-dashoffset:0;stroke-opacity:1;color-rendering:auto;image-rendering:auto;shape-rendering:auto;text-rendering:auto;enable-background:accumulate" d="m 4.8105469,1036.4883 a 0.12501249,0.12501249 0 0 0 -0.1171875,0.09 l -0.46875,1.5254 a 0.12501249,0.12501249 0 1 0 0.2382812,0.074 l 0.46875,-1.5254 a 0.12501249,0.12501249 0 0 0 -0.1210937,-0.164 z"/><path style="color:#000000;font-style:normal;font-variant:normal;font-weight:normal;font-stretch:normal;font-size:medium;line-height:normal;font-family:sans-serif;text-indent:0;text-align:start;text-decoration:none;text-decoration-line:none;text-decoration-style:solid;text-decoration-color:#000000;letter-spacing:normal;word-spacing:normal;text-transform:none;direction:ltr;block-progression:tb;writing-mode:lr-tb;baseline-shift:baseline;text-anchor:start;white-space:normal;clip-rule:nonzero;display:inline;overflow:visible;visibility:visible;opacity:1;isolation:auto;mix-blend-mode:normal;color-interpolation:sRGB;color-interpolation-filters:linearRGB;solid-color:#000000;solid-opacity:1;fill:#000000;fill-opacity:1;fill-rule:evenodd;stroke:none;stroke-width:0.24999997;stroke-linecap:round;stroke-linejoin:round;stroke-miterlimit:4;stroke-dasharray:none;stroke-dashoffset:0;stroke-opacity:1;color-rendering:auto;image-rendering:auto;shape-rendering:auto;text-rendering:auto;enable-background:accumulate" d="m 5.5117188,1036.3496 a 0.12501249,0.12501249 0 0 0 -0.1230469,0.086 l -0.4335938,1.2129 a 0.12540631,0.12540631 0 0 0 0.2363281,0.084 L 5.625,1036.5195 a 0.12501249,0.12501249 0 0 0 -0.1132812,-0.1699 z"/><path style="color:#000000;font-style:normal;font-variant:normal;font-weight:normal;font-stretch:normal;font-size:medium;line-height:normal;font-family:sans-serif;text-indent:0;text-align:start;text-decoration:none;text-decoration-line:none;text-decoration-style:solid;text-decoration-color:#000000;letter-spacing:normal;word-spacing:normal;text-transform:none;direction:ltr;block-progression:tb;writing-mode:lr-tb;baseline-shift:baseline;text-anchor:start;white-space:normal;clip-rule:nonzero;display:inline;overflow:visible;visibility:visible;opacity:1;isolation:auto;mix-blend-mode:normal;color-interpolation:sRGB;color-interpolation-filters:linearRGB;solid-color:#000000;solid-opacity:1;fill:#000000;fill-opacity:1;fill-rule:evenodd;stroke:none;stroke-width:0.24999997;stroke-linecap:round;stroke-linejoin:round;stroke-miterlimit:4;stroke-dasharray:none;stroke-dashoffset:0;stroke-opacity:1;color-rendering:auto;image-rendering:auto;shape-rendering:auto;text-rendering:auto;enable-background:accumulate" d="m 6.1210938,1036.0391 a 0.12501249,0.12501249 0 0 0 -0.1074219,0.086 l -0.4160157,1.1953 a 0.12501249,0.12501249 0 1 0 0.234375,0.082 L 6.25,1036.207 a 0.12501249,0.12501249 0 0 0 -0.1289062,-0.1679 z"/><path style="color:#000000;font-style:normal;font-variant:normal;font-weight:normal;font-stretch:normal;font-size:medium;line-height:normal;font-family:sans-serif;text-indent:0;text-align:start;text-decoration:none;text-decoration-line:none;text-decoration-style:solid;text-decoration-color:#000000;letter-spacing:normal;word-spacing:normal;text-transform:none;direction:ltr;block-progression:tb;writing-mode:lr-tb;baseline-shift:baseline;text-anchor:start;white-space:normal;clip-rule:nonzero;display:inline;overflow:visible;visibility:visible;opacity:1;isolation:auto;mix-blend-mode:normal;color-interpolation:sRGB;color-interpolation-filters:linearRGB;solid-color:#000000;solid-opacity:1;fill:#000000;fill-opacity:1;fill-rule:evenodd;stroke:none;stroke-width:0.24999997;stroke-linecap:round;stroke-linejoin:round;stroke-miterlimit:4;stroke-dasharray:none;stroke-dashoffset:0;stroke-opacity:1;color-rendering:auto;image-rendering:auto;shape-rendering:auto;text-rendering:auto;enable-background:accumulate" d="m 6.6074219,1035.9863 a 0.12501249,0.12501249 0 0 0 -0.109375,0.086 l -0.2597657,0.7441 a 0.12540636,0.12540636 0 1 0 0.2363282,0.084 l 0.2597656,-0.7461 a 0.12501249,0.12501249 0 0 0 -0.1269531,-0.168 z"/><path style="color:#000000;font-style:normal;font-variant:normal;font-weight:normal;font-stretch:normal;font-size:medium;line-height:normal;font-family:sans-serif;text-indent:0;text-align:start;text-decoration:none;text-decoration-line:none;text-decoration-style:solid;text-decoration-color:#000000;letter-spacing:normal;word-spacing:normal;text-transform:none;direction:ltr;block-progression:tb;writing-mode:lr-tb;baseline-shift:baseline;text-anchor:start;white-space:normal;clip-rule:nonzero;display:inline;overflow:visible;visibility:visible;opacity:1;isolation:auto;mix-blend-mode:normal;color-interpolation:sRGB;color-interpolation-filters:linearRGB;solid-color:#000000;solid-opacity:1;fill:#000000;fill-opacity:1;fill-rule:evenodd;stroke:none;stroke-width:0.24999997;stroke-linecap:round;stroke-linejoin:round;stroke-miterlimit:4;stroke-dasharray:none;stroke-dashoffset:0;stroke-opacity:1;color-rendering:auto;image-rendering:auto;shape-rendering:auto;text-rendering:auto;enable-background:accumulate" d="m 12.925781,1039.5293 a 0.12501249,0.12501249 0 0 0 -0.103515,0.074 l -1.128907,2.5 a 0.12543107,0.12543107 0 0 0 0.228516,0.1035 l 1.128906,-2.5 a 0.12501249,0.12501249 0 0 0 -0.125,-0.1777 z"/><path style="color:#000000;font-style:normal;font-variant:normal;font-weight:normal;font-stretch:normal;font-size:medium;line-height:normal;font-family:sans-serif;text-indent:0;text-align:start;text-decoration:none;text-decoration-line:none;text-decoration-style:solid;text-decoration-color:#000000;letter-spacing:normal;word-spacing:normal;text-transform:none;direction:ltr;block-progression:tb;writing-mode:lr-tb;baseline-shift:baseline;text-anchor:start;white-space:normal;clip-rule:nonzero;display:inline;overflow:visible;visibility:visible;opacity:1;isolation:auto;mix-blend-mode:normal;color-interpolation:sRGB;color-interpolation-filters:linearRGB;solid-color:#000000;solid-opacity:1;fill:#000000;fill-opacity:1;fill-rule:evenodd;stroke:none;stroke-width:0.24999997;stroke-linecap:round;stroke-linejoin:round;stroke-miterlimit:4;stroke-dasharray:none;stroke-dashoffset:0;stroke-opacity:1;color-rendering:auto;image-rendering:auto;shape-rendering:auto;text-rendering:auto;enable-background:accumulate" d="m 12.853516,1041.2207 a 0.12501249,0.12501249 0 0 0 -0.09961,0.062 l -1.25,2.1582 a 0.12512588,0.12512588 0 1 0 0.216797,0.125 l 1.25,-2.1562 a 0.12501249,0.12501249 0 0 0 -0.117187,-0.1895 z"/><path style="color:#000000;font-style:normal;font-variant:normal;font-weight:normal;font-stretch:normal;font-size:medium;line-height:normal;font-family:sans-serif;text-indent:0;text-align:start;text-decoration:none;text-decoration-line:none;text-decoration-style:solid;text-decoration-color:#000000;letter-spacing:normal;word-spacing:normal;text-transform:none;direction:ltr;block-progression:tb;writing-mode:lr-tb;baseline-shift:baseline;text-anchor:start;white-space:normal;clip-rule:nonzero;display:inline;overflow:visible;visibility:visible;opacity:1;isolation:auto;mix-blend-mode:normal;color-interpolation:sRGB;color-interpolation-filters:linearRGB;solid-color:#000000;solid-opacity:1;fill:#000000;fill-opacity:1;fill-rule:evenodd;stroke:none;stroke-width:0.24999997;stroke-linecap:round;stroke-linejoin:round;stroke-miterlimit:4;stroke-dasharray:none;stroke-dashoffset:0;stroke-opacity:1;color-rendering:auto;image-rendering:auto;shape-rendering:auto;text-rendering:auto;enable-background:accumulate" d="m 13.042969,1042.2754 a 0.12501249,0.12501249 0 0 0 -0.08984,0.059 l -1.619141,2.5234 a 0.12516577,0.12516577 0 0 0 0.210938,0.1348 l 1.61914,-2.5234 a 0.12501249,0.12501249 0 0 0 -0.121093,-0.1934 z"/><path style="color:#000000;font-style:normal;font-variant:normal;font-weight:normal;font-stretch:normal;font-size:medium;line-height:normal;font-family:sans-serif;text-indent:0;text-align:start;text-decoration:none;text-decoration-line:none;text-decoration-style:solid;text-decoration-color:#000000;letter-spacing:normal;word-spacing:normal;text-transform:none;direction:ltr;block-progression:tb;writing-mode:lr-tb;baseline-shift:baseline;text-anchor:start;white-space:normal;clip-rule:nonzero;display:inline;overflow:visible;visibility:visible;opacity:1;isolation:auto;mix-blend-mode:normal;color-interpolation:sRGB;color-interpolation-filters:linearRGB;solid-color:#000000;solid-opacity:1;fill:#000000;fill-opacity:1;fill-rule:evenodd;stroke:none;stroke-width:0.24999997;stroke-linecap:round;stroke-linejoin:round;stroke-miterlimit:4;stroke-dasharray:none;stroke-dashoffset:0;stroke-opacity:1;color-rendering:auto;image-rendering:auto;shape-rendering:auto;text-rendering:auto;enable-background:accumulate" d="m 12.804688,1043.916 a 0.12501249,0.12501249 0 0 0 -0.0918,0.053 l -1.791016,2.4257 a 0.12502242,0.12502242 0 1 0 0.201172,0.1485 l 1.791015,-2.4258 a 0.12501249,0.12501249 0 0 0 -0.109374,-0.2012 z"/><path style="color:#000000;font-style:normal;font-variant:normal;font-weight:normal;font-stretch:normal;font-size:medium;line-height:normal;font-family:sans-serif;text-indent:0;text-align:start;text-decoration:none;text-decoration-line:none;text-decoration-style:solid;text-decoration-color:#000000;letter-spacing:normal;word-spacing:normal;text-transform:none;direction:ltr;block-progression:tb;writing-mode:lr-tb;baseline-shift:baseline;text-anchor:start;white-space:normal;clip-rule:nonzero;display:inline;overflow:visible;visibility:visible;opacity:1;isolation:auto;mix-blend-mode:normal;color-interpolation:sRGB;color-interpolation-filters:linearRGB;solid-color:#000000;solid-opacity:1;fill:#000000;fill-opacity:1;fill-rule:evenodd;stroke:none;stroke-width:0.24999997;stroke-linecap:round;stroke-linejoin:round;stroke-miterlimit:4;stroke-dasharray:none;stroke-dashoffset:0;stroke-opacity:1;color-rendering:auto;image-rendering:auto;shape-rendering:auto;text-rendering:auto;enable-background:accumulate" d="m 12.871094,1045.1914 a 0.12501249,0.12501249 0 0 0 -0.08203,0.049 l -1.9375,2.4493 a 0.1250456,0.1250456 0 1 0 0.195313,0.1562 l 1.939453,-2.4512 a 0.12501249,0.12501249 0 0 0 -0.115234,-0.2031 z"/><path style="color:#000000;font-style:normal;font-variant:normal;font-weight:normal;font-stretch:normal;font-size:medium;line-height:normal;font-family:sans-serif;text-indent:0;text-align:start;text-decoration:none;text-decoration-line:none;text-decoration-style:solid;text-decoration-color:#000000;letter-spacing:normal;word-spacing:normal;text-transform:none;direction:ltr;block-progression:tb;writing-mode:lr-tb;baseline-shift:baseline;text-anchor:start;white-space:normal;clip-rule:nonzero;display:inline;overflow:visible;visibility:visible;opacity:1;isolation:auto;mix-blend-mode:normal;color-interpolation:sRGB;color-interpolation-filters:linearRGB;solid-color:#000000;solid-opacity:1;fill:#000000;fill-opacity:1;fill-rule:evenodd;stroke:none;stroke-width:0.24999997;stroke-linecap:round;stroke-linejoin:round;stroke-miterlimit:4;stroke-dasharray:none;stroke-dashoffset:0;stroke-opacity:1;color-rendering:auto;image-rendering:auto;shape-rendering:auto;text-rendering:auto;enable-background:accumulate" d="m 12.6875,1046.6367 a 0.12501249,0.12501249 0 0 0 -0.09375,0.049 l -1.914062,2.4024 a 0.12501249,0.12501249 0 1 0 0.195312,0.1543 l 1.914062,-2.4004 a 0.12501249,0.12501249 0 0 0 -0.101562,-0.2051 z"/><path style="color:#000000;font-style:normal;font-variant:normal;font-weight:normal;font-stretch:normal;font-size:medium;line-height:normal;font-family:sans-serif;text-indent:0;text-align:start;text-decoration:none;text-decoration-line:none;text-decoration-style:solid;text-decoration-color:#000000;letter-spacing:normal;word-spacing:normal;text-transform:none;direction:ltr;block-progression:tb;writing-mode:lr-tb;baseline-shift:baseline;text-anchor:start;white-space:normal;clip-rule:nonzero;display:inline;overflow:visible;visibility:visible;opacity:1;isolation:auto;mix-blend-mode:normal;color-interpolation:sRGB;color-interpolation-filters:linearRGB;solid-color:#000000;solid-opacity:1;fill:#000000;fill-opacity:1;fill-rule:evenodd;stroke:none;stroke-width:0.24999997;stroke-linecap:round;stroke-linejoin:round;stroke-miterlimit:4;stroke-dasharray:none;stroke-dashoffset:0;stroke-opacity:1;color-rendering:auto;image-rendering:auto;shape-rendering:auto;text-rendering:auto;enable-background:accumulate" d="m 12.78125,1047.7402 a 0.12501249,0.12501249 0 0 0 -0.0918,0.051 l -1.423828,1.8867 a 0.12558895,0.12558895 0 1 0 0.201172,0.1504 l 1.421875,-1.8867 a 0.12501249,0.12501249 0 0 0 -0.107422,-0.2012 z"/><path style="color:#000000;font-style:normal;font-variant:normal;font-weight:normal;font-stretch:normal;font-size:medium;line-height:normal;font-family:sans-serif;text-indent:0;text-align:start;text-decoration:none;text-decoration-line:none;text-decoration-style:solid;text-decoration-color:#000000;letter-spacing:normal;word-spacing:normal;text-transform:none;direction:ltr;block-progression:tb;writing-mode:lr-tb;baseline-shift:baseline;text-anchor:start;white-space:normal;clip-rule:nonzero;display:inline;overflow:visible;visibility:visible;opacity:1;isolation:auto;mix-blend-mode:normal;color-interpolation:sRGB;color-interpolation-filters:linearRGB;solid-color:#000000;solid-opacity:1;fill:#000000;fill-opacity:1;fill-rule:evenodd;stroke:none;stroke-width:0.5;stroke-linecap:round;stroke-linejoin:round;stroke-miterlimit:4;stroke-dasharray:none;stroke-dashoffset:0;stroke-opacity:1;color-rendering:auto;image-rendering:auto;shape-rendering:auto;text-rendering:auto;enable-background:accumulate" d="m 22.585938,1044.9785 a 0.250025,0.250025 0 0 0 -0.22461,0.3516 c 0,0 0.06945,0.1656 0.146484,0.3769 0.07703,0.2114 0.159349,0.4746 0.179688,0.6153 0.02205,0.156 0.01296,0.4551 -0.0059,0.7011 -0.01882,0.2461 -0.04492,0.4434 -0.04492,0.4434 a 0.25012778,0.25012778 0 0 0 0.496093,0.064 c 0,0 0.02696,-0.2084 0.04688,-0.4687 0.01991,-0.2603 0.03659,-0.5655 0.002,-0.8105 a 0.250025,0.250025 0 0 0 0,-0 c -0.03257,-0.2252 -0.121437,-0.4888 -0.203125,-0.7129 -0.08169,-0.2241 -0.158203,-0.4023 -0.158204,-0.4023 a 0.250025,0.250025 0 0 0 -0.234374,-0.1563 z"/></g><text x="0" y="47" fill="#000000" font-size="5px" font-weight="bold" font-family="'Helvetica Neue', Helvetica, Arial-Unicode, Arial, Sans-serif">Created by P Thanga Vignesh</text><text x="0" y="52" fill="#000000" font-size="5px" font-weight="bold" font-family="'Helvetica Neue', Helvetica, Arial-Unicode, Arial, Sans-serif">from the Noun Project</text></svg>