<svg xmlns:dc="http://purl.org/dc/elements/1.1/" xmlns:cc="http://creativecommons.org/ns#" xmlns:rdf="http://www.w3.org/1999/02/22-rdf-syntax-ns#" xmlns:svg="http://www.w3.org/2000/svg" xmlns="http://www.w3.org/2000/svg" xmlns:sodipodi="http://sodipodi.sourceforge.net/DTD/sodipodi-0.dtd" xmlns:inkscape="http://www.inkscape.org/namespaces/inkscape" viewBox="0 0 32 40" version="1.1" x="0px" y="0px"><g transform="translate(0,-1020.3622)"><path style="color:#000000;font-style:normal;font-variant:normal;font-weight:normal;font-stretch:normal;font-size:medium;line-height:normal;font-family:sans-serif;text-indent:0;text-align:start;text-decoration:none;text-decoration-line:none;text-decoration-style:solid;text-decoration-color:#000000;letter-spacing:normal;word-spacing:normal;text-transform:none;direction:ltr;block-progression:tb;writing-mode:lr-tb;baseline-shift:baseline;text-anchor:start;white-space:normal;clip-rule:nonzero;display:inline;overflow:visible;visibility:visible;opacity:1;isolation:auto;mix-blend-mode:normal;color-interpolation:sRGB;color-interpolation-filters:linearRGB;solid-color:#000000;solid-opacity:1;fill:#000000;fill-opacity:1;fill-rule:evenodd;stroke:none;stroke-width:0.99999994px;stroke-linecap:round;stroke-linejoin:round;stroke-miterlimit:4;stroke-dasharray:none;stroke-dashoffset:0;stroke-opacity:1;color-rendering:auto;image-rendering:auto;shape-rendering:auto;text-rendering:auto;enable-background:accumulate" d="m 25.037109,1023.2031 a 0.50004997,0.50004997 0 0 0 -0.05078,0 l -4.359375,0.4355 a 0.50004997,0.50004997 0 1 0 0.09961,0.9942 l 3.845704,-0.3848 0.595703,8.6035 a 0.50004997,0.50004997 0 0 0 0.002,0.01 l 1.335937,15.9961 -9.835937,0.9414 a 0.50004997,0.50004997 0 0 0 -0.02344,0 l -10.2343746,1.4883 -0.9394532,-25.6211 4.8281248,-0.4492 a 0.50016045,0.50016045 0 1 0 -0.0918,-0.9961 l -5.2988278,0.4941 a 0.50004997,0.50004997 0 0 0 -0.453125,0.5157 l 0.9746094,26.6504 a 0.50004997,0.50004997 0 0 0 0.5722656,0.4746 l 10.7734378,-1.5645 10.314453,-0.9863 a 0.50004997,0.50004997 0 0 0 0.451172,-0.5391 l -1.376953,-16.4863 -0.63086,-9.1113 a 0.50004997,0.50004997 0 0 0 -0.498047,-0.4649 z"/><path style="color:#000000;font-style:normal;font-variant:normal;font-weight:normal;font-stretch:normal;font-size:medium;line-height:normal;font-family:sans-serif;text-indent:0;text-align:start;text-decoration:none;text-decoration-line:none;text-decoration-style:solid;text-decoration-color:#000000;letter-spacing:normal;word-spacing:normal;text-transform:none;direction:ltr;block-progression:tb;writing-mode:lr-tb;baseline-shift:baseline;text-anchor:start;white-space:normal;clip-rule:nonzero;display:inline;overflow:visible;visibility:visible;opacity:1;isolation:auto;mix-blend-mode:normal;color-interpolation:sRGB;color-interpolation-filters:linearRGB;solid-color:#000000;solid-opacity:1;fill:#000000;fill-opacity:1;fill-rule:evenodd;stroke:none;stroke-width:0.99999994px;stroke-linecap:round;stroke-linejoin:round;stroke-miterlimit:4;stroke-dasharray:none;stroke-dashoffset:0;stroke-opacity:1;color-rendering:auto;image-rendering:auto;shape-rendering:auto;text-rendering:auto;enable-background:accumulate" d="m 20.773438,1022.2734 a 0.50004997,0.50004997 0 0 0 -0.04883,0 l -10.554687,0.7539 a 0.50004997,0.50004997 0 0 0 -0.4628908,0.543 l 0.2871094,3.2519 a 0.50004997,0.50004997 0 0 0 0.5410154,0.4531 l 10.097656,-0.8691 a 0.50004997,0.50004997 0 0 0 0.457032,-0.4727 l 0.169922,-3.1347 a 0.50004997,0.50004997 0 0 0 -0.486328,-0.5274 z m -0.542969,1.0391 -0.115235,2.1367 -9.167968,0.7891 -0.199219,-2.2481 9.482422,-0.6777 z"/><path style="color:#000000;font-style:normal;font-variant:normal;font-weight:normal;font-stretch:normal;font-size:medium;line-height:normal;font-family:sans-serif;text-indent:0;text-align:start;text-decoration:none;text-decoration-line:none;text-decoration-style:solid;text-decoration-color:#000000;letter-spacing:normal;word-spacing:normal;text-transform:none;direction:ltr;block-progression:tb;writing-mode:lr-tb;baseline-shift:baseline;text-anchor:start;white-space:normal;clip-rule:nonzero;display:inline;overflow:visible;visibility:visible;opacity:1;isolation:auto;mix-blend-mode:normal;color-interpolation:sRGB;color-interpolation-filters:linearRGB;solid-color:#000000;solid-opacity:1;fill:#000000;fill-opacity:1;fill-rule:evenodd;stroke:none;stroke-width:0.75000006;stroke-linecap:round;stroke-linejoin:round;stroke-miterlimit:4;stroke-dasharray:none;stroke-dashoffset:0;stroke-opacity:1;color-rendering:auto;image-rendering:auto;shape-rendering:auto;text-rendering:auto;enable-background:accumulate" d="m 15.349609,1020.3789 c -0.429738,0.033 -0.821747,0.1757 -1.169921,0.334 a 0.37503753,0.37503753 0 0 0 -0.002,0 c -0.377347,0.1738 -0.755188,0.399 -1.076172,0.707 -0.271061,0.2599 -0.471397,0.5697 -0.625,0.8848 -0.190823,0.3875 -0.294921,0.9707 -0.294921,0.9707 a 0.37503753,0.37503753 0 1 0 0.732421,0.1562 c 0,0 0.153073,-0.6298 0.234376,-0.7949 a 0.37503753,0.37503753 0 0 0 0.002,-0 c 0.125928,-0.2587 0.280146,-0.493 0.46875,-0.6739 0.238386,-0.2287 0.544693,-0.416 0.871093,-0.5664 l 0,0 c 0.31349,-0.1425 0.630455,-0.2521 0.925782,-0.2735 a 0.37503753,0.37503753 0 0 0 0.02148,-0 c 0.186885,-0.025 0.427065,0.033 0.699219,0.1114 0.271207,0.081 0.525209,0.1831 0.705078,0.3242 0.136332,0.1069 0.263,0.2743 0.371094,0.4648 0.06821,0.123 0.173056,0.4076 0.246093,0.6446 0.0733,0.2378 0.121094,0.4316 0.121094,0.4316 a 0.37564761,0.37564761 0 0 0 0.728516,-0.1836 c 0,0 -0.05342,-0.2112 -0.132813,-0.4687 -0.07939,-0.2576 -0.176462,-0.5561 -0.308593,-0.793 a 0.37503753,0.37503753 0 0 0 -0.002,-0 c -0.136818,-0.2411 -0.311369,-0.4881 -0.560546,-0.6836 -0.3029,-0.2375 -0.647931,-0.3626 -0.957032,-0.455 a 0.37503753,0.37503753 0 0 0 -0.0039,-0 c -0.274668,-0.079 -0.611277,-0.1767 -0.994141,-0.1289 z"/><path style="color:#000000;font-style:normal;font-variant:normal;font-weight:normal;font-stretch:normal;font-size:medium;line-height:normal;font-family:sans-serif;text-indent:0;text-align:start;text-decoration:none;text-decoration-line:none;text-decoration-style:solid;text-decoration-color:#000000;letter-spacing:normal;word-spacing:normal;text-transform:none;direction:ltr;block-progression:tb;writing-mode:lr-tb;baseline-shift:baseline;text-anchor:start;white-space:normal;clip-rule:nonzero;display:inline;overflow:visible;visibility:visible;opacity:1;isolation:auto;mix-blend-mode:normal;color-interpolation:sRGB;color-interpolation-filters:linearRGB;solid-color:#000000;solid-opacity:1;fill:#000000;fill-opacity:1;fill-rule:evenodd;stroke:none;stroke-width:0.75000006;stroke-linecap:round;stroke-linejoin:round;stroke-miterlimit:4;stroke-dasharray:none;stroke-dashoffset:0;stroke-opacity:1;color-rendering:auto;image-rendering:auto;shape-rendering:auto;text-rendering:auto;enable-background:accumulate" d="m 15.162109,1021.4863 c -0.244865,0.034 -0.482964,0.1087 -0.699218,0.2207 -0.319886,0.1661 -0.663198,0.3792 -0.923829,0.711 a 0.37503753,0.37503753 0 0 0 -0.0039,0 c -0.125211,0.1638 -0.182177,0.3311 -0.236328,0.4785 -0.05415,0.1474 -0.08984,0.2695 -0.08984,0.2695 a 0.37519837,0.37519837 0 1 0 0.720704,0.209 c 0,0 0.02815,-0.1006 0.07226,-0.2207 0.04349,-0.1184 0.1145,-0.2577 0.126953,-0.2754 0.155118,-0.1974 0.403921,-0.3666 0.679688,-0.5098 0.142389,-0.074 0.306558,-0.1259 0.464844,-0.1464 a 0.37503753,0.37503753 0 0 0 0.02148,-0 c 0.100711,-0.019 0.257932,0 0.429687,0.039 0.05383,0.024 0.106959,0.05 0.16211,0.088 0.143184,0.1014 0.236607,0.1695 0.263672,0.209 0.0079,0.012 0.0741,0.1641 0.109375,0.2891 0.03548,0.1256 0.05664,0.2304 0.05664,0.2304 a 0.37503753,0.37503753 0 1 0 0.734375,-0.1484 c 0,0 -0.02642,-0.1297 -0.07031,-0.2852 -0.04389,-0.1555 -0.08778,-0.3316 -0.208985,-0.5097 a 0.37503753,0.37503753 0 0 0 -0.002,0 c -0.153789,-0.2243 -0.346459,-0.3235 -0.455078,-0.4004 a 0.37503753,0.37503753 0 0 0 -0.0059,-0 c -0.100426,-0.068 -0.211778,-0.1317 -0.335938,-0.1817 a 0.37503753,0.37503753 0 0 0 -0.06055,-0.019 c -0.202549,-0.043 -0.46063,-0.096 -0.75,-0.043 z"/><path style="color:#000000;font-style:normal;font-variant:normal;font-weight:normal;font-stretch:normal;font-size:medium;line-height:normal;font-family:sans-serif;text-indent:0;text-align:start;text-decoration:none;text-decoration-line:none;text-decoration-style:solid;text-decoration-color:#000000;letter-spacing:normal;word-spacing:normal;text-transform:none;direction:ltr;block-progression:tb;writing-mode:lr-tb;baseline-shift:baseline;text-anchor:start;white-space:normal;clip-rule:nonzero;display:inline;overflow:visible;visibility:visible;opacity:1;isolation:auto;mix-blend-mode:normal;color-interpolation:sRGB;color-interpolation-filters:linearRGB;solid-color:#000000;solid-opacity:1;fill:#000000;fill-opacity:1;fill-rule:evenodd;stroke:none;stroke-width:0.99999994px;stroke-linecap:round;stroke-linejoin:round;stroke-miterlimit:4;stroke-dasharray:none;stroke-dashoffset:0;stroke-opacity:1;color-rendering:auto;image-rendering:auto;shape-rendering:auto;text-rendering:auto;enable-background:accumulate" d="m 22.164062,1026.8574 -14.4433589,1.1504 a 0.50004997,0.50004997 0 0 0 -0.4589843,0.5059 l 0.1210937,7.0215 a 0.50004997,0.50004997 0 0 0 0.00195,0.033 l 1.0136719,12.1504 a 0.50004997,0.50004997 0 0 0 0.59375,0.4492 l 15.2949215,-2.9961 a 0.50004997,0.50004997 0 0 0 0.400391,-0.5489 l -1.988281,-17.3242 a 0.50004997,0.50004997 0 0 0 -0.535157,-0.4414 z m -0.402343,1.0352 1.878906,16.3867 -14.2929688,2.8008 -0.9648437,-11.5801 -0.1132813,-6.5332 13.4921878,-1.0742 z"/><path style="color:#000000;font-style:normal;font-variant:normal;font-weight:normal;font-stretch:normal;font-size:medium;line-height:normal;font-family:sans-serif;text-indent:0;text-align:start;text-decoration:none;text-decoration-line:none;text-decoration-style:solid;text-decoration-color:#000000;letter-spacing:normal;word-spacing:normal;text-transform:none;direction:ltr;block-progression:tb;writing-mode:lr-tb;baseline-shift:baseline;text-anchor:start;white-space:normal;clip-rule:nonzero;display:inline;overflow:visible;visibility:visible;opacity:1;isolation:auto;mix-blend-mode:normal;color-interpolation:sRGB;color-interpolation-filters:linearRGB;solid-color:#000000;solid-opacity:1;fill:#000000;fill-opacity:1;fill-rule:evenodd;stroke:none;stroke-width:0.99999994px;stroke-linecap:round;stroke-linejoin:round;stroke-miterlimit:4;stroke-dasharray:none;stroke-dashoffset:0;stroke-opacity:1;color-rendering:auto;image-rendering:auto;shape-rendering:auto;text-rendering:auto;enable-background:accumulate" d="m 22.392578,1028.9082 a 0.50004997,0.50004997 0 0 0 -0.03516,0 l -14.3339845,1.3906 a 0.50034346,0.50034346 0 0 0 0.095703,0.9961 l 14.3359374,-1.3926 a 0.50004997,0.50004997 0 0 0 -0.0625,-0.998 z"/><path style="color:#000000;font-style:normal;font-variant:normal;font-weight:normal;font-stretch:normal;font-size:medium;line-height:normal;font-family:sans-serif;text-indent:0;text-align:start;text-decoration:none;text-decoration-line:none;text-decoration-style:solid;text-decoration-color:#000000;letter-spacing:normal;word-spacing:normal;text-transform:none;direction:ltr;block-progression:tb;writing-mode:lr-tb;baseline-shift:baseline;text-anchor:start;white-space:normal;clip-rule:nonzero;display:inline;overflow:visible;visibility:visible;opacity:1;isolation:auto;mix-blend-mode:normal;color-interpolation:sRGB;color-interpolation-filters:linearRGB;solid-color:#000000;solid-opacity:1;fill:#000000;fill-opacity:1;fill-rule:evenodd;stroke:none;stroke-width:0.99999994px;stroke-linecap:round;stroke-linejoin:round;stroke-miterlimit:4;stroke-dasharray:none;stroke-dashoffset:0;stroke-opacity:1;color-rendering:auto;image-rendering:auto;shape-rendering:auto;text-rendering:auto;enable-background:accumulate" d="m 22.630859,1031.3301 a 0.50004997,0.50004997 0 0 0 -0.08594,0 l -14.7656251,1.8887 a 0.50004997,0.50004997 0 1 0 0.125,0.9921 l 14.7675781,-1.8886 a 0.50004997,0.50004997 0 0 0 -0.04102,-0.9961 z"/><path style="color:#000000;font-style:normal;font-variant:normal;font-weight:normal;font-stretch:normal;font-size:medium;line-height:normal;font-family:sans-serif;text-indent:0;text-align:start;text-decoration:none;text-decoration-line:none;text-decoration-style:solid;text-decoration-color:#000000;letter-spacing:normal;word-spacing:normal;text-transform:none;direction:ltr;block-progression:tb;writing-mode:lr-tb;baseline-shift:baseline;text-anchor:start;white-space:normal;clip-rule:nonzero;display:inline;overflow:visible;visibility:visible;opacity:1;isolation:auto;mix-blend-mode:normal;color-interpolation:sRGB;color-interpolation-filters:linearRGB;solid-color:#000000;solid-opacity:1;fill:#000000;fill-opacity:1;fill-rule:evenodd;stroke:none;stroke-width:0.99999994px;stroke-linecap:round;stroke-linejoin:round;stroke-miterlimit:4;stroke-dasharray:none;stroke-dashoffset:0;stroke-opacity:1;color-rendering:auto;image-rendering:auto;shape-rendering:auto;text-rendering:auto;enable-background:accumulate" d="m 22.833984,1033.793 a 0.50004997,0.50004997 0 0 0 -0.08594,0.01 l -14.8691408,2.5469 a 0.50004997,0.50004997 0 1 0 0.1699219,0.9843 l 14.8691409,-2.5449 a 0.50004997,0.50004997 0 0 0 -0.08398,-0.9941 z"/><path style="color:#000000;font-style:normal;font-variant:normal;font-weight:normal;font-stretch:normal;font-size:medium;line-height:normal;font-family:sans-serif;text-indent:0;text-align:start;text-decoration:none;text-decoration-line:none;text-decoration-style:solid;text-decoration-color:#000000;letter-spacing:normal;word-spacing:normal;text-transform:none;direction:ltr;block-progression:tb;writing-mode:lr-tb;baseline-shift:baseline;text-anchor:start;white-space:normal;clip-rule:nonzero;display:inline;overflow:visible;visibility:visible;opacity:1;isolation:auto;mix-blend-mode:normal;color-interpolation:sRGB;color-interpolation-filters:linearRGB;solid-color:#000000;solid-opacity:1;fill:#000000;fill-opacity:1;fill-rule:evenodd;stroke:none;stroke-width:0.99999994px;stroke-linecap:round;stroke-linejoin:round;stroke-miterlimit:4;stroke-dasharray:none;stroke-dashoffset:0;stroke-opacity:1;color-rendering:auto;image-rendering:auto;shape-rendering:auto;text-rendering:auto;enable-background:accumulate" d="m 23.289062,1036.707 a 0.50004997,0.50004997 0 0 0 -0.08398,0.012 l -14.970703,2.873 a 0.5002505,0.5002505 0 1 0 0.1894531,0.9824 l 14.9687499,-2.875 a 0.50004997,0.50004997 0 0 0 -0.103516,-0.9922 z"/><path style="color:#000000;font-style:normal;font-variant:normal;font-weight:normal;font-stretch:normal;font-size:medium;line-height:normal;font-family:sans-serif;text-indent:0;text-align:start;text-decoration:none;text-decoration-line:none;text-decoration-style:solid;text-decoration-color:#000000;letter-spacing:normal;word-spacing:normal;text-transform:none;direction:ltr;block-progression:tb;writing-mode:lr-tb;baseline-shift:baseline;text-anchor:start;white-space:normal;clip-rule:nonzero;display:inline;overflow:visible;visibility:visible;opacity:1;isolation:auto;mix-blend-mode:normal;color-interpolation:sRGB;color-interpolation-filters:linearRGB;solid-color:#000000;solid-opacity:1;fill:#000000;fill-opacity:1;fill-rule:evenodd;stroke:none;stroke-width:0.99999994px;stroke-linecap:round;stroke-linejoin:round;stroke-miterlimit:4;stroke-dasharray:none;stroke-dashoffset:0;stroke-opacity:1;color-rendering:auto;image-rendering:auto;shape-rendering:auto;text-rendering:auto;enable-background:accumulate" d="m 23.611328,1039.582 a 0.50004997,0.50004997 0 0 0 -0.08398,0.01 l -15.1328128,2.957 a 0.50004997,0.50004997 0 1 0 0.1933594,0.9805 l 15.1308594,-2.9551 a 0.50004997,0.50004997 0 0 0 -0.107422,-0.9922 z"/><path style="color:#000000;font-style:normal;font-variant:normal;font-weight:normal;font-stretch:normal;font-size:medium;line-height:normal;font-family:sans-serif;text-indent:0;text-align:start;text-decoration:none;text-decoration-line:none;text-decoration-style:solid;text-decoration-color:#000000;letter-spacing:normal;word-spacing:normal;text-transform:none;direction:ltr;block-progression:tb;writing-mode:lr-tb;baseline-shift:baseline;text-anchor:start;white-space:normal;clip-rule:nonzero;display:inline;overflow:visible;visibility:visible;opacity:1;isolation:auto;mix-blend-mode:normal;color-interpolation:sRGB;color-interpolation-filters:linearRGB;solid-color:#000000;solid-opacity:1;fill:#000000;fill-opacity:1;fill-rule:evenodd;stroke:none;stroke-width:0.99999994px;stroke-linecap:round;stroke-linejoin:round;stroke-miterlimit:4;stroke-dasharray:none;stroke-dashoffset:0;stroke-opacity:1;color-rendering:auto;image-rendering:auto;shape-rendering:auto;text-rendering:auto;enable-background:accumulate" d="m 23.853516,1042.209 a 0.50004997,0.50004997 0 0 0 -0.08398,0.01 l -15.1718748,2.998 a 0.50004997,0.50004997 0 1 0 0.1933594,0.9805 l 15.1718754,-2.9961 a 0.50004997,0.50004997 0 0 0 -0.109375,-0.9922 z"/><path style="color:#000000;font-style:normal;font-variant:normal;font-weight:normal;font-stretch:normal;font-size:medium;line-height:normal;font-family:sans-serif;text-indent:0;text-align:start;text-decoration:none;text-decoration-line:none;text-decoration-style:solid;text-decoration-color:#000000;letter-spacing:normal;word-spacing:normal;text-transform:none;direction:ltr;block-progression:tb;writing-mode:lr-tb;baseline-shift:baseline;text-anchor:start;white-space:normal;clip-rule:nonzero;display:inline;overflow:visible;visibility:visible;opacity:1;isolation:auto;mix-blend-mode:normal;color-interpolation:sRGB;color-interpolation-filters:linearRGB;solid-color:#000000;solid-opacity:1;fill:#000000;fill-opacity:1;fill-rule:evenodd;stroke:none;stroke-width:0.99999994px;stroke-linecap:round;stroke-linejoin:round;stroke-miterlimit:4;stroke-dasharray:none;stroke-dashoffset:0;stroke-opacity:1;color-rendering:auto;image-rendering:auto;shape-rendering:auto;text-rendering:auto;enable-background:accumulate" d="m 9.8066406,1027.875 a 0.50004997,0.50004997 0 0 0 -0.4765625,0.5215 l 0.2421875,8.1289 a 0.50004997,0.50004997 0 0 0 0.00195,0.043 l 1.2187502,10.5097 a 0.50004997,0.50004997 0 1 0 0.992187,-0.1152 l -1.214844,-10.4883 -0.240234,-8.1074 a 0.50004997,0.50004997 0 0 0 -0.5234374,-0.4922 z"/><path style="color:#000000;font-style:normal;font-variant:normal;font-weight:normal;font-stretch:normal;font-size:medium;line-height:normal;font-family:sans-serif;text-indent:0;text-align:start;text-decoration:none;text-decoration-line:none;text-decoration-style:solid;text-decoration-color:#000000;letter-spacing:normal;word-spacing:normal;text-transform:none;direction:ltr;block-progression:tb;writing-mode:lr-tb;baseline-shift:baseline;text-anchor:start;white-space:normal;clip-rule:nonzero;display:inline;overflow:visible;visibility:visible;opacity:1;isolation:auto;mix-blend-mode:normal;color-interpolation:sRGB;color-interpolation-filters:linearRGB;solid-color:#000000;solid-opacity:1;fill:#000000;fill-opacity:1;fill-rule:evenodd;stroke:none;stroke-width:0.99999994px;stroke-linecap:round;stroke-linejoin:round;stroke-miterlimit:4;stroke-dasharray:none;stroke-dashoffset:0;stroke-opacity:1;color-rendering:auto;image-rendering:auto;shape-rendering:auto;text-rendering:auto;enable-background:accumulate" d="m 18,1027.2188 a 0.50004997,0.50004997 0 0 0 -0.470703,0.5722 l 2.3125,17.6113 a 0.50026249,0.50026249 0 0 0 0.992187,-0.1289 l -2.314453,-17.6132 A 0.50004997,0.50004997 0 0 0 18,1027.2188 Z"/><path style="color:#000000;font-style:normal;font-variant:normal;font-weight:normal;font-stretch:normal;font-size:medium;line-height:normal;font-family:sans-serif;text-indent:0;text-align:start;text-decoration:none;text-decoration-line:none;text-decoration-style:solid;text-decoration-color:#000000;letter-spacing:normal;word-spacing:normal;text-transform:none;direction:ltr;block-progression:tb;writing-mode:lr-tb;baseline-shift:baseline;text-anchor:start;white-space:normal;clip-rule:nonzero;display:inline;overflow:visible;visibility:visible;opacity:1;isolation:auto;mix-blend-mode:normal;color-interpolation:sRGB;color-interpolation-filters:linearRGB;solid-color:#000000;solid-opacity:1;fill:#000000;fill-opacity:1;fill-rule:evenodd;stroke:none;stroke-width:0.99999994px;stroke-linecap:round;stroke-linejoin:round;stroke-miterlimit:4;stroke-dasharray:none;stroke-dashoffset:0;stroke-opacity:1;color-rendering:auto;image-rendering:auto;shape-rendering:auto;text-rendering:auto;enable-background:accumulate" d="m 20.183594,1027.2891 a 0.50004997,0.50004997 0 0 0 -0.470703,0.5742 l 2.279297,17.0488 a 0.50004997,0.50004997 0 1 0 0.990234,-0.1328 l -2.279297,-17.0488 a 0.50004997,0.50004997 0 0 0 -0.519531,-0.4414 z"/><path style="color:#000000;font-style:normal;font-variant:normal;font-weight:normal;font-stretch:normal;font-size:medium;line-height:normal;font-family:sans-serif;text-indent:0;text-align:start;text-decoration:none;text-decoration-line:none;text-decoration-style:solid;text-decoration-color:#000000;letter-spacing:normal;word-spacing:normal;text-transform:none;direction:ltr;block-progression:tb;writing-mode:lr-tb;baseline-shift:baseline;text-anchor:start;white-space:normal;clip-rule:nonzero;display:inline;overflow:visible;visibility:visible;opacity:1;isolation:auto;mix-blend-mode:normal;color-interpolation:sRGB;color-interpolation-filters:linearRGB;solid-color:#000000;solid-opacity:1;fill:#000000;fill-opacity:1;fill-rule:evenodd;stroke:none;stroke-width:0.24999999;stroke-linecap:round;stroke-linejoin:round;stroke-miterlimit:4;stroke-dasharray:none;stroke-dashoffset:0;stroke-opacity:1;color-rendering:auto;image-rendering:auto;shape-rendering:auto;text-rendering:auto;enable-background:accumulate" d="m 11.646484,1023.9863 a 0.12501249,0.12501249 0 0 0 -0.08984,0.057 l -1.033203,1.5175 a 0.12515822,0.12515822 0 1 0 0.207031,0.1407 l 1.033203,-1.5176 a 0.12501249,0.12501249 0 0 0 -0.117188,-0.1973 z"/><path style="color:#000000;font-style:normal;font-variant:normal;font-weight:normal;font-stretch:normal;font-size:medium;line-height:normal;font-family:sans-serif;text-indent:0;text-align:start;text-decoration:none;text-decoration-line:none;text-decoration-style:solid;text-decoration-color:#000000;letter-spacing:normal;word-spacing:normal;text-transform:none;direction:ltr;block-progression:tb;writing-mode:lr-tb;baseline-shift:baseline;text-anchor:start;white-space:normal;clip-rule:nonzero;display:inline;overflow:visible;visibility:visible;opacity:1;isolation:auto;mix-blend-mode:normal;color-interpolation:sRGB;color-interpolation-filters:linearRGB;solid-color:#000000;solid-opacity:1;fill:#000000;fill-opacity:1;fill-rule:evenodd;stroke:none;stroke-width:0.24999999;stroke-linecap:round;stroke-linejoin:round;stroke-miterlimit:4;stroke-dasharray:none;stroke-dashoffset:0;stroke-opacity:1;color-rendering:auto;image-rendering:auto;shape-rendering:auto;text-rendering:auto;enable-background:accumulate" d="m 12.046875,1024.5605 a 0.12501249,0.12501249 0 0 0 -0.103516,0.055 l -1.216797,1.7461 a 0.12501249,0.12501249 0 1 0 0.205079,0.1426 l 1.216797,-1.7441 a 0.12501249,0.12501249 0 0 0 -0.101563,-0.1993 z"/><path style="color:#000000;font-style:normal;font-variant:normal;font-weight:normal;font-stretch:normal;font-size:medium;line-height:normal;font-family:sans-serif;text-indent:0;text-align:start;text-decoration:none;text-decoration-line:none;text-decoration-style:solid;text-decoration-color:#000000;letter-spacing:normal;word-spacing:normal;text-transform:none;direction:ltr;block-progression:tb;writing-mode:lr-tb;baseline-shift:baseline;text-anchor:start;white-space:normal;clip-rule:nonzero;display:inline;overflow:visible;visibility:visible;opacity:1;isolation:auto;mix-blend-mode:normal;color-interpolation:sRGB;color-interpolation-filters:linearRGB;solid-color:#000000;solid-opacity:1;fill:#000000;fill-opacity:1;fill-rule:evenodd;stroke:none;stroke-width:0.24999999;stroke-linecap:round;stroke-linejoin:round;stroke-miterlimit:4;stroke-dasharray:none;stroke-dashoffset:0;stroke-opacity:1;color-rendering:auto;image-rendering:auto;shape-rendering:auto;text-rendering:auto;enable-background:accumulate" d="m 12.568359,1024.9707 a 0.12501249,0.12501249 0 0 0 -0.101562,0.06 l -0.892578,1.4161 a 0.12545716,0.12545716 0 0 0 0.21289,0.1328 l 0.892579,-1.416 a 0.12501249,0.12501249 0 0 0 -0.111329,-0.1934 z"/><path style="color:#000000;font-style:normal;font-variant:normal;font-weight:normal;font-stretch:normal;font-size:medium;line-height:normal;font-family:sans-serif;text-indent:0;text-align:start;text-decoration:none;text-decoration-line:none;text-decoration-style:solid;text-decoration-color:#000000;letter-spacing:normal;word-spacing:normal;text-transform:none;direction:ltr;block-progression:tb;writing-mode:lr-tb;baseline-shift:baseline;text-anchor:start;white-space:normal;clip-rule:nonzero;display:inline;overflow:visible;visibility:visible;opacity:1;isolation:auto;mix-blend-mode:normal;color-interpolation:sRGB;color-interpolation-filters:linearRGB;solid-color:#000000;solid-opacity:1;fill:#000000;fill-opacity:1;fill-rule:evenodd;stroke:none;stroke-width:0.24999999;stroke-linecap:round;stroke-linejoin:round;stroke-miterlimit:4;stroke-dasharray:none;stroke-dashoffset:0;stroke-opacity:1;color-rendering:auto;image-rendering:auto;shape-rendering:auto;text-rendering:auto;enable-background:accumulate" d="m 13.101562,1025.4238 a 0.12501249,0.12501249 0 0 0 -0.09375,0.07 l -0.486328,0.9864 a 0.12501249,0.12501249 0 1 0 0.22461,0.1093 l 0.486328,-0.9843 a 0.12501249,0.12501249 0 0 0 -0.13086,-0.1817 z"/><path style="color:#000000;font-style:normal;font-variant:normal;font-weight:normal;font-stretch:normal;font-size:medium;line-height:normal;font-family:sans-serif;text-indent:0;text-align:start;text-decoration:none;text-decoration-line:none;text-decoration-style:solid;text-decoration-color:#000000;letter-spacing:normal;word-spacing:normal;text-transform:none;direction:ltr;block-progression:tb;writing-mode:lr-tb;baseline-shift:baseline;text-anchor:start;white-space:normal;clip-rule:nonzero;display:inline;overflow:visible;visibility:visible;opacity:1;isolation:auto;mix-blend-mode:normal;color-interpolation:sRGB;color-interpolation-filters:linearRGB;solid-color:#000000;solid-opacity:1;fill:#000000;fill-opacity:1;fill-rule:evenodd;stroke:none;stroke-width:0.24999999;stroke-linecap:round;stroke-linejoin:round;stroke-miterlimit:4;stroke-dasharray:none;stroke-dashoffset:0;stroke-opacity:1;color-rendering:auto;image-rendering:auto;shape-rendering:auto;text-rendering:auto;enable-background:accumulate" d="m 13.761719,1025.6699 a 0.12501249,0.12501249 0 0 0 -0.109375,0.084 l -0.222656,0.6152 a 0.12501249,0.12501249 0 1 0 0.234374,0.086 l 0.222657,-0.6172 a 0.12501249,0.12501249 0 0 0 -0.125,-0.168 z"/></g><text x="0" y="47" fill="#000000" font-size="5px" font-weight="bold" font-family="'Helvetica Neue', Helvetica, Arial-Unicode, Arial, Sans-serif">Created by P Thanga Vignesh</text><text x="0" y="52" fill="#000000" font-size="5px" font-weight="bold" font-family="'Helvetica Neue', Helvetica, Arial-Unicode, Arial, Sans-serif">from the Noun Project</text></svg>