<svg xmlns="http://www.w3.org/2000/svg" version="1.1" viewBox="-5.0 -10.0 110.0 135.0">
 <path d="m92.074 90.5h-25.367c2.1797-0.89062 4.2812-1.957 6.2891-3.1836 37.316-23.441 21.07-80.574-22.965-81.02-20.641-0.33203-39.828 15.727-43.082 36.172-3.7266 19.629 7.7656 40.746 26.402 48.031h-25.504c-0.41797 0-0.81641 0.16406-1.1094 0.45703-0.29688 0.29297-0.46094 0.69141-0.46094 1.1094 0 0.41406 0.16406 0.8125 0.46094 1.1055 0.29297 0.29297 0.69141 0.45703 1.1094 0.45703 5.8516-0.12891 41.059 0.23438 46.066 0h38.16c0.85156-0.019531 1.5312-0.71484 1.5312-1.5625 0-0.85156-0.67969-1.5469-1.5312-1.5664zm-44.535 0c-4.2383-13.184-6.25-26.98-5.957-40.828 3.0195-0.046875 6.0273-0.003906 8.9961 0.125 0 0.09375-0.007813 0.18359-0.007813 0.27734l-0.003906-0.003907c-0.050781 14.273 6.9141 27.664 18.629 35.816-4.7812 2.5547-10.027 4.125-15.426 4.6133zm24.637-6.3906v0.003906c-11.598-7.4805-18.57-20.371-18.477-34.172 12.328 0.78516 24.59 2.4141 36.695 4.8711-1.3789 12.004-8.0625 22.754-18.219 29.301zm18.504-34.039c0 0.53906-0.03125 1.0703-0.050782 1.6055-12.141-2.4531-24.434-4.0742-36.793-4.8594 0.96484-12.566 7.75-23.957 18.34-30.789 11.566 7.4531 18.543 20.285 18.504 34.043zm-21.477-35.82c-10.734 7.4688-17.527 19.379-18.492 32.422-2.9922-0.125-6.0234-0.16797-9.0664-0.125 0.55469-12.539 2.5586-24.973 5.9727-37.051 7.4961-0.45312 14.973 1.1953 21.586 4.7539zm-24.91-4.4062c-3.3086 12-5.2461 24.332-5.7812 36.77-3.2344 0.089844-6.4453 0.29297-9.5938 0.60547v-0.003906c-0.58203-8.7891-3.8008-17.199-9.2344-24.137 6.3711-7.1914 15.094-11.883 24.609-13.234zm-26.605 64.746c-4.4219-5.8086-7.1797-12.707-7.9883-19.961-0.027344-0.23828-0.066407-0.47656-0.089844-0.71484 5.3359-1.4961 10.781-2.5742 16.281-3.2266-0.12891 8.6367-3.0039 17.008-8.2031 23.902zm-8.125-27.953h-0.003906c0.67188-7.6562 3.4922-14.961 8.1289-21.086 4.8047 6.375 7.6328 14.027 8.125 21.996-5.5312 0.64844-11.004 1.707-16.375 3.1758-0.046875-1.3633-0.007812-2.7305 0.12109-4.0859zm10.133 30.414h-0.003906c5.9805-7.625 9.2656-17.02 9.3398-26.707 3.0898-0.3125 6.2422-0.51172 9.4219-0.60156-0.26953 13.727 1.668 27.406 5.7344 40.52-9.4766-1.3516-18.16-6.0352-24.496-13.211z"/>
<text x="0.0" y="117.5" font-size="5.0" font-weight="bold" font-family="Arbeit Regular, Helvetica, Arial-Unicode, Arial, Sans-serif" fill="#000000">Created by Metami Septiana</text><text x="0.0" y="122.5" font-size="5.0" font-weight="bold" font-family="Arbeit Regular, Helvetica, Arial-Unicode, Arial, Sans-serif" fill="#000000">from Noun Project</text></svg>