<svg xmlns="http://www.w3.org/2000/svg" xmlns:xlink="http://www.w3.org/1999/xlink" xml:space="preserve" version="1.1" style="shape-rendering:geometricPrecision;text-rendering:geometricPrecision;image-rendering:optimizeQuality;" viewBox="0 0 847 1058.75" x="0px" y="0px" fill-rule="evenodd" clip-rule="evenodd"><defs><style type="text/css">
   
    .fil0 {fill:black;fill-rule:nonzero}
   
  </style></defs><g><path class="fil0" d="M423 20c223,0 403,181 403,403 0,223 -180,403 -403,403 -222,0 -403,-180 -403,-403 0,-222 181,-403 403,-403zm228 101c-34,34 -46,83 -36,146 57,3 112,11 164,26 -25,-68 -70,-128 -128,-172zm137 200c-53,-17 -110,-26 -168,-29 18,78 67,176 145,294 39,-82 47,-177 23,-265zm-36 290c-86,-128 -138,-234 -156,-320 -16,0 -33,0 -49,1 38,166 6,350 -59,504 111,-19 208,-87 264,-185zm-293 189c68,-153 103,-340 64,-506 -21,2 -42,4 -63,7 30,146 -154,346 -244,439 72,47 158,68 243,60zm-263 -74c83,-86 269,-286 241,-420 -142,27 -281,93 -384,195 18,90 70,170 143,225zm-148 -254c105,-98 241,-162 381,-190 -40,-92 -190,-115 -277,-123 -81,83 -119,198 -104,313zm127 -335c96,11 240,39 279,141 21,-3 42,-6 62,-8 -25,-87 -71,-164 -142,-222 -75,10 -144,42 -199,89zm233 -92c66,60 109,137 133,223 17,-1 34,-1 50,-1 -10,-68 4,-121 40,-160 -66,-44 -144,-65 -223,-62z"/></g><text x="0" y="862" fill="#000000" font-size="5px" font-weight="bold" font-family="'Helvetica Neue', Helvetica, Arial-Unicode, Arial, Sans-serif">Created by Adi S</text><text x="0" y="867" fill="#000000" font-size="5px" font-weight="bold" font-family="'Helvetica Neue', Helvetica, Arial-Unicode, Arial, Sans-serif">from the Noun Project</text></svg>