<svg xmlns:dc="http://purl.org/dc/elements/1.1/" xmlns:cc="http://creativecommons.org/ns#" xmlns:rdf="http://www.w3.org/1999/02/22-rdf-syntax-ns#" xmlns:svg="http://www.w3.org/2000/svg" xmlns="http://www.w3.org/2000/svg" xmlns:sodipodi="http://sodipodi.sourceforge.net/DTD/sodipodi-0.dtd" xmlns:inkscape="http://www.inkscape.org/namespaces/inkscape" viewBox="0 0 32 40.00000125" version="1.1" x="0px" y="0px"><g transform="translate(0,-1020.3622)"><path style="color:#000000;font-style:normal;font-variant:normal;font-weight:normal;font-stretch:normal;font-size:medium;line-height:normal;font-family:sans-serif;text-indent:0;text-align:start;text-decoration:none;text-decoration-line:none;text-decoration-style:solid;text-decoration-color:#000000;letter-spacing:normal;word-spacing:normal;text-transform:none;direction:ltr;block-progression:tb;writing-mode:lr-tb;baseline-shift:baseline;text-anchor:start;white-space:normal;clip-rule:nonzero;display:inline;overflow:visible;visibility:visible;opacity:1;isolation:auto;mix-blend-mode:normal;color-interpolation:sRGB;color-interpolation-filters:linearRGB;solid-color:#000000;solid-opacity:1;fill:#000000;fill-opacity:1;fill-rule:evenodd;stroke:none;stroke-width:1.00000012;stroke-linecap:round;stroke-linejoin:round;stroke-miterlimit:4;stroke-dasharray:none;stroke-dashoffset:0;stroke-opacity:1;color-rendering:auto;image-rendering:auto;shape-rendering:auto;text-rendering:auto;enable-background:accumulate" d="m 15.175781,1021.0566 c -2.295309,0.2197 -4.443264,1.1788 -6.4296872,2.1719 -1.2925809,0.6459 -2.5399057,1.4564 -3.6054688,2.4668 -1.0967196,1.041 -2.0551493,2.2671 -2.7578125,3.6172 l 0.046875,-0.074 a 0.50005006,0.50005006 0 0 0 -0.050781,0.078 c -1.0315513,1.9831 -1.83923503,4.1783 -2.03906245,6.4414 a 0.50005006,0.50005006 0 0 0 0,0 c -0.22372269,2.5429 -0.0653866,5.2854 1.03320315,7.666 1.2944154,2.805 3.5069326,5.3255 6.1875,6.8847 1.9814275,1.1525 4.3453151,1.3124 6.4843751,1.4336 1.93418,0.1094 3.960937,0.01 5.853516,-0.6035 2.891006,-0.9359 5.935682,-2.2834 8.011718,-4.6523 2.003617,-2.2862 2.863861,-5.3749 3.427735,-8.2285 0.433596,-2.1963 0.665713,-4.6196 -0.03711,-6.836 -0.728828,-2.3119 -2.409849,-4.1672 -4.029297,-5.7871 -1.334502,-1.3869 -2.854054,-2.7784 -4.720703,-3.5527 -2.300779,-0.9497 -4.901908,-1.2635 -7.375,-1.0274 z m 0.0957,0.9942 c 2.322785,-0.2218 4.77052,0.08 6.896485,0.957 1.649639,0.6843 3.081231,1.9696 4.382812,3.3223 a 0.50005006,0.50005006 0 0 0 0.0078,0.01 c 1.59362,1.5936 3.14513,3.3523 3.787109,5.3887 a 0.50005006,0.50005006 0 0 0 0.002,0 c 0.619082,1.9522 0.428827,4.2152 0.0098,6.3379 -0.552386,2.7955 -1.399148,5.7116 -3.199219,7.7656 -1.878169,2.1431 -4.751489,3.4475 -7.568359,4.3594 -1.72249,0.5573 -3.628206,0.6598 -5.488282,0.5546 -2.126138,-0.1205 -4.3253262,-0.3032 -6.0371089,-1.2988 -2.4807054,-1.443 -4.5757009,-3.8228 -5.7832031,-6.4394 -0.9904346,-2.1463 -1.1597672,-4.7226 -0.9453125,-7.1602 0.1837719,-2.0813 0.9387237,-4.1581 1.9277344,-6.0605 9.444e-4,-0 0.00101,-0 0.00195,-0.01 a 0.50005006,0.50005006 0 0 0 0.00391,-0.01 c 0.6446637,-1.2386 1.535823,-2.3805 2.5585938,-3.3515 0.9762357,-0.9258 2.1400099,-1.6876 3.3632812,-2.2989 a 0.50005006,0.50005006 0 0 0 0.00195,0 c 1.9572056,-0.9784 4.0015476,-1.8735 6.0781246,-2.0722 z"/><path style="color:#000000;font-style:normal;font-variant:normal;font-weight:normal;font-stretch:normal;font-size:medium;line-height:normal;font-family:sans-serif;text-indent:0;text-align:start;text-decoration:none;text-decoration-line:none;text-decoration-style:solid;text-decoration-color:#000000;letter-spacing:normal;word-spacing:normal;text-transform:none;direction:ltr;block-progression:tb;writing-mode:lr-tb;baseline-shift:baseline;text-anchor:start;white-space:normal;clip-rule:nonzero;display:inline;overflow:visible;visibility:visible;opacity:1;isolation:auto;mix-blend-mode:normal;color-interpolation:sRGB;color-interpolation-filters:linearRGB;solid-color:#000000;solid-opacity:1;fill:#000000;fill-opacity:1;fill-rule:evenodd;stroke:none;stroke-width:0.99999994px;stroke-linecap:round;stroke-linejoin:round;stroke-miterlimit:4;stroke-dasharray:none;stroke-dashoffset:0;stroke-opacity:1;color-rendering:auto;image-rendering:auto;shape-rendering:auto;text-rendering:auto;enable-background:accumulate" d="m 16.935547,1031.4805 a 0.50004997,0.50004997 0 0 0 -0.109375,0.01 l -4.746094,0.8769 a 0.50004997,0.50004997 0 0 0 -0.404297,0.4239 l -0.761719,5.6054 a 0.50004997,0.50004997 0 0 0 0.300782,0.5274 l 5.345703,2.2519 a 0.50004997,0.50004997 0 0 0 0.601562,-0.1699 l 3.53711,-4.9648 a 0.50004997,0.50004997 0 0 0 -0.0332,-0.625 l -3.376954,-3.7676 a 0.50004997,0.50004997 0 0 0 -0.353515,-0.166 z m -0.205078,1.0429 2.923828,3.2598 -3.074219,4.3145 -4.625,-1.9493 0.66211,-4.8652 4.113281,-0.7598 z"/><path style="color:#000000;font-style:normal;font-variant:normal;font-weight:normal;font-stretch:normal;font-size:medium;line-height:normal;font-family:sans-serif;text-indent:0;text-align:start;text-decoration:none;text-decoration-line:none;text-decoration-style:solid;text-decoration-color:#000000;letter-spacing:normal;word-spacing:normal;text-transform:none;direction:ltr;block-progression:tb;writing-mode:lr-tb;baseline-shift:baseline;text-anchor:start;white-space:normal;clip-rule:nonzero;display:inline;overflow:visible;visibility:visible;opacity:1;isolation:auto;mix-blend-mode:normal;color-interpolation:sRGB;color-interpolation-filters:linearRGB;solid-color:#000000;solid-opacity:1;fill:#000000;fill-opacity:1;fill-rule:evenodd;stroke:none;stroke-width:0.99999994px;stroke-linecap:round;stroke-linejoin:round;stroke-miterlimit:4;stroke-dasharray:none;stroke-dashoffset:0;stroke-opacity:1;color-rendering:auto;image-rendering:auto;shape-rendering:auto;text-rendering:auto;enable-background:accumulate" d="m 0.95117188,1034.4102 a 0.50004997,0.50004997 0 0 0 -0.16210938,0.9687 l 1.3847656,0.5313 2.5664063,4.375 0.7265625,5.58 -1.0351563,1.0801 a 0.50075835,0.50075835 0 0 0 0.7226563,0.6934 l 1.2011719,-1.2539 a 0.50004997,0.50004997 0 0 0 0.1347656,-0.4121 l -0.7714844,-5.918 a 0.50004997,0.50004997 0 0 0 -0.064453,-0.1875 l -2.7070313,-4.6133 a 0.50004997,0.50004997 0 0 0 -0.2519531,-0.2129 l -1.5488281,-0.5957 a 0.50004997,0.50004997 0 0 0 -0.19531252,-0.035 z"/><path style="color:#000000;font-style:normal;font-variant:normal;font-weight:normal;font-stretch:normal;font-size:medium;line-height:normal;font-family:sans-serif;text-indent:0;text-align:start;text-decoration:none;text-decoration-line:none;text-decoration-style:solid;text-decoration-color:#000000;letter-spacing:normal;word-spacing:normal;text-transform:none;direction:ltr;block-progression:tb;writing-mode:lr-tb;baseline-shift:baseline;text-anchor:start;white-space:normal;clip-rule:nonzero;display:inline;overflow:visible;visibility:visible;opacity:1;isolation:auto;mix-blend-mode:normal;color-interpolation:sRGB;color-interpolation-filters:linearRGB;solid-color:#000000;solid-opacity:1;fill:#000000;fill-opacity:1;fill-rule:evenodd;stroke:none;stroke-width:0.99999994px;stroke-linecap:round;stroke-linejoin:round;stroke-miterlimit:4;stroke-dasharray:none;stroke-dashoffset:0;stroke-opacity:1;color-rendering:auto;image-rendering:auto;shape-rendering:auto;text-rendering:auto;enable-background:accumulate" d="m 10.105469,1022.707 a 0.50004997,0.50004997 0 0 0 -0.417969,0.7793 l 0.417969,0.6367 -2.6425784,3.8809 -3.2089844,1.7051 -0.9609374,-0.582 a 0.50004997,0.50004997 0 1 0 -0.5175782,0.8554 l 1.2050782,0.7285 a 0.50004997,0.50004997 0 0 0 0.4921874,0.014 l 3.5683594,-1.8945 a 0.50004997,0.50004997 0 0 0 0.1777344,-0.1602 l 2.900391,-4.2597 a 0.50004997,0.50004997 0 0 0 0.0059,-0.5547 l -0.599609,-0.916 a 0.50004997,0.50004997 0 0 0 -0.419922,-0.2325 z"/><path style="color:#000000;font-style:normal;font-variant:normal;font-weight:normal;font-stretch:normal;font-size:medium;line-height:normal;font-family:sans-serif;text-indent:0;text-align:start;text-decoration:none;text-decoration-line:none;text-decoration-style:solid;text-decoration-color:#000000;letter-spacing:normal;word-spacing:normal;text-transform:none;direction:ltr;block-progression:tb;writing-mode:lr-tb;baseline-shift:baseline;text-anchor:start;white-space:normal;clip-rule:nonzero;display:inline;overflow:visible;visibility:visible;opacity:1;isolation:auto;mix-blend-mode:normal;color-interpolation:sRGB;color-interpolation-filters:linearRGB;solid-color:#000000;solid-opacity:1;fill:#000000;fill-opacity:1;fill-rule:evenodd;stroke:none;stroke-width:0.99999994px;stroke-linecap:round;stroke-linejoin:round;stroke-miterlimit:4;stroke-dasharray:none;stroke-dashoffset:0;stroke-opacity:1;color-rendering:auto;image-rendering:auto;shape-rendering:auto;text-rendering:auto;enable-background:accumulate" d="M 16.484375,1020.9414 A 0.50004997,0.50004997 0 0 0 16,1021.4551 l 0.02344,1.8242 a 0.50004997,0.50004997 0 0 0 0.199218,0.3926 l 3.773438,2.8515 a 0.50004997,0.50004997 0 0 0 0.271484,0.1 l 4.789063,0.3008 a 0.50004997,0.50004997 0 0 0 0.339843,-0.1054 l 1.210938,-0.9512 a 0.50011185,0.50011185 0 1 0 -0.617188,-0.7871 l -1.060546,0.834 -4.449219,-0.2793 -3.460938,-2.6133 L 17,1021.4434 a 0.50004997,0.50004997 0 0 0 -0.515625,-0.502 z"/><path style="color:#000000;font-style:normal;font-variant:normal;font-weight:normal;font-stretch:normal;font-size:medium;line-height:normal;font-family:sans-serif;text-indent:0;text-align:start;text-decoration:none;text-decoration-line:none;text-decoration-style:solid;text-decoration-color:#000000;letter-spacing:normal;word-spacing:normal;text-transform:none;direction:ltr;block-progression:tb;writing-mode:lr-tb;baseline-shift:baseline;text-anchor:start;white-space:normal;clip-rule:nonzero;display:inline;overflow:visible;visibility:visible;opacity:1;isolation:auto;mix-blend-mode:normal;color-interpolation:sRGB;color-interpolation-filters:linearRGB;solid-color:#000000;solid-opacity:1;fill:#000000;fill-opacity:1;fill-rule:evenodd;stroke:none;stroke-width:0.99999994px;stroke-linecap:round;stroke-linejoin:round;stroke-miterlimit:4;stroke-dasharray:none;stroke-dashoffset:0;stroke-opacity:1;color-rendering:auto;image-rendering:auto;shape-rendering:auto;text-rendering:auto;enable-background:accumulate" d="m 23.570312,1046.5527 -5.605468,0.2618 a 0.50004997,0.50004997 0 0 0 -0.189453,0.047 l -5.121094,2.4024 a 0.50004997,0.50004997 0 0 0 -0.279297,0.3554 c 0,0 -0.05328,0.2712 -0.121094,0.5625 -0.03391,0.1457 -0.07227,0.2949 -0.105468,0.4122 -0.0332,0.1172 -0.09394,0.2378 -0.04688,0.1601 a 0.50004997,0.50004997 0 1 0 0.855469,0.5176 c 0.103843,-0.1715 0.113779,-0.2612 0.154297,-0.4043 0.04052,-0.1431 0.07924,-0.3043 0.115234,-0.459 0.0418,-0.1796 0.0508,-0.2322 0.07422,-0.3437 l 4.808594,-2.2559 5.21875,-0.2441 0.765625,1.2011 a 0.50004997,0.50004997 0 1 0 0.841797,-0.5371 l -0.919922,-1.4453 a 0.50004997,0.50004997 0 0 0 -0.445313,-0.2305 z"/><path style="color:#000000;font-style:normal;font-variant:normal;font-weight:normal;font-stretch:normal;font-size:medium;line-height:normal;font-family:sans-serif;text-indent:0;text-align:start;text-decoration:none;text-decoration-line:none;text-decoration-style:solid;text-decoration-color:#000000;letter-spacing:normal;word-spacing:normal;text-transform:none;direction:ltr;block-progression:tb;writing-mode:lr-tb;baseline-shift:baseline;text-anchor:start;white-space:normal;clip-rule:nonzero;display:inline;overflow:visible;visibility:visible;opacity:1;isolation:auto;mix-blend-mode:normal;color-interpolation:sRGB;color-interpolation-filters:linearRGB;solid-color:#000000;solid-opacity:1;fill:#000000;fill-opacity:1;fill-rule:evenodd;stroke:none;stroke-width:0.99999994px;stroke-linecap:round;stroke-linejoin:round;stroke-miterlimit:4;stroke-dasharray:none;stroke-dashoffset:0;stroke-opacity:1;color-rendering:auto;image-rendering:auto;shape-rendering:auto;text-rendering:auto;enable-background:accumulate" d="m 30.419922,1030.3086 a 0.50004997,0.50004997 0 0 0 -0.08398,0.012 l -1.378907,0.2695 a 0.50004997,0.50004997 0 0 0 -0.376953,0.3262 l -1.599609,4.6074 a 0.50004997,0.50004997 0 0 0 -0.02539,0.2207 l 0.632813,5.4473 a 0.50004997,0.50004997 0 0 0 0.228515,0.3633 l 1.44336,0.9219 a 0.50064615,0.50064615 0 1 0 0.539062,-0.8438 l -1.24414,-0.793 -0.591797,-5.0976 1.46875,-4.2266 1.097656,-0.2148 a 0.50004997,0.50004997 0 0 0 -0.109375,-0.9922 z"/><path style="color:#000000;font-style:normal;font-variant:normal;font-weight:normal;font-stretch:normal;font-size:medium;line-height:normal;font-family:sans-serif;text-indent:0;text-align:start;text-decoration:none;text-decoration-line:none;text-decoration-style:solid;text-decoration-color:#000000;letter-spacing:normal;word-spacing:normal;text-transform:none;direction:ltr;block-progression:tb;writing-mode:lr-tb;baseline-shift:baseline;text-anchor:start;white-space:normal;clip-rule:nonzero;display:inline;overflow:visible;visibility:visible;opacity:1;isolation:auto;mix-blend-mode:normal;color-interpolation:sRGB;color-interpolation-filters:linearRGB;solid-color:#000000;solid-opacity:1;fill:#000000;fill-opacity:1;fill-rule:evenodd;stroke:none;stroke-width:0.99999994px;stroke-linecap:round;stroke-linejoin:round;stroke-miterlimit:4;stroke-dasharray:none;stroke-dashoffset:0;stroke-opacity:1;color-rendering:auto;image-rendering:auto;shape-rendering:auto;text-rendering:auto;enable-background:accumulate" d="m 16.738281,1040.0918 a 0.50004997,0.50004997 0 0 0 -0.449219,0.5898 l 1.154297,6.7246 a 0.50042754,0.50042754 0 1 0 0.986329,-0.1699 l -1.154297,-6.7226 a 0.50004997,0.50004997 0 0 0 -0.53711,-0.4219 z"/><path style="color:#000000;font-style:normal;font-variant:normal;font-weight:normal;font-stretch:normal;font-size:medium;line-height:normal;font-family:sans-serif;text-indent:0;text-align:start;text-decoration:none;text-decoration-line:none;text-decoration-style:solid;text-decoration-color:#000000;letter-spacing:normal;word-spacing:normal;text-transform:none;direction:ltr;block-progression:tb;writing-mode:lr-tb;baseline-shift:baseline;text-anchor:start;white-space:normal;clip-rule:nonzero;display:inline;overflow:visible;visibility:visible;opacity:1;isolation:auto;mix-blend-mode:normal;color-interpolation:sRGB;color-interpolation-filters:linearRGB;solid-color:#000000;solid-opacity:1;fill:#000000;fill-opacity:1;fill-rule:evenodd;stroke:none;stroke-width:0.99999994px;stroke-linecap:round;stroke-linejoin:round;stroke-miterlimit:4;stroke-dasharray:none;stroke-dashoffset:0;stroke-opacity:1;color-rendering:auto;image-rendering:auto;shape-rendering:auto;text-rendering:auto;enable-background:accumulate" d="m 20.205078,1035.1973 a 0.50004997,0.50004997 0 0 0 0.02344,0.998 l 6.970703,0.1875 a 0.50016114,0.50016114 0 1 0 0.02539,-1 l -6.96875,-0.1855 a 0.50004997,0.50004997 0 0 0 -0.05078,0 z"/><path style="color:#000000;font-style:normal;font-variant:normal;font-weight:normal;font-stretch:normal;font-size:medium;line-height:normal;font-family:sans-serif;text-indent:0;text-align:start;text-decoration:none;text-decoration-line:none;text-decoration-style:solid;text-decoration-color:#000000;letter-spacing:normal;word-spacing:normal;text-transform:none;direction:ltr;block-progression:tb;writing-mode:lr-tb;baseline-shift:baseline;text-anchor:start;white-space:normal;clip-rule:nonzero;display:inline;overflow:visible;visibility:visible;opacity:1;isolation:auto;mix-blend-mode:normal;color-interpolation:sRGB;color-interpolation-filters:linearRGB;solid-color:#000000;solid-opacity:1;fill:#000000;fill-opacity:1;fill-rule:evenodd;stroke:none;stroke-width:0.99999994px;stroke-linecap:round;stroke-linejoin:round;stroke-miterlimit:4;stroke-dasharray:none;stroke-dashoffset:0;stroke-opacity:1;color-rendering:auto;image-rendering:auto;shape-rendering:auto;text-rendering:auto;enable-background:accumulate" d="m 20.277344,1025.6152 a 0.50004997,0.50004997 0 0 0 -0.439453,0.2598 l -3.355469,5.8691 a 0.50004997,0.50004997 0 1 0 0.867187,0.4961 l 3.357422,-5.8691 a 0.50004997,0.50004997 0 0 0 -0.429687,-0.7559 z"/><path style="color:#000000;font-style:normal;font-variant:normal;font-weight:normal;font-stretch:normal;font-size:medium;line-height:normal;font-family:sans-serif;text-indent:0;text-align:start;text-decoration:none;text-decoration-line:none;text-decoration-style:solid;text-decoration-color:#000000;letter-spacing:normal;word-spacing:normal;text-transform:none;direction:ltr;block-progression:tb;writing-mode:lr-tb;baseline-shift:baseline;text-anchor:start;white-space:normal;clip-rule:nonzero;display:inline;overflow:visible;visibility:visible;opacity:1;isolation:auto;mix-blend-mode:normal;color-interpolation:sRGB;color-interpolation-filters:linearRGB;solid-color:#000000;solid-opacity:1;fill:#000000;fill-opacity:1;fill-rule:evenodd;stroke:none;stroke-width:0.99999994px;stroke-linecap:round;stroke-linejoin:round;stroke-miterlimit:4;stroke-dasharray:none;stroke-dashoffset:0;stroke-opacity:1;color-rendering:auto;image-rendering:auto;shape-rendering:auto;text-rendering:auto;enable-background:accumulate" d="m 7.8027344,1027.8672 a 0.50004997,0.50004997 0 0 0 -0.359375,0.8555 l 4.3613286,4.4707 a 0.50004997,0.50004997 0 1 0 0.716796,-0.6973 l -4.3613278,-4.4727 a 0.50004997,0.50004997 0 0 0 -0.3574218,-0.1562 z"/><path style="color:#000000;font-style:normal;font-variant:normal;font-weight:normal;font-stretch:normal;font-size:medium;line-height:normal;font-family:sans-serif;text-indent:0;text-align:start;text-decoration:none;text-decoration-line:none;text-decoration-style:solid;text-decoration-color:#000000;letter-spacing:normal;word-spacing:normal;text-transform:none;direction:ltr;block-progression:tb;writing-mode:lr-tb;baseline-shift:baseline;text-anchor:start;white-space:normal;clip-rule:nonzero;display:inline;overflow:visible;visibility:visible;opacity:1;isolation:auto;mix-blend-mode:normal;color-interpolation:sRGB;color-interpolation-filters:linearRGB;solid-color:#000000;solid-opacity:1;fill:#000000;fill-opacity:1;fill-rule:evenodd;stroke:none;stroke-width:0.99999994px;stroke-linecap:round;stroke-linejoin:round;stroke-miterlimit:4;stroke-dasharray:none;stroke-dashoffset:0;stroke-opacity:1;color-rendering:auto;image-rendering:auto;shape-rendering:auto;text-rendering:auto;enable-background:accumulate" d="m 11.376953,1038.0781 a 0.50004997,0.50004997 0 0 0 -0.132812,0.018 l -5.9707035,1.5117 a 0.50070465,0.50070465 0 1 0 0.2460937,0.9707 l 5.9687498,-1.5136 a 0.50004997,0.50004997 0 0 0 -0.111328,-0.9864 z"/><path style="color:#000000;font-style:normal;font-variant:normal;font-weight:normal;font-stretch:normal;font-size:medium;line-height:normal;font-family:sans-serif;text-indent:0;text-align:start;text-decoration:none;text-decoration-line:none;text-decoration-style:solid;text-decoration-color:#000000;letter-spacing:normal;word-spacing:normal;text-transform:none;direction:ltr;block-progression:tb;writing-mode:lr-tb;baseline-shift:baseline;text-anchor:start;white-space:normal;clip-rule:nonzero;display:inline;overflow:visible;visibility:visible;opacity:1;isolation:auto;mix-blend-mode:normal;color-interpolation:sRGB;color-interpolation-filters:linearRGB;solid-color:#000000;solid-opacity:1;fill:#000000;fill-opacity:1;fill-rule:evenodd;stroke:none;stroke-width:0.25;stroke-linecap:round;stroke-linejoin:round;stroke-miterlimit:4;stroke-dasharray:none;stroke-dashoffset:0;stroke-opacity:1;color-rendering:auto;image-rendering:auto;shape-rendering:auto;text-rendering:auto;enable-background:accumulate" d="m 13.349609,1035.7246 a 0.1250125,0.1250125 0 0 0 -0.06445,0.027 l -1.658203,1.3046 a 0.12509519,0.12509519 0 1 0 0.15625,0.1954 l 1.65625,-1.3028 a 0.1250125,0.1250125 0 0 0 -0.08984,-0.2246 z"/><path style="color:#000000;font-style:normal;font-variant:normal;font-weight:normal;font-stretch:normal;font-size:medium;line-height:normal;font-family:sans-serif;text-indent:0;text-align:start;text-decoration:none;text-decoration-line:none;text-decoration-style:solid;text-decoration-color:#000000;letter-spacing:normal;word-spacing:normal;text-transform:none;direction:ltr;block-progression:tb;writing-mode:lr-tb;baseline-shift:baseline;text-anchor:start;white-space:normal;clip-rule:nonzero;display:inline;overflow:visible;visibility:visible;opacity:1;isolation:auto;mix-blend-mode:normal;color-interpolation:sRGB;color-interpolation-filters:linearRGB;solid-color:#000000;solid-opacity:1;fill:#000000;fill-opacity:1;fill-rule:evenodd;stroke:none;stroke-width:0.25;stroke-linecap:round;stroke-linejoin:round;stroke-miterlimit:4;stroke-dasharray:none;stroke-dashoffset:0;stroke-opacity:1;color-rendering:auto;image-rendering:auto;shape-rendering:auto;text-rendering:auto;enable-background:accumulate" d="m 13.902344,1036.6758 a 0.1250125,0.1250125 0 0 0 -0.05469,0.02 l -2.253906,1.459 a 0.12514061,0.12514061 0 1 0 0.134766,0.2109 l 2.253906,-1.459 a 0.1250125,0.1250125 0 0 0 -0.08008,-0.2304 z"/><path style="color:#000000;font-style:normal;font-variant:normal;font-weight:normal;font-stretch:normal;font-size:medium;line-height:normal;font-family:sans-serif;text-indent:0;text-align:start;text-decoration:none;text-decoration-line:none;text-decoration-style:solid;text-decoration-color:#000000;letter-spacing:normal;word-spacing:normal;text-transform:none;direction:ltr;block-progression:tb;writing-mode:lr-tb;baseline-shift:baseline;text-anchor:start;white-space:normal;clip-rule:nonzero;display:inline;overflow:visible;visibility:visible;opacity:1;isolation:auto;mix-blend-mode:normal;color-interpolation:sRGB;color-interpolation-filters:linearRGB;solid-color:#000000;solid-opacity:1;fill:#000000;fill-opacity:1;fill-rule:evenodd;stroke:none;stroke-width:0.25;stroke-linecap:round;stroke-linejoin:round;stroke-miterlimit:4;stroke-dasharray:none;stroke-dashoffset:0;stroke-opacity:1;color-rendering:auto;image-rendering:auto;shape-rendering:auto;text-rendering:auto;enable-background:accumulate" d="m 14.292969,1037.5156 a 0.1250125,0.1250125 0 0 0 -0.04297,0.016 l -1.855469,1.0626 a 0.1250125,0.1250125 0 1 0 0.123047,0.2167 L 14.375,1037.75 a 0.1250125,0.1250125 0 0 0 -0.08203,-0.2344 z"/><path style="color:#000000;font-style:normal;font-variant:normal;font-weight:normal;font-stretch:normal;font-size:medium;line-height:normal;font-family:sans-serif;text-indent:0;text-align:start;text-decoration:none;text-decoration-line:none;text-decoration-style:solid;text-decoration-color:#000000;letter-spacing:normal;word-spacing:normal;text-transform:none;direction:ltr;block-progression:tb;writing-mode:lr-tb;baseline-shift:baseline;text-anchor:start;white-space:normal;clip-rule:nonzero;display:inline;overflow:visible;visibility:visible;opacity:1;isolation:auto;mix-blend-mode:normal;color-interpolation:sRGB;color-interpolation-filters:linearRGB;solid-color:#000000;solid-opacity:1;fill:#000000;fill-opacity:1;fill-rule:evenodd;stroke:none;stroke-width:0.25;stroke-linecap:round;stroke-linejoin:round;stroke-miterlimit:4;stroke-dasharray:none;stroke-dashoffset:0;stroke-opacity:1;color-rendering:auto;image-rendering:auto;shape-rendering:auto;text-rendering:auto;enable-background:accumulate" d="m 15.294922,1037.9785 a 0.1250125,0.1250125 0 0 0 -0.05469,0.02 l -1.523437,0.9512 a 0.1250125,0.1250125 0 1 0 0.130859,0.211 l 1.525391,-0.9493 a 0.1250125,0.1250125 0 0 0 -0.07813,-0.2324 z"/><path style="color:#000000;font-style:normal;font-variant:normal;font-weight:normal;font-stretch:normal;font-size:medium;line-height:normal;font-family:sans-serif;text-indent:0;text-align:start;text-decoration:none;text-decoration-line:none;text-decoration-style:solid;text-decoration-color:#000000;letter-spacing:normal;word-spacing:normal;text-transform:none;direction:ltr;block-progression:tb;writing-mode:lr-tb;baseline-shift:baseline;text-anchor:start;white-space:normal;clip-rule:nonzero;display:inline;overflow:visible;visibility:visible;opacity:1;isolation:auto;mix-blend-mode:normal;color-interpolation:sRGB;color-interpolation-filters:linearRGB;solid-color:#000000;solid-opacity:1;fill:#000000;fill-opacity:1;fill-rule:evenodd;stroke:none;stroke-width:0.25;stroke-linecap:round;stroke-linejoin:round;stroke-miterlimit:4;stroke-dasharray:none;stroke-dashoffset:0;stroke-opacity:1;color-rendering:auto;image-rendering:auto;shape-rendering:auto;text-rendering:auto;enable-background:accumulate" d="m 15.894531,1038.6426 a 0.1250125,0.1250125 0 0 0 -0.05469,0.018 l -1.171875,0.707 a 0.12525554,0.12525554 0 1 0 0.128906,0.2148 l 1.171875,-0.707 a 0.1250125,0.1250125 0 0 0 -0.07422,-0.2324 z"/></g><text x="0" y="47.000001" fill="#000000" font-size="5px" font-weight="bold" font-family="'Helvetica Neue', Helvetica, Arial-Unicode, Arial, Sans-serif">Created by P Thanga Vignesh</text><text x="0" y="52.000001" fill="#000000" font-size="5px" font-weight="bold" font-family="'Helvetica Neue', Helvetica, Arial-Unicode, Arial, Sans-serif">from the Noun Project</text></svg>