<svg xmlns="http://www.w3.org/2000/svg" xmlns:xlink="http://www.w3.org/1999/xlink" xml:space="preserve" version="1.1" style="shape-rendering:geometricPrecision;text-rendering:geometricPrecision;image-rendering:optimizeQuality;" viewBox="0 0 64 80" x="0px" y="0px" fill-rule="evenodd" clip-rule="evenodd"><defs><style type="text/css">
   
    .fil0 {fill:black;fill-rule:nonzero}
   
  </style></defs><g><path class="fil0" d="M14.16 53.95c-0.27,0 -0.49,-0.22 -0.49,-0.49 0,-0.27 0.22,-0.49 0.49,-0.49l35.68 0c0.27,0 0.49,0.22 0.49,0.49 0,0.27 -0.22,0.49 -0.49,0.49l-35.68 0zm28.26 -41.13c15.27,8.82 13.29,32.1 -4.06,37.62l21.15 0c0.27,0 0.49,0.22 0.49,0.49 0,0.27 -0.22,0.49 -0.49,0.49l-55.02 0c-0.27,0 -0.49,-0.22 -0.49,-0.49 0,-0.27 0.22,-0.49 0.49,-0.49l21.3 0c-1.41,-0.45 -2.77,-1.06 -4.06,-1.79 -9.89,-5.72 -13.27,-18.36 -7.57,-28.26 5.72,-9.89 18.36,-13.28 28.26,-7.57zm-0.49 0.85c-4.23,-2.44 -9.38,-3.32 -14.48,-2.09l2.41 8.98 10.65 4.09 7.81 -5.07c-1.68,-2.45 -3.88,-4.46 -6.39,-5.91zm6.92 6.73l-7.78 5.06 -0.6 11.41 7.25 5.85c5,-6.53 5.37,-15.43 1.13,-22.32zm-1.74 23.08l-7.23 -5.83 -11.03 2.96 -3.32 8.71c7.69,2.71 16.31,0.38 21.58,-5.84zm-24.89 4.32c0.77,0.44 1.57,0.84 2.4,1.17l3.29 -8.66 -6.21 -9.58 -9.33 -0.45c-0.15,7.16 3.57,13.89 9.85,17.52zm-7.21 -26.92c-1.47,2.55 -2.37,5.42 -2.59,8.42l9.26 0.45 7.23 -8.93 -2.41 -8.98c-5.03,1.48 -9.04,4.81 -11.49,9.04zm19.83 2.65l-5.24 -2.02 -2.58 3.19 1.59 -0.42c0.26,-0.07 0.53,0.08 0.6,0.35 0.07,0.26 -0.09,0.53 -0.35,0.6l-2.88 0.77 -1.95 2.41 6.01 -1.61c0.26,-0.07 0.53,0.08 0.6,0.34 0.07,0.26 -0.09,0.53 -0.35,0.6l-7.31 1.96 -0.43 0.54 0.81 1.25 7.91 -2.12c0.26,-0.07 0.53,0.08 0.6,0.34 0.07,0.27 -0.09,0.53 -0.35,0.6l-7.6 2.04 1.04 1.61 5.82 -1.56c0.27,-0.07 0.53,0.08 0.6,0.34 0.07,0.26 -0.08,0.53 -0.34,0.6l-5.52 1.48 1.04 1.61 3.74 -1c0.26,-0.07 0.53,0.08 0.6,0.34 0.07,0.27 -0.09,0.54 -0.35,0.6l-3.42 0.92 1.52 2.36 10.85 -2.91 0.58 -11.2 -5.24 -2.01zm-3.73 -8.73c-0.27,0.01 -0.5,-0.19 -0.52,-0.46 -0.01,-0.27 0.19,-0.5 0.46,-0.52 2.48,-0.15 4.93,0.25 7.19,1.13 2.26,0.88 4.33,2.25 6.05,4.04 0.19,0.2 0.18,0.51 -0.01,0.7 -0.19,0.18 -0.5,0.18 -0.69,-0.02 -1.62,-1.68 -3.57,-2.97 -5.71,-3.81 -2.12,-0.83 -4.44,-1.2 -6.77,-1.06zm5.1 31.36c0.26,-0.07 0.53,0.08 0.6,0.34 0.07,0.26 -0.09,0.53 -0.35,0.6 -2.72,0.73 -5.59,0.77 -8.33,0.11 -0.26,-0.06 -0.43,-0.32 -0.36,-0.59 0.06,-0.26 0.32,-0.42 0.58,-0.36 2.6,0.62 5.28,0.59 7.86,-0.1zm-12.41 -1.77c0.23,0.14 0.3,0.44 0.16,0.67 -0.14,0.23 -0.44,0.3 -0.67,0.16 -1.87,-1.13 -3.48,-2.6 -4.77,-4.31 -1.29,-1.72 -2.25,-3.68 -2.81,-5.79l-0.3 -1.32c-0.05,-0.26 0.13,-0.52 0.39,-0.56 0.27,-0.05 0.53,0.12 0.57,0.39l0.28 1.24c0.54,1.99 1.44,3.83 2.66,5.45 1.21,1.61 2.73,3 4.49,4.07zm-4.71 -22.94c-0.16,0.22 -0.46,0.27 -0.68,0.11 -0.22,-0.16 -0.28,-0.46 -0.12,-0.68 0.81,-1.13 1.75,-2.15 2.79,-3.04 1.04,-0.89 2.2,-1.66 3.43,-2.27 0.24,-0.12 0.54,-0.02 0.66,0.22 0.12,0.24 0.02,0.54 -0.22,0.66 -1.17,0.58 -2.25,1.3 -3.24,2.14 -0.98,0.84 -1.86,1.8 -2.62,2.86zm28.72 11.97c0.05,-0.26 0.3,-0.44 0.57,-0.4 0.26,0.05 0.44,0.3 0.4,0.57 -0.29,1.69 -0.84,3.34 -1.62,4.87 -0.13,0.24 -0.42,0.34 -0.66,0.21 -0.24,-0.12 -0.34,-0.41 -0.21,-0.65 0.73,-1.45 1.25,-3 1.52,-4.6z"/></g><text x="0" y="79" fill="#000000" font-size="5px" font-weight="bold" font-family="'Helvetica Neue', Helvetica, Arial-Unicode, Arial, Sans-serif">Created by Ladalle CS</text><text x="0" y="84" fill="#000000" font-size="5px" font-weight="bold" font-family="'Helvetica Neue', Helvetica, Arial-Unicode, Arial, Sans-serif">from the Noun Project</text></svg>