<svg xmlns:dc="http://purl.org/dc/elements/1.1/" xmlns:cc="http://creativecommons.org/ns#" xmlns:rdf="http://www.w3.org/1999/02/22-rdf-syntax-ns#" xmlns:svg="http://www.w3.org/2000/svg" xmlns="http://www.w3.org/2000/svg" xmlns:sodipodi="http://sodipodi.sourceforge.net/DTD/sodipodi-0.dtd" xmlns:inkscape="http://www.inkscape.org/namespaces/inkscape" viewBox="0 0 32 40" version="1.1" x="0px" y="0px"><g transform="translate(0,-1020.3622)"><path style="color:#000000;font-style:normal;font-variant:normal;font-weight:normal;font-stretch:normal;font-size:medium;line-height:normal;font-family:sans-serif;text-indent:0;text-align:start;text-decoration:none;text-decoration-line:none;text-decoration-style:solid;text-decoration-color:#000000;letter-spacing:normal;word-spacing:normal;text-transform:none;direction:ltr;block-progression:tb;writing-mode:lr-tb;baseline-shift:baseline;text-anchor:start;white-space:normal;clip-rule:nonzero;display:inline;overflow:visible;visibility:visible;opacity:1;isolation:auto;mix-blend-mode:normal;color-interpolation:sRGB;color-interpolation-filters:linearRGB;solid-color:#000000;solid-opacity:1;fill:#000000;fill-opacity:1;fill-rule:evenodd;stroke:none;stroke-width:0.99999994px;stroke-linecap:round;stroke-linejoin:round;stroke-miterlimit:4;stroke-dasharray:none;stroke-dashoffset:0;stroke-opacity:1;color-rendering:auto;image-rendering:auto;shape-rendering:auto;text-rendering:auto;enable-background:accumulate" d="m 16.685547,1020.3811 c -1.880579,-0.099 -3.765762,0.1968 -5.552735,0.6716 -2.4500446,0.651 -5.2814948,1.2112 -7.2792964,3.0948 -1.0439903,0.9845 -1.5083442,2.3897 -1.8183594,3.6514 -0.6845787,2.787 -0.7748058,6.9381 -0.7109374,10.4268 0.063473,3.4671 0.2882032,6.2293 0.2910156,6.2639 1.58e-5,2e-4 0.00195,0.037 0.00195,0.037 a 0.50004997,0.49991123 0 0 0 0.076172,0.2264 c 0.028224,0.045 0.064056,0.065 0.091797,0.1074 0.159085,0.2404 0.3069744,0.4601 0.5273438,0.6151 0.2587972,0.1821 0.547778,0.2662 0.9160156,0.3495 2.0628685,0.5656 4.1624175,0.9066 6.2304688,1.2673 1.5943124,0.2778 3.2214264,0.631 4.9062494,0.7127 1.788198,0.087 3.577269,-0.036 5.333985,-0.2559 3.414588,-0.4276 9.947265,-2.0268 9.947265,-2.0268 a 0.50004997,0.49991123 0 0 0 0.38086,-0.4471 c 0,0 0.424358,-5.4995 0.455078,-8.3044 0.02886,-2.8481 0.626858,-5.9574 -0.328125,-8.8861 -0.244926,-0.7513 -0.776472,-1.2571 -1.142578,-1.7183 -0.725771,-0.9148 -1.450067,-1.9783 -2.529297,-2.7239 -1.427316,-0.9862 -3.103174,-1.4011 -4.625,-1.8803 -1.642171,-0.5171 -3.357348,-1.0876 -5.169922,-1.1832 a 0.50004997,0.49991123 0 0 0 -0.002,0 z m -0.05078,0.9977 c 1.634505,0.086 3.2717,0.6187 4.921875,1.1384 1.558639,0.4907 3.128031,0.9 4.357421,1.7495 0.879019,0.6072 1.561144,1.5733 2.314454,2.5227 0.416935,0.5253 0.829261,0.962 0.974609,1.4078 0.849439,2.605 0.309402,5.5925 0.279297,8.564 -0.02841,2.5942 -0.396675,7.4041 -0.431641,7.865 -0.450215,0.109 -6.331195,1.5394 -9.474609,1.9331 -1.718787,0.2153 -3.451751,0.3311 -5.16211,0.248 -1.575094,-0.076 -3.162347,-0.4165 -4.7832026,-0.6991 -2.0838971,-0.3634 -4.1594503,-0.6993 -6.1601563,-1.2496 a 0.50004997,0.49991123 0 0 0 -0.021484,-0.01 c -0.3296143,-0.075 -0.4723174,-0.1313 -0.5605469,-0.1934 -0.070584,-0.05 -0.1674786,-0.1838 -0.28125,-0.3514 -0.0098,-0.1216 -0.2213806,-2.7249 -0.2832031,-6.1019 -0.063247,-3.4546 0.048261,-7.5904 0.6816406,-10.1689 0.2939535,-1.1964 0.7350518,-2.4088 1.5332031,-3.1613 1.7197415,-1.6215 4.3604923,-2.1953 6.8496092,-2.8567 1.717329,-0.4563 3.505582,-0.7319 5.246094,-0.6404 z"/><path style="color:#000000;font-style:normal;font-variant:normal;font-weight:normal;font-stretch:normal;font-size:medium;line-height:normal;font-family:sans-serif;text-indent:0;text-align:start;text-decoration:none;text-decoration-line:none;text-decoration-style:solid;text-decoration-color:#000000;letter-spacing:normal;word-spacing:normal;text-transform:none;direction:ltr;block-progression:tb;writing-mode:lr-tb;baseline-shift:baseline;text-anchor:start;white-space:normal;clip-rule:nonzero;display:inline;overflow:visible;visibility:visible;opacity:1;isolation:auto;mix-blend-mode:normal;color-interpolation:sRGB;color-interpolation-filters:linearRGB;solid-color:#000000;solid-opacity:1;fill:#000000;fill-opacity:1;fill-rule:evenodd;stroke:none;stroke-width:0.99999994px;stroke-linecap:round;stroke-linejoin:round;stroke-miterlimit:4;stroke-dasharray:none;stroke-dashoffset:0;stroke-opacity:1;color-rendering:auto;image-rendering:auto;shape-rendering:auto;text-rendering:auto;enable-background:accumulate" d="m 16.417969,1026.0123 c -1.360034,-0.072 -2.772144,0.059 -4.089844,0.4979 -1.651158,0.5497 -3.2279638,1.4387 -4.5292969,2.6067 -0.7315571,0.6567 -1.7354647,1.4685 -1.9082031,2.7024 -0.1737248,1.2425 -0.2319885,3.7402 -0.2558594,5.9748 -0.023871,2.2347 -0.00781,4.1767 -0.00781,4.1767 a 0.50004997,0.49991123 0 0 0 0.3203125,0.4608 0.50004997,0.49991123 0 0 0 0.050781,0.018 c 0.05395,0.021 0.4318258,0.173 0.7265625,0.2538 1.5070411,0.4141 3.036936,0.6601 4.5371094,0.9216 1.14954,0.2005 2.330773,0.4578 3.564453,0.5174 1.304002,0.063 2.606991,-0.026 3.882812,-0.1855 2.490609,-0.3117 7.208985,-1.4684 7.208985,-1.4684 a 0.50004997,0.49991123 0 0 0 0.380859,-0.4744 c 0,0 0.07984,-3.848 0.07813,-5.7874 -0.0014,-1.4437 0.336378,-3.0529 -0.08594,-4.6667 -0.191439,-0.7316 -0.558672,-1.4385 -1.087891,-2.0015 -0.615773,-0.6547 -1.409729,-0.9479 -2.027344,-1.2847 -0.939975,-0.5126 -1.913936,-1.0305 -2.970703,-1.3961 -1.193424,-0.4126 -2.460135,-0.7958 -3.787109,-0.865 z m -0.05273,0.9977 c 1.165612,0.061 2.346335,0.4094 3.511719,0.8123 0.959383,0.3319 1.887608,0.8192 2.820313,1.3277 0.695997,0.3796 1.368335,0.6587 1.777343,1.0935 0.398503,0.4239 0.698245,0.9915 0.84961,1.5699 0.344096,1.3149 0.05115,2.8311 0.05273,4.4148 0.0016,1.7792 -0.06294,4.8956 -0.07227,5.3657 -0.459255,0.1108 -4.506076,1.0936 -6.720704,1.3707 -1.237943,0.1548 -2.482594,0.2389 -3.708984,0.1797 -1.124067,-0.054 -2.265554,-0.2988 -3.441406,-0.5038 -1.5083301,-0.2629 -3.0058468,-0.5071 -4.4433596,-0.9022 -0.097008,-0.026 -0.2097131,-0.071 -0.3632813,-0.1268 -0.00221,-0.2873 -0.013942,-1.771 0.00781,-3.8076 0.023751,-2.2234 0.094779,-4.7657 0.2460938,-5.8479 0.1016554,-0.7261 0.8462635,-1.4294 1.5878906,-2.0952 1.1896021,-1.0678 2.6505495,-1.8938 4.1757805,-2.4017 1.170514,-0.3897 2.461827,-0.5151 3.720703,-0.4491 z"/><path style="color:#000000;font-style:normal;font-variant:normal;font-weight:normal;font-stretch:normal;font-size:medium;line-height:normal;font-family:sans-serif;text-indent:0;text-align:start;text-decoration:none;text-decoration-line:none;text-decoration-style:solid;text-decoration-color:#000000;letter-spacing:normal;word-spacing:normal;text-transform:none;direction:ltr;block-progression:tb;writing-mode:lr-tb;baseline-shift:baseline;text-anchor:start;white-space:normal;clip-rule:nonzero;display:inline;overflow:visible;visibility:visible;opacity:1;isolation:auto;mix-blend-mode:normal;color-interpolation:sRGB;color-interpolation-filters:linearRGB;solid-color:#000000;solid-opacity:1;fill:#000000;fill-opacity:1;fill-rule:evenodd;stroke:none;stroke-width:0.99999994px;stroke-linecap:round;stroke-linejoin:round;stroke-miterlimit:4;stroke-dasharray:none;stroke-dashoffset:0;stroke-opacity:1;color-rendering:auto;image-rendering:auto;shape-rendering:auto;text-rendering:auto;enable-background:accumulate" d="m 23.710938,1038.751 -14.5996099,0.4217 a 0.50004997,0.49991123 0 1 0 0.029297,0.9978 l 14.5996089,-0.4198 a 0.50021458,0.50007579 0 1 0 -0.0293,-0.9997 z"/><path style="color:#000000;font-style:normal;font-variant:normal;font-weight:normal;font-stretch:normal;font-size:medium;line-height:normal;font-family:sans-serif;text-indent:0;text-align:start;text-decoration:none;text-decoration-line:none;text-decoration-style:solid;text-decoration-color:#000000;letter-spacing:normal;word-spacing:normal;text-transform:none;direction:ltr;block-progression:tb;writing-mode:lr-tb;baseline-shift:baseline;text-anchor:start;white-space:normal;clip-rule:nonzero;display:inline;overflow:visible;visibility:visible;opacity:1;isolation:auto;mix-blend-mode:normal;color-interpolation:sRGB;color-interpolation-filters:linearRGB;solid-color:#000000;solid-opacity:1;fill:#000000;fill-opacity:1;fill-rule:evenodd;stroke:none;stroke-width:0.99999994px;stroke-linecap:round;stroke-linejoin:round;stroke-miterlimit:4;stroke-dasharray:none;stroke-dashoffset:0;stroke-opacity:1;color-rendering:auto;image-rendering:auto;shape-rendering:auto;text-rendering:auto;enable-background:accumulate" d="m 10.96875,1039.3484 a 0.50004997,0.49991123 0 0 0 -0.503906,0.5877 l 1.96875,11.9908 a 0.50004997,0.49991123 0 1 0 0.986328,-0.162 l -1.96875,-11.9908 a 0.50004997,0.49991123 0 0 0 -0.482422,-0.4257 z"/><path style="color:#000000;font-style:normal;font-variant:normal;font-weight:normal;font-stretch:normal;font-size:medium;line-height:normal;font-family:sans-serif;text-indent:0;text-align:start;text-decoration:none;text-decoration-line:none;text-decoration-style:solid;text-decoration-color:#000000;letter-spacing:normal;word-spacing:normal;text-transform:none;direction:ltr;block-progression:tb;writing-mode:lr-tb;baseline-shift:baseline;text-anchor:start;white-space:normal;clip-rule:nonzero;display:inline;overflow:visible;visibility:visible;opacity:1;isolation:auto;mix-blend-mode:normal;color-interpolation:sRGB;color-interpolation-filters:linearRGB;solid-color:#000000;solid-opacity:1;fill:#000000;fill-opacity:1;fill-rule:evenodd;stroke:none;stroke-width:0.99999994px;stroke-linecap:round;stroke-linejoin:round;stroke-miterlimit:4;stroke-dasharray:none;stroke-dashoffset:0;stroke-opacity:1;color-rendering:auto;image-rendering:auto;shape-rendering:auto;text-rendering:auto;enable-background:accumulate" d="m 14.402344,1039.2351 a 0.50004997,0.49991123 0 0 0 -0.511719,0.537 l 0.707031,11.9518 a 0.50004997,0.49991123 0 1 0 0.998047,-0.059 l -0.707031,-11.9517 a 0.50004997,0.49991123 0 0 0 -0.486328,-0.4785 z"/><path style="color:#000000;font-style:normal;font-variant:normal;font-weight:normal;font-stretch:normal;font-size:medium;line-height:normal;font-family:sans-serif;text-indent:0;text-align:start;text-decoration:none;text-decoration-line:none;text-decoration-style:solid;text-decoration-color:#000000;letter-spacing:normal;word-spacing:normal;text-transform:none;direction:ltr;block-progression:tb;writing-mode:lr-tb;baseline-shift:baseline;text-anchor:start;white-space:normal;clip-rule:nonzero;display:inline;overflow:visible;visibility:visible;opacity:1;isolation:auto;mix-blend-mode:normal;color-interpolation:sRGB;color-interpolation-filters:linearRGB;solid-color:#000000;solid-opacity:1;fill:#000000;fill-opacity:1;fill-rule:evenodd;stroke:none;stroke-width:0.99999994px;stroke-linecap:round;stroke-linejoin:round;stroke-miterlimit:4;stroke-dasharray:none;stroke-dashoffset:0;stroke-opacity:1;color-rendering:auto;image-rendering:auto;shape-rendering:auto;text-rendering:auto;enable-background:accumulate" d="m 18.837891,1038.8817 a 0.50004997,0.49991123 0 0 0 -0.503907,0.4433 l -1.564453,12.0025 a 0.50026529,0.50012649 0 1 0 0.992188,0.1289 l 1.564453,-12.0025 a 0.50004997,0.49991123 0 0 0 -0.488281,-0.5722 z"/><path style="color:#000000;font-style:normal;font-variant:normal;font-weight:normal;font-stretch:normal;font-size:medium;line-height:normal;font-family:sans-serif;text-indent:0;text-align:start;text-decoration:none;text-decoration-line:none;text-decoration-style:solid;text-decoration-color:#000000;letter-spacing:normal;word-spacing:normal;text-transform:none;direction:ltr;block-progression:tb;writing-mode:lr-tb;baseline-shift:baseline;text-anchor:start;white-space:normal;clip-rule:nonzero;display:inline;overflow:visible;visibility:visible;opacity:1;isolation:auto;mix-blend-mode:normal;color-interpolation:sRGB;color-interpolation-filters:linearRGB;solid-color:#000000;solid-opacity:1;fill:#000000;fill-opacity:1;fill-rule:evenodd;stroke:none;stroke-width:0.99999994px;stroke-linecap:round;stroke-linejoin:round;stroke-miterlimit:4;stroke-dasharray:none;stroke-dashoffset:0;stroke-opacity:1;color-rendering:auto;image-rendering:auto;shape-rendering:auto;text-rendering:auto;enable-background:accumulate" d="m 22.107422,1038.833 a 0.50004997,0.49991123 0 0 0 -0.486328,0.4021 l -2.574219,12.1549 a 0.50009598,0.49995723 0 1 0 0.978516,0.207 l 2.574218,-12.1548 a 0.50004997,0.49991123 0 0 0 -0.492187,-0.6092 z"/><path style="color:#000000;font-style:normal;font-variant:normal;font-weight:normal;font-stretch:normal;font-size:medium;line-height:normal;font-family:sans-serif;text-indent:0;text-align:start;text-decoration:none;text-decoration-line:none;text-decoration-style:solid;text-decoration-color:#000000;letter-spacing:normal;word-spacing:normal;text-transform:none;direction:ltr;block-progression:tb;writing-mode:lr-tb;baseline-shift:baseline;text-anchor:start;white-space:normal;clip-rule:nonzero;display:inline;overflow:visible;visibility:visible;opacity:1;isolation:auto;mix-blend-mode:normal;color-interpolation:sRGB;color-interpolation-filters:linearRGB;solid-color:#000000;solid-opacity:1;fill:#000000;fill-opacity:1;fill-rule:evenodd;stroke:none;stroke-width:0.49999997;stroke-linecap:round;stroke-linejoin:round;stroke-miterlimit:4;stroke-dasharray:none;stroke-dashoffset:0;stroke-opacity:1;color-rendering:auto;image-rendering:auto;shape-rendering:auto;text-rendering:auto;enable-background:accumulate" d="m 10.179688,1030.185 a 0.25002499,0.24995562 0 0 0 -0.173829,0.072 c 0,0 -0.2541588,0.2431 -0.5488278,0.5624 -0.2946689,0.3193 -0.6308085,0.7066 -0.8183593,1.0485 -0.141046,0.2569 -0.2443251,0.6096 -0.3242188,0.9118 -0.079894,0.3023 -0.1289062,0.5507 -0.1289062,0.5507 a 0.25002499,0.24995562 0 1 0 0.4902343,0.098 c 0,0 0.047243,-0.2346 0.1230469,-0.5213 0.075804,-0.2868 0.1868436,-0.6302 0.2792969,-0.7987 0.1390003,-0.2533 0.4622682,-0.6413 0.7460938,-0.9489 0.2838252,-0.3075 0.5273432,-0.5429 0.5273432,-0.5429 a 0.25002499,0.24995562 0 0 0 -0.171874,-0.4314 z"/></g><text x="0" y="47" fill="#000000" font-size="5px" font-weight="bold" font-family="'Helvetica Neue', Helvetica, Arial-Unicode, Arial, Sans-serif">Created by P Thanga Vignesh</text><text x="0" y="52" fill="#000000" font-size="5px" font-weight="bold" font-family="'Helvetica Neue', Helvetica, Arial-Unicode, Arial, Sans-serif">from the Noun Project</text></svg>