<svg xmlns:dc="http://purl.org/dc/elements/1.1/" xmlns:cc="http://creativecommons.org/ns#" xmlns:rdf="http://www.w3.org/1999/02/22-rdf-syntax-ns#" xmlns:svg="http://www.w3.org/2000/svg" xmlns="http://www.w3.org/2000/svg" xmlns:sodipodi="http://sodipodi.sourceforge.net/DTD/sodipodi-0.dtd" xmlns:inkscape="http://www.inkscape.org/namespaces/inkscape" viewBox="0 0 32 40" version="1.1" x="0px" y="0px"><g transform="translate(0,-1020.3622)"><path style="color:#000000;font-style:normal;font-variant:normal;font-weight:normal;font-stretch:normal;font-size:medium;line-height:normal;font-family:sans-serif;text-indent:0;text-align:start;text-decoration:none;text-decoration-line:none;text-decoration-style:solid;text-decoration-color:#000000;letter-spacing:normal;word-spacing:normal;text-transform:none;direction:ltr;block-progression:tb;writing-mode:lr-tb;baseline-shift:baseline;text-anchor:start;white-space:normal;clip-rule:nonzero;display:inline;overflow:visible;visibility:visible;opacity:1;isolation:auto;mix-blend-mode:normal;color-interpolation:sRGB;color-interpolation-filters:linearRGB;solid-color:#000000;solid-opacity:1;fill:#000000;fill-opacity:1;fill-rule:evenodd;stroke:none;stroke-width:1.00000012;stroke-linecap:round;stroke-linejoin:round;stroke-miterlimit:4;stroke-dasharray:none;stroke-dashoffset:0;stroke-opacity:1;color-rendering:auto;image-rendering:auto;shape-rendering:auto;text-rendering:auto;enable-background:accumulate" d="m 16.303323,1020.9102 c -1.511548,-0.039 -3.056281,0.1496 -4.507812,0.6074 a 0.50005006,0.50005006 0 0 0 -0.0078,0 c -2.1316146,0.6729 -4.2545705,1.6525 -5.9960938,3.1114 -1.9603997,1.6434 -3.7473068,3.7152 -4.6875,6.1426 -1.15544815,2.992 -1.36246665,6.3863 -0.81445307,9.5176 0.38359045,2.1751 1.42545027,4.2451 2.76367187,5.9668 1.2083815,1.5548 2.7857978,2.922 4.6074218,3.748 3.0939572,1.4032 6.6655902,2.0846 10.0625002,1.7012 2.990113,-0.3376 5.792779,-1.7659 8.220703,-3.3926 1.859605,-1.2464 3.736429,-2.7971 4.806641,-4.8613 l -0.002,0 c 1.120982,-2.1531 1.246094,-4.658 1.246094,-6.9512 l -0.002,0.01 c 0.03706,-1.9244 -0.05184,-3.9822 -0.824219,-5.8496 a 0.50005006,0.50005006 0 0 0 -0.002,0 c -0.955364,-2.2985 -2.570559,-4.3597 -4.486328,-5.9414 -1.778359,-1.4678 -3.977165,-2.3074 -6.083985,-3.0098 -1.370629,-0.4572 -2.824827,-0.768 -4.292969,-0.8066 z m -4.507812,0.6074 0.07422,-0.016 a 0.50005006,0.50005006 0 0 0 -0.07422,0.016 z m 4.480469,0.3926 c 1.344708,0.035 2.706585,0.3211 4.003906,0.7539 2.075858,0.692 4.154809,1.5061 5.763672,2.8339 1.799342,1.4857 3.318399,3.429 4.201172,5.5528 l -0.002,0 c 0.682592,1.6503 0.788094,3.5704 0.751953,5.4472 a 0.50005006,0.50005006 0 0 0 0,0.01 c 0,2.2538 -0.146771,4.5963 -1.132813,6.4902 -0.942702,1.8183 -2.67736,3.2857 -4.474609,4.4903 -2.356012,1.5785 -5.032709,2.9206 -7.777344,3.2305 -3.187072,0.3597 -6.594856,-0.2838 -9.5351566,-1.6172 -1.6395408,-0.7435 -3.1070081,-2.0076 -4.2304688,-3.4532 -1.253544,-1.6127 -2.2199815,-3.5499 -2.5683594,-5.5254 -0.51931583,-2.9673 -0.31608349,-6.1954 0.7617188,-8.9863 0.8546232,-2.2064 2.5252535,-4.1696 4.3964844,-5.7383 1.5998798,-1.3402 3.6022576,-2.274 5.6445316,-2.9199 a 0.50005006,0.50005006 0 0 0 0.01758,-0.01 c 1.332189,-0.4202 2.769338,-0.5992 4.179688,-0.5625 z"/><path style="color:#000000;font-style:normal;font-variant:normal;font-weight:normal;font-stretch:normal;font-size:medium;line-height:normal;font-family:sans-serif;text-indent:0;text-align:start;text-decoration:none;text-decoration-line:none;text-decoration-style:solid;text-decoration-color:#000000;letter-spacing:normal;word-spacing:normal;text-transform:none;direction:ltr;block-progression:tb;writing-mode:lr-tb;baseline-shift:baseline;text-anchor:start;white-space:normal;clip-rule:nonzero;display:inline;overflow:visible;visibility:visible;opacity:1;isolation:auto;mix-blend-mode:normal;color-interpolation:sRGB;color-interpolation-filters:linearRGB;solid-color:#000000;solid-opacity:1;fill:#000000;fill-opacity:1;fill-rule:evenodd;stroke:none;stroke-width:0.99999994px;stroke-linecap:round;stroke-linejoin:round;stroke-miterlimit:4;stroke-dasharray:none;stroke-dashoffset:0;stroke-opacity:1;color-rendering:auto;image-rendering:auto;shape-rendering:auto;text-rendering:auto;enable-background:accumulate" d="m 16.211527,1030.4473 a 0.50004997,0.50004997 0 0 0 -0.353516,0.1445 l -3.751953,3.7344 a 0.50004997,0.50004997 0 0 0 -0.126953,0.4902 l 1.435546,5.0625 a 0.50004997,0.50004997 0 0 0 0.564454,0.3574 l 6.011718,-1.0097 a 0.50004997,0.50004997 0 0 0 0.416016,-0.4649 l 0.277344,-5.0527 a 0.50004997,0.50004997 0 0 0 -0.216797,-0.4395 l -3.974609,-2.7343 a 0.50004997,0.50004997 0 0 0 -0.28125,-0.088 z m 0.05664,1.1465 3.402344,2.3417 -0.240234,4.3711 -5.175782,0.8692 -1.234375,-4.3477 3.248047,-3.2343 z"/><path style="color:#000000;font-style:normal;font-variant:normal;font-weight:normal;font-stretch:normal;font-size:medium;line-height:normal;font-family:sans-serif;text-indent:0;text-align:start;text-decoration:none;text-decoration-line:none;text-decoration-style:solid;text-decoration-color:#000000;letter-spacing:normal;word-spacing:normal;text-transform:none;direction:ltr;block-progression:tb;writing-mode:lr-tb;baseline-shift:baseline;text-anchor:start;white-space:normal;clip-rule:nonzero;display:inline;overflow:visible;visibility:visible;opacity:1;isolation:auto;mix-blend-mode:normal;color-interpolation:sRGB;color-interpolation-filters:linearRGB;solid-color:#000000;solid-opacity:1;fill:#000000;fill-opacity:1;fill-rule:evenodd;stroke:none;stroke-width:0.99999994px;stroke-linecap:round;stroke-linejoin:round;stroke-miterlimit:4;stroke-dasharray:none;stroke-dashoffset:0;stroke-opacity:1;color-rendering:auto;image-rendering:auto;shape-rendering:auto;text-rendering:auto;enable-background:accumulate" d="m 6.8150417,1023.9727 a 0.50004997,0.50004997 0 0 0 -0.4375,0.7089 l 0.6035157,1.3555 -1.2773438,4.9082 -3.4316406,4.459 -1.49609375,0.033 a 0.50011538,0.50011538 0 1 0 0.0214844,1 l 1.73437505,-0.037 a 0.50004997,0.50004997 0 0 0 0.3867188,-0.1953 l 3.6386718,-4.7305 a 0.50004997,0.50004997 0 0 0 0.087891,-0.1797 l 1.3476563,-5.1758 a 0.50004997,0.50004997 0 0 0 -0.027344,-0.3281 l -0.6738282,-1.5156 a 0.50004997,0.50004997 0 0 0 -0.4765625,-0.3027 z"/><path style="color:#000000;font-style:normal;font-variant:normal;font-weight:normal;font-stretch:normal;font-size:medium;line-height:normal;font-family:sans-serif;text-indent:0;text-align:start;text-decoration:none;text-decoration-line:none;text-decoration-style:solid;text-decoration-color:#000000;letter-spacing:normal;word-spacing:normal;text-transform:none;direction:ltr;block-progression:tb;writing-mode:lr-tb;baseline-shift:baseline;text-anchor:start;white-space:normal;clip-rule:nonzero;display:inline;overflow:visible;visibility:visible;opacity:1;isolation:auto;mix-blend-mode:normal;color-interpolation:sRGB;color-interpolation-filters:linearRGB;solid-color:#000000;solid-opacity:1;fill:#000000;fill-opacity:1;fill-rule:evenodd;stroke:none;stroke-width:0.99999994px;stroke-linecap:round;stroke-linejoin:round;stroke-miterlimit:4;stroke-dasharray:none;stroke-dashoffset:0;stroke-opacity:1;color-rendering:auto;image-rendering:auto;shape-rendering:auto;text-rendering:auto;enable-background:accumulate" d="m 12.104105,1021.6426 a 0.50004997,0.50004997 0 0 0 -0.50586,0.6269 l 0.337891,1.3672 a 0.50004997,0.50004997 0 0 0 0.337891,0.3594 l 3.863281,1.1816 a 0.50004997,0.50004997 0 0 0 0.240234,0.014 l 5.0625,-0.9609 a 0.50004997,0.50004997 0 0 0 0.394531,-0.3887 l 0.22461,-1.0723 a 0.50004997,0.50004997 0 1 0 -0.978516,-0.205 l -0.15625,0.746 -4.613281,0.875 -3.472656,-1.0625 -0.267579,-1.0918 a 0.50004997,0.50004997 0 0 0 -0.466796,-0.3886 z"/><path style="color:#000000;font-style:normal;font-variant:normal;font-weight:normal;font-stretch:normal;font-size:medium;line-height:normal;font-family:sans-serif;text-indent:0;text-align:start;text-decoration:none;text-decoration-line:none;text-decoration-style:solid;text-decoration-color:#000000;letter-spacing:normal;word-spacing:normal;text-transform:none;direction:ltr;block-progression:tb;writing-mode:lr-tb;baseline-shift:baseline;text-anchor:start;white-space:normal;clip-rule:nonzero;display:inline;overflow:visible;visibility:visible;opacity:1;isolation:auto;mix-blend-mode:normal;color-interpolation:sRGB;color-interpolation-filters:linearRGB;solid-color:#000000;solid-opacity:1;fill:#000000;fill-opacity:1;fill-rule:evenodd;stroke:none;stroke-width:0.99999994px;stroke-linecap:round;stroke-linejoin:round;stroke-miterlimit:4;stroke-dasharray:none;stroke-dashoffset:0;stroke-opacity:1;color-rendering:auto;image-rendering:auto;shape-rendering:auto;text-rendering:auto;enable-background:accumulate" d="m 27.320901,1025.4355 a 0.50004997,0.50004997 0 0 0 -0.341796,0.1563 l -1.273438,1.3066 a 0.50004997,0.50004997 0 0 0 -0.136719,0.418 l 0.652344,4.6856 a 0.50004997,0.50004997 0 0 0 0.121094,0.2617 l 3.173828,3.5996 a 0.50004997,0.50004997 0 0 0 0.316406,0.164 l 1.527344,0.1856 a 0.50072412,0.50072412 0 1 0 0.121094,-0.9941 l -1.339844,-0.1602 -2.949219,-3.3438 -0.599609,-4.2949 1.103515,-1.1308 a 0.50004997,0.50004997 0 0 0 -0.375,-0.8536 z"/><path style="color:#000000;font-style:normal;font-variant:normal;font-weight:normal;font-stretch:normal;font-size:medium;line-height:normal;font-family:sans-serif;text-indent:0;text-align:start;text-decoration:none;text-decoration-line:none;text-decoration-style:solid;text-decoration-color:#000000;letter-spacing:normal;word-spacing:normal;text-transform:none;direction:ltr;block-progression:tb;writing-mode:lr-tb;baseline-shift:baseline;text-anchor:start;white-space:normal;clip-rule:nonzero;display:inline;overflow:visible;visibility:visible;opacity:1;isolation:auto;mix-blend-mode:normal;color-interpolation:sRGB;color-interpolation-filters:linearRGB;solid-color:#000000;solid-opacity:1;fill:#000000;fill-opacity:1;fill-rule:evenodd;stroke:none;stroke-width:0.99999994px;stroke-linecap:round;stroke-linejoin:round;stroke-miterlimit:4;stroke-dasharray:none;stroke-dashoffset:0;stroke-opacity:1;color-rendering:auto;image-rendering:auto;shape-rendering:auto;text-rendering:auto;enable-background:accumulate" d="m 4.1392605,1043.2129 a 0.50004997,0.50004997 0 0 0 -0.296875,0.1133 c 0,0 -0.3125394,0.2588 -0.6503907,0.5215 -0.1689256,0.1313 -0.3444651,0.2639 -0.4824218,0.3613 -0.068978,0.049 -0.1287965,0.089 -0.1679688,0.1133 -0.039172,0.024 -0.089669,0.03 0.015625,0 a 0.50004997,0.50004997 0 1 0 0.2363282,0.9707 c 0.1585107,-0.039 0.1964445,-0.078 0.2675781,-0.1211 0.071134,-0.043 0.1444048,-0.094 0.2246093,-0.1504 0.1604092,-0.1133 0.3438529,-0.2521 0.5195313,-0.3887 0.2453902,-0.1908 0.3536833,-0.2797 0.4707031,-0.375 l 5.578125,1.4727 3.8437508,3.5019 -0.306641,1.3887 a 0.50016935,0.50016935 0 0 0 0.976563,0.2168 l 0.36914,-1.6738 a 0.50004997,0.50004997 0 0 0 -0.15039,-0.4766 l -4.148438,-3.7793 a 0.50004997,0.50004997 0 0 0 -0.208984,-0.1133 l -5.941407,-1.5683 a 0.50004997,0.50004997 0 0 0 -0.1484375,-0.018 z"/><path style="color:#000000;font-style:normal;font-variant:normal;font-weight:normal;font-stretch:normal;font-size:medium;line-height:normal;font-family:sans-serif;text-indent:0;text-align:start;text-decoration:none;text-decoration-line:none;text-decoration-style:solid;text-decoration-color:#000000;letter-spacing:normal;word-spacing:normal;text-transform:none;direction:ltr;block-progression:tb;writing-mode:lr-tb;baseline-shift:baseline;text-anchor:start;white-space:normal;clip-rule:nonzero;display:inline;overflow:visible;visibility:visible;opacity:1;isolation:auto;mix-blend-mode:normal;color-interpolation:sRGB;color-interpolation-filters:linearRGB;solid-color:#000000;solid-opacity:1;fill:#000000;fill-opacity:1;fill-rule:evenodd;stroke:none;stroke-width:0.99999994px;stroke-linecap:round;stroke-linejoin:round;stroke-miterlimit:4;stroke-dasharray:none;stroke-dashoffset:0;stroke-opacity:1;color-rendering:auto;image-rendering:auto;shape-rendering:auto;text-rendering:auto;enable-background:accumulate" d="m 29.774027,1039.8164 a 0.50004997,0.50004997 0 0 0 -0.251954,0.07 l -4.826172,2.875 a 0.50004997,0.50004997 0 0 0 -0.15625,0.1465 l -3.341796,4.8613 a 0.50004997,0.50004997 0 0 0 -0.07617,0.3907 l 0.371094,1.6718 a 0.50004997,0.50004997 0 1 0 0.976562,-0.2148 l -0.324219,-1.461 3.15625,-4.5917 4.460938,-2.6583 0.904297,0.6094 a 0.50004997,0.50004997 0 1 0 0.55664,-0.8301 l -1.166015,-0.7851 a 0.50004997,0.50004997 0 0 0 -0.283203,-0.084 z"/><path style="color:#000000;font-style:normal;font-variant:normal;font-weight:normal;font-stretch:normal;font-size:medium;line-height:normal;font-family:sans-serif;text-indent:0;text-align:start;text-decoration:none;text-decoration-line:none;text-decoration-style:solid;text-decoration-color:#000000;letter-spacing:normal;word-spacing:normal;text-transform:none;direction:ltr;block-progression:tb;writing-mode:lr-tb;baseline-shift:baseline;text-anchor:start;white-space:normal;clip-rule:nonzero;display:inline;overflow:visible;visibility:visible;opacity:1;isolation:auto;mix-blend-mode:normal;color-interpolation:sRGB;color-interpolation-filters:linearRGB;solid-color:#000000;solid-opacity:1;fill:#000000;fill-opacity:1;fill-rule:evenodd;stroke:none;stroke-width:0.99999994px;stroke-linecap:round;stroke-linejoin:round;stroke-miterlimit:4;stroke-dasharray:none;stroke-dashoffset:0;stroke-opacity:1;color-rendering:auto;image-rendering:auto;shape-rendering:auto;text-rendering:auto;enable-background:accumulate" d="m 14.000589,1039.1758 a 0.50004997,0.50004997 0 0 0 -0.412109,0.2168 l -3.9375008,5.5703 a 0.50004997,0.50004997 0 1 0 0.8164068,0.5762 l 3.9375,-5.5703 a 0.50004997,0.50004997 0 0 0 -0.404297,-0.793 z"/><path style="color:#000000;font-style:normal;font-variant:normal;font-weight:normal;font-stretch:normal;font-size:medium;line-height:normal;font-family:sans-serif;text-indent:0;text-align:start;text-decoration:none;text-decoration-line:none;text-decoration-style:solid;text-decoration-color:#000000;letter-spacing:normal;word-spacing:normal;text-transform:none;direction:ltr;block-progression:tb;writing-mode:lr-tb;baseline-shift:baseline;text-anchor:start;white-space:normal;clip-rule:nonzero;display:inline;overflow:visible;visibility:visible;opacity:1;isolation:auto;mix-blend-mode:normal;color-interpolation:sRGB;color-interpolation-filters:linearRGB;solid-color:#000000;solid-opacity:1;fill:#000000;fill-opacity:1;fill-rule:evenodd;stroke:none;stroke-width:0.99999994px;stroke-linecap:round;stroke-linejoin:round;stroke-miterlimit:4;stroke-dasharray:none;stroke-dashoffset:0;stroke-opacity:1;color-rendering:auto;image-rendering:auto;shape-rendering:auto;text-rendering:auto;enable-background:accumulate" d="m 19.928323,1038.1562 a 0.50004997,0.50004997 0 0 0 -0.353515,0.877 l 5.013672,4.5293 a 0.50004997,0.50004997 0 1 0 0.669921,-0.7422 l -5.013671,-4.5293 a 0.50004997,0.50004997 0 0 0 -0.316407,-0.1348 z"/><path style="color:#000000;font-style:normal;font-variant:normal;font-weight:normal;font-stretch:normal;font-size:medium;line-height:normal;font-family:sans-serif;text-indent:0;text-align:start;text-decoration:none;text-decoration-line:none;text-decoration-style:solid;text-decoration-color:#000000;letter-spacing:normal;word-spacing:normal;text-transform:none;direction:ltr;block-progression:tb;writing-mode:lr-tb;baseline-shift:baseline;text-anchor:start;white-space:normal;clip-rule:nonzero;display:inline;overflow:visible;visibility:visible;opacity:1;isolation:auto;mix-blend-mode:normal;color-interpolation:sRGB;color-interpolation-filters:linearRGB;solid-color:#000000;solid-opacity:1;fill:#000000;fill-opacity:1;fill-rule:evenodd;stroke:none;stroke-width:0.99999994px;stroke-linecap:round;stroke-linejoin:round;stroke-miterlimit:4;stroke-dasharray:none;stroke-dashoffset:0;stroke-opacity:1;color-rendering:auto;image-rendering:auto;shape-rendering:auto;text-rendering:auto;enable-background:accumulate" d="m 26.701761,1031.4102 a 0.50004997,0.50004997 0 0 0 -0.132813,0.019 l -6.523437,1.7773 a 0.50013871,0.50013871 0 1 0 0.263672,0.9649 l 6.523437,-1.7774 a 0.50004997,0.50004997 0 0 0 -0.130859,-0.9843 z"/><path style="color:#000000;font-style:normal;font-variant:normal;font-weight:normal;font-stretch:normal;font-size:medium;line-height:normal;font-family:sans-serif;text-indent:0;text-align:start;text-decoration:none;text-decoration-line:none;text-decoration-style:solid;text-decoration-color:#000000;letter-spacing:normal;word-spacing:normal;text-transform:none;direction:ltr;block-progression:tb;writing-mode:lr-tb;baseline-shift:baseline;text-anchor:start;white-space:normal;clip-rule:nonzero;display:inline;overflow:visible;visibility:visible;opacity:1;isolation:auto;mix-blend-mode:normal;color-interpolation:sRGB;color-interpolation-filters:linearRGB;solid-color:#000000;solid-opacity:1;fill:#000000;fill-opacity:1;fill-rule:evenodd;stroke:none;stroke-width:0.99999994px;stroke-linecap:round;stroke-linejoin:round;stroke-miterlimit:4;stroke-dasharray:none;stroke-dashoffset:0;stroke-opacity:1;color-rendering:auto;image-rendering:auto;shape-rendering:auto;text-rendering:auto;enable-background:accumulate" d="m 16.289651,1024.1797 a 0.50004997,0.50004997 0 0 0 -0.498046,0.5 l -0.07813,6.2461 a 0.50004997,0.50004997 0 1 0 1,0.014 l 0.07813,-6.2481 a 0.50004997,0.50004997 0 0 0 -0.501954,-0.5117 z"/><path style="color:#000000;font-style:normal;font-variant:normal;font-weight:normal;font-stretch:normal;font-size:medium;line-height:normal;font-family:sans-serif;text-indent:0;text-align:start;text-decoration:none;text-decoration-line:none;text-decoration-style:solid;text-decoration-color:#000000;letter-spacing:normal;word-spacing:normal;text-transform:none;direction:ltr;block-progression:tb;writing-mode:lr-tb;baseline-shift:baseline;text-anchor:start;white-space:normal;clip-rule:nonzero;display:inline;overflow:visible;visibility:visible;opacity:1;isolation:auto;mix-blend-mode:normal;color-interpolation:sRGB;color-interpolation-filters:linearRGB;solid-color:#000000;solid-opacity:1;fill:#000000;fill-opacity:1;fill-rule:evenodd;stroke:none;stroke-width:0.99999994px;stroke-linecap:round;stroke-linejoin:round;stroke-miterlimit:4;stroke-dasharray:none;stroke-dashoffset:0;stroke-opacity:1;color-rendering:auto;image-rendering:auto;shape-rendering:auto;text-rendering:auto;enable-background:accumulate" d="m 6.3072292,1030.7695 a 0.50004997,0.50004997 0 0 0 -0.2460937,0.9414 l 6.1738285,3.4161 a 0.50006103,0.50006103 0 1 0 0.484375,-0.875 l -6.1738285,-3.4161 a 0.50004997,0.50004997 0 0 0 -0.2382813,-0.066 z"/></g><text x="0" y="47" fill="#000000" font-size="5px" font-weight="bold" font-family="'Helvetica Neue', Helvetica, Arial-Unicode, Arial, Sans-serif">Created by P Thanga Vignesh</text><text x="0" y="52" fill="#000000" font-size="5px" font-weight="bold" font-family="'Helvetica Neue', Helvetica, Arial-Unicode, Arial, Sans-serif">from the Noun Project</text></svg>