<svg xmlns:dc="http://purl.org/dc/elements/1.1/" xmlns:cc="http://creativecommons.org/ns#" xmlns:rdf="http://www.w3.org/1999/02/22-rdf-syntax-ns#" xmlns:svg="http://www.w3.org/2000/svg" xmlns="http://www.w3.org/2000/svg" xmlns:sodipodi="http://sodipodi.sourceforge.net/DTD/sodipodi-0.dtd" xmlns:inkscape="http://www.inkscape.org/namespaces/inkscape" viewBox="0 0 32 40" version="1.1" x="0px" y="0px"><g transform="translate(0,-1020.3622)"><path style="color:#000000;font-style:normal;font-variant:normal;font-weight:normal;font-stretch:normal;font-size:medium;line-height:normal;font-family:sans-serif;text-indent:0;text-align:start;text-decoration:none;text-decoration-line:none;text-decoration-style:solid;text-decoration-color:#000000;letter-spacing:normal;word-spacing:normal;text-transform:none;direction:ltr;block-progression:tb;writing-mode:lr-tb;baseline-shift:baseline;text-anchor:start;white-space:normal;clip-rule:nonzero;display:inline;overflow:visible;visibility:visible;opacity:1;isolation:auto;mix-blend-mode:normal;color-interpolation:sRGB;color-interpolation-filters:linearRGB;solid-color:#000000;solid-opacity:1;fill:#000000;fill-opacity:1;fill-rule:evenodd;stroke:none;stroke-width:1.00000012px;stroke-linecap:round;stroke-linejoin:round;stroke-miterlimit:4;stroke-dasharray:none;stroke-dashoffset:0;stroke-opacity:1;color-rendering:auto;image-rendering:auto;shape-rendering:auto;text-rendering:auto;enable-background:accumulate" d="m 16.029297,1026.0938 c -1.845502,0.029 -3.695146,0.4094 -5.351563,1.0429 -3.4650186,1.3254 -6.5837432,4.0845 -8.2675778,7.4024 -1.3714235,2.7014 -1.52951003,6.0189 -0.8984374,8.9277 0.5792189,2.6701 1.8534686,5.5724 4.2050781,7.1816 2.7194433,1.8611 6.3707331,1.91 9.4863281,1.5176 2.977947,-0.3751 5.927096,-1.6506 8.253906,-3.5469 1.874593,-1.5279 3.425908,-3.634 4.160157,-5.9687 0.80211,-2.5522 0.919915,-5.5031 -0.0078,-8.0566 -1.100585,-3.0291 -3.269163,-6.0471 -6.257813,-7.4434 -1.636687,-0.7647 -3.476764,-1.0859 -5.322265,-1.0566 z m 0.0098,1.0097 c 1.719349,-0.027 3.420164,0.2661 4.890626,0.9531 2.64965,1.238 4.712189,4.0496 5.740234,6.8789 0.832776,2.2923 0.737856,5.0497 -0.0059,7.4161 -0.664177,2.1119 -2.105744,4.0787 -3.839843,5.4922 -2.175362,1.7727 -4.967065,2.98 -7.746094,3.33 -3.004971,0.3785 -6.4222717,0.2755 -8.796875,-1.3496 -2.0205477,-1.3827 -3.2474005,-4.0554 -3.7929688,-6.5703 -0.5897148,-2.7182 -0.4197293,-5.8306 0.8144532,-8.2617 1.5582439,-3.0704 4.5159924,-5.6916 7.7324216,-6.9219 1.546733,-0.5916 3.284558,-0.9394 5.003906,-0.9668 z"/><path style="color:#000000;font-style:normal;font-variant:normal;font-weight:normal;font-stretch:normal;font-size:medium;line-height:normal;font-family:sans-serif;text-indent:0;text-align:start;text-decoration:none;text-decoration-line:none;text-decoration-style:solid;text-decoration-color:#000000;letter-spacing:normal;word-spacing:normal;text-transform:none;direction:ltr;block-progression:tb;writing-mode:lr-tb;baseline-shift:baseline;text-anchor:start;white-space:normal;clip-rule:nonzero;display:inline;overflow:visible;visibility:visible;opacity:1;isolation:auto;mix-blend-mode:normal;color-interpolation:sRGB;color-interpolation-filters:linearRGB;solid-color:#000000;solid-opacity:1;fill:#000000;fill-opacity:1;fill-rule:evenodd;stroke:none;stroke-width:1.00000012px;stroke-linecap:round;stroke-linejoin:round;stroke-miterlimit:4;stroke-dasharray:none;stroke-dashoffset:0;stroke-opacity:1;color-rendering:auto;image-rendering:auto;shape-rendering:auto;text-rendering:auto;enable-background:accumulate" d="m 15.492188,1030.8691 c -1.192873,0.019 -2.385231,0.2646 -3.455079,0.6739 -2.2415731,0.8573 -4.2474391,2.6312 -5.3378902,4.7793 -0.8953691,1.7617 -0.993629,3.9028 -0.5859376,5.7812 0.3732378,1.7207 1.1910795,3.6027 2.7421876,4.6641 1.7870142,1.2227 4.1437772,1.2413 6.1386722,0.9902 1.92382,-0.2423 3.821692,-1.0626 5.324218,-2.2871 1.213924,-0.9892 2.217294,-2.3485 2.695313,-3.8691 0.519016,-1.6516 0.599469,-3.5564 -0.0059,-5.2227 -0.710925,-1.9563 -2.106431,-3.9084 -4.0625,-4.8223 -1.067876,-0.4989 -2.260252,-0.7064 -3.453124,-0.6875 z m 0.0098,1.0098 c 1.066718,-0.017 2.11985,0.1627 3.021485,0.584 1.617097,0.7555 2.904601,2.5011 3.542968,4.2578 0.510388,1.4049 0.454776,3.1162 -0.0059,4.582 -0.407904,1.2976 -1.301554,2.5179 -2.375,3.3926 -1.351018,1.1011 -3.091471,1.8531 -4.816406,2.0703 -1.884412,0.2372 -4.007005,0.1626 -5.4492191,-0.8242 -1.2200414,-0.8348 -1.9885439,-2.4853 -2.328125,-4.0508 -0.3663557,-1.6879 -0.2577962,-3.6242 0.5,-5.1152 0.9648556,-1.9007 2.8097261,-3.5366 4.8027341,-4.2988 0.960136,-0.3673 2.040704,-0.5807 3.107422,-0.5977 z"/><path style="color:#000000;font-style:normal;font-variant:normal;font-weight:normal;font-stretch:normal;font-size:medium;line-height:normal;font-family:sans-serif;text-indent:0;text-align:start;text-decoration:none;text-decoration-line:none;text-decoration-style:solid;text-decoration-color:#000000;letter-spacing:normal;word-spacing:normal;text-transform:none;direction:ltr;block-progression:tb;writing-mode:lr-tb;baseline-shift:baseline;text-anchor:start;white-space:normal;clip-rule:nonzero;display:inline;overflow:visible;visibility:visible;opacity:1;isolation:auto;mix-blend-mode:normal;color-interpolation:sRGB;color-interpolation-filters:linearRGB;solid-color:#000000;solid-opacity:1;fill:#000000;fill-opacity:1;fill-rule:evenodd;stroke:none;stroke-width:1.00000012px;stroke-linecap:round;stroke-linejoin:round;stroke-miterlimit:4;stroke-dasharray:none;stroke-dashoffset:0;stroke-opacity:1;color-rendering:auto;image-rendering:auto;shape-rendering:auto;text-rendering:auto;enable-background:accumulate" d="m 14.990234,1035.3496 c -0.580151,0.01 -1.156426,0.1315 -1.675781,0.3301 -1.093304,0.4181 -2.054511,1.2683 -2.587891,2.3183 -0.446372,0.8791 -0.491525,1.9122 -0.292968,2.8243 a 0.50005006,0.50005006 0 0 0 0.04297,0.1211 c 0.190883,0.7972 0.563393,1.6589 1.324219,2.1796 0.911543,0.6233 2.054816,0.6189 2.998047,0.5 0.934739,-0.1176 1.845452,-0.5117 2.574219,-1.1054 0.593961,-0.484 1.08131,-1.1433 1.320312,-1.8985 a 0.50005006,0.50005006 0 0 0 0.002,-0 c 0.252012,-0.8061 0.292147,-1.73 -0.0078,-2.5625 a 0.50005006,0.50005006 0 0 0 0,-0 c -0.345107,-0.9495 -1.012704,-1.8982 -2,-2.3593 -0.533831,-0.2494 -1.117114,-0.353 -1.697266,-0.3438 z M 15,1036.3594 c 0.454022,-0.01 0.898039,0.068 1.265625,0.2402 0.647716,0.3025 1.207642,1.0442 1.480469,1.793 0.206497,0.5731 0.188113,1.3053 -0.0059,1.9258 -0.169412,0.534 -0.547447,1.0551 -1,1.4238 -0.577436,0.4704 -1.330594,0.7961 -2.066406,0.8887 -0.83239,0.1049 -1.741585,0.056 -2.308594,-0.3321 -0.468344,-0.3205 -0.806707,-1.0132 -0.953125,-1.6875 a 0.50005006,0.50005006 0 0 0 -0.002,-0.01 c -0.155545,-0.7184 -0.101211,-1.546 0.207032,-2.1543 0.407724,-0.8027 1.209849,-1.5148 2.054687,-1.8379 0.409653,-0.1567 0.874103,-0.2467 1.328125,-0.2539 z"/><path style="color:#000000;font-style:normal;font-variant:normal;font-weight:normal;font-stretch:normal;font-size:medium;line-height:normal;font-family:sans-serif;text-indent:0;text-align:start;text-decoration:none;text-decoration-line:none;text-decoration-style:solid;text-decoration-color:#000000;letter-spacing:normal;word-spacing:normal;text-transform:none;direction:ltr;block-progression:tb;writing-mode:lr-tb;baseline-shift:baseline;text-anchor:start;white-space:normal;clip-rule:nonzero;display:inline;overflow:visible;visibility:visible;opacity:1;isolation:auto;mix-blend-mode:normal;color-interpolation:sRGB;color-interpolation-filters:linearRGB;solid-color:#000000;solid-opacity:1;fill:#000000;fill-opacity:1;fill-rule:evenodd;stroke:none;stroke-width:0.99999994px;stroke-linecap:round;stroke-linejoin:round;stroke-miterlimit:4;stroke-dasharray:none;stroke-dashoffset:0;stroke-opacity:1;color-rendering:auto;image-rendering:auto;shape-rendering:auto;text-rendering:auto;enable-background:accumulate" d="m 25.519531,1025.6133 a 0.50004997,0.50004997 0 0 0 -0.373047,0.1972 l -10.734375,13.8145 a 0.50046059,0.50046059 0 0 0 0.791016,0.6133 L 25.9375,1026.4238 a 0.50004997,0.50004997 0 0 0 -0.417969,-0.8105 z"/><path style="color:#000000;font-style:normal;font-variant:normal;font-weight:normal;font-stretch:normal;font-size:medium;line-height:normal;font-family:sans-serif;text-indent:0;text-align:start;text-decoration:none;text-decoration-line:none;text-decoration-style:solid;text-decoration-color:#000000;letter-spacing:normal;word-spacing:normal;text-transform:none;direction:ltr;block-progression:tb;writing-mode:lr-tb;baseline-shift:baseline;text-anchor:start;white-space:normal;clip-rule:nonzero;display:inline;overflow:visible;visibility:visible;opacity:1;isolation:auto;mix-blend-mode:normal;color-interpolation:sRGB;color-interpolation-filters:linearRGB;solid-color:#000000;solid-opacity:1;fill:#000000;fill-opacity:1;fill-rule:evenodd;stroke:none;stroke-width:0.99999994px;stroke-linecap:round;stroke-linejoin:round;stroke-miterlimit:4;stroke-dasharray:none;stroke-dashoffset:0;stroke-opacity:1;color-rendering:auto;image-rendering:auto;shape-rendering:auto;text-rendering:auto;enable-background:accumulate" d="m 27.376953,1020.3633 a 0.50004997,0.50004997 0 0 0 -0.371094,0.1875 l -2.136718,2.6758 a 0.50004997,0.50004997 0 0 0 -0.107422,0.3593 l 0.253906,2.6485 a 0.50004997,0.50004997 0 0 0 0.552734,0.4511 l 2.427735,-0.2695 a 0.50004997,0.50004997 0 0 0 0.328125,-0.1777 l 2.404297,-2.8926 a 0.50004997,0.50004997 0 0 0 -0.40625,-0.8203 l -2.042969,0.086 -0.392578,-1.8535 a 0.50004997,0.50004997 0 0 0 -0.509766,-0.3945 z m -0.25,1.6367 0.261719,1.2324 a 0.50004997,0.50004997 0 0 0 0.509766,0.3965 l 1.339843,-0.057 -1.554687,1.8711 -1.722656,0.1914 -0.183594,-1.9414 1.349609,-1.6934 z"/><path style="color:#000000;font-style:normal;font-variant:normal;font-weight:normal;font-stretch:normal;font-size:medium;line-height:normal;font-family:sans-serif;text-indent:0;text-align:start;text-decoration:none;text-decoration-line:none;text-decoration-style:solid;text-decoration-color:#000000;letter-spacing:normal;word-spacing:normal;text-transform:none;direction:ltr;block-progression:tb;writing-mode:lr-tb;baseline-shift:baseline;text-anchor:start;white-space:normal;clip-rule:nonzero;display:inline;overflow:visible;visibility:visible;opacity:1;isolation:auto;mix-blend-mode:normal;color-interpolation:sRGB;color-interpolation-filters:linearRGB;solid-color:#000000;solid-opacity:1;fill:#000000;fill-opacity:1;fill-rule:evenodd;stroke:none;stroke-width:0.24999999;stroke-linecap:round;stroke-linejoin:round;stroke-miterlimit:4;stroke-dasharray:none;stroke-dashoffset:0;stroke-opacity:1;color-rendering:auto;image-rendering:auto;shape-rendering:auto;text-rendering:auto;enable-background:accumulate" d="m 13.193359,1038.5 a 0.12501249,0.12501249 0 0 0 -0.07226,0.039 l -1.707032,1.7382 a 0.12501249,0.12501249 0 1 0 0.177735,0.1739 l 1.707031,-1.7383 A 0.12501249,0.12501249 0 0 0 13.193359,1038.5 Z"/><path style="color:#000000;font-style:normal;font-variant:normal;font-weight:normal;font-stretch:normal;font-size:medium;line-height:normal;font-family:sans-serif;text-indent:0;text-align:start;text-decoration:none;text-decoration-line:none;text-decoration-style:solid;text-decoration-color:#000000;letter-spacing:normal;word-spacing:normal;text-transform:none;direction:ltr;block-progression:tb;writing-mode:lr-tb;baseline-shift:baseline;text-anchor:start;white-space:normal;clip-rule:nonzero;display:inline;overflow:visible;visibility:visible;opacity:1;isolation:auto;mix-blend-mode:normal;color-interpolation:sRGB;color-interpolation-filters:linearRGB;solid-color:#000000;solid-opacity:1;fill:#000000;fill-opacity:1;fill-rule:evenodd;stroke:none;stroke-width:0.24999999;stroke-linecap:round;stroke-linejoin:round;stroke-miterlimit:4;stroke-dasharray:none;stroke-dashoffset:0;stroke-opacity:1;color-rendering:auto;image-rendering:auto;shape-rendering:auto;text-rendering:auto;enable-background:accumulate" d="m 13.169922,1039.377 a 0.12501249,0.12501249 0 0 0 -0.08594,0.041 l -1.630859,1.7597 a 0.12510671,0.12510671 0 1 0 0.183594,0.17 l 1.630859,-1.7598 a 0.12501249,0.12501249 0 0 0 -0.09766,-0.2109 z"/><path style="color:#000000;font-style:normal;font-variant:normal;font-weight:normal;font-stretch:normal;font-size:medium;line-height:normal;font-family:sans-serif;text-indent:0;text-align:start;text-decoration:none;text-decoration-line:none;text-decoration-style:solid;text-decoration-color:#000000;letter-spacing:normal;word-spacing:normal;text-transform:none;direction:ltr;block-progression:tb;writing-mode:lr-tb;baseline-shift:baseline;text-anchor:start;white-space:normal;clip-rule:nonzero;display:inline;overflow:visible;visibility:visible;opacity:1;isolation:auto;mix-blend-mode:normal;color-interpolation:sRGB;color-interpolation-filters:linearRGB;solid-color:#000000;solid-opacity:1;fill:#000000;fill-opacity:1;fill-rule:evenodd;stroke:none;stroke-width:0.24999999;stroke-linecap:round;stroke-linejoin:round;stroke-miterlimit:4;stroke-dasharray:none;stroke-dashoffset:0;stroke-opacity:1;color-rendering:auto;image-rendering:auto;shape-rendering:auto;text-rendering:auto;enable-background:accumulate" d="m 13.085938,1040.5527 a 0.12501249,0.12501249 0 0 0 -0.08008,0.049 l -1.123047,1.4023 a 0.12507683,0.12507683 0 0 0 0.195313,0.1563 l 1.123047,-1.4024 a 0.12501249,0.12501249 0 0 0 -0.115234,-0.2051 z"/><path style="color:#000000;font-style:normal;font-variant:normal;font-weight:normal;font-stretch:normal;font-size:medium;line-height:normal;font-family:sans-serif;text-indent:0;text-align:start;text-decoration:none;text-decoration-line:none;text-decoration-style:solid;text-decoration-color:#000000;letter-spacing:normal;word-spacing:normal;text-transform:none;direction:ltr;block-progression:tb;writing-mode:lr-tb;baseline-shift:baseline;text-anchor:start;white-space:normal;clip-rule:nonzero;display:inline;overflow:visible;visibility:visible;opacity:1;isolation:auto;mix-blend-mode:normal;color-interpolation:sRGB;color-interpolation-filters:linearRGB;solid-color:#000000;solid-opacity:1;fill:#000000;fill-opacity:1;fill-rule:evenodd;stroke:none;stroke-width:0.24999999;stroke-linecap:round;stroke-linejoin:round;stroke-miterlimit:4;stroke-dasharray:none;stroke-dashoffset:0;stroke-opacity:1;color-rendering:auto;image-rendering:auto;shape-rendering:auto;text-rendering:auto;enable-background:accumulate" d="m 13.455078,1041.3516 a 0.12501249,0.12501249 0 0 0 -0.08594,0.041 l -0.929688,1.0019 a 0.12504306,0.12504306 0 1 0 0.181641,0.1719 l 0.93164,-1.0039 a 0.12501249,0.12501249 0 0 0 -0.09766,-0.2109 z"/><path style="color:#000000;font-style:normal;font-variant:normal;font-weight:normal;font-stretch:normal;font-size:medium;line-height:normal;font-family:sans-serif;text-indent:0;text-align:start;text-decoration:none;text-decoration-line:none;text-decoration-style:solid;text-decoration-color:#000000;letter-spacing:normal;word-spacing:normal;text-transform:none;direction:ltr;block-progression:tb;writing-mode:lr-tb;baseline-shift:baseline;text-anchor:start;white-space:normal;clip-rule:nonzero;display:inline;overflow:visible;visibility:visible;opacity:1;isolation:auto;mix-blend-mode:normal;color-interpolation:sRGB;color-interpolation-filters:linearRGB;solid-color:#000000;solid-opacity:1;fill:#000000;fill-opacity:1;fill-rule:evenodd;stroke:none;stroke-width:0.24999999;stroke-linecap:round;stroke-linejoin:round;stroke-miterlimit:4;stroke-dasharray:none;stroke-dashoffset:0;stroke-opacity:1;color-rendering:auto;image-rendering:auto;shape-rendering:auto;text-rendering:auto;enable-background:accumulate" d="m 13.970703,1041.9277 a 0.12501249,0.12501249 0 0 0 -0.08398,0.045 l -0.759766,0.9062 a 0.12501249,0.12501249 0 1 0 0.191406,0.1602 l 0.759766,-0.9043 a 0.12501249,0.12501249 0 0 0 -0.107422,-0.2071 z"/><path style="color:#000000;font-style:normal;font-variant:normal;font-weight:normal;font-stretch:normal;font-size:medium;line-height:normal;font-family:sans-serif;text-indent:0;text-align:start;text-decoration:none;text-decoration-line:none;text-decoration-style:solid;text-decoration-color:#000000;letter-spacing:normal;word-spacing:normal;text-transform:none;direction:ltr;block-progression:tb;writing-mode:lr-tb;baseline-shift:baseline;text-anchor:start;white-space:normal;clip-rule:nonzero;display:inline;overflow:visible;visibility:visible;opacity:1;isolation:auto;mix-blend-mode:normal;color-interpolation:sRGB;color-interpolation-filters:linearRGB;solid-color:#000000;solid-opacity:1;fill:#000000;fill-opacity:1;fill-rule:evenodd;stroke:none;stroke-width:0.24999999;stroke-linecap:round;stroke-linejoin:round;stroke-miterlimit:4;stroke-dasharray:none;stroke-dashoffset:0;stroke-opacity:1;color-rendering:auto;image-rendering:auto;shape-rendering:auto;text-rendering:auto;enable-background:accumulate" d="m 14.234375,1042.4922 a 0.12501249,0.12501249 0 0 0 -0.09961,0.061 l -0.294922,0.4766 a 0.12501249,0.12501249 0 1 0 0.21289,0.1309 l 0.294922,-0.4766 a 0.12501249,0.12501249 0 0 0 -0.113281,-0.1914 z"/><path style="color:#000000;font-style:normal;font-variant:normal;font-weight:normal;font-stretch:normal;font-size:medium;line-height:normal;font-family:sans-serif;text-indent:0;text-align:start;text-decoration:none;text-decoration-line:none;text-decoration-style:solid;text-decoration-color:#000000;letter-spacing:normal;word-spacing:normal;text-transform:none;direction:ltr;block-progression:tb;writing-mode:lr-tb;baseline-shift:baseline;text-anchor:start;white-space:normal;clip-rule:nonzero;display:inline;overflow:visible;visibility:visible;opacity:1;isolation:auto;mix-blend-mode:normal;color-interpolation:sRGB;color-interpolation-filters:linearRGB;solid-color:#000000;solid-opacity:1;fill:#000000;fill-opacity:1;fill-rule:evenodd;stroke:none;stroke-width:0.24999999;stroke-linecap:round;stroke-linejoin:round;stroke-miterlimit:4;stroke-dasharray:none;stroke-dashoffset:0;stroke-opacity:1;color-rendering:auto;image-rendering:auto;shape-rendering:auto;text-rendering:auto;enable-background:accumulate" d="m 12.560547,1038.0898 a 0.12501249,0.12501249 0 0 0 -0.08399,0.041 l -0.93164,1.0039 a 0.12507275,0.12507275 0 1 0 0.183594,0.1699 l 0.93164,-1.0039 a 0.12501249,0.12501249 0 0 0 -0.09961,-0.211 z"/><path style="color:#000000;font-style:normal;font-variant:normal;font-weight:normal;font-stretch:normal;font-size:medium;line-height:normal;font-family:sans-serif;text-indent:0;text-align:start;text-decoration:none;text-decoration-line:none;text-decoration-style:solid;text-decoration-color:#000000;letter-spacing:normal;word-spacing:normal;text-transform:none;direction:ltr;block-progression:tb;writing-mode:lr-tb;baseline-shift:baseline;text-anchor:start;white-space:normal;clip-rule:nonzero;display:inline;overflow:visible;visibility:visible;opacity:1;isolation:auto;mix-blend-mode:normal;color-interpolation:sRGB;color-interpolation-filters:linearRGB;solid-color:#000000;solid-opacity:1;fill:#000000;fill-opacity:1;fill-rule:evenodd;stroke:none;stroke-width:0.24999999;stroke-linecap:round;stroke-linejoin:round;stroke-miterlimit:4;stroke-dasharray:none;stroke-dashoffset:0;stroke-opacity:1;color-rendering:auto;image-rendering:auto;shape-rendering:auto;text-rendering:auto;enable-background:accumulate" d="m 26.921875,1022.7188 a 0.12501249,0.12501249 0 0 0 -0.101563,0.057 l -0.755859,1.1113 a 0.12513013,0.12513013 0 1 0 0.207031,0.1406 l 0.75586,-1.1113 a 0.12501249,0.12501249 0 0 0 -0.105469,-0.1972 z"/></g><text x="0" y="47" fill="#000000" font-size="5px" font-weight="bold" font-family="'Helvetica Neue', Helvetica, Arial-Unicode, Arial, Sans-serif">Created by P Thanga Vignesh</text><text x="0" y="52" fill="#000000" font-size="5px" font-weight="bold" font-family="'Helvetica Neue', Helvetica, Arial-Unicode, Arial, Sans-serif">from the Noun Project</text></svg>