<svg xmlns:dc="http://purl.org/dc/elements/1.1/" xmlns:cc="http://creativecommons.org/ns#" xmlns:rdf="http://www.w3.org/1999/02/22-rdf-syntax-ns#" xmlns:svg="http://www.w3.org/2000/svg" xmlns="http://www.w3.org/2000/svg" xmlns:sodipodi="http://sodipodi.sourceforge.net/DTD/sodipodi-0.dtd" xmlns:inkscape="http://www.inkscape.org/namespaces/inkscape" viewBox="0 0 32 40" version="1.1" x="0px" y="0px"><g transform="translate(0,-1020.3622)"><path style="color:#000000;font-style:normal;font-variant:normal;font-weight:normal;font-stretch:normal;font-size:medium;line-height:normal;font-family:sans-serif;text-indent:0;text-align:start;text-decoration:none;text-decoration-line:none;text-decoration-style:solid;text-decoration-color:#000000;letter-spacing:normal;word-spacing:normal;text-transform:none;direction:ltr;block-progression:tb;writing-mode:lr-tb;baseline-shift:baseline;text-anchor:start;white-space:normal;clip-rule:nonzero;display:inline;overflow:visible;visibility:visible;opacity:1;isolation:auto;mix-blend-mode:normal;color-interpolation:sRGB;color-interpolation-filters:linearRGB;solid-color:#000000;solid-opacity:1;fill:#000000;fill-opacity:1;fill-rule:evenodd;stroke:none;stroke-width:1.00000024;stroke-linecap:round;stroke-linejoin:round;stroke-miterlimit:4;stroke-dasharray:none;stroke-dashoffset:0;stroke-opacity:1;color-rendering:auto;image-rendering:auto;shape-rendering:auto;text-rendering:auto;enable-background:accumulate" d="m 9.7634246,1043.9707 c -0.2879411,-0.01 -0.5829686,0.028 -0.8691187,0.1191 -0.3821092,0.1217 -0.7766854,0.3021 -1.1171591,0.5899 -0.3553934,0.3006 -0.6950253,0.6859 -0.8827902,1.1758 -0.2197427,0.5736 -0.2549202,1.1985 -0.1542929,1.7793 a 0.50003746,0.50005012 0 0 0 0.00195,0 c 0.078187,0.4466 0.2868897,0.8286 0.5195182,1.1485 0.197371,0.2715 0.4564393,0.5759 0.8456817,0.7636 0.6008771,0.2878 1.2837776,0.3788 1.9276855,0.3008 0.584277,-0.071 1.093345,-0.3369 1.519493,-0.625 0.328084,-0.2219 0.691628,-0.5105 0.917945,-0.9512 0.235852,-0.4585 0.247972,-0.9343 0.248041,-1.3261 0.0059,-0.3337 -0.0047,-0.7253 -0.166011,-1.1192 -0.185071,-0.4491 -0.488136,-0.8351 -0.847636,-1.1347 -0.359325,-0.2989 -0.767264,-0.4469 -1.123018,-0.5664 -0.258331,-0.087 -0.531315,-0.1421 -0.8105261,-0.1543 a 0.50003746,0.50005012 0 0 0 -0.00977,0 z m -0.8691187,0.1191 0.1503869,-0.023 a 0.50003746,0.50005012 0 0 0 -0.1503869,0.023 z m 0.8359165,0.8809 c 0.00125,10e-5 0.00266,-10e-5 0.00391,0 0.1761856,0.01 0.3576757,0.043 0.5312367,0.1016 0.323149,0.1085 0.610026,0.2304 0.800761,0.3886 0.243698,0.2032 0.451008,0.4728 0.564438,0.7481 0.07328,0.18 0.09507,0.4373 0.08984,0.7246 a 0.50003746,0.50005012 0 0 0 0,0.01 c 0,0.3518 -0.03234,0.6701 -0.136716,0.873 a 0.50003746,0.50005012 0 0 0 -0.002,0 c -0.100224,0.1952 -0.322136,0.4004 -0.587875,0.5801 -0.350216,0.2367 -0.730798,0.4163 -1.0780977,0.459 -0.4611624,0.056 -0.9732621,-0.017 -1.3749652,-0.209 l -0.00195,0 c -0.1479611,-0.072 -0.3163897,-0.2396 -0.4687381,-0.4492 -0.1736587,-0.2388 -0.3025777,-0.4994 -0.3437413,-0.7325 l 0,0 c -0.072035,-0.4177 -0.0413,-0.8771 0.1015599,-1.25 0.1032514,-0.2694 0.3270339,-0.544 0.593735,-0.7695 0.2012406,-0.1702 0.4767753,-0.3042 0.7714649,-0.3985 a 0.50003746,0.50005012 0 0 0 0.00391,0 c 0.1635167,-0.052 0.3492544,-0.076 0.5331897,-0.072 z"/><path style="color:#000000;font-style:normal;font-variant:normal;font-weight:normal;font-stretch:normal;font-size:medium;line-height:normal;font-family:sans-serif;text-indent:0;text-align:start;text-decoration:none;text-decoration-line:none;text-decoration-style:solid;text-decoration-color:#000000;letter-spacing:normal;word-spacing:normal;text-transform:none;direction:ltr;block-progression:tb;writing-mode:lr-tb;baseline-shift:baseline;text-anchor:start;white-space:normal;clip-rule:nonzero;display:inline;overflow:visible;visibility:visible;opacity:1;isolation:auto;mix-blend-mode:normal;color-interpolation:sRGB;color-interpolation-filters:linearRGB;solid-color:#000000;solid-opacity:1;fill:#000000;fill-opacity:1;fill-rule:evenodd;stroke:none;stroke-width:0.24999999;stroke-linecap:round;stroke-linejoin:round;stroke-miterlimit:4;stroke-dasharray:none;stroke-dashoffset:0;stroke-opacity:1;color-rendering:auto;image-rendering:auto;shape-rendering:auto;text-rendering:auto;enable-background:accumulate" d="m 20.610806,1032.8789 a 0.12500932,0.12501249 0 0 0 -0.07422,0.037 l -1.109347,1.1055 a 0.12500932,0.12501249 0 1 0 0.175778,0.1777 l 1.111299,-1.1054 a 0.12500932,0.12501249 0 0 0 -0.103513,-0.2149 z"/><path style="color:#000000;font-style:normal;font-variant:normal;font-weight:normal;font-stretch:normal;font-size:medium;line-height:normal;font-family:sans-serif;text-indent:0;text-align:start;text-decoration:none;text-decoration-line:none;text-decoration-style:solid;text-decoration-color:#000000;letter-spacing:normal;word-spacing:normal;text-transform:none;direction:ltr;block-progression:tb;writing-mode:lr-tb;baseline-shift:baseline;text-anchor:start;white-space:normal;clip-rule:nonzero;display:inline;overflow:visible;visibility:visible;opacity:1;isolation:auto;mix-blend-mode:normal;color-interpolation:sRGB;color-interpolation-filters:linearRGB;solid-color:#000000;solid-opacity:1;fill:#000000;fill-opacity:1;fill-rule:evenodd;stroke:none;stroke-width:0.24999999;stroke-linecap:round;stroke-linejoin:round;stroke-miterlimit:4;stroke-dasharray:none;stroke-dashoffset:0;stroke-opacity:1;color-rendering:auto;image-rendering:auto;shape-rendering:auto;text-rendering:auto;enable-background:accumulate" d="m 21.030717,1033.2656 a 0.12500932,0.12501249 0 0 0 -0.08594,0.039 l -1.267546,1.3203 a 0.12503989,0.12504306 0 1 0 0.181636,0.1719 l 1.265593,-1.3184 a 0.12500932,0.12501249 0 0 0 -0.09375,-0.2129 z"/><path style="color:#000000;font-style:normal;font-variant:normal;font-weight:normal;font-stretch:normal;font-size:medium;line-height:normal;font-family:sans-serif;text-indent:0;text-align:start;text-decoration:none;text-decoration-line:none;text-decoration-style:solid;text-decoration-color:#000000;letter-spacing:normal;word-spacing:normal;text-transform:none;direction:ltr;block-progression:tb;writing-mode:lr-tb;baseline-shift:baseline;text-anchor:start;white-space:normal;clip-rule:nonzero;display:inline;overflow:visible;visibility:visible;opacity:1;isolation:auto;mix-blend-mode:normal;color-interpolation:sRGB;color-interpolation-filters:linearRGB;solid-color:#000000;solid-opacity:1;fill:#000000;fill-opacity:1;fill-rule:evenodd;stroke:none;stroke-width:0.24999999;stroke-linecap:round;stroke-linejoin:round;stroke-miterlimit:4;stroke-dasharray:none;stroke-dashoffset:0;stroke-opacity:1;color-rendering:auto;image-rendering:auto;shape-rendering:auto;text-rendering:auto;enable-background:accumulate" d="m 21.296336,1033.8477 a 0.12500932,0.12501249 0 0 0 -0.07422,0.035 l -1.650349,1.584 a 0.12568963,0.12569281 0 1 0 0.173824,0.1816 l 1.650348,-1.5859 a 0.12500932,0.12501249 0 0 0 -0.09961,-0.2148 z"/><path style="color:#000000;font-style:normal;font-variant:normal;font-weight:normal;font-stretch:normal;font-size:medium;line-height:normal;font-family:sans-serif;text-indent:0;text-align:start;text-decoration:none;text-decoration-line:none;text-decoration-style:solid;text-decoration-color:#000000;letter-spacing:normal;word-spacing:normal;text-transform:none;direction:ltr;block-progression:tb;writing-mode:lr-tb;baseline-shift:baseline;text-anchor:start;white-space:normal;clip-rule:nonzero;display:inline;overflow:visible;visibility:visible;opacity:1;isolation:auto;mix-blend-mode:normal;color-interpolation:sRGB;color-interpolation-filters:linearRGB;solid-color:#000000;solid-opacity:1;fill:#000000;fill-opacity:1;fill-rule:evenodd;stroke:none;stroke-width:0.24999999;stroke-linecap:round;stroke-linejoin:round;stroke-miterlimit:4;stroke-dasharray:none;stroke-dashoffset:0;stroke-opacity:1;color-rendering:auto;image-rendering:auto;shape-rendering:auto;text-rendering:auto;enable-background:accumulate" d="m 21.417427,1034.4688 a 0.12500932,0.12501249 0 0 0 -0.08594,0.041 l -1.398402,1.5254 a 0.12506958,0.12507275 0 1 0 0.18359,0.1699 l 1.400354,-1.5254 a 0.12500932,0.12501249 0 0 0 -0.09961,-0.2109 z"/><path style="color:#000000;font-style:normal;font-variant:normal;font-weight:normal;font-stretch:normal;font-size:medium;line-height:normal;font-family:sans-serif;text-indent:0;text-align:start;text-decoration:none;text-decoration-line:none;text-decoration-style:solid;text-decoration-color:#000000;letter-spacing:normal;word-spacing:normal;text-transform:none;direction:ltr;block-progression:tb;writing-mode:lr-tb;baseline-shift:baseline;text-anchor:start;white-space:normal;clip-rule:nonzero;display:inline;overflow:visible;visibility:visible;opacity:1;isolation:auto;mix-blend-mode:normal;color-interpolation:sRGB;color-interpolation-filters:linearRGB;solid-color:#000000;solid-opacity:1;fill:#000000;fill-opacity:1;fill-rule:evenodd;stroke:none;stroke-width:0.24999999;stroke-linecap:round;stroke-linejoin:round;stroke-miterlimit:4;stroke-dasharray:none;stroke-dashoffset:0;stroke-opacity:1;color-rendering:auto;image-rendering:auto;shape-rendering:auto;text-rendering:auto;enable-background:accumulate" d="m 21.942803,1034.6621 a 0.12500932,0.12501249 0 0 0 -0.08398,0.043 l -1.142549,1.2539 a 0.12514843,0.1251516 0 1 0 0.185543,0.168 l 1.140596,-1.254 a 0.12500932,0.12501249 0 0 0 -0.09961,-0.2109 z"/><path style="color:#000000;font-style:normal;font-variant:normal;font-weight:normal;font-stretch:normal;font-size:medium;line-height:normal;font-family:sans-serif;text-indent:0;text-align:start;text-decoration:none;text-decoration-line:none;text-decoration-style:solid;text-decoration-color:#000000;letter-spacing:normal;word-spacing:normal;text-transform:none;direction:ltr;block-progression:tb;writing-mode:lr-tb;baseline-shift:baseline;text-anchor:start;white-space:normal;clip-rule:nonzero;display:inline;overflow:visible;visibility:visible;opacity:1;isolation:auto;mix-blend-mode:normal;color-interpolation:sRGB;color-interpolation-filters:linearRGB;solid-color:#000000;solid-opacity:1;fill:#000000;fill-opacity:1;fill-rule:evenodd;stroke:none;stroke-width:0.24999999;stroke-linecap:round;stroke-linejoin:round;stroke-miterlimit:4;stroke-dasharray:none;stroke-dashoffset:0;stroke-opacity:1;color-rendering:auto;image-rendering:auto;shape-rendering:auto;text-rendering:auto;enable-background:accumulate" d="m 22.288498,1035.0508 a 0.12500932,0.12501249 0 0 0 -0.08203,0.045 l -0.798808,0.9512 a 0.12500932,0.12501249 0 1 0 0.191401,0.1601 l 0.798809,-0.9492 a 0.12500932,0.12501249 0 0 0 -0.109373,-0.207 z"/><path style="color:#000000;font-style:normal;font-variant:normal;font-weight:normal;font-stretch:normal;font-size:medium;line-height:normal;font-family:sans-serif;text-indent:0;text-align:start;text-decoration:none;text-decoration-line:none;text-decoration-style:solid;text-decoration-color:#000000;letter-spacing:normal;word-spacing:normal;text-transform:none;direction:ltr;block-progression:tb;writing-mode:lr-tb;baseline-shift:baseline;text-anchor:start;white-space:normal;clip-rule:nonzero;display:inline;overflow:visible;visibility:visible;opacity:1;isolation:auto;mix-blend-mode:normal;color-interpolation:sRGB;color-interpolation-filters:linearRGB;solid-color:#000000;solid-opacity:1;fill:#000000;fill-opacity:1;fill-rule:evenodd;stroke:none;stroke-width:0.24999999;stroke-linecap:round;stroke-linejoin:round;stroke-miterlimit:4;stroke-dasharray:none;stroke-dashoffset:0;stroke-opacity:1;color-rendering:auto;image-rendering:auto;shape-rendering:auto;text-rendering:auto;enable-background:accumulate" d="m 22.944731,1035.0898 a 0.12500932,0.12501249 0 0 0 -0.08008,0.049 l -0.583969,0.7558 a 0.125219,0.12522217 0 0 0 0.197261,0.1543 l 0.585922,-0.7578 a 0.12500932,0.12501249 0 0 0 -0.119138,-0.2012 z"/><path style="color:#000000;font-style:normal;font-variant:normal;font-weight:normal;font-stretch:normal;font-size:medium;line-height:normal;font-family:sans-serif;text-indent:0;text-align:start;text-decoration:none;text-decoration-line:none;text-decoration-style:solid;text-decoration-color:#000000;letter-spacing:normal;word-spacing:normal;text-transform:none;direction:ltr;block-progression:tb;writing-mode:lr-tb;baseline-shift:baseline;text-anchor:start;white-space:normal;clip-rule:nonzero;display:inline;overflow:visible;visibility:visible;opacity:1;isolation:auto;mix-blend-mode:normal;color-interpolation:sRGB;color-interpolation-filters:linearRGB;solid-color:#000000;solid-opacity:1;fill:#000000;fill-opacity:1;fill-rule:evenodd;stroke:none;stroke-width:1.00000024;stroke-linecap:round;stroke-linejoin:round;stroke-miterlimit:4;stroke-dasharray:none;stroke-dashoffset:0;stroke-opacity:1;color-rendering:auto;image-rendering:auto;shape-rendering:auto;text-rendering:auto;enable-background:accumulate" d="m 23.735727,1043.7617 c -0.584276,0.071 -1.093303,0.3368 -1.519493,0.625 -0.328109,0.2218 -0.691627,0.5105 -0.917945,0.9512 -0.235783,0.4586 -0.247971,0.9342 -0.248041,1.3262 -0.0059,0.3331 0.004,0.7246 0.166012,1.1191 0.185037,0.4492 0.488065,0.8352 0.847634,1.1348 0.359326,0.2989 0.767264,0.447 1.123019,0.5664 0.25833,0.087 0.531315,0.1421 0.810526,0.1543 a 0.50003746,0.50005012 0 0 0 0.0098,0 c 0.287942,0.01 0.582969,-0.028 0.869119,-0.1191 a 0.50003746,0.50005012 0 0 0 0.002,0 c 0.382024,-0.1216 0.776601,-0.3018 1.11716,-0.5899 0.355711,-0.3007 0.692822,-0.6867 0.880836,-1.1757 0.219742,-0.5737 0.25492,-1.1986 0.154293,-1.7793 -0.07819,-0.4466 -0.28889,-0.8285 -0.52147,-1.1484 -0.19743,-0.2717 -0.454718,-0.574 -0.843729,-0.7617 a 0.50003746,0.50005012 0 0 0 -0.002,0 c -0.600877,-0.2877 -1.283777,-0.3788 -1.927685,-0.3008 z m 1.140596,5.7598 -0.150387,0.023 a 0.50003746,0.50005012 0 0 0 0.150387,-0.023 z m -1.019505,-4.7656 c 0.461161,-0.056 0.971309,0.017 1.373012,0.2089 0.148424,0.072 0.318069,0.2393 0.470691,0.4493 0.174087,0.2394 0.302876,0.5009 0.343741,0.7343 0.07204,0.4178 0.0413,0.8771 -0.10156,1.25 -0.103757,0.2699 -0.327275,0.5443 -0.593735,0.7696 -0.201156,0.1701 -0.476692,0.3041 -0.771464,0.3984 a 0.50003746,0.50005012 0 0 0 -0.0039,0 c -0.163516,0.052 -0.349254,0.076 -0.53319,0.072 -0.0012,0 -0.0027,10e-5 -0.0039,0 -0.176184,-0.01 -0.357675,-0.043 -0.531236,-0.1015 -0.323788,-0.1088 -0.610027,-0.23 -0.800761,-0.3887 -0.242917,-0.2024 -0.448891,-0.4717 -0.562486,-0.7461 -0.07373,-0.1795 -0.09705,-0.4382 -0.0918,-0.7266 a 0.50003746,0.50005012 0 0 0 0,-0.01 c 0,-0.352 0.03422,-0.6699 0.138668,-0.8731 0.100226,-0.1951 0.322237,-0.4005 0.587876,-0.5801 0.35071,-0.2371 0.732319,-0.4166 1.080051,-0.4589 z"/><path style="color:#000000;font-style:normal;font-variant:normal;font-weight:normal;font-stretch:normal;font-size:medium;line-height:normal;font-family:sans-serif;text-indent:0;text-align:start;text-decoration:none;text-decoration-line:none;text-decoration-style:solid;text-decoration-color:#000000;letter-spacing:normal;word-spacing:normal;text-transform:none;direction:ltr;block-progression:tb;writing-mode:lr-tb;baseline-shift:baseline;text-anchor:start;white-space:normal;clip-rule:nonzero;display:inline;overflow:visible;visibility:visible;opacity:1;isolation:auto;mix-blend-mode:normal;color-interpolation:sRGB;color-interpolation-filters:linearRGB;solid-color:#000000;solid-opacity:1;fill:#000000;fill-opacity:1;fill-rule:evenodd;stroke:none;stroke-width:0.99999994px;stroke-linecap:round;stroke-linejoin:round;stroke-miterlimit:4;stroke-dasharray:none;stroke-dashoffset:0;stroke-opacity:1;color-rendering:auto;image-rendering:auto;shape-rendering:auto;text-rendering:auto;enable-background:accumulate" d="m 23.485733,1028.1465 -7.101382,0.1172 a 0.50003731,0.50004997 0 0 0 -0.02344,0 l -15.89217388,0.9765 A 0.50003731,0.50004997 0 0 0 -1.065052e-8,1029.7598 L 0.66795182,1046.9395 a 0.50003731,0.50004997 0 0 0 0.49217498,0.4804 l 6.0428158,0.078 a 0.50003731,0.50004997 0 1 0 0.013672,-1 l -5.5682184,-0.07 -0.6288903,-16.2187 15.3921875,-0.9453 6.64827,-0.1094 c 0.03159,0.3905 0.06879,1.0451 0.224603,1.6484 0.312365,1.2102 0.716818,2.4509 1.39059,3.5684 0.90068,1.4938 2.21134,2.6005 3.273355,3.7851 0.822114,0.917 1.796015,1.5543 2.246036,2.4004 0.389927,0.7332 0.460886,1.6941 0.61522,2.6914 0.09544,0.6175 0.130673,1.5556 0.15234,2.0079 l -4.372936,0.3867 a 0.50003731,0.50004997 0 1 0 0.08789,0.9961 l 4.867065,-0.4297 a 0.50003731,0.50004997 0 0 0 0.455067,-0.5178 c 0,0 -0.0599,-1.6817 -0.201167,-2.5957 -0.144089,-0.9311 -0.193417,-2.0183 -0.720685,-3.0098 -0.615172,-1.1566 -1.690965,-1.8238 -2.384706,-2.5976 -1.123402,-1.2532 -2.37368,-2.3253 -3.162029,-3.6328 -0.595569,-0.9878 -0.975957,-2.1349 -1.277311,-3.3028 -0.141346,-0.5473 -0.259759,-1.9433 -0.259759,-1.9433 a 0.50003731,0.50004997 0 0 0 -0.5078,-0.4629 z"/><path style="color:#000000;font-style:normal;font-variant:normal;font-weight:normal;font-stretch:normal;font-size:medium;line-height:normal;font-family:sans-serif;text-indent:0;text-align:start;text-decoration:none;text-decoration-line:none;text-decoration-style:solid;text-decoration-color:#000000;letter-spacing:normal;word-spacing:normal;text-transform:none;direction:ltr;block-progression:tb;writing-mode:lr-tb;baseline-shift:baseline;text-anchor:start;white-space:normal;clip-rule:nonzero;display:inline;overflow:visible;visibility:visible;opacity:1;isolation:auto;mix-blend-mode:normal;color-interpolation:sRGB;color-interpolation-filters:linearRGB;solid-color:#000000;solid-opacity:1;fill:#000000;fill-opacity:1;fill-rule:evenodd;stroke:none;stroke-width:0.99999994px;stroke-linecap:round;stroke-linejoin:round;stroke-miterlimit:4;stroke-dasharray:none;stroke-dashoffset:0;stroke-opacity:1;color-rendering:auto;image-rendering:auto;shape-rendering:auto;text-rendering:auto;enable-background:accumulate" d="m 21.51508,1046.0684 a 0.50003731,0.50004997 0 0 0 -0.03516,0 l -9.220469,0.2344 a 0.50003731,0.50004997 0 1 0 0.02539,0.998 l 9.220469,-0.2343 a 0.50003731,0.50004997 0 0 0 0.0098,-1 z"/><path style="color:#000000;font-style:normal;font-variant:normal;font-weight:normal;font-stretch:normal;font-size:medium;line-height:normal;font-family:sans-serif;text-indent:0;text-align:start;text-decoration:none;text-decoration-line:none;text-decoration-style:solid;text-decoration-color:#000000;letter-spacing:normal;word-spacing:normal;text-transform:none;direction:ltr;block-progression:tb;writing-mode:lr-tb;baseline-shift:baseline;text-anchor:start;white-space:normal;clip-rule:nonzero;display:inline;overflow:visible;visibility:visible;opacity:1;isolation:auto;mix-blend-mode:normal;color-interpolation:sRGB;color-interpolation-filters:linearRGB;solid-color:#000000;solid-opacity:1;fill:#000000;fill-opacity:1;fill-rule:evenodd;stroke:none;stroke-width:1.00000024;stroke-linecap:round;stroke-linejoin:round;stroke-miterlimit:4;stroke-dasharray:none;stroke-dashoffset:0;stroke-opacity:1;color-rendering:auto;image-rendering:auto;shape-rendering:auto;text-rendering:auto;enable-background:accumulate" d="m 9.2966396,1032.2812 c -0.4144706,-0.011 -0.8384433,0.041 -1.2441091,0.17 a 0.50003746,0.50005012 0 0 0 -0.00195,0 c -0.5619753,0.1789 -1.1346918,0.4421 -1.6190996,0.8515 -0.5203661,0.4403 -1.0062928,1.0007 -1.2714522,1.6914 a 0.50003746,0.50005012 0 0 0 -0.00195,0 c -0.3151117,0.8246 -0.367498,1.7379 -0.2206975,2.584 0.1096734,0.627 0.4097154,1.1802 0.749981,1.6484 0.2901783,0.3995 0.6617148,0.8275 1.1933291,1.084 a 0.50003746,0.50005012 0 0 0 0.00195,0 c 0.8666564,0.4153 1.8654601,0.5494 2.8026634,0.4355 0.8314292,-0.1012 1.5750192,-0.4849 2.2069752,-0.9121 0.485108,-0.3281 1.005408,-0.7487 1.318327,-1.3574 l 0,0 c 0.325828,-0.6343 0.349507,-1.3197 0.3496,-1.9082 0.0093,-0.4987 -0.0083,-1.0624 -0.232416,-1.6094 -0.264141,-0.6412 -0.703064,-1.2018 -1.222625,-1.6348 -0.505391,-0.4208 -1.097666,-0.6421 -1.632772,-0.8222 -0.369589,-0.1244 -0.7651747,-0.2079 -1.1737982,-0.2208 a 0.50003746,0.50005012 0 0 0 -0.00195,0 z m -0.029296,1 c 0.2905712,0.01 0.5935251,0.071 0.8866967,0.17 0.504163,0.1697 0.974301,0.3626 1.310514,0.6426 0.40345,0.3362 0.744909,0.7786 0.937476,1.246 0.136445,0.3331 0.166822,0.7639 0.158199,1.2168 a 0.50003746,0.50005012 0 0 0 0,0.01 c 0,0.5501 -0.04532,1.0764 -0.240229,1.4551 -0.186796,0.364 -0.565148,0.7003 -0.988256,0.9864 -0.556752,0.3763 -1.172907,0.6756 -1.7675332,0.748 -0.7539813,0.092 -1.5804921,-0.026 -2.24799,-0.3457 l -0.00195,0 c -0.2904006,-0.1405 -0.5713286,-0.4341 -0.8163856,-0.7715 -0.2818288,-0.3878 -0.5018603,-0.8188 -0.5742042,-1.2324 -0.1185156,-0.6831 -0.069035,-1.4293 0.1699176,-2.0547 0.1808135,-0.471 0.5528288,-0.922 0.98435,-1.2871 0.3454097,-0.2919 0.7968762,-0.5086 1.2714522,-0.6602 0.00145,-4e-4 0.00246,0 0.00391,0 a 0.50003746,0.50005012 0 0 0 0.00195,0 c 0.2853698,-0.091 0.6011602,-0.1312 0.9120862,-0.1231 z"/><path style="color:#000000;font-style:normal;font-variant:normal;font-weight:normal;font-stretch:normal;font-size:medium;line-height:normal;font-family:sans-serif;text-indent:0;text-align:start;text-decoration:none;text-decoration-line:none;text-decoration-style:solid;text-decoration-color:#000000;letter-spacing:normal;word-spacing:normal;text-transform:none;direction:ltr;block-progression:tb;writing-mode:lr-tb;baseline-shift:baseline;text-anchor:start;white-space:normal;clip-rule:nonzero;display:inline;overflow:visible;visibility:visible;opacity:1;isolation:auto;mix-blend-mode:normal;color-interpolation:sRGB;color-interpolation-filters:linearRGB;solid-color:#000000;solid-opacity:1;fill:#000000;fill-opacity:1;fill-rule:evenodd;stroke:none;stroke-width:0.99999994px;stroke-linecap:round;stroke-linejoin:round;stroke-miterlimit:4;stroke-dasharray:none;stroke-dashoffset:0;stroke-opacity:1;color-rendering:auto;image-rendering:auto;shape-rendering:auto;text-rendering:auto;enable-background:accumulate" d="m 8.7087638,1033.4121 a 0.50003731,0.50004997 0 0 0 -0.4628788,0.5781 l 0.7050602,4.8418 a 0.50034825,0.50036092 0 0 0 0.9902092,-0.1445 l -0.7070133,-4.8418 a 0.50003731,0.50004997 0 0 0 -0.5253773,-0.4336 z"/><path style="color:#000000;font-style:normal;font-variant:normal;font-weight:normal;font-stretch:normal;font-size:medium;line-height:normal;font-family:sans-serif;text-indent:0;text-align:start;text-decoration:none;text-decoration-line:none;text-decoration-style:solid;text-decoration-color:#000000;letter-spacing:normal;word-spacing:normal;text-transform:none;direction:ltr;block-progression:tb;writing-mode:lr-tb;baseline-shift:baseline;text-anchor:start;white-space:normal;clip-rule:nonzero;display:inline;overflow:visible;visibility:visible;opacity:1;isolation:auto;mix-blend-mode:normal;color-interpolation:sRGB;color-interpolation-filters:linearRGB;solid-color:#000000;solid-opacity:1;fill:#000000;fill-opacity:1;fill-rule:evenodd;stroke:none;stroke-width:0.99999994px;stroke-linecap:round;stroke-linejoin:round;stroke-miterlimit:4;stroke-dasharray:none;stroke-dashoffset:0;stroke-opacity:1;color-rendering:auto;image-rendering:auto;shape-rendering:auto;text-rendering:auto;enable-background:accumulate" d="m 11.308308,1035.6035 a 0.50003731,0.50004997 0 0 0 -0.08399,0.01 l -4.3162969,0.5859 a 0.50003731,0.50004997 0 1 0 0.1328092,0.9902 l 4.3182497,-0.5859 a 0.50003731,0.50004997 0 0 0 -0.05078,-0.9961 z"/><path style="color:#000000;font-style:normal;font-variant:normal;font-weight:normal;font-stretch:normal;font-size:medium;line-height:normal;font-family:sans-serif;text-indent:0;text-align:start;text-decoration:none;text-decoration-line:none;text-decoration-style:solid;text-decoration-color:#000000;letter-spacing:normal;word-spacing:normal;text-transform:none;direction:ltr;block-progression:tb;writing-mode:lr-tb;baseline-shift:baseline;text-anchor:start;white-space:normal;clip-rule:nonzero;display:inline;overflow:visible;visibility:visible;opacity:1;isolation:auto;mix-blend-mode:normal;color-interpolation:sRGB;color-interpolation-filters:linearRGB;solid-color:#000000;solid-opacity:1;fill:#000000;fill-opacity:1;fill-rule:evenodd;stroke:none;stroke-width:0.99999994px;stroke-linecap:round;stroke-linejoin:round;stroke-miterlimit:4;stroke-dasharray:none;stroke-dashoffset:0;stroke-opacity:1;color-rendering:auto;image-rendering:auto;shape-rendering:auto;text-rendering:auto;enable-background:accumulate" d="m 23.798225,1030.9492 a 0.50003731,0.50004997 0 0 0 -0.08398,0.01 l -4.786988,0.5859 a 0.50003731,0.50004997 0 0 0 -0.439442,0.5215 l 0.236322,4.4121 a 0.50003731,0.50004997 0 0 0 0.525377,0.4727 l 7.298644,-0.3887 a 0.50073451,0.50074719 0 0 0 -0.05469,-1 l -6.798657,0.3633 -0.183588,-3.4453 4.324109,-0.5293 a 0.50003731,0.50004997 0 0 0 -0.03711,-0.9981 z"/><path style="color:#000000;font-style:normal;font-variant:normal;font-weight:normal;font-stretch:normal;font-size:medium;line-height:normal;font-family:sans-serif;text-indent:0;text-align:start;text-decoration:none;text-decoration-line:none;text-decoration-style:solid;text-decoration-color:#000000;letter-spacing:normal;word-spacing:normal;text-transform:none;direction:ltr;block-progression:tb;writing-mode:lr-tb;baseline-shift:baseline;text-anchor:start;white-space:normal;clip-rule:nonzero;display:inline;overflow:visible;visibility:visible;opacity:1;isolation:auto;mix-blend-mode:normal;color-interpolation:sRGB;color-interpolation-filters:linearRGB;solid-color:#000000;solid-opacity:1;fill:#000000;fill-opacity:1;fill-rule:evenodd;stroke:none;stroke-width:0.99999994px;stroke-linecap:round;stroke-linejoin:round;stroke-miterlimit:4;stroke-dasharray:none;stroke-dashoffset:0;stroke-opacity:1;color-rendering:auto;image-rendering:auto;shape-rendering:auto;text-rendering:auto;enable-background:accumulate" d="m 19.206545,1026.8672 c -0.517999,0.1839 -0.827313,0.602 -1.023411,0.9863 -0.118449,0.2322 -0.121839,0.4056 -0.136716,0.5625 -0.01488,0.1569 -0.01563,0.2852 -0.01563,0.2852 a 0.50003731,0.50004997 0 1 0 0.999975,0.01 c 0,0 -5.25e-4,-0.089 0.0098,-0.1972 0.01029,-0.1085 0.05578,-0.2474 0.0332,-0.2032 0.122129,-0.2393 0.324808,-0.4469 0.468738,-0.498 0.139483,-0.05 0.406262,-0.023 0.576157,0.068 a 0.50003731,0.50004997 0 0 0 0.002,0 c 0.032,0.017 0.130261,0.1308 0.220698,0.3105 -8.5e-4,0 0.04668,0.1446 0.07031,0.2598 0.02363,0.1152 0.03711,0.2089 0.03711,0.2089 a 0.50003731,0.50004997 0 1 0 0.990209,-0.1367 c 0,0 -0.01627,-0.1223 -0.04687,-0.2715 -0.0306,-0.1492 -0.06059,-0.316 -0.158199,-0.5097 -0.113652,-0.2259 -0.273185,-0.5447 -0.642561,-0.7422 -0.409038,-0.219 -0.905142,-0.2993 -1.384731,-0.1289 z"/><path style="color:#000000;font-style:normal;font-variant:normal;font-weight:normal;font-stretch:normal;font-size:medium;line-height:normal;font-family:sans-serif;text-indent:0;text-align:start;text-decoration:none;text-decoration-line:none;text-decoration-style:solid;text-decoration-color:#000000;letter-spacing:normal;word-spacing:normal;text-transform:none;direction:ltr;block-progression:tb;writing-mode:lr-tb;baseline-shift:baseline;text-anchor:start;white-space:normal;clip-rule:nonzero;display:inline;overflow:visible;visibility:visible;opacity:1;isolation:auto;mix-blend-mode:normal;color-interpolation:sRGB;color-interpolation-filters:linearRGB;solid-color:#000000;solid-opacity:1;fill:#000000;fill-opacity:1;fill-rule:evenodd;stroke:none;stroke-width:0.99999994px;stroke-linecap:round;stroke-linejoin:round;stroke-miterlimit:4;stroke-dasharray:none;stroke-dashoffset:0;stroke-opacity:1;color-rendering:auto;image-rendering:auto;shape-rendering:auto;text-rendering:auto;enable-background:accumulate" d="m 19.421383,1022.8477 a 0.50003731,0.50004997 0 0 0 -0.486316,0.5605 l 0.255853,2.4004 a 0.50003731,0.50004997 0 1 0 0.994116,-0.1055 l -0.2539,-2.4004 a 0.50003731,0.50004997 0 0 0 -0.509753,-0.455 z"/><path style="color:#000000;font-style:normal;font-variant:normal;font-weight:normal;font-stretch:normal;font-size:medium;line-height:normal;font-family:sans-serif;text-indent:0;text-align:start;text-decoration:none;text-decoration-line:none;text-decoration-style:solid;text-decoration-color:#000000;letter-spacing:normal;word-spacing:normal;text-transform:none;direction:ltr;block-progression:tb;writing-mode:lr-tb;baseline-shift:baseline;text-anchor:start;white-space:normal;clip-rule:nonzero;display:inline;overflow:visible;visibility:visible;opacity:1;isolation:auto;mix-blend-mode:normal;color-interpolation:sRGB;color-interpolation-filters:linearRGB;solid-color:#000000;solid-opacity:1;fill:#000000;fill-opacity:1;fill-rule:evenodd;stroke:none;stroke-width:0.99999994px;stroke-linecap:round;stroke-linejoin:round;stroke-miterlimit:4;stroke-dasharray:none;stroke-dashoffset:0;stroke-opacity:1;color-rendering:auto;image-rendering:auto;shape-rendering:auto;text-rendering:auto;enable-background:accumulate" d="m 15.526951,1025.5664 a 0.50003731,0.50004997 0 0 0 -0.15234,0.9707 l 2.158148,0.8008 a 0.50003731,0.50004997 0 1 0 0.347647,-0.9375 l -2.158148,-0.8008 a 0.50003731,0.50004997 0 0 0 -0.195307,-0.033 z"/><path style="color:#000000;font-style:normal;font-variant:normal;font-weight:normal;font-stretch:normal;font-size:medium;line-height:normal;font-family:sans-serif;text-indent:0;text-align:start;text-decoration:none;text-decoration-line:none;text-decoration-style:solid;text-decoration-color:#000000;letter-spacing:normal;word-spacing:normal;text-transform:none;direction:ltr;block-progression:tb;writing-mode:lr-tb;baseline-shift:baseline;text-anchor:start;white-space:normal;clip-rule:nonzero;display:inline;overflow:visible;visibility:visible;opacity:1;isolation:auto;mix-blend-mode:normal;color-interpolation:sRGB;color-interpolation-filters:linearRGB;solid-color:#000000;solid-opacity:1;fill:#000000;fill-opacity:1;fill-rule:evenodd;stroke:none;stroke-width:0.99999994px;stroke-linecap:round;stroke-linejoin:round;stroke-miterlimit:4;stroke-dasharray:none;stroke-dashoffset:0;stroke-opacity:1;color-rendering:auto;image-rendering:auto;shape-rendering:auto;text-rendering:auto;enable-background:accumulate" d="m 23.75721,1025.0957 a 0.50003731,0.50004997 0 0 0 -0.226556,0.057 l -2.054636,1.0372 a 0.50003731,0.50004997 0 1 0 0.451161,0.8925 l 2.054636,-1.0371 a 0.50003731,0.50004997 0 0 0 -0.224605,-0.9492 z"/><path style="color:#000000;font-style:normal;font-variant:normal;font-weight:normal;font-stretch:normal;font-size:medium;line-height:normal;font-family:sans-serif;text-indent:0;text-align:start;text-decoration:none;text-decoration-line:none;text-decoration-style:solid;text-decoration-color:#000000;letter-spacing:normal;word-spacing:normal;text-transform:none;direction:ltr;block-progression:tb;writing-mode:lr-tb;baseline-shift:baseline;text-anchor:start;white-space:normal;clip-rule:nonzero;display:inline;overflow:visible;visibility:visible;opacity:1;isolation:auto;mix-blend-mode:normal;color-interpolation:sRGB;color-interpolation-filters:linearRGB;solid-color:#000000;solid-opacity:1;fill:#000000;fill-opacity:1;fill-rule:evenodd;stroke:none;stroke-width:1.00000024;stroke-linecap:round;stroke-linejoin:round;stroke-miterlimit:4;stroke-dasharray:none;stroke-dashoffset:0;stroke-opacity:1;color-rendering:auto;image-rendering:auto;shape-rendering:auto;text-rendering:auto;enable-background:accumulate" d="m 9.7360815,1045.4551 c -0.1414407,0 -0.2930192,0.011 -0.4472543,0.062 -0.1754327,0.056 -0.3664112,0.1394 -0.5429549,0.289 -0.1662841,0.1407 -0.3336853,0.3258 -0.4335828,0.5821 -2.553e-4,6e-4 2.543e-4,0 0,0 -0.113562,0.291 -0.1254966,0.5905 -0.078123,0.8653 0.041984,0.2404 0.1496993,0.429 0.259759,0.58 0.091223,0.1257 0.2188657,0.2854 0.4433482,0.3946 0.3085539,0.1552 0.6360475,0.1838 0.9335701,0.1484 0.3032232,-0.037 0.5417632,-0.1666 0.7324032,-0.2949 a 0.50003746,0.50005012 0 0 0 0.002,0 c 0.148431,-0.1003 0.333283,-0.2403 0.460926,-0.4863 0.137261,-0.2616 0.132854,-0.498 0.132809,-0.6622 0.0026,-0.1462 0.0015,-0.3396 -0.08789,-0.5585 -0.09468,-0.2299 -0.243384,-0.4185 -0.421865,-0.5664 -0.192185,-0.159 -0.389306,-0.2266 -0.541001,-0.2774 a 0.50003746,0.50005012 0 0 0 -0.0039,0 c -0.103964,-0.034 -0.2408873,-0.072 -0.4081925,-0.074 z m -0.029296,0.998 a 0.50003746,0.50005012 0 0 0 0.015625,0 c 0.00546,0 0.047162,0.01 0.1113254,0.027 0.1152891,0.039 0.1917047,0.079 0.2167907,0.1 0.05985,0.05 0.113631,0.1197 0.136716,0.1758 l -0.002,0 c 0.0026,0.01 0.01549,0.067 0.01367,0.166 a 0.50003746,0.50005012 0 0 0 0,0.01 c 0,0.1298 -0.01812,0.2042 -0.01758,0.2032 a 0.50003746,0.50005012 0 0 0 -0.002,0 c -0.0016,0 -0.04872,0.059 -0.134762,0.1172 -0.1163104,0.078 -0.2281253,0.125 -0.292962,0.1328 -0.1382176,0.016 -0.2807168,-0.01 -0.3671782,-0.051 a 0.50003746,0.50005012 0 0 0 -0.00977,0 c 0.015063,0.01 -0.025807,-0.02 -0.072264,-0.084 -0.049897,-0.068 -0.076704,-0.1341 -0.082029,-0.1621 -0.02055,-0.1192 -0.00893,-0.2494 0.023436,-0.332 0.015745,-0.041 0.069642,-0.1151 0.1484337,-0.1817 0.037369,-0.032 0.1108265,-0.07 0.2031199,-0.1 l -0.029296,0.01 a 0.50003746,0.50005012 0 0 0 0.037108,-0.012 c 0.021455,-0.01 0.05975,-0.013 0.103513,-0.012 z"/><path style="color:#000000;font-style:normal;font-variant:normal;font-weight:normal;font-stretch:normal;font-size:medium;line-height:normal;font-family:sans-serif;text-indent:0;text-align:start;text-decoration:none;text-decoration-line:none;text-decoration-style:solid;text-decoration-color:#000000;letter-spacing:normal;word-spacing:normal;text-transform:none;direction:ltr;block-progression:tb;writing-mode:lr-tb;baseline-shift:baseline;text-anchor:start;white-space:normal;clip-rule:nonzero;display:inline;overflow:visible;visibility:visible;opacity:1;isolation:auto;mix-blend-mode:normal;color-interpolation:sRGB;color-interpolation-filters:linearRGB;solid-color:#000000;solid-opacity:1;fill:#000000;fill-opacity:1;fill-rule:evenodd;stroke:none;stroke-width:1.00000024;stroke-linecap:round;stroke-linejoin:round;stroke-miterlimit:4;stroke-dasharray:none;stroke-dashoffset:0;stroke-opacity:1;color-rendering:auto;image-rendering:auto;shape-rendering:auto;text-rendering:auto;enable-background:accumulate" d="m 23.899786,1045.1934 c -0.303202,0.037 -0.541765,0.1666 -0.732404,0.2949 a 0.50003746,0.50005012 0 0 0 -0.002,0 c -0.148428,0.1002 -0.333283,0.2403 -0.460926,0.4863 -0.137262,0.2616 -0.132854,0.498 -0.132809,0.6621 -0.0026,0.1452 -0.0029,0.3401 0.08789,0.5606 0.09468,0.2299 0.243386,0.4184 0.421864,0.5664 0.192625,0.1594 0.390194,0.2267 0.541003,0.2773 a 0.50003746,0.50005012 0 0 0 0.0039,0 c 0.105979,0.035 0.244123,0.075 0.416005,0.076 0.132756,0 0.281173,-0.012 0.435536,-0.062 l 0.002,0 c 7.53e-4,-2e-4 0.0012,0 0.002,0 l 0.0039,0 c 0.17463,-0.056 0.363495,-0.1402 0.539049,-0.2891 0.166286,-0.1407 0.333685,-0.3258 0.433582,-0.582 l 0,0 c 0.113576,-0.291 0.125504,-0.5904 0.07813,-0.8652 -0.04199,-0.2405 -0.149713,-0.4291 -0.259758,-0.5801 -0.09132,-0.1258 -0.219091,-0.2854 -0.443349,-0.3945 -0.308647,-0.1554 -0.636041,-0.1838 -0.933569,-0.1484 z m 0.119137,0.9921 c 0.138211,-0.016 0.280886,0.01 0.367178,0.051 a 0.50003746,0.50005012 0 0 0 0.0098,0 c -0.01483,-0.01 0.02591,0.02 0.07227,0.084 0.05063,0.069 0.07922,0.1368 0.08398,0.1641 0.02006,0.1186 0.0087,0.248 -0.02344,0.3301 a 0.50003746,0.50005012 0 0 0 -0.002,0 c -0.01575,0.041 -0.06965,0.1151 -0.148434,0.1817 -0.03737,0.032 -0.110827,0.07 -0.20312,0.1 a 0.50003746,0.50005012 0 0 0 -0.0078,0 c -0.01968,0.01 -0.05843,0.015 -0.109372,0.014 a 0.50003746,0.50005012 0 0 0 -0.0098,0 c -0.0053,0 -0.04727,-0.01 -0.107419,-0.025 l -0.0039,0 c -0.11402,-0.039 -0.19232,-0.077 -0.216792,-0.098 -0.06038,-0.05 -0.113473,-0.1212 -0.136715,-0.1777 -0.002,0 -0.01356,-0.066 -0.01172,-0.166 a 0.50003746,0.50005012 0 0 0 0,-0.01 c 0,-0.1297 0.02008,-0.2041 0.01953,-0.2031 0.0016,0 0.04814,-0.06 0.132808,-0.1171 0.117007,-0.079 0.229773,-0.125 0.294915,-0.1329 z"/></g><text x="0" y="47" fill="#000000" font-size="5px" font-weight="bold" font-family="'Helvetica Neue', Helvetica, Arial-Unicode, Arial, Sans-serif">Created by P Thanga Vignesh</text><text x="0" y="52" fill="#000000" font-size="5px" font-weight="bold" font-family="'Helvetica Neue', Helvetica, Arial-Unicode, Arial, Sans-serif">from the Noun Project</text></svg>