<svg xmlns="http://www.w3.org/2000/svg" version="1.1" viewBox="-5.0 -10.0 110.0 135.0">
 <path d="m57.891 47.008c-0.0625 0.070313-0.88672-0.011718-1.2422-0.089843-1.7227-0.375-3.5117-0.49219-5.3125-0.52344-5.0781-0.097656-10.309 0.75781-15.199 1.2109-1.8867 0.17578-3.918 0.17188-5.8438 0.51562-1.4297 0.25781-2.8008 0.69922-4.0391 1.4922-1.8984 1.2148-3.2148 4.2227-3.793 7.7109-0.74609 4.5195-0.33984 9.7773 0.83984 12.254 0.38672 0.8125 0.83594 1.3672 1.3672 1.8242-0.46094 0.011718-0.91797 0.023437-1.3672 0.039062-4.5273 0.13672-8.2188 0.24609-10.543 0.39453-0.40234 0.027343-2.5156-0.074219-2.6602 0.26172l-0.019531 0.003906c-0.26562 0.039063-0.28906 0.92188-0.29297 0.98828-0.097656 1.4805-0.26172 4.1445-0.17969 6.2227 0.042969 1.0938 0.17578 2.043 0.38281 2.6523 0.16406 0.48047 0.40625 0.81641 0.64062 1.0312 0.0625 0.054687 0.44141 0.3125 1.2031 0.38672 0.70312 0.066407 2.1758 0.16797 4.2461 0.24609 8.2266 0.3125 25.98 0.51953 41.938 0.45312 11.898-0.050781 22.801-0.29297 28.043-0.83594 1.7969-0.1875 3.0078-0.45312 3.5078-0.70312 0.45312-0.22656 0.86328-0.66406 1.125-1.3477 0.31641-0.83594 0.42188-2.2266 0.34375-3.7344-0.11328-2.1875-0.57031-4.6367-0.95312-5.7188-0.28125-0.79297-0.73828-1.168-0.96484-1.2773-0.14453-0.070313-0.53125-0.17969-1.1523-0.23438-1.0977-0.09375-3.3633-0.16406-6.4531-0.17188-4.1836-0.007813-9.9062 0.039062-16.305 0.23438v-0.023438c0.03125-1.707 0.023438-3.8398 0.28906-5.7266 0.12891-0.90625 0.3125-1.75 0.59375-2.4453 0.33203-0.82031 0.75391-1.6094 1.2188-2.3789 1.9844-3.2656 4.8047-6.2148 6.3594-9.6914 0.87109-1.9609 1.7188-4.832 2.3086-7.9141 0.22656-1.1836 0.36719-2.4062 0.55078-3.6016 0.48828-3.207 0.93359-6.2812 1.1758-8.3789 0.1875-1.625 0.50391-3.5195 0.48047-5.3398-0.019532-1.3242-0.21484-2.6094-0.72656-3.7422-0.92969-2.0664-2.9688-3.1758-5.1328-3.3242-2.0938-0.14062-4.2891 0.61328-5.6133 2.2656-0.84375 1.0547-1.3203 2.375-1.582 3.8203-0.53125 2.9219-0.16016 6.3789-0.62891 8.8945-0.31641 1.6992-0.52344 3.7695-0.92578 5.707-0.26172 1.2695-0.60156 2.4766-1.1289 3.4727-0.96484 1.8516-3.0469 3.457-4.5508 5.125zm7.9375 25.547c-3.543-0.042969-14.969-0.19141-16.465-0.17578-7.707 0.082032-25.961 0.44531-27.438 0.47266-4.0586 0.078126-7.332 0.16797-9.3984 0.19531l-0.47656 0.003906-0.003906 0.046875c-0.023437 1.1992-0.09375 3.293-0.023437 5.1562 0.03125 0.83594-0.046876 1.9805 0.058593 2.5703h0.027344c0.80469 0.046875 2.4883 0.074219 4.8281 0.12109 9.9727 0.21094 31.766 0.55078 48.82 0.35156 7.6211-0.089844 14.289-0.26562 18.52-0.58984 1.8281-0.14062 3.1523-0.26562 3.8125-0.45703 0.17969-0.29297 0.28516-0.87109 0.30078-1.4492 0.058594-1.9336-0.33594-4.543-0.71094-5.8711l-0.019532-0.0625c-0.11328-0.011719-0.23438-0.023438-0.35547-0.027344-1.8125-0.11719-5.5742-0.16016-10.504-0.20312-3.2305-0.027344-6.9609-0.03125-10.969-0.082031zm-2.9141-2.1797v-0.015625c-0.035156-1.5273 0-3.3984 0.17188-5.1602 0.14062-1.4766 0.40625-2.8789 0.84766-3.9727 0.37891-0.9375 0.85156-1.8398 1.3828-2.7188 1.9297-3.1836 4.6953-6.0469 6.207-9.4375 0.85937-1.9258 1.5469-4.8164 2.2461-7.832 0.26953-1.1562 0.58594-2.3203 0.82422-3.4766 0.61719-3 1.0078-5.8789 1.2852-7.8594 0.21484-1.5508 0.55859-3.3594 0.57812-5.1055 0.015625-1.0938-0.089843-2.1641-0.47656-3.1094-0.63672-1.5586-2.1602-2.4023-3.7617-2.5391-1.6367-0.14063-3.3672 0.44141-4.4023 1.7305-0.70312 0.87891-1.0781 1.9844-1.2969 3.1875-0.53125 2.9258-0.16016 6.3867-0.63281 8.9023-0.375 1.9922-0.59766 4.4922-1.1523 6.7031-0.26172 1.0469-0.59766 2.0312-1.0469 2.875-0.40625 0.75-0.97266 1.4688-1.6172 2.1562-1.1953 1.2812-2.5586 2.582-3.7109 3.7344-0.57031 0.57031-2.1797 0.44922-2.8125 0.42578-1.1133-0.039062-2.2305-0.058593-3.3633-0.054687-1.6797 0.011718-3.3828 0.050781-5.082 0.17578-3.6289 0.26562-7.2656 0.76172-10.727 1.1016-1.8203 0.17578-3.7773 0.16797-5.6328 0.50781-1.1055 0.20312-2.1719 0.53125-3.1289 1.1445-1.7812 1.1406-2.5703 4.4531-2.875 7.832-0.30859 3.4609-0.003906 7.0664 0.875 8.9023 0.58984 1.2305 1.5625 1.3477 2.6367 2.2031 0.082031 0.0625 0.19531 0.10938 0.21875 0.21484 0.039062 0.17188 0.14453 0.41406 0.15625 0.41406 7.3555-0.15625 16.066-0.25781 24.535-0.51172 0.003906-1.2578 0.36719-2.9062 0.24219-4.3516-0.078125-0.9375-0.27344-1.8008-1.0039-2.25-1.3984-0.79297-3.5156-0.8125-5.7539-0.70312-0.082031 0.054688-1.1445 0.066407-1.1445 0.066407-2.8477 0.17187-5.7266 0.41016-7.6914-0.23047-2.0625-0.67578-3.4141-2.1992-2.7461-5.4609 0.03125-0.15234 0.40625-1.0508 0.9375-0.92969 0.69141 0.16016 0.50391 1.0391 0.48438 1.1719-0.32031 2.2773 0.34766 3.3711 1.7734 3.832 1.7227 0.55859 4.2109 0.35547 6.707 0.17188-0.45703-1.9414-1.1484-3.8477-1.6133-5.793-0.23437-0.97266-0.4375-1.9492-0.58984-2.9297-0.070313-0.40234 0.20312-0.78516 0.60547-0.85156 0.40234-0.070312 0.78516 0.20312 0.85156 0.60547 0.23438 1.2461 0.55859 2.4766 0.92969 3.7031 0.50781 1.6719 1.0039 3.3633 1.6484 4.9766 0.023437 0.058594 0.046875 0.11328 0.074219 0.17188 2.4531-0.12109 4.7578-0.046876 6.3086 0.80078 0.97656 0.49219 1.5508 1.3906 1.8828 2.4805 0.5 1.6523 0.4375 3.8281 0.35156 5.4453 2.5547-0.097656 5.0664-0.24219 7.5039-0.34766zm-16.223-51.766c-1.5039-0.55078-5.0781-0.5-6.6016-0.15625-1.5742 0.35156-2.918 1.1445-4.1172 2.4961-3.0234 3.3711-3.875 8.4922-2.7188 12.871 1.2031 4.5469 4.5508 8.2734 9.8203 8.6133 1.8945 0.11328 4.082-0.027344 6.0469-0.64844 1.3984-0.44141 2.6836-1.1328 3.6953-2.125 3.4336-3.3711 3.8555-8.3711 2.2305-12.715-1.4414-3.8633-4.5742-6.9453-8.3555-8.332zm-0.60547 2.0234c-0.24609-0.082031-4.3008-0.95703-5.6562-0.65625-1.2578 0.28125-2.3281 0.92969-3.2852 2.0078-2.6328 3-3.3164 7.5312-2.2461 11.383 1.0586 3.793 3.8633 6.9375 8.2812 7.1484 1.4062 0.074219 2.9961-0.003906 4.4922-0.35938 1.418-0.33594 2.7578-0.92578 3.75-1.9102 2.8359-2.8164 3.0664-6.9844 1.6992-10.582-1.2344-3.25-3.8086-5.9805-7.0352-7.0312z" fill-rule="evenodd"/>
<text x="0.0" y="117.5" font-size="5.0" font-weight="bold" font-family="Arbeit Regular, Helvetica, Arial-Unicode, Arial, Sans-serif" fill="#000000">Created by Agan24</text><text x="0.0" y="122.5" font-size="5.0" font-weight="bold" font-family="Arbeit Regular, Helvetica, Arial-Unicode, Arial, Sans-serif" fill="#000000">from Noun Project</text></svg>