<svg xmlns:dc="http://purl.org/dc/elements/1.1/" xmlns:cc="http://creativecommons.org/ns#" xmlns:rdf="http://www.w3.org/1999/02/22-rdf-syntax-ns#" xmlns:svg="http://www.w3.org/2000/svg" xmlns="http://www.w3.org/2000/svg" xmlns:sodipodi="http://sodipodi.sourceforge.net/DTD/sodipodi-0.dtd" xmlns:inkscape="http://www.inkscape.org/namespaces/inkscape" viewBox="0 0 32 40" version="1.1" x="0px" y="0px"><g transform="translate(0,-1020.3622)"><path style="color:#000000;font-style:normal;font-variant:normal;font-weight:normal;font-stretch:normal;font-size:medium;line-height:normal;font-family:sans-serif;text-indent:0;text-align:start;text-decoration:none;text-decoration-line:none;text-decoration-style:solid;text-decoration-color:#000000;letter-spacing:normal;word-spacing:normal;text-transform:none;direction:ltr;block-progression:tb;writing-mode:lr-tb;baseline-shift:baseline;text-anchor:start;white-space:normal;clip-rule:nonzero;display:inline;overflow:visible;visibility:visible;opacity:1;isolation:auto;mix-blend-mode:normal;color-interpolation:sRGB;color-interpolation-filters:linearRGB;solid-color:#000000;solid-opacity:1;fill:#000000;fill-opacity:1;fill-rule:evenodd;stroke:none;stroke-width:0.99999988px;stroke-linecap:round;stroke-linejoin:round;stroke-miterlimit:4;stroke-dasharray:none;stroke-dashoffset:0;stroke-opacity:1;color-rendering:auto;image-rendering:auto;shape-rendering:auto;text-rendering:auto;enable-background:accumulate" d="m 16.251953,1020.3965 c -1.216677,0.091 -3.455078,0.5176 -3.455078,0.5176 a 0.50004994,0.50004994 0 0 0 -0.404297,0.5449 0.50004994,0.50004994 0 0 0 0.002,0.012 l 0.34375,3.2656 a 0.50004994,0.50004994 0 0 0 0.587891,0.4395 l 5.621094,-1.0196 a 0.50004994,0.50004994 0 0 0 0.40625,-0.4296 l 0.347656,-2.7696 a 0.50004994,0.50004994 0 0 0 -0.478516,-0.5605 c 0,0 -1.927582,-0.077 -2.970703,0 z m 0.07422,0.998 c 0.723654,-0.054 1.793694,-0.015 2.3125,0 l -0.230469,1.8438 -4.732422,0.8594 -0.238281,-2.2696 c 0.481076,-0.087 1.966579,-0.365 2.888672,-0.4336 z"/><path style="color:#000000;font-style:normal;font-variant:normal;font-weight:normal;font-stretch:normal;font-size:medium;line-height:normal;font-family:sans-serif;text-indent:0;text-align:start;text-decoration:none;text-decoration-line:none;text-decoration-style:solid;text-decoration-color:#000000;letter-spacing:normal;word-spacing:normal;text-transform:none;direction:ltr;block-progression:tb;writing-mode:lr-tb;baseline-shift:baseline;text-anchor:start;white-space:normal;clip-rule:nonzero;display:inline;overflow:visible;visibility:visible;opacity:1;isolation:auto;mix-blend-mode:normal;color-interpolation:sRGB;color-interpolation-filters:linearRGB;solid-color:#000000;solid-opacity:1;fill:#000000;fill-opacity:1;fill-rule:evenodd;stroke:none;stroke-width:0.99999988px;stroke-linecap:round;stroke-linejoin:round;stroke-miterlimit:4;stroke-dasharray:none;stroke-dashoffset:0;stroke-opacity:1;color-rendering:auto;image-rendering:auto;shape-rendering:auto;text-rendering:auto;enable-background:accumulate" d="m 16.001953,1025.3203 c -0.876674,0.1015 -1.744391,0.3707 -2.488281,0.7305 -0.109417,0.053 -0.223706,0.1136 -0.326165,0.1797 -0.847857,0.5471 -1.32655,1.1598 -1.822319,1.8867 -0.725688,1.0642 -1.304286,2.3022 -1.537109,3.6192 -0.2571299,1.4556 0.00682,2.903 0.207031,4.2402 0.28344,1.895 1.127039,3.5528 1.316406,5.2285 0.119135,1.0536 0.05977,2.1492 -0.07031,3.2364 -0.117948,0.9842 -0.493119,1.9899 -0.689453,3.1054 -0.253639,1.4412 -0.560547,4.2598 -0.560547,4.2598 -0.033153,0.3077 0.218393,0.5714 0.527344,0.5527 l 11.3125,-0.6562 c 0.275568,-0.016 0.48625,-0.2518 0.470703,-0.5274 0,0 -0.103783,-1.9853 -0.359375,-3.0722 l 0,0 c -0.327345,-1.3887 -1.106543,-2.4873 -1.314453,-3.6172 -0.225509,-1.2237 -0.214674,-2.5202 -0.06445,-3.7851 0.148327,-1.2506 0.813695,-2.5125 1.039062,-3.9922 0.216908,-1.4237 0.421716,-2.9331 0.208984,-4.4434 -0.201431,-1.4311 -0.735849,-2.7845 -1.36914,-4.0195 -0.415282,-0.8096 -0.792699,-2.0292 -1.894531,-2.5546 -0.815872,-0.3891 -1.709264,-0.4707 -2.585938,-0.3692 z m 0.09766,1.0117 c 0.738536,-0.086 1.457268,-0.024 2.056641,0.2618 0.583384,0.2781 0.975326,1.2063 1.4375,2.1074 0.601631,1.1732 1.088185,2.4286 1.267578,3.7031 0.187142,1.3286 0.0078,2.7444 -0.207031,4.1543 -0.191137,1.2549 -0.86535,2.526 -1.042969,4.0234 -0.158945,1.3385 -0.174974,2.7318 0.07422,4.084 0.261408,1.4206 1.057601,2.5352 1.324219,3.668 0.168079,0.7135 0.241404,1.9027 0.277343,2.4043 l -10.183593,0.5898 c 0.06874,-0.6113 0.267572,-2.4401 0.472656,-3.6054 0.174815,-0.9933 0.5622,-2.0168 0.699219,-3.1602 0.135241,-1.1303 0.202145,-2.301 0.07031,-3.4668 -0.216554,-1.9163 -1.071205,-3.5852 -1.322265,-5.2637 -0.202684,-1.3537 -0.42693,-2.6971 -0.210938,-3.9199 0.201823,-1.1416 0.717961,-2.2612 1.378906,-3.2305 0.498567,-0.731 1.078088,-1.4183 1.738282,-1.7207 0.67345,-0.3084 1.431386,-0.5426 2.169922,-0.6289 z"/><path style="color:#000000;font-style:normal;font-variant:normal;font-weight:normal;font-stretch:normal;font-size:medium;line-height:normal;font-family:sans-serif;text-indent:0;text-align:start;text-decoration:none;text-decoration-line:none;text-decoration-style:solid;text-decoration-color:#000000;letter-spacing:normal;word-spacing:normal;text-transform:none;direction:ltr;block-progression:tb;writing-mode:lr-tb;baseline-shift:baseline;text-anchor:start;white-space:normal;clip-rule:nonzero;display:inline;overflow:visible;visibility:visible;opacity:1;isolation:auto;mix-blend-mode:normal;color-interpolation:sRGB;color-interpolation-filters:linearRGB;solid-color:#000000;solid-opacity:1;fill:#000000;fill-opacity:1;fill-rule:evenodd;stroke:none;stroke-width:0.99999988px;stroke-linecap:round;stroke-linejoin:round;stroke-miterlimit:4;stroke-dasharray:none;stroke-dashoffset:0;stroke-opacity:1;color-rendering:auto;image-rendering:auto;shape-rendering:auto;text-rendering:auto;enable-background:accumulate" d="m 14.4375,1024.0703 a 0.50004994,0.50004994 0 0 0 -0.472656,0.5254 l 0.06055,1.6055 a 0.50034398,0.50034398 0 1 0 1,-0.037 l -0.0625,-1.6055 a 0.50004994,0.50004994 0 0 0 -0.525391,-0.4883 z"/><path style="color:#000000;font-style:normal;font-variant:normal;font-weight:normal;font-stretch:normal;font-size:medium;line-height:normal;font-family:sans-serif;text-indent:0;text-align:start;text-decoration:none;text-decoration-line:none;text-decoration-style:solid;text-decoration-color:#000000;letter-spacing:normal;word-spacing:normal;text-transform:none;direction:ltr;block-progression:tb;writing-mode:lr-tb;baseline-shift:baseline;text-anchor:start;white-space:normal;clip-rule:nonzero;display:inline;overflow:visible;visibility:visible;opacity:1;isolation:auto;mix-blend-mode:normal;color-interpolation:sRGB;color-interpolation-filters:linearRGB;solid-color:#000000;solid-opacity:1;fill:#000000;fill-opacity:1;fill-rule:evenodd;stroke:none;stroke-width:0.99999988;stroke-linecap:round;stroke-linejoin:round;stroke-miterlimit:4;stroke-dasharray:none;stroke-dashoffset:0;stroke-opacity:1;color-rendering:auto;image-rendering:auto;shape-rendering:auto;text-rendering:auto;enable-background:accumulate" d="m 17.445312,1023.5293 a 0.50004994,0.50004994 0 0 0 -0.490234,0.5078 l 0.0078,1.8106 a 0.50004994,0.50004994 0 1 0 1,0 l -0.0078,-1.8106 a 0.50004994,0.50004994 0 0 0 -0.509766,-0.5039 z"/><path style="color:#000000;font-style:normal;font-variant:normal;font-weight:normal;font-stretch:normal;font-size:medium;line-height:normal;font-family:sans-serif;text-indent:0;text-align:start;text-decoration:none;text-decoration-line:none;text-decoration-style:solid;text-decoration-color:#000000;letter-spacing:normal;word-spacing:normal;text-transform:none;direction:ltr;block-progression:tb;writing-mode:lr-tb;baseline-shift:baseline;text-anchor:start;white-space:normal;clip-rule:nonzero;display:inline;overflow:visible;visibility:visible;opacity:1;isolation:auto;mix-blend-mode:normal;color-interpolation:sRGB;color-interpolation-filters:linearRGB;solid-color:#000000;solid-opacity:1;fill:#000000;fill-opacity:1;fill-rule:evenodd;stroke:none;stroke-width:0.24999997;stroke-linecap:round;stroke-linejoin:round;stroke-miterlimit:4;stroke-dasharray:none;stroke-dashoffset:0;stroke-opacity:1;color-rendering:auto;image-rendering:auto;shape-rendering:auto;text-rendering:auto;enable-background:accumulate" d="m 17.824206,1021.0743 a 0.12501249,0.12501249 0 0 0 -0.09375,0.049 l -0.847656,1.0684 a 0.12580969,0.12580969 0 1 0 0.197266,0.1562 l 0.845703,-1.0703 a 0.12501249,0.12501249 0 0 0 -0.101563,-0.2031 z"/><path style="color:#000000;font-style:normal;font-variant:normal;font-weight:normal;font-stretch:normal;font-size:medium;line-height:normal;font-family:sans-serif;text-indent:0;text-align:start;text-decoration:none;text-decoration-line:none;text-decoration-style:solid;text-decoration-color:#000000;letter-spacing:normal;word-spacing:normal;text-transform:none;direction:ltr;block-progression:tb;writing-mode:lr-tb;baseline-shift:baseline;text-anchor:start;white-space:normal;clip-rule:nonzero;display:inline;overflow:visible;visibility:visible;opacity:1;isolation:auto;mix-blend-mode:normal;color-interpolation:sRGB;color-interpolation-filters:linearRGB;solid-color:#000000;solid-opacity:1;fill:#000000;fill-opacity:1;fill-rule:evenodd;stroke:none;stroke-width:0.24999997;stroke-linecap:round;stroke-linejoin:round;stroke-miterlimit:4;stroke-dasharray:none;stroke-dashoffset:0;stroke-opacity:1;color-rendering:auto;image-rendering:auto;shape-rendering:auto;text-rendering:auto;enable-background:accumulate" d="m 18.150398,1021.5684 a 0.12501249,0.12501249 0 0 0 -0.08398,0.041 l -0.798828,0.8769 a 0.12515123,0.12515123 0 0 0 0.185546,0.168 l 0.796876,-0.875 a 0.12501249,0.12501249 0 0 0 -0.09961,-0.211 z"/><path style="color:#000000;font-style:normal;font-variant:normal;font-weight:normal;font-stretch:normal;font-size:medium;line-height:normal;font-family:sans-serif;text-indent:0;text-align:start;text-decoration:none;text-decoration-line:none;text-decoration-style:solid;text-decoration-color:#000000;letter-spacing:normal;word-spacing:normal;text-transform:none;direction:ltr;block-progression:tb;writing-mode:lr-tb;baseline-shift:baseline;text-anchor:start;white-space:normal;clip-rule:nonzero;display:inline;overflow:visible;visibility:visible;opacity:1;isolation:auto;mix-blend-mode:normal;color-interpolation:sRGB;color-interpolation-filters:linearRGB;solid-color:#000000;solid-opacity:1;fill:#000000;fill-opacity:1;fill-rule:evenodd;stroke:none;stroke-width:0.24999997;stroke-linecap:round;stroke-linejoin:round;stroke-miterlimit:4;stroke-dasharray:none;stroke-dashoffset:0;stroke-opacity:1;color-rendering:auto;image-rendering:auto;shape-rendering:auto;text-rendering:auto;enable-background:accumulate" d="m 18.710859,1021.8165 a 0.12501249,0.12501249 0 0 0 -0.08398,0.041 l -0.908204,0.9668 a 0.12501249,0.12501249 0 1 0 0.181641,0.17 l 0.908203,-0.9649 a 0.12501249,0.12501249 0 0 0 -0.09766,-0.2129 z"/><path style="color:#000000;font-style:normal;font-variant:normal;font-weight:normal;font-stretch:normal;font-size:medium;line-height:normal;font-family:sans-serif;text-indent:0;text-align:start;text-decoration:none;text-decoration-line:none;text-decoration-style:solid;text-decoration-color:#000000;letter-spacing:normal;word-spacing:normal;text-transform:none;direction:ltr;block-progression:tb;writing-mode:lr-tb;baseline-shift:baseline;text-anchor:start;white-space:normal;clip-rule:nonzero;display:inline;overflow:visible;visibility:visible;opacity:1;isolation:auto;mix-blend-mode:normal;color-interpolation:sRGB;color-interpolation-filters:linearRGB;solid-color:#000000;solid-opacity:1;fill:#000000;fill-opacity:1;fill-rule:evenodd;stroke:none;stroke-width:0.24999997;stroke-linecap:round;stroke-linejoin:round;stroke-miterlimit:4;stroke-dasharray:none;stroke-dashoffset:0;stroke-opacity:1;color-rendering:auto;image-rendering:auto;shape-rendering:auto;text-rendering:auto;enable-background:accumulate" d="m 16.769531,1024.2656 a 0.12501249,0.12501249 0 0 0 -0.08594,0.037 l -0.785156,0.7598 a 0.12501249,0.12501249 0 1 0 0.173828,0.1797 l 0.785156,-0.7598 a 0.12501249,0.12501249 0 0 0 -0.08789,-0.2168 z"/><path style="color:#000000;font-style:normal;font-variant:normal;font-weight:normal;font-stretch:normal;font-size:medium;line-height:normal;font-family:sans-serif;text-indent:0;text-align:start;text-decoration:none;text-decoration-line:none;text-decoration-style:solid;text-decoration-color:#000000;letter-spacing:normal;word-spacing:normal;text-transform:none;direction:ltr;block-progression:tb;writing-mode:lr-tb;baseline-shift:baseline;text-anchor:start;white-space:normal;clip-rule:nonzero;display:inline;overflow:visible;visibility:visible;opacity:1;isolation:auto;mix-blend-mode:normal;color-interpolation:sRGB;color-interpolation-filters:linearRGB;solid-color:#000000;solid-opacity:1;fill:#000000;fill-opacity:1;fill-rule:evenodd;stroke:none;stroke-width:0.24999997;stroke-linecap:round;stroke-linejoin:round;stroke-miterlimit:4;stroke-dasharray:none;stroke-dashoffset:0;stroke-opacity:1;color-rendering:auto;image-rendering:auto;shape-rendering:auto;text-rendering:auto;enable-background:accumulate" d="m 16.970703,1024.6523 a 0.12501249,0.12501249 0 0 0 -0.08398,0.041 l -0.773438,0.8378 a 0.12582497,0.12582497 0 1 0 0.185547,0.17 l 0.771484,-0.8379 a 0.12501249,0.12501249 0 0 0 -0.09961,-0.211 z"/><path style="color:#000000;font-style:normal;font-variant:normal;font-weight:normal;font-stretch:normal;font-size:medium;line-height:normal;font-family:sans-serif;text-indent:0;text-align:start;text-decoration:none;text-decoration-line:none;text-decoration-style:solid;text-decoration-color:#000000;letter-spacing:normal;word-spacing:normal;text-transform:none;direction:ltr;block-progression:tb;writing-mode:lr-tb;baseline-shift:baseline;text-anchor:start;white-space:normal;clip-rule:nonzero;display:inline;overflow:visible;visibility:visible;opacity:1;isolation:auto;mix-blend-mode:normal;color-interpolation:sRGB;color-interpolation-filters:linearRGB;solid-color:#000000;solid-opacity:1;fill:#000000;fill-opacity:1;fill-rule:evenodd;stroke:none;stroke-width:0.49999994;stroke-linecap:round;stroke-linejoin:round;stroke-miterlimit:4;stroke-dasharray:none;stroke-dashoffset:0;stroke-opacity:1;color-rendering:auto;image-rendering:auto;shape-rendering:auto;text-rendering:auto;enable-background:accumulate" d="m 13.62633,1028.7905 c -0.0825,-6e-4 -0.159968,0.04 -0.207031,0.1074 0,0 -0.99589,1.37 -1.332031,2.2461 -0.229472,0.5979 -0.395742,1.2562 -0.384766,1.9238 0.01666,1.0297 0.163742,1.9644 0.406796,2.8672 0.259699,0.9652 0.584746,1.9004 0.861329,2.8399 0.233067,0.7922 0.5569,1.5277 0.654296,2.2793 0.09997,0.772 0.02846,1.5821 -0.05078,2.3926 -0.09404,0.9827 -0.334881,1.9618 -0.511719,2.9687 -0.15242,0.8663 -0.201717,2.5996 -0.201717,2.5996 -0.06,0.3281 0.432187,0.4181 0.492187,0.09 0,0 0.04875,-1.7342 0.201718,-2.6036 0.172845,-0.9841 0.418858,-1.9761 0.517578,-3.0078 0.0795,-0.8131 0.158248,-1.6569 0.04883,-2.5019 -0.109795,-0.8473 -0.4514,-1.608 -0.671875,-2.3574 -0.28105,-0.9547 -0.60386,-1.8858 -0.857422,-2.8282 -0.256366,-0.9523 -0.375136,-1.85 -0.389218,-2.748 -0.0095,-0.5784 0.137318,-1.1762 0.351563,-1.7344 0.276067,-0.7195 1.271484,-2.1348 1.271484,-2.1348 0.12117,-0.1643 0.0049,-0.3968 -0.199219,-0.3984 z"/><path style="color:#000000;font-style:normal;font-variant:normal;font-weight:normal;font-stretch:normal;font-size:medium;line-height:normal;font-family:sans-serif;text-indent:0;text-align:start;text-decoration:none;text-decoration-line:none;text-decoration-style:solid;text-decoration-color:#000000;letter-spacing:normal;word-spacing:normal;text-transform:none;direction:ltr;block-progression:tb;writing-mode:lr-tb;baseline-shift:baseline;text-anchor:start;white-space:normal;clip-rule:nonzero;display:inline;overflow:visible;visibility:visible;opacity:1;isolation:auto;mix-blend-mode:normal;color-interpolation:sRGB;color-interpolation-filters:linearRGB;solid-color:#000000;solid-opacity:1;fill:#000000;fill-opacity:1;fill-rule:evenodd;stroke:none;stroke-width:0.49999994;stroke-linecap:round;stroke-linejoin:round;stroke-miterlimit:4;stroke-dasharray:none;stroke-dashoffset:0;stroke-opacity:1;color-rendering:auto;image-rendering:auto;shape-rendering:auto;text-rendering:auto;enable-background:accumulate" d="m 17.722656,1032.6934 a 0.25002497,0.25002497 0 0 0 -0.15039,0.066 l -3.410157,3.0644 a 0.25002497,0.25002497 0 0 0 0.1875,0.4356 l 2.677735,-0.2266 -2.289063,2.3809 a 0.25002497,0.25002497 0 1 0 0.359375,0.3457 l 2.748047,-2.8594 a 0.25002497,0.25002497 0 0 0 -0.201172,-0.4219 l -2.59375,0.2207 2.855469,-2.5683 a 0.25002497,0.25002497 0 0 0 -0.183594,-0.4375 z"/><path style="color:#000000;font-style:normal;font-variant:normal;font-weight:normal;font-stretch:normal;font-size:medium;line-height:normal;font-family:sans-serif;text-indent:0;text-align:start;text-decoration:none;text-decoration-line:none;text-decoration-style:solid;text-decoration-color:#000000;letter-spacing:normal;word-spacing:normal;text-transform:none;direction:ltr;block-progression:tb;writing-mode:lr-tb;baseline-shift:baseline;text-anchor:start;white-space:normal;clip-rule:nonzero;display:inline;overflow:visible;visibility:visible;opacity:1;isolation:auto;mix-blend-mode:normal;color-interpolation:sRGB;color-interpolation-filters:linearRGB;solid-color:#000000;solid-opacity:1;fill:#000000;fill-opacity:1;fill-rule:evenodd;stroke:none;stroke-width:0.99999988px;stroke-linecap:round;stroke-linejoin:round;stroke-miterlimit:4;stroke-dasharray:none;stroke-dashoffset:0;stroke-opacity:1;color-rendering:auto;image-rendering:auto;shape-rendering:auto;text-rendering:auto;enable-background:accumulate" d="m 12.980469,1021.9961 c -0.09511,0 -0.187262,0.034 -0.265625,0.088 0,0 -0.475242,0.309 -0.757813,0.5488 -0.380923,0.323 -0.785731,0.6754 -1.128906,1.1192 -0.366185,0.4736 -0.752426,1.014 -0.9628906,1.6738 -0.1949021,0.6114 -0.2473079,1.2649 -0.1816406,1.8906 0.05064,0.4827 0.2336435,0.889 0.3808592,1.2383 0.20131,0.4775 0.546903,1.0899 0.546903,1.0899 0.331623,0.6169 1.246199,0.066 0.855468,-0.5157 0,0 -0.352986,-0.6604 -0.480496,-0.9629 -0.149098,-0.3537 -0.277154,-0.672 -0.30664,-0.9531 -0.05218,-0.4973 -0.0096,-1.0225 0.136718,-1.4824 l 0,0 c 0.148772,-0.4653 0.456848,-0.9178 0.802735,-1.3652 0.266084,-0.3441 0.613626,-0.6524 0.984375,-0.9668 0.165681,-0.1406 0.666015,-0.4805 0.666015,-0.4805 0.426873,-0.2754 0.218636,-0.9381 -0.289062,-0.9199 z"/><path style="color:#000000;font-style:normal;font-variant:normal;font-weight:normal;font-stretch:normal;font-size:medium;line-height:normal;font-family:sans-serif;text-indent:0;text-align:start;text-decoration:none;text-decoration-line:none;text-decoration-style:solid;text-decoration-color:#000000;letter-spacing:normal;word-spacing:normal;text-transform:none;direction:ltr;block-progression:tb;writing-mode:lr-tb;baseline-shift:baseline;text-anchor:start;white-space:normal;clip-rule:nonzero;display:inline;overflow:visible;visibility:visible;opacity:1;isolation:auto;mix-blend-mode:normal;color-interpolation:sRGB;color-interpolation-filters:linearRGB;solid-color:#000000;solid-opacity:1;fill:#000000;fill-opacity:1;fill-rule:evenodd;stroke:none;stroke-width:0.99999988px;stroke-linecap:round;stroke-linejoin:round;stroke-miterlimit:4;stroke-dasharray:none;stroke-dashoffset:0;stroke-opacity:1;color-rendering:auto;image-rendering:auto;shape-rendering:auto;text-rendering:auto;enable-background:accumulate" d="m 13.099609,1023.7363 c -0.112693,0 -0.221437,0.042 -0.308593,0.1133 0,0 -0.425829,0.3258 -0.681641,0.5938 -0.209585,0.2194 -0.439132,0.4682 -0.619141,0.7871 -0.158945,0.2812 -0.316454,0.613 -0.36914,1.0019 -0.05922,0.4377 -0.0095,0.8796 0.117187,1.2852 0.06714,0.2146 0.167639,0.3704 0.25586,0.5117 0.08822,0.1413 0.113298,0.205 0.113298,0.205 0.381943,0.5764 1.235274,-0.035 0.8125,-0.582 0,0 -0.06248,-0.087 -0.132812,-0.1992 -0.07033,-0.1126 -0.09105,-0.2194 -0.09572,-0.2343 -0.08576,-0.2747 -0.116849,-0.5818 -0.08008,-0.8536 0.02593,-0.1914 0.120945,-0.4142 0.25,-0.6425 0.107992,-0.1914 0.277606,-0.3857 0.472656,-0.5899 0.128188,-0.1343 0.576172,-0.5 0.576172,-0.5 0.381007,-0.2928 0.169951,-0.9021 -0.310545,-0.8965 z"/></g><text x="0" y="47" fill="#000000" font-size="5px" font-weight="bold" font-family="'Helvetica Neue', Helvetica, Arial-Unicode, Arial, Sans-serif">Created by P Thanga Vignesh</text><text x="0" y="52" fill="#000000" font-size="5px" font-weight="bold" font-family="'Helvetica Neue', Helvetica, Arial-Unicode, Arial, Sans-serif">from the Noun Project</text></svg>