<svg xmlns:dc="http://purl.org/dc/elements/1.1/" xmlns:cc="http://creativecommons.org/ns#" xmlns:rdf="http://www.w3.org/1999/02/22-rdf-syntax-ns#" xmlns:svg="http://www.w3.org/2000/svg" xmlns="http://www.w3.org/2000/svg" xmlns:sodipodi="http://sodipodi.sourceforge.net/DTD/sodipodi-0.dtd" xmlns:inkscape="http://www.inkscape.org/namespaces/inkscape" viewBox="0 0 32 40" version="1.1" x="0px" y="0px"><g transform="translate(0,-1020.3622)"><path style="color:#000000;font-style:normal;font-variant:normal;font-weight:normal;font-stretch:normal;font-size:medium;line-height:normal;font-family:sans-serif;text-indent:0;text-align:start;text-decoration:none;text-decoration-line:none;text-decoration-style:solid;text-decoration-color:#000000;letter-spacing:normal;word-spacing:normal;text-transform:none;direction:ltr;block-progression:tb;writing-mode:lr-tb;baseline-shift:baseline;text-anchor:start;white-space:normal;clip-rule:nonzero;display:inline;overflow:visible;visibility:visible;opacity:1;isolation:auto;mix-blend-mode:normal;color-interpolation:sRGB;color-interpolation-filters:linearRGB;solid-color:#000000;solid-opacity:1;fill:#000000;fill-opacity:1;fill-rule:evenodd;stroke:none;stroke-width:0.99999988px;stroke-linecap:round;stroke-linejoin:round;stroke-miterlimit:4;stroke-dasharray:none;stroke-dashoffset:0;stroke-opacity:1;color-rendering:auto;image-rendering:auto;shape-rendering:auto;text-rendering:auto;enable-background:accumulate" d="m 10.795471,1020.3661 -5.5917971,0.498 a 0.50004994,0.50004994 0 0 0 -0.4121094,0.7051 l 6.2402345,13.6953 a 0.50035986,0.50035986 0 0 0 0.910156,-0.416 l -5.9472655,-13.0508 4.5332035,-0.4023 4.589844,10.209 a 0.50005171,0.50005171 0 1 0 0.912109,-0.4102 l -4.734375,-10.5352 a 0.50004994,0.50004994 0 0 0 -0.5,-0.2929 z"/><path style="color:#000000;font-style:normal;font-variant:normal;font-weight:normal;font-stretch:normal;font-size:medium;line-height:normal;font-family:sans-serif;text-indent:0;text-align:start;text-decoration:none;text-decoration-line:none;text-decoration-style:solid;text-decoration-color:#000000;letter-spacing:normal;word-spacing:normal;text-transform:none;direction:ltr;block-progression:tb;writing-mode:lr-tb;baseline-shift:baseline;text-anchor:start;white-space:normal;clip-rule:nonzero;display:inline;overflow:visible;visibility:visible;opacity:1;isolation:auto;mix-blend-mode:normal;color-interpolation:sRGB;color-interpolation-filters:linearRGB;solid-color:#000000;solid-opacity:1;fill:#000000;fill-opacity:1;fill-rule:evenodd;stroke:none;stroke-width:0.99999988px;stroke-linecap:round;stroke-linejoin:round;stroke-miterlimit:4;stroke-dasharray:none;stroke-dashoffset:0;stroke-opacity:1;color-rendering:auto;image-rendering:auto;shape-rendering:auto;text-rendering:auto;enable-background:accumulate" d="m 26.734924,1020.6747 -6.255859,0.2441 a 0.50004994,0.50004994 0 0 0 -0.429688,0.2813 l -6.453125,13.2246 a 0.50052727,0.50052727 0 1 0 0.900391,0.4375 l 6.320312,-12.9551 5.123047,-0.1992 -5.871094,12.1172 a 0.50009104,0.50009104 0 1 0 0.900391,0.4355 l 6.234375,-12.8691 a 0.50004994,0.50004994 0 0 0 -0.46875,-0.7168 z"/><path style="color:#000000;font-style:normal;font-variant:normal;font-weight:normal;font-stretch:normal;font-size:medium;line-height:normal;font-family:sans-serif;text-indent:0;text-align:start;text-decoration:none;text-decoration-line:none;text-decoration-style:solid;text-decoration-color:#000000;letter-spacing:normal;word-spacing:normal;text-transform:none;direction:ltr;block-progression:tb;writing-mode:lr-tb;baseline-shift:baseline;text-anchor:start;white-space:normal;clip-rule:nonzero;display:inline;overflow:visible;visibility:visible;opacity:1;isolation:auto;mix-blend-mode:normal;color-interpolation:sRGB;color-interpolation-filters:linearRGB;solid-color:#000000;solid-opacity:1;fill:#000000;fill-opacity:1;fill-rule:evenodd;stroke:none;stroke-width:0.99999988px;stroke-linecap:round;stroke-linejoin:round;stroke-miterlimit:4;stroke-dasharray:none;stroke-dashoffset:0;stroke-opacity:1;color-rendering:auto;image-rendering:auto;shape-rendering:auto;text-rendering:auto;enable-background:accumulate" d="m 20.836487,1033.5262 a 0.50004994,0.50004994 0 0 0 -0.04883,0 l -9.490234,1.0157 a 0.50004994,0.50004994 0 0 0 -0.447266,0.5078 l 0.06836,3.6816 a 0.50009999,0.50009999 0 1 0 1,-0.02 l -0.05859,-3.2246 8.523437,-0.9121 0.289063,3.5605 a 0.50004994,0.50004994 0 1 0 0.996094,-0.08 l -0.328125,-4.0722 a 0.50004994,0.50004994 0 0 0 -0.503906,-0.461 z"/><path style="color:#000000;font-style:normal;font-variant:normal;font-weight:normal;font-stretch:normal;font-size:medium;line-height:normal;font-family:sans-serif;text-indent:0;text-align:start;text-decoration:none;text-decoration-line:none;text-decoration-style:solid;text-decoration-color:#000000;letter-spacing:normal;word-spacing:normal;text-transform:none;direction:ltr;block-progression:tb;writing-mode:lr-tb;baseline-shift:baseline;text-anchor:start;white-space:normal;clip-rule:nonzero;display:inline;overflow:visible;visibility:visible;opacity:1;isolation:auto;mix-blend-mode:normal;color-interpolation:sRGB;color-interpolation-filters:linearRGB;solid-color:#000000;solid-opacity:1;fill:#000000;fill-opacity:1;fill-rule:evenodd;stroke:none;stroke-width:0.49999994;stroke-linecap:round;stroke-linejoin:round;stroke-miterlimit:4;stroke-dasharray:none;stroke-dashoffset:0;stroke-opacity:1;color-rendering:auto;image-rendering:auto;shape-rendering:auto;text-rendering:auto;enable-background:accumulate" d="m 7.9419551,1021.9364 a 0.25002497,0.25002497 0 0 0 -0.1953124,0.1269 l -1.2109376,2.0977 a 0.25025167,0.25025167 0 1 0 0.4335938,0.25 l 1.2089844,-2.0977 a 0.25002497,0.25002497 0 0 0 -0.2363282,-0.3769 z"/><path style="color:#000000;font-style:normal;font-variant:normal;font-weight:normal;font-stretch:normal;font-size:medium;line-height:normal;font-family:sans-serif;text-indent:0;text-align:start;text-decoration:none;text-decoration-line:none;text-decoration-style:solid;text-decoration-color:#000000;letter-spacing:normal;word-spacing:normal;text-transform:none;direction:ltr;block-progression:tb;writing-mode:lr-tb;baseline-shift:baseline;text-anchor:start;white-space:normal;clip-rule:nonzero;display:inline;overflow:visible;visibility:visible;opacity:1;isolation:auto;mix-blend-mode:normal;color-interpolation:sRGB;color-interpolation-filters:linearRGB;solid-color:#000000;solid-opacity:1;fill:#000000;fill-opacity:1;fill-rule:evenodd;stroke:none;stroke-width:0.49999994;stroke-linecap:round;stroke-linejoin:round;stroke-miterlimit:4;stroke-dasharray:none;stroke-dashoffset:0;stroke-opacity:1;color-rendering:auto;image-rendering:auto;shape-rendering:auto;text-rendering:auto;enable-background:accumulate" d="m 8.4849239,1023.5419 a 0.25002497,0.25002497 0 0 0 -0.2011719,0.1171 l -1.078125,1.6856 a 0.25002497,0.25002497 0 1 0 0.4199219,0.2695 l 1.0800781,-1.6855 a 0.25002497,0.25002497 0 0 0 -0.2207031,-0.3867 z"/><path style="color:#000000;font-style:normal;font-variant:normal;font-weight:normal;font-stretch:normal;font-size:medium;line-height:normal;font-family:sans-serif;text-indent:0;text-align:start;text-decoration:none;text-decoration-line:none;text-decoration-style:solid;text-decoration-color:#000000;letter-spacing:normal;word-spacing:normal;text-transform:none;direction:ltr;block-progression:tb;writing-mode:lr-tb;baseline-shift:baseline;text-anchor:start;white-space:normal;clip-rule:nonzero;display:inline;overflow:visible;visibility:visible;opacity:1;isolation:auto;mix-blend-mode:normal;color-interpolation:sRGB;color-interpolation-filters:linearRGB;solid-color:#000000;solid-opacity:1;fill:#000000;fill-opacity:1;fill-rule:evenodd;stroke:none;stroke-width:0.49999994;stroke-linecap:round;stroke-linejoin:round;stroke-miterlimit:4;stroke-dasharray:none;stroke-dashoffset:0;stroke-opacity:1;color-rendering:auto;image-rendering:auto;shape-rendering:auto;text-rendering:auto;enable-background:accumulate" d="m 9.190002,1024.788 a 0.25002497,0.25002497 0 0 0 -0.2011719,0.1171 l -1.1328124,1.7754 a 0.25002497,0.25002497 0 1 0 0.4199218,0.2696 l 1.1347656,-1.7754 A 0.25002497,0.25002497 0 0 0 9.190002,1024.788 Z"/><path style="color:#000000;font-style:normal;font-variant:normal;font-weight:normal;font-stretch:normal;font-size:medium;line-height:normal;font-family:sans-serif;text-indent:0;text-align:start;text-decoration:none;text-decoration-line:none;text-decoration-style:solid;text-decoration-color:#000000;letter-spacing:normal;word-spacing:normal;text-transform:none;direction:ltr;block-progression:tb;writing-mode:lr-tb;baseline-shift:baseline;text-anchor:start;white-space:normal;clip-rule:nonzero;display:inline;overflow:visible;visibility:visible;opacity:1;isolation:auto;mix-blend-mode:normal;color-interpolation:sRGB;color-interpolation-filters:linearRGB;solid-color:#000000;solid-opacity:1;fill:#000000;fill-opacity:1;fill-rule:evenodd;stroke:none;stroke-width:0.49999994;stroke-linecap:round;stroke-linejoin:round;stroke-miterlimit:4;stroke-dasharray:none;stroke-dashoffset:0;stroke-opacity:1;color-rendering:auto;image-rendering:auto;shape-rendering:auto;text-rendering:auto;enable-background:accumulate" d="m 9.8482051,1026.0751 a 0.25002497,0.25002497 0 0 0 -0.2148437,0.1347 l -1.0644531,2.0176 a 0.25002497,0.25002497 0 1 0 0.4414062,0.2344 l 1.0644535,-2.0176 a 0.25002497,0.25002497 0 0 0 -0.2265629,-0.3691 z"/><path style="color:#000000;font-style:normal;font-variant:normal;font-weight:normal;font-stretch:normal;font-size:medium;line-height:normal;font-family:sans-serif;text-indent:0;text-align:start;text-decoration:none;text-decoration-line:none;text-decoration-style:solid;text-decoration-color:#000000;letter-spacing:normal;word-spacing:normal;text-transform:none;direction:ltr;block-progression:tb;writing-mode:lr-tb;baseline-shift:baseline;text-anchor:start;white-space:normal;clip-rule:nonzero;display:inline;overflow:visible;visibility:visible;opacity:1;isolation:auto;mix-blend-mode:normal;color-interpolation:sRGB;color-interpolation-filters:linearRGB;solid-color:#000000;solid-opacity:1;fill:#000000;fill-opacity:1;fill-rule:evenodd;stroke:none;stroke-width:0.49999994;stroke-linecap:round;stroke-linejoin:round;stroke-miterlimit:4;stroke-dasharray:none;stroke-dashoffset:0;stroke-opacity:1;color-rendering:auto;image-rendering:auto;shape-rendering:auto;text-rendering:auto;enable-background:accumulate" d="m 10.410705,1027.87 a 0.25002497,0.25002497 0 0 0 -0.216797,0.1348 l -0.8925779,1.6582 a 0.25002497,0.25002497 0 1 0 0.4394532,0.2363 l 0.8925777,-1.6563 a 0.25002497,0.25002497 0 0 0 -0.222656,-0.373 z"/><path style="color:#000000;font-style:normal;font-variant:normal;font-weight:normal;font-stretch:normal;font-size:medium;line-height:normal;font-family:sans-serif;text-indent:0;text-align:start;text-decoration:none;text-decoration-line:none;text-decoration-style:solid;text-decoration-color:#000000;letter-spacing:normal;word-spacing:normal;text-transform:none;direction:ltr;block-progression:tb;writing-mode:lr-tb;baseline-shift:baseline;text-anchor:start;white-space:normal;clip-rule:nonzero;display:inline;overflow:visible;visibility:visible;opacity:1;isolation:auto;mix-blend-mode:normal;color-interpolation:sRGB;color-interpolation-filters:linearRGB;solid-color:#000000;solid-opacity:1;fill:#000000;fill-opacity:1;fill-rule:evenodd;stroke:none;stroke-width:0.49999994;stroke-linecap:round;stroke-linejoin:round;stroke-miterlimit:4;stroke-dasharray:none;stroke-dashoffset:0;stroke-opacity:1;color-rendering:auto;image-rendering:auto;shape-rendering:auto;text-rendering:auto;enable-background:accumulate" d="m 11.004455,1029.2938 a 0.25002497,0.25002497 0 0 0 -0.214844,0.1367 l -0.8984371,1.7032 a 0.25028832,0.25028832 0 0 0 0.4433591,0.2324 l 0.896485,-1.7031 a 0.25002497,0.25002497 0 0 0 -0.226563,-0.3692 z"/><path style="color:#000000;font-style:normal;font-variant:normal;font-weight:normal;font-stretch:normal;font-size:medium;line-height:normal;font-family:sans-serif;text-indent:0;text-align:start;text-decoration:none;text-decoration-line:none;text-decoration-style:solid;text-decoration-color:#000000;letter-spacing:normal;word-spacing:normal;text-transform:none;direction:ltr;block-progression:tb;writing-mode:lr-tb;baseline-shift:baseline;text-anchor:start;white-space:normal;clip-rule:nonzero;display:inline;overflow:visible;visibility:visible;opacity:1;isolation:auto;mix-blend-mode:normal;color-interpolation:sRGB;color-interpolation-filters:linearRGB;solid-color:#000000;solid-opacity:1;fill:#000000;fill-opacity:1;fill-rule:evenodd;stroke:none;stroke-width:0.49999994;stroke-linecap:round;stroke-linejoin:round;stroke-miterlimit:4;stroke-dasharray:none;stroke-dashoffset:0;stroke-opacity:1;color-rendering:auto;image-rendering:auto;shape-rendering:auto;text-rendering:auto;enable-background:accumulate" d="m 11.715393,1030.493 a 0.25002497,0.25002497 0 0 0 -0.216797,0.1348 l -1.005859,1.8809 a 0.25033824,0.25033824 0 1 0 0.441406,0.2363 l 1.005859,-1.8809 a 0.25002497,0.25002497 0 0 0 -0.224609,-0.3711 z"/><path style="color:#000000;font-style:normal;font-variant:normal;font-weight:normal;font-stretch:normal;font-size:medium;line-height:normal;font-family:sans-serif;text-indent:0;text-align:start;text-decoration:none;text-decoration-line:none;text-decoration-style:solid;text-decoration-color:#000000;letter-spacing:normal;word-spacing:normal;text-transform:none;direction:ltr;block-progression:tb;writing-mode:lr-tb;baseline-shift:baseline;text-anchor:start;white-space:normal;clip-rule:nonzero;display:inline;overflow:visible;visibility:visible;opacity:1;isolation:auto;mix-blend-mode:normal;color-interpolation:sRGB;color-interpolation-filters:linearRGB;solid-color:#000000;solid-opacity:1;fill:#000000;fill-opacity:1;fill-rule:evenodd;stroke:none;stroke-width:0.49999994;stroke-linecap:round;stroke-linejoin:round;stroke-miterlimit:4;stroke-dasharray:none;stroke-dashoffset:0;stroke-opacity:1;color-rendering:auto;image-rendering:auto;shape-rendering:auto;text-rendering:auto;enable-background:accumulate" d="m 12.830627,1031.7313 a 0.25002497,0.25002497 0 0 0 -0.203125,0.1153 l -1.451172,2.2148 a 0.25108746,0.25108746 0 1 0 0.419922,0.2754 l 1.449219,-2.2149 a 0.25002497,0.25002497 0 0 0 -0.214844,-0.3906 z"/><path style="color:#000000;font-style:normal;font-variant:normal;font-weight:normal;font-stretch:normal;font-size:medium;line-height:normal;font-family:sans-serif;text-indent:0;text-align:start;text-decoration:none;text-decoration-line:none;text-decoration-style:solid;text-decoration-color:#000000;letter-spacing:normal;word-spacing:normal;text-transform:none;direction:ltr;block-progression:tb;writing-mode:lr-tb;baseline-shift:baseline;text-anchor:start;white-space:normal;clip-rule:nonzero;display:inline;overflow:visible;visibility:visible;opacity:1;isolation:auto;mix-blend-mode:normal;color-interpolation:sRGB;color-interpolation-filters:linearRGB;solid-color:#000000;solid-opacity:1;fill:#000000;fill-opacity:1;fill-rule:evenodd;stroke:none;stroke-width:0.49999994;stroke-linecap:round;stroke-linejoin:round;stroke-miterlimit:4;stroke-dasharray:none;stroke-dashoffset:0;stroke-opacity:1;color-rendering:auto;image-rendering:auto;shape-rendering:auto;text-rendering:auto;enable-background:accumulate" d="m 25.857971,1022.0145 a 0.25002497,0.25002497 0 0 0 -0.13086,0.047 l -3.195312,2.2363 a 0.25002497,0.25002497 0 1 0 0.287109,0.4082 l 3.19336,-2.2343 a 0.25002497,0.25002497 0 0 0 -0.154297,-0.4571 z"/><path style="color:#000000;font-style:normal;font-variant:normal;font-weight:normal;font-stretch:normal;font-size:medium;line-height:normal;font-family:sans-serif;text-indent:0;text-align:start;text-decoration:none;text-decoration-line:none;text-decoration-style:solid;text-decoration-color:#000000;letter-spacing:normal;word-spacing:normal;text-transform:none;direction:ltr;block-progression:tb;writing-mode:lr-tb;baseline-shift:baseline;text-anchor:start;white-space:normal;clip-rule:nonzero;display:inline;overflow:visible;visibility:visible;opacity:1;isolation:auto;mix-blend-mode:normal;color-interpolation:sRGB;color-interpolation-filters:linearRGB;solid-color:#000000;solid-opacity:1;fill:#000000;fill-opacity:1;fill-rule:evenodd;stroke:none;stroke-width:0.49999994;stroke-linecap:round;stroke-linejoin:round;stroke-miterlimit:4;stroke-dasharray:none;stroke-dashoffset:0;stroke-opacity:1;color-rendering:auto;image-rendering:auto;shape-rendering:auto;text-rendering:auto;enable-background:accumulate" d="m 24.865783,1024.2723 a 0.25002497,0.25002497 0 0 0 -0.132812,0.047 l -2.550781,1.7324 a 0.25002497,0.25002497 0 1 0 0.28125,0.4121 l 2.550781,-1.7324 a 0.25002497,0.25002497 0 0 0 -0.148438,-0.459 z"/><path style="color:#000000;font-style:normal;font-variant:normal;font-weight:normal;font-stretch:normal;font-size:medium;line-height:normal;font-family:sans-serif;text-indent:0;text-align:start;text-decoration:none;text-decoration-line:none;text-decoration-style:solid;text-decoration-color:#000000;letter-spacing:normal;word-spacing:normal;text-transform:none;direction:ltr;block-progression:tb;writing-mode:lr-tb;baseline-shift:baseline;text-anchor:start;white-space:normal;clip-rule:nonzero;display:inline;overflow:visible;visibility:visible;opacity:1;isolation:auto;mix-blend-mode:normal;color-interpolation:sRGB;color-interpolation-filters:linearRGB;solid-color:#000000;solid-opacity:1;fill:#000000;fill-opacity:1;fill-rule:evenodd;stroke:none;stroke-width:0.49999994;stroke-linecap:round;stroke-linejoin:round;stroke-miterlimit:4;stroke-dasharray:none;stroke-dashoffset:0;stroke-opacity:1;color-rendering:auto;image-rendering:auto;shape-rendering:auto;text-rendering:auto;enable-background:accumulate" d="m 23.584533,1026.5985 a 0.25002497,0.25002497 0 0 0 -0.132812,0.047 l -2.308594,1.6152 a 0.25002497,0.25002497 0 1 0 0.285156,0.4102 l 2.310547,-1.6153 a 0.25002497,0.25002497 0 0 0 -0.154297,-0.457 z"/><path style="color:#000000;font-style:normal;font-variant:normal;font-weight:normal;font-stretch:normal;font-size:medium;line-height:normal;font-family:sans-serif;text-indent:0;text-align:start;text-decoration:none;text-decoration-line:none;text-decoration-style:solid;text-decoration-color:#000000;letter-spacing:normal;word-spacing:normal;text-transform:none;direction:ltr;block-progression:tb;writing-mode:lr-tb;baseline-shift:baseline;text-anchor:start;white-space:normal;clip-rule:nonzero;display:inline;overflow:visible;visibility:visible;opacity:1;isolation:auto;mix-blend-mode:normal;color-interpolation:sRGB;color-interpolation-filters:linearRGB;solid-color:#000000;solid-opacity:1;fill:#000000;fill-opacity:1;fill-rule:evenodd;stroke:none;stroke-width:0.49999994;stroke-linecap:round;stroke-linejoin:round;stroke-miterlimit:4;stroke-dasharray:none;stroke-dashoffset:0;stroke-opacity:1;color-rendering:auto;image-rendering:auto;shape-rendering:auto;text-rendering:auto;enable-background:accumulate" d="m 22.772033,1028.4501 a 0.25002497,0.25002497 0 0 0 -0.132812,0.043 l -2.201172,1.4375 a 0.25002497,0.25002497 0 1 0 0.273438,0.418 l 2.201171,-1.4355 a 0.25002497,0.25002497 0 0 0 -0.140625,-0.4629 z"/><path style="color:#000000;font-style:normal;font-variant:normal;font-weight:normal;font-stretch:normal;font-size:medium;line-height:normal;font-family:sans-serif;text-indent:0;text-align:start;text-decoration:none;text-decoration-line:none;text-decoration-style:solid;text-decoration-color:#000000;letter-spacing:normal;word-spacing:normal;text-transform:none;direction:ltr;block-progression:tb;writing-mode:lr-tb;baseline-shift:baseline;text-anchor:start;white-space:normal;clip-rule:nonzero;display:inline;overflow:visible;visibility:visible;opacity:1;isolation:auto;mix-blend-mode:normal;color-interpolation:sRGB;color-interpolation-filters:linearRGB;solid-color:#000000;solid-opacity:1;fill:#000000;fill-opacity:1;fill-rule:evenodd;stroke:none;stroke-width:0.49999994;stroke-linecap:round;stroke-linejoin:round;stroke-miterlimit:4;stroke-dasharray:none;stroke-dashoffset:0;stroke-opacity:1;color-rendering:auto;image-rendering:auto;shape-rendering:auto;text-rendering:auto;enable-background:accumulate" d="m 22.047424,1030.0321 a 0.25002497,0.25002497 0 0 0 -0.128906,0.055 l -2.082031,1.6367 a 0.25002497,0.25002497 0 1 0 0.308593,0.3926 l 2.082031,-1.6367 a 0.25002497,0.25002497 0 0 0 -0.179687,-0.4473 z"/><path style="color:#000000;font-style:normal;font-variant:normal;font-weight:normal;font-stretch:normal;font-size:medium;line-height:normal;font-family:sans-serif;text-indent:0;text-align:start;text-decoration:none;text-decoration-line:none;text-decoration-style:solid;text-decoration-color:#000000;letter-spacing:normal;word-spacing:normal;text-transform:none;direction:ltr;block-progression:tb;writing-mode:lr-tb;baseline-shift:baseline;text-anchor:start;white-space:normal;clip-rule:nonzero;display:inline;overflow:visible;visibility:visible;opacity:1;isolation:auto;mix-blend-mode:normal;color-interpolation:sRGB;color-interpolation-filters:linearRGB;solid-color:#000000;solid-opacity:1;fill:#000000;fill-opacity:1;fill-rule:evenodd;stroke:none;stroke-width:0.49999994;stroke-linecap:round;stroke-linejoin:round;stroke-miterlimit:4;stroke-dasharray:none;stroke-dashoffset:0;stroke-opacity:1;color-rendering:auto;image-rendering:auto;shape-rendering:auto;text-rendering:auto;enable-background:accumulate" d="m 21.27008,1031.743 a 0.25002497,0.25002497 0 0 0 -0.15625,0.055 l -1.632812,1.2559 a 0.25002497,0.25002497 0 1 0 0.304687,0.3965 l 1.632813,-1.2559 a 0.25002497,0.25002497 0 0 0 -0.148438,-0.4512 z"/><path style="color:#000000;font-style:normal;font-variant:normal;font-weight:normal;font-stretch:normal;font-size:medium;line-height:normal;font-family:sans-serif;text-indent:0;text-align:start;text-decoration:none;text-decoration-line:none;text-decoration-style:solid;text-decoration-color:#000000;letter-spacing:normal;word-spacing:normal;text-transform:none;direction:ltr;block-progression:tb;writing-mode:lr-tb;baseline-shift:baseline;text-anchor:start;white-space:normal;clip-rule:nonzero;display:inline;overflow:visible;visibility:visible;opacity:1;isolation:auto;mix-blend-mode:normal;color-interpolation:sRGB;color-interpolation-filters:linearRGB;solid-color:#000000;solid-opacity:1;fill:#000000;fill-opacity:1;fill-rule:evenodd;stroke:none;stroke-width:0.99999988px;stroke-linecap:butt;stroke-linejoin:miter;stroke-miterlimit:4;stroke-dasharray:none;stroke-dashoffset:0;stroke-opacity:1;color-rendering:auto;image-rendering:auto;shape-rendering:auto;text-rendering:auto;enable-background:accumulate" d="m 17.436096,1036.0243 c -0.798109,-0.1069 -1.611903,-0.099 -2.400391,0.055 l -0.002,0 c -1.376258,0.2734 -2.524271,1.133 -3.505859,1.9394 -0.891634,0.735 -1.6959453,1.6346 -2.259766,2.6778 l -0.00195,0 c -0.5462494,1.0221 -0.8771759,2.1719 -0.9882812,3.3242 l -0.00391,0.035 -0.00195,0.018 c -0.052856,1.2383 0.2213805,2.4881 0.6875,3.6015 l 0.00195,0 0,0 c 0.3434985,0.8016 0.8747759,1.5087 1.4765622,2.0996 0.813393,0.8025 1.770186,1.5748 2.914062,1.9883 1.480486,0.5361 3.159645,0.7715 4.744141,0.4532 l 0.002,0 c 1.685836,-0.3438 3.180036,-1.3156 4.429688,-2.3926 l 0,0 c 0.994477,-0.8598 1.975277,-1.9281 2.433594,-3.2696 l 0,0 c 0.502164,-1.4747 0.533497,-3.1576 0.07812,-4.6485 -0.331504,-1.0773 -1.122495,-1.872 -1.785156,-2.5605 -0.982728,-1.0221 -2.091453,-2.1085 -3.511718,-2.6836 -5.72e-4,-2e-4 -0.0014,2e-4 -0.002,0 -0.725708,-0.3074 -1.507206,-0.5299 -2.304687,-0.6367 z m -0.130859,0.9941 c 0.703038,0.094 1.400284,0.2885 2.046874,0.5625 l 0.0039,0 0.0039,0 c 1.179074,0.4754 2.207752,1.4484 3.173828,2.4532 0.662583,0.6884 1.31242,1.3918 1.548828,2.1601 0.388972,1.2735 0.361724,2.7703 -0.06836,4.0332 -0.367965,1.077 -1.213992,2.0368 -2.140625,2.8379 -1.174471,1.012 -2.54188,1.8797 -3.974609,2.1719 -1.354882,0.2722 -2.868857,0.072 -4.207032,-0.4121 -0.932551,-0.3371 -1.791909,-1.0112 -2.552734,-1.7617 -0.525122,-0.5157 -0.976214,-1.1266 -1.2558596,-1.7774 l 0,0 c -0.4156806,-0.9936 -0.6558402,-2.1073 -0.6113281,-3.1661 l 0,0 c 0.098884,-1.0256 0.3986437,-2.0523 0.8769537,-2.9472 0.488416,-0.9027 1.20683,-1.7142 2.015624,-2.3809 0.948642,-0.7792 1.984748,-1.5136 3.0625,-1.7285 0.666443,-0.1302 1.375087,-0.1371 2.078126,-0.043 z"/><path style="color:#000000;font-style:normal;font-variant:normal;font-weight:normal;font-stretch:normal;font-size:medium;line-height:normal;font-family:sans-serif;text-indent:0;text-align:start;text-decoration:none;text-decoration-line:none;text-decoration-style:solid;text-decoration-color:#000000;letter-spacing:normal;word-spacing:normal;text-transform:none;direction:ltr;block-progression:tb;writing-mode:lr-tb;baseline-shift:baseline;text-anchor:start;white-space:normal;clip-rule:nonzero;display:inline;overflow:visible;visibility:visible;opacity:1;isolation:auto;mix-blend-mode:normal;color-interpolation:sRGB;color-interpolation-filters:linearRGB;solid-color:#000000;solid-opacity:1;fill:#000000;fill-opacity:1;fill-rule:evenodd;stroke:none;stroke-width:0.99999988px;stroke-linecap:butt;stroke-linejoin:miter;stroke-miterlimit:4;stroke-dasharray:none;stroke-dashoffset:0;stroke-opacity:1;color-rendering:auto;image-rendering:auto;shape-rendering:auto;text-rendering:auto;enable-background:accumulate" d="m 15.688049,1039.034 c -0.900904,0.1788 -1.624715,0.7278 -2.232422,1.2266 l -0.002,0 c -0.562291,0.4631 -1.071546,1.0314 -1.431641,1.6972 l -0.002,0 c -0.34764,0.6504 -0.556543,1.3771 -0.626953,2.1074 l -0.0039,0.022 0,0.022 c -0.03383,0.7927 0.140067,1.5823 0.435547,2.2871 l 0.002,0 0,0 c 0.222964,0.5197 0.565413,0.9713 0.949219,1.3476 0.508611,0.5012 1.114537,0.9956 1.855468,1.2637 0.93479,0.3381 1.996247,0.4869 3.011719,0.2832 1.082025,-0.2204 2.022427,-0.8361 2.802734,-1.5078 l 0,0 c 0.622565,-0.5378 1.250474,-1.2132 1.548829,-2.086 0.321758,-0.9441 0.340707,-2.0118 0.04883,-2.9668 -0.221387,-0.7187 -0.732629,-1.2232 -1.138672,-1.6445 -0.6068,-0.6306 -1.305285,-1.3204 -2.224609,-1.6914 l -0.002,0 c -0.91895,-0.3875 -1.978165,-0.5621 -2.988281,-0.3653 l -0.002,0 z m 0.193359,0.9825 c 0.769838,-0.1501 1.654306,-0.016 2.416016,0.3066 l 0.0039,0 0.0039,0 c 0.675418,0.2722 1.290438,0.8475 1.878906,1.4589 0.40606,0.4214 0.777842,0.8337 0.904297,1.2442 l -0.002,0 c 0.22544,0.7376 0.210489,1.6193 -0.03906,2.3516 -0.208134,0.6075 -0.699537,1.1734 -1.253906,1.6523 -0.704971,0.6069 -1.518596,1.1158 -2.347657,1.2852 -0.785915,0.1576 -1.681838,0.043 -2.474609,-0.2442 -0.531006,-0.1921 -1.038094,-0.5857 -1.494141,-1.0351 l -0.002,0 c -0.306824,-0.3009 -0.567424,-0.6563 -0.726562,-1.0254 l 0,0 c -0.244596,-0.5841 -0.382482,-1.2371 -0.357422,-1.8496 0.05859,-0.6019 0.232605,-1.2063 0.511719,-1.7285 0.284545,-0.5252 0.707986,-1.0035 1.1875,-1.3985 0.575027,-0.4719 1.187794,-0.8971 1.791015,-1.0175 z"/><path style="color:#000000;font-style:normal;font-variant:normal;font-weight:normal;font-stretch:normal;font-size:medium;line-height:normal;font-family:sans-serif;text-indent:0;text-align:start;text-decoration:none;text-decoration-line:none;text-decoration-style:solid;text-decoration-color:#000000;letter-spacing:normal;word-spacing:normal;text-transform:none;direction:ltr;block-progression:tb;writing-mode:lr-tb;baseline-shift:baseline;text-anchor:start;white-space:normal;clip-rule:nonzero;display:inline;overflow:visible;visibility:visible;opacity:1;isolation:auto;mix-blend-mode:normal;color-interpolation:sRGB;color-interpolation-filters:linearRGB;solid-color:#000000;solid-opacity:1;fill:#000000;fill-opacity:1;fill-rule:evenodd;stroke:none;stroke-width:0.49999997;stroke-linecap:round;stroke-linejoin:round;stroke-miterlimit:4;stroke-dasharray:none;stroke-dashoffset:0;stroke-opacity:1;color-rendering:auto;image-rendering:auto;shape-rendering:auto;text-rendering:auto;enable-background:accumulate" d="m 16.639221,1041.1942 a 0.25002499,0.25002499 0 0 0 -0.238281,0.1816 l -0.550782,1.9415 -1.960937,0.3515 a 0.25002499,0.25002499 0 0 0 -0.07813,0.4649 l 1.541015,0.8554 -0.580078,2.0684 a 0.25002499,0.25002499 0 0 0 0.40625,0.2539 l 1.783204,-1.6035 1.976562,1.2695 a 0.25002499,0.25002499 0 0 0 0.359375,-0.3223 l -0.96875,-1.9335 1.560547,-1.2891 a 0.25002499,0.25002499 0 0 0 -0.173828,-0.4434 l -2.146485,0.1172 -0.695312,-1.7539 a 0.25002499,0.25002499 0 0 0 -0.234375,-0.1582 z m 0.04102,1.0274 0.490234,1.2363 a 0.25002499,0.25002499 0 0 0 0.246094,0.1582 l 1.568359,-0.086 -1.128906,0.9317 a 0.25002499,0.25002499 0 0 0 -0.06445,0.3047 l 0.65039,1.2968 -1.36914,-0.8789 a 0.25002499,0.25002499 0 0 0 -0.302735,0.024 l -1.285156,1.1562 0.402344,-1.4316 a 0.25002499,0.25002499 0 0 0 -0.119141,-0.2852 l -1.099609,-0.6093 1.423828,-0.2559 a 0.25002499,0.25002499 0 0 0 0.197265,-0.1797 l 0.390626,-1.3808 z"/><path style="color:#000000;font-style:normal;font-variant:normal;font-weight:normal;font-stretch:normal;font-size:medium;line-height:normal;font-family:sans-serif;text-indent:0;text-align:start;text-decoration:none;text-decoration-line:none;text-decoration-style:solid;text-decoration-color:#000000;letter-spacing:normal;word-spacing:normal;text-transform:none;direction:ltr;block-progression:tb;writing-mode:lr-tb;baseline-shift:baseline;text-anchor:start;white-space:normal;clip-rule:nonzero;display:inline;overflow:visible;visibility:visible;opacity:1;isolation:auto;mix-blend-mode:normal;color-interpolation:sRGB;color-interpolation-filters:linearRGB;solid-color:#000000;solid-opacity:1;fill:#000000;fill-opacity:1;fill-rule:evenodd;stroke:none;stroke-width:0.24999999;stroke-linecap:round;stroke-linejoin:round;stroke-miterlimit:4;stroke-dasharray:none;stroke-dashoffset:0;stroke-opacity:1;color-rendering:auto;image-rendering:auto;shape-rendering:auto;text-rendering:auto;enable-background:accumulate" d="m 15.449768,1044.0692 a 0.12501249,0.12501249 0 0 0 -0.08984,0.057 l -0.296875,0.4434 a 0.12541133,0.12541133 0 0 0 0.208984,0.1387 l 0.294922,-0.4434 a 0.12501249,0.12501249 0 0 0 -0.117187,-0.1953 z"/><path style="color:#000000;font-style:normal;font-variant:normal;font-weight:normal;font-stretch:normal;font-size:medium;line-height:normal;font-family:sans-serif;text-indent:0;text-align:start;text-decoration:none;text-decoration-line:none;text-decoration-style:solid;text-decoration-color:#000000;letter-spacing:normal;word-spacing:normal;text-transform:none;direction:ltr;block-progression:tb;writing-mode:lr-tb;baseline-shift:baseline;text-anchor:start;white-space:normal;clip-rule:nonzero;display:inline;overflow:visible;visibility:visible;opacity:1;isolation:auto;mix-blend-mode:normal;color-interpolation:sRGB;color-interpolation-filters:linearRGB;solid-color:#000000;solid-opacity:1;fill:#000000;fill-opacity:1;fill-rule:evenodd;stroke:none;stroke-width:0.24999999;stroke-linecap:round;stroke-linejoin:round;stroke-miterlimit:4;stroke-dasharray:none;stroke-dashoffset:0;stroke-opacity:1;color-rendering:auto;image-rendering:auto;shape-rendering:auto;text-rendering:auto;enable-background:accumulate" d="m 15.898987,1044.1122 a 0.12501249,0.12501249 0 0 0 -0.08984,0.055 l -0.423828,0.6132 a 0.12501249,0.12501249 0 1 0 0.205078,0.1426 l 0.423828,-0.6133 a 0.12501249,0.12501249 0 0 0 -0.115234,-0.1972 z"/><path style="color:#000000;font-style:normal;font-variant:normal;font-weight:normal;font-stretch:normal;font-size:medium;line-height:normal;font-family:sans-serif;text-indent:0;text-align:start;text-decoration:none;text-decoration-line:none;text-decoration-style:solid;text-decoration-color:#000000;letter-spacing:normal;word-spacing:normal;text-transform:none;direction:ltr;block-progression:tb;writing-mode:lr-tb;baseline-shift:baseline;text-anchor:start;white-space:normal;clip-rule:nonzero;display:inline;overflow:visible;visibility:visible;opacity:1;isolation:auto;mix-blend-mode:normal;color-interpolation:sRGB;color-interpolation-filters:linearRGB;solid-color:#000000;solid-opacity:1;fill:#000000;fill-opacity:1;fill-rule:evenodd;stroke:none;stroke-width:0.24999999;stroke-linecap:round;stroke-linejoin:round;stroke-miterlimit:4;stroke-dasharray:none;stroke-dashoffset:0;stroke-opacity:1;color-rendering:auto;image-rendering:auto;shape-rendering:auto;text-rendering:auto;enable-background:accumulate" d="m 16.180237,1044.4188 a 0.12501249,0.12501249 0 0 0 -0.08203,0.045 l -0.464844,0.5489 a 0.12501249,0.12501249 0 1 0 0.189454,0.1621 l 0.466796,-0.5489 a 0.12501249,0.12501249 0 0 0 -0.109374,-0.207 z"/></g><text x="0" y="47" fill="#000000" font-size="5px" font-weight="bold" font-family="'Helvetica Neue', Helvetica, Arial-Unicode, Arial, Sans-serif">Created by P Thanga Vignesh</text><text x="0" y="52" fill="#000000" font-size="5px" font-weight="bold" font-family="'Helvetica Neue', Helvetica, Arial-Unicode, Arial, Sans-serif">from the Noun Project</text></svg>