<svg xmlns="http://www.w3.org/2000/svg" xmlns:xlink="http://www.w3.org/1999/xlink" version="1.1" x="0px" y="0px" viewBox="0 0 500 625" enable-background="new 0 0 500 500" xml:space="preserve"><g><path d="M310.957,294.774c-1.161-7.953-1.145-17.855-1.122-28.612c0.026-12.13,0.057-25.266-1.707-37.347   c-0.638-4.371-1.514-8.624-2.718-12.664c-5.425-18.199-17.447-31.741-31.693-38.164c3.169-13.651,6.68-28.744,0.559-37.292   c-3.299-4.607-9.123-7.064-14.763-7.438c-5.386-0.357-11.1,1.157-14.71,5.117c-6.891,7.558-4.933,23.226-3.126,37.431   c-15.601,4.646-29.756,17.317-37.092,35.6c-5.908,14.726-7.385,33.106-8.736,49.718c-0.858,10.547-1.66,20.364-3.436,28.382   c-4.534,20.467-15.451,29.295-26.808,38.454c-0.656,0.529-0.91,1.412-0.635,2.208c0.274,0.797,1.018,1.336,1.861,1.348   l117.534,1.774l7.207,10.14c0.049,0.069,0.108,0.126,0.164,0.187c-3.06,6.838-0.803,15.198,5.623,19.885   c7.34,5.355,17.581,4.068,22.831-3.128l0,0c5.25-7.197,3.348-17.341-3.992-22.696c-7.047-5.141-16.754-4.145-22.166,2.309   l-4.708-6.623l44.349,0.669c0.866,0.013,1.643-0.533,1.923-1.353c0.28-0.82,0-1.727-0.693-2.247   C324.124,322.35,313.857,314.632,310.957,294.774z M313.841,340.911c5.689,4.15,6.971,11.826,3.118,17.107h0   c-3.853,5.282-11.553,6.405-17.242,2.254s-6.971-11.826-3.118-17.107l0,0C300.452,337.884,308.152,336.761,313.841,340.911z    M247.759,141.071c2.538-2.783,6.888-4.125,11.49-3.821c4.815,0.319,9.363,2.408,11.775,5.775   c4.763,6.652,2.222,19.204-1.065,33.453c-0.766-0.271-1.538-0.519-2.314-0.75c1.369-5.279,2.789-11.042,1.911-15.962   c-0.931-5.218-4.502-9.742-9.07-10.7h0c-0.401-0.084-0.805-0.139-1.209-0.166c-4.289-0.284-8.448,2.549-10.307,7.231   c-1.933,4.867-1.41,11.91-0.958,18.253c-0.81,0.125-1.619,0.266-2.424,0.435C243.713,159.916,242.447,146.896,247.759,141.071z    M256.868,173.886h-0.001h-0.001c-0.655-0.03-1.31-0.044-1.966-0.044c-0.97,0-1.941,0.042-2.91,0.106   c-0.47-6.64-0.813-12.54,0.696-16.34c1.327-3.341,4.044-4.867,6.325-4.716c0.22,0.015,0.438,0.044,0.653,0.09   c2.522,0.529,5.219,3.37,5.953,7.488c0.704,3.944-0.446,8.83-1.855,14.287C261.487,174.291,259.184,173.991,256.868,173.886   L256.868,173.886z M196.318,290.372c1.848-8.342,2.667-18.461,3.517-28.923c1.364-16.777,2.823-34.5,8.461-48.553   c8.854-22.069,28.032-35.053,46.603-35.053c0.595,0,1.192,0.013,1.786,0.04h0.001h0.001c19.106,0.861,37.82,15.693,44.89,39.412   c1.137,3.816,1.976,7.875,2.593,12.1c1.714,11.737,1.691,24.569,1.665,36.76c-0.023,10.658-0.049,20.891,1.164,29.198   c2.681,18.356,11.388,27.282,20.667,34.592L172.382,327.6C182.413,319.273,192.07,309.552,196.318,290.372z"/><path d="M348.13,268.874c-0.783-0.779-2.049-0.776-2.828,0.007c-0.779,0.783-0.776,2.05,0.007,2.829   c5.486,5.458,10.129,10.205,10.835,14.938c0.694,4.652-2.381,9.768-6.163,15.82c-0.585,0.937-0.301,2.171,0.636,2.756   c0.937,0.585,2.171,0.301,2.756-0.636c3.489-5.583,7.686-12.104,6.727-18.53C359.154,279.711,353.22,273.937,348.13,268.874z"/><path d="M358.025,248.501c-0.849-0.707-2.11-0.593-2.817,0.256c-0.707,0.849-0.593,2.11,0.256,2.817   c9.374,7.813,17.802,14.968,19.325,23.989c1.542,9.133-3.872,20.626-9.817,33.03c-0.477,0.996-0.057,2.191,0.939,2.668   s2.191,0.057,2.668-0.939c5.713-11.92,11.956-24.751,10.154-35.425C376.912,264.111,366.996,255.978,358.025,248.501z"/><path d="M385.534,234.705c-0.678-0.872-1.935-1.029-2.807-0.351c-0.872,0.678-1.029,1.935-0.351,2.806   c7.644,9.829,14.749,19.063,15.264,30.926c0.524,12.057-5.703,27.062-12.244,42.703c-0.426,1.019,0.055,2.191,1.074,2.617   c1.019,0.426,2.19-0.054,2.617-1.073c6.404-15.316,13.121-31.267,12.55-44.42C401.057,254.566,393.026,244.338,385.534,234.705z"/><path d="M176.576,257.426c0.779-0.783,0.777-2.049-0.006-2.828c-0.783-0.779-2.049-0.777-2.828,0.006   c-6.348,6.375-13.535,13.461-14.557,21.524c-1.023,8.069,4.187,16.647,8.752,24.326c0.564,0.949,1.792,1.261,2.741,0.697   s1.261-1.792,0.697-2.741c-4.839-8.138-9.034-15.376-8.222-21.779C163.965,270.221,169.851,264.18,176.576,257.426z"/><path d="M156.161,236.017c-0.864-0.688-2.123-0.544-2.81,0.32c-8.526,10.719-17.539,21.973-19.842,33.813   c-2.315,11.905,2.192,24.131,6.39,35.665c0.378,1.038,1.526,1.573,2.563,1.195c1.038-0.378,1.573-1.525,1.195-2.563   c-4.298-11.807-8.286-22.922-6.223-33.533c2.076-10.677,10.317-21.114,19.046-32.087   C157.169,237.963,157.025,236.705,156.161,236.017z"/><path d="M126.852,227.358c-11.812,10.685-24.382,21.953-27.626,35.48c-3.248,13.541,2.937,28.962,8.695,43.515   c0.406,1.027,1.568,1.53,2.595,1.124c1.027-0.406,1.53-1.569,1.124-2.596c-5.921-14.963-11.415-29.059-8.525-41.11   c2.894-12.065,14.278-22.464,26.42-33.447c0.819-0.741,0.883-2.006,0.142-2.825C128.936,226.68,127.671,226.617,126.852,227.358z"/></g><text x="0" y="515" fill="#000000" font-size="5px" font-weight="bold" font-family="'Helvetica Neue', Helvetica, Arial-Unicode, Arial, Sans-serif">Created by anggun</text><text x="0" y="520" fill="#000000" font-size="5px" font-weight="bold" font-family="'Helvetica Neue', Helvetica, Arial-Unicode, Arial, Sans-serif">from the Noun Project</text></svg>