<svg xmlns="http://www.w3.org/2000/svg" version="1.1" viewBox="-5.0 -10.0 110.0 135.0">
 <path d="m12.469 61.406c-0.9375-0.070312-1.6094-0.14453-1.9727-0.21094-0.66016-0.125-0.94531-0.45703-1.0273-0.57812-0.19141-0.28516-0.4375-1.168-0.55859-2.543-0.31641-3.5391-0.35156-11.043-0.12891-18.637 0.25391-8.7383 0.86328-17.594 1.7422-20.742 0.089843-0.31641 0.30078-0.64844 0.73047-0.90234 0.53906-0.31641 1.8242-0.54688 3.3906-0.62109 1.0859-0.050781 2.3242-0.03125 3.4883-0.03125 1.3789 0 9.2734 0.79297 10.898 0.81641 13.336 0.16797 32.66 0.52734 41.133 0.30078 3.5742-0.10547 7.1523 0.03125 10.727-0.003906 0.88281-0.007812 1.7617-0.03125 2.6445-0.070312 0.94922-0.042969 2.4336-0.35938 3.6328-0.19531 0.77734 0.10547 1.4492 0.39844 1.9414 0.91016 0.21484 0.22266 0.52344 0.97266 0.70312 2.2031 0.40234 2.8047 0.69141 8.7695 0.84766 15.297 0.20703 8.6875 0.29297 18.379 0.042969 22.863-0.10547 1.8633-0.40234 2.9844-0.50781 3.125-0.050781 0.074219-0.44922 0.51172-1.3516 0.56641-0.65234 0.039063-1.9492 0.058594-3.7617 0.066406-0.625 1.6562-1.8711 3.082-3.8242 3.9023 1.1367 0.40625 2.1094 1.0156 2.9414 1.7852 2.4258 2.2305 3.6484 5.8281 4.2734 9.6406 0.09375 0.57031 0.52734 3.3984 0.55469 5.0742 0.011718 0.71484-0.085938 1.2656-0.21875 1.5234-0.11328 0.22266-0.26562 0.35938-0.41797 0.45313-0.43359 0.26562-4.1602 0.61328-8.3633 0.70703-2.7461 0.0625-5.7031 0.039062-7.9844-0.015625-1.7188-0.039063-3.0664-0.10938-3.6953-0.20312-0.34375-0.050781-0.59766-0.16406-0.78516-0.30078-1.3828 0.21875-4.3398 0.44531-7.582 0.51562-2.7461 0.0625-5.7031 0.039063-7.9844-0.015624-1.7188-0.039063-3.0664-0.10938-3.6953-0.20313-0.92578-0.13281-1.2109-0.75391-1.25-0.91406-0.13281-0.57031-0.30469-5.8047 0.54688-10.309 0.54688-2.8867 1.5742-5.4531 3.1055-6.5469 0.88281-0.63281 2.0117-1.1797 3.2656-1.5625-1.4531-0.91406-2.5078-2.3398-3.0977-3.9414-3.0078-0.058594-6.0273-0.12109-8.9844-0.1875-1.3789-0.03125-2.7422-0.0625-4.0898-0.097656-0.039063 0.78906 0.015625 1.6016-0.023437 2.1953-0.058594 0.875-0.36719 6.2734-0.62891 9.4805-0.11328 1.3945-0.24609 2.4141-0.32422 2.6133-0.097656 0.25781-0.35547 0.58203-0.88672 0.79297-0.70703 0.28125-2.3008 0.49219-4.3555 0.60938-6.3281 0.36328-17.246 0.027344-18.453-0.14062-0.25-0.035156-0.48438-0.15625-0.66406-0.39844-0.12109-0.16797-0.21094-0.69531-0.21484-0.73437-0.066406-1.0156-1.0625-8.0547 0.066406-14.551 0.046875-0.26562 0.09375-0.52734 0.14844-0.78906zm67.695 6.4805c-1.0781 0.023437-3.6484 0.14844-5.1016 0.53906-1.1953 0.32031-2.2734 0.80469-3.0938 1.3906-1.2031 0.86719-1.8242 2.9648-2.2539 5.2383-0.63672 3.3906-0.69141 7.2305-0.62109 8.7773 0.29688 0.027344 0.67188 0.058594 1.0391 0.078125 2.4688 0.125 6.8555 0.14062 10.656 0.11719 2.2812-0.011719 4.3516-0.023438 5.6602-0.10547 0.29297-0.019531 0.58594-0.11328 0.80078-0.16016 0.089844-1.4688-0.32422-4.582-0.40625-5.168-0.40625-2.8672-1.1602-5.6055-2.6055-7.6641-0.98828-1.4102-2.3086-2.4883-4.0781-3.0469zm-13.137 12.574c-0.09375-0.87109-0.19141-1.6055-0.22656-1.8633-0.40625-2.8672-1.1641-5.6055-2.6055-7.6641-0.98828-1.4102-2.3086-2.4883-4.0781-3.0469-1.1758-0.039063-3.6484 0.14844-5.1016 0.53906-1.1953 0.32031-2.2734 0.80469-3.0938 1.3906-1.2031 0.86719-1.8242 2.9648-2.2539 5.2383-0.63672 3.3906-0.69141 7.2305-0.62109 8.7773 0.29688 0.027344 0.67188 0.058594 1.0391 0.078125 2.4688 0.125 6.8555 0.14062 10.656 0.11719 2.2812-0.011719 4.3516-0.023438 5.6602-0.10547 0.21094-0.011719 0.42188-0.066406 0.60156-0.10938-0.03125-0.82031-0.035156-2.0039 0.019532-3.3516zm-41.656-27.598c-1.1602-0.17578-3.4805-0.23438-3.6719-0.21484-1.4141 0.14062-2.7461 0.64844-3.8867 1.7969-1.9961 1.9961-3.0352 4.9805-3.5781 8.0898-0.97266 5.5508-0.33203 11.512-0.125 13.512 1.7773 0.10938 6.1836 0.24609 10.57 0.25 3.4531 0.003906 6.8906-0.074219 9.0195-0.32031 0.625-0.074218 1.1797-0.38672 1.4531-0.38672 0.066406-0.55078 0.14453-1.6367 0.24219-2.9102 0.24219-3.1992 0.5-7.5078 0.55469-8.2812 0.0625-0.85938-0.054688-2.1523 0.14453-3.2148 0.12109-0.64453 0.35156-1.2148 0.71875-1.6445 1.9883-2.3125 8.1055-5.5625 11.254-9.25 1.3125-1.5352 2.1016-3.1367 1.4766-4.7773-0.0625-0.15625-0.12109-0.26172-0.19531-0.34375-0.17578-0.19922-0.40234-0.28125-0.71094-0.49219-1.3906-0.98438-3-0.46094-4.5977 0.45312-2.6523 1.5156-5.2422 4.2422-6.9102 5.6094-0.45703 0.375-1.2461 1.1523-2.0352 1.9648-0.42188 0.43359-0.83203 0.88672-1.2344 1.2656-0.54688 0.51562-1.8047 0.18359-2.2422 0.13672-1.0547-0.11328-2.1406-0.42188-3.2578-0.66797-0.98828-0.21875-1.9883-0.41797-2.9805-0.57031zm39.723 9.9922c-0.60547 1.7305-1.8672 3.2266-3.8867 4.0742 1.1367 0.40625 2.1094 1.0156 2.9414 1.7852 1.6523 1.5156 2.7422 3.668 3.4688 6.0859 0.007812-0.042969 0.015624-0.085937 0.023437-0.13281 0.54688-2.8867 1.5742-5.4531 3.1055-6.5469 0.88281-0.63281 2.0117-1.1797 3.2656-1.5625-1.3555-0.85547-2.3633-2.1484-2.9727-3.6211-1.8984-0.023438-3.8906-0.050781-5.9492-0.078125zm13.418 3.0547c0.34375-0.035156 0.69922-0.097656 1.0703-0.19141 4.0586-1.0195 5.0469-4.9609 3.8125-8.0078-0.63281-1.5625-1.8516-2.7891-3.5352-3.3555-0.85156-0.28516-3.7656-0.66797-4.9258-0.074219-2.4062 1.2266-3.2617 3.7773-2.8984 6.207 0.41016 2.7461 2.3945 5.3242 5.5586 5.4531 0.30859-0.023437 0.61719-0.039062 0.92188-0.03125zm-20.047 0c0.34375-0.035156 0.69922-0.097656 1.0703-0.19141 4.0586-1.0195 5.0469-4.9609 3.8125-8.0078-0.95312-2.3555-3.2344-3.9453-6.4414-3.6641-0.26953 0.023437-1.875 0.15625-2.0234 0.23047-2.4062 1.2266-3.2617 3.7773-2.8984 6.207 0.41016 2.7461 2.3945 5.3242 5.5586 5.4531 0.30859-0.023438 0.61719-0.039062 0.92188-0.03125zm27.086-5.1875c1.1406-0.007812 2.0391-0.027344 2.6562-0.046875v-0.085937c-0.003906-0.16406-0.066406-0.32812-0.074219-0.51953-0.015624-0.37891 0.035157-0.81641 0.054688-1.3086 0.19531-5.4219 0.26953-17.273 0.0625-26.52-0.11328-5-0.29297-9.2305-0.60547-11.234-0.046875-0.29297-0.12109-0.60937-0.15625-0.73047-0.25391-0.20312-0.62109-0.23438-1.0039-0.25-1.0039-0.042969-2.125 0.18359-2.8789 0.20703-0.90234 0.027344-1.8047 0.039063-2.7109 0.035156-3.5625-0.003906-7.125-0.1875-10.691-0.125-7.3672 0.15234-22.91-0.13281-35.621-0.42578-2.707-0.0625-5.2852-0.09375-7.625-0.18359-1.5508-0.058594-7.707-0.082031-8.9023-0.125-1.5781-0.054687-3.2969-0.015625-4.5391 0.11719-0.32422 0.035156-0.69922 0.11719-0.92578 0.17188-0.80469 3.3516-1.3281 11.637-1.5664 19.812-0.21875 7.4844-0.18359 14.883 0.12891 18.367 0.039062 0.41406 0.10547 0.85156 0.15625 1.1562 0.41406 0.050782 0.99219 0.097656 1.7109 0.14844 0.71875-2.3672 1.8125-4.5195 3.4102-6.1172 0.91797-0.91406 1.9258-1.5312 2.9922-1.9102-1.6016-1.2422-2.7109-3.0156-3.2734-4.9805-0.86719-3.0195-0.46094-6.4883 1.4062-9.0977 1.1445-1.5977 3.4375-2.6953 5.9375-2.9258 0.86719-0.078125 2.9688-0.22266 3.6562-0.12891 1.918 0.26562 3.6484 1.3086 4.9062 2.9688 1.1406 1.5 1.8789 3.6484 1.8711 6.707-0.011719 2.6914-1.4609 5.2695-3.6016 7.0039-0.53516 0.43359-1.1133 0.81641-1.7188 1.1367 0.875 0.26172 2.5742 0.76562 2.5742 0.76562 0.47656 0.13672 1.0469-0.14453 1.1641-0.22656 0.45703-0.32031 0.8125-0.76562 1.2852-1.1875 0.89062-0.80078 1.6797-1.6797 2.1641-2.0781 2.0547-1.6758 5.4453-5.2891 8.7109-6.5312 0.96875-0.36719 1.9258-0.54688 2.8477-0.46484 0.69531-2.1445 2.5195-7.3398 4.3633-11.605 0.77734-1.7969 1.5547-3.4297 2.25-4.6055 0.050781-0.085938 0.085937-0.18359 0.15625-0.24609 0.10938-0.097656 0.1875-0.097656 0.3125-0.16016 0.12109-0.21875 0.39844-0.29297 0.61328-0.17188 0.21875 0.12109 0.29297 0.39844 0.17188 0.61328 0.015625 0.12891 0.0625 0.1875 0.042969 0.32422-0.007813 0.058594-0.046875 0.10547-0.070313 0.16016-0.21484 0.47656-0.43359 1.0273-0.68359 1.625-0.99219 2.3438-2.2305 5.4609-3.2617 8.3047-0.94531 2.6094-1.7539 4.9727-2.1602 6.25 0.24609 0.125 0.48437 0.26953 0.71875 0.44531 0.46094 0.34766 0.77344 0.53906 1.0312 0.85547 0.18359 0.23047 0.35937 0.51172 0.50781 0.94141 0.81641 2.2773-0.085938 4.5195-1.9102 6.6211-2.8984 3.3359-8.1914 6.3555-10.613 8.6172 3.75 0.089843 7.6484 0.17187 11.535 0.24609-0.26953-2.9531 0.93359-6.0234 3.9219-7.3281 0.26562-0.11719 1.2656-0.74609 2.3477-0.93359 4.1523-0.71484 7.1016 1.918 8.2969 5.0234 0.42969 1.1133 0.63281 2.3164 0.58984 3.4922 1.6914 0.023437 3.3359 0.042968 4.9219 0.0625-0.38672-3.0508 0.79297-6.293 3.8867-7.6445 2.3555-1.0273 4.9102-1.0469 5.9844-0.67188 2.2422 0.77734 3.8516 2.6602 4.6602 4.7617 0.44531 1.1602 0.64844 2.4102 0.58594 3.6328zm-60.738-9.8398c1.5117-0.11328 2.9922-0.78516 4.1992-1.7812 1.6367-1.3555 2.7891-3.3242 2.7812-5.3984-0.007813-2.457-0.55469-4.1914-1.4648-5.3984-0.93359-1.2383-2.2852-1.7461-3.6445-2.2344-0.11719-0.042968-2.25-0.51562-3.0312-0.41797-2.0117 0.24609-3.8906 1.043-4.793 2.3477-1.5391 2.2188-1.8438 5.1523-1.0547 7.6797 0.72656 2.3281 2.4102 4.3008 4.9141 4.9883 0.20312 0.003906 0.40625 0.015625 0.60938 0.03125 0.48828 0.035156 0.98438 0.10156 1.4805 0.1875z" fill-rule="evenodd"/>
<text x="0.0" y="117.5" font-size="5.0" font-weight="bold" font-family="Arbeit Regular, Helvetica, Arial-Unicode, Arial, Sans-serif" fill="#000000">Created by Agan24</text><text x="0.0" y="122.5" font-size="5.0" font-weight="bold" font-family="Arbeit Regular, Helvetica, Arial-Unicode, Arial, Sans-serif" fill="#000000">from Noun Project</text></svg>