<svg xmlns="http://www.w3.org/2000/svg" xmlns:xlink="http://www.w3.org/1999/xlink" version="1.1" x="0px" y="0px" viewBox="0 0 48 60" enable-background="new 0 0 48 48" xml:space="preserve"><g><g><g><path fill="#000000" d="M0.5,3.8c1.1,8.8,0.9,18.1,0.8,26.9c0,3.4-1.7,13.6,1.8,15.7c1.8,1.1,6.7,0,8.8,0     c5.1-0.1,10.3-0.2,15.4-0.3c4.5-0.1,9-0.2,13.5-0.3c1.9-0.1,4.7,0.6,5.7-1.3c0.9-1.8-0.1-6.4,0-8.5c0.2-4.3,0.7-8.6,1-13     c0.2-4.3,0.1-8.6-0.2-12.9c-0.1-1.3,0.3-6-1.2-6.9c-2.2-1.3-6.6-0.5-9.1-0.6C31.6,2.3,26.3,2.1,21,1.9C16.3,1.8,11.7,1.6,7,1.5     C4.6,1.4,2.6,1.7,0.7,3.2C0,3.7,0.9,4.6,1.5,4.1C4.2,2,7.9,2.8,11,2.9C14.3,3,17.7,3.1,21,3.2C28.3,3.4,35.6,3.7,42.9,4     c5.3,0.2,3.4,17.4,3.2,20.8c-0.2,3.1-0.5,6.2-0.8,9.3c-0.2,2.9,1.5,10.3-2.7,10.4c-6.4,0.2-12.8,0.3-19.3,0.5     C21,45,3.8,46.7,3.1,44.7c-2-6-0.4-13.6-0.8-19.8C2,17.9,2.6,10.8,1.7,3.8C1.6,3,0.4,3,0.5,3.8L0.5,3.8z"/></g></g><g><g><path fill="#000000" d="M6.7,13.1c-0.2,6.5-0.1,13,0.1,19.4c0.1,2.3-0.1,4.1,2.5,4.3c6.3,0.4,12.9-0.2,19.2-0.4     c1.5-0.1,10.5,0.7,11-1.2c1.3-4.8,0.3-11.1,0.4-16.1c0-1.7,1.4-7-1.4-7.3c-6.1-0.8-12.3-1-18.5-1c-3.8,0-10.2-1.3-13.1,1.7     c-0.6,0.6,0.3,1.5,0.9,0.9c2.4-2.4,9.2-1.3,12.3-1.4c4.3,0,8.6,0.1,13,0.4c1.8,0.1,5.7-0.2,5.7,2.9c0,1.9,0,3.8-0.1,5.7     c0,2.4,1.3,13.5-2.4,13.7c-8.3,0.5-16.6,0.7-25,0.8c-4.7,0-3.3-5.3-3.4-8.8c-0.1-4.5,0-9.1,0.1-13.6C7.9,12.3,6.7,12.3,6.7,13.1     L6.7,13.1z"/></g></g><g><g><path fill="#000000" d="M18.7,18.5c0,3.3,0.1,6.6,0.2,9.8c0,0.9-0.3,3.6,1.3,3.6c0.6,0,1.2-0.6,1.6-0.9c1.3-1.1,2.5-2.1,4-2.8     c1.6-0.9,4.1-1.6,4.8-3.6c0.1-0.3-0.1-0.5-0.3-0.7c-1.3-0.9-3.2-1.2-4.6-1.8c-2.1-0.9-3.9-2.4-5.5-4c-0.6-0.6-1.5,0.3-0.9,0.9     c1.9,1.9,3.9,3.5,6.4,4.6c1,0.4,2,0.8,3,1.1c0.8,0.3-2.6,2-2.9,2.2c-1,0.5-2,1-2.8,1.7c-0.5,0.4-0.9,0.7-1.4,1.1     c-2,1.7-1.4,0.5-1.5-1.2C20,25,20,21.8,20,18.5C20,17.7,18.7,17.7,18.7,18.5L18.7,18.5z"/></g></g><g><g><path fill="#000000" d="M7.7,8C8.4,8,9.2,8,10,8c0.8,0,0.8-1.3,0-1.3c-0.8,0-1.5,0-2.3,0C6.8,6.7,6.8,8,7.7,8L7.7,8z"/></g></g><g><g><path fill="#000000" d="M13,8.3c0.7,0.1,1.3,0,1.9-0.3c0.3-0.1,0.5-0.4,0.4-0.8c-0.1-0.3-0.5-0.6-0.8-0.4C14.1,7,13.6,7.1,13,7     C12.2,7,12.2,8.2,13,8.3L13,8.3z"/></g></g><g><g><path fill="#000000" d="M18.5,8c0.5,0,1,0,1.4,0c0.8,0,0.8-1.3,0-1.3c-0.5,0-1,0-1.4,0C17.7,6.7,17.7,8,18.5,8L18.5,8z"/></g></g><g><g><path fill="#000000" d="M25,8.4c0.7,0,1.4,0,2.2,0c0.8,0,0.8-1.3,0-1.3c-0.7,0-1.4,0-2.2,0C24.2,7.2,24.2,8.4,25,8.4L25,8.4z"/></g></g><g><g><path fill="#000000" d="M30.5,8.4c0.6,0,1.3,0,1.9,0c0.8,0,0.8-1.3,0-1.3c-0.6,0-1.3,0-1.9,0C29.7,7.2,29.7,8.4,30.5,8.4     L30.5,8.4z"/></g></g><g><g><path fill="#000000" d="M37,8.3c0.7,0,1.3,0,2,0c0.8,0,0.8-1.2,0-1.2c-0.7,0-1.3,0-2,0C36.2,7,36.2,8.3,37,8.3L37,8.3z"/></g></g><g><g><path fill="#000000" d="M6.5,41.8c0.7,0,1.4,0,2.2,0c0.8,0,0.8-1.3,0-1.3c-0.7,0-1.4,0-2.2,0C5.7,40.5,5.7,41.8,6.5,41.8     L6.5,41.8z"/></g></g><g><g><path fill="#000000" d="M13,41.9c0.4,0,0.8,0,1.2,0c0.8,0,0.8-1.3,0-1.3c-0.4,0-0.8,0-1.2,0C12.2,40.7,12.2,41.9,13,41.9L13,41.9     z"/></g></g><g><g><path fill="#000000" d="M19.2,41.7c0.2,0,0.4,0,0.6,0c0.8,0,0.8-1.3,0-1.3c-0.2,0-0.4,0-0.6,0C18.4,40.4,18.4,41.7,19.2,41.7     L19.2,41.7z"/></g></g><g><g><path fill="#000000" d="M24.4,41.6c0.3,0,0.6-0.1,0.9-0.1c0.8-0.1,0.5-1.3-0.3-1.2c-0.3,0-0.6,0.1-0.9,0.1     C23.3,40.5,23.6,41.7,24.4,41.6L24.4,41.6z"/></g></g><g><g><path fill="#000000" d="M29.2,41.4c0.7,0,1.3,0,2,0c0.8,0,0.8-1.3,0-1.3c-0.7,0-1.3,0-2,0C28.4,40.1,28.4,41.4,29.2,41.4     L29.2,41.4z"/></g></g><g><g><path fill="#000000" d="M35,41.4c0.5,0,1,0,1.4,0c0.8,0,0.8-1.3,0-1.3c-0.5,0-1,0-1.4,0C34.2,40.1,34.2,41.4,35,41.4L35,41.4z"/></g></g><g><g><path fill="#000000" d="M39.3,41.6c0.4,0.2,0.9,0.2,1.3,0.2c0.3,0,0.6-0.3,0.6-0.6c0-0.3-0.3-0.7-0.6-0.6c-0.4,0-0.7,0-1-0.1     C38.8,40.1,38.5,41.3,39.3,41.6L39.3,41.6z"/></g></g></g><text x="0" y="63" fill="#000000" font-size="5px" font-weight="bold" font-family="'Helvetica Neue', Helvetica, Arial-Unicode, Arial, Sans-serif">Created by Creative Stall</text><text x="0" y="68" fill="#000000" font-size="5px" font-weight="bold" font-family="'Helvetica Neue', Helvetica, Arial-Unicode, Arial, Sans-serif">from the Noun Project</text></svg>