<svg xmlns="http://www.w3.org/2000/svg" viewBox="68.06841797005 50 438.8631640599 475.00259233760573"> <g transform="rotate(0 287.5 252.40901985571472)"><svg xmlns="http://www.w3.org/2000/svg" xmlns:xlink="http://www.w3.org/1999/xlink" version="1.1" id="Layer_1" x="138.06841797005" y="120" viewBox="147.10000610351562 153.5 301.1000061035156 266.79998779296875" xml:space="preserve" height="264.81803971142944" width="298.8631640599" preserveAspectRatio="xMinYMin" enable-background="new 0 0 595.3 595.3" style="overflow: visible;"><polygon points="303.1,335.1 345.6,420.3 379.5,420.3 337,335.1  " style="fill: #fc0105; fill-opacity: 1;"></polygon><polygon points="147.1,420.3 181,420.3 237.4,307 203.5,307  " style="fill: #fc0105; fill-opacity: 1;"></polygon><polygon points="315.3,153.5 314,153.5 281.3,153.5 280,153.5 245.9,221.9 279.8,221.9 297.6,186.2 414.3,420.3 448.2,420.3  " style="fill: #fc0105; fill-opacity: 1;"></polygon></svg></g> <g transform="rotate(0 287.4999999999999 435.1375887517903)"><svg y="415.2725851659749" viewBox="0 19.510000228881836 298.8599853515625 39.73000717163086" x="138.07000732421864" height="39.73000717163086" width="298.8599853515625" style="overflow: visible;"><g fill="#ffffff" fill-opacity="1" style=""><path d="M38.24 59.24L29.20 59.24L26.33 49.82L11.91 49.82L9.04 59.24L0 59.24L13.96 19.51L24.22 19.51L38.24 59.24ZM14.02 42.79L24.33 42.79L21.46 33.59Q21.19 32.67 20.74 31.22Q20.30 29.77 19.85 28.27Q19.40 26.77 19.13 25.66L19.13 25.66Q18.86 26.77 18.39 28.40Q17.92 30.04 17.48 31.50Q17.05 32.96 16.86 33.59L16.86 33.59L14.02 42.79ZM67.35 26.66L67.35 59.24L58.96 59.24L58.96 26.66L48.22 26.66L48.22 19.67L78.10 19.67L78.10 26.66L67.35 26.66ZM125.47 19.67L125.47 59.24L117.11 59.24L117.11 42.16L101.44 42.16L101.44 59.24L93.05 59.24L93.05 19.67L101.44 19.67L101.44 35.18L117.11 35.18L117.11 19.67L125.47 19.67ZM168.77 59.24L144.33 59.24L144.33 19.67L152.72 19.67L152.72 52.31L168.77 52.31L168.77 59.24ZM207.30 52.31L207.30 59.24L184.51 59.24L184.51 19.67L207.30 19.67L207.30 26.55L192.90 26.55L192.90 35.24L206.30 35.24L206.30 42.11L192.90 42.11L192.90 52.31L207.30 52.31ZM257.68 59.24L248.64 59.24L245.77 49.82L231.35 49.82L228.48 59.24L219.44 59.24L233.40 19.51L243.66 19.51L257.68 59.24ZM233.46 42.79L243.77 42.79L240.90 33.59Q240.63 32.67 240.18 31.22Q239.74 29.77 239.29 28.27Q238.84 26.77 238.57 25.66L238.57 25.66Q238.30 26.77 237.83 28.40Q237.35 30.04 236.92 31.50Q236.49 32.96 236.30 33.59L236.30 33.59L233.46 42.79ZM271.53 19.67L284.17 19.67Q291.82 19.67 295.34 22.96Q298.86 26.25 298.86 32.02L298.86 32.02Q298.86 34.61 298.08 36.98Q297.29 39.35 295.52 41.19Q293.75 43.03 290.80 44.10Q287.85 45.17 283.52 45.17L283.52 45.17L279.92 45.17L279.92 59.24L271.53 59.24L271.53 19.67ZM283.73 26.55L283.73 26.55L279.92 26.55L279.92 38.29L282.68 38.29Q285.03 38.29 286.76 37.67Q288.50 37.05 289.44 35.72Q290.39 34.40 290.39 32.31L290.39 32.31Q290.39 29.39 288.77 27.97Q287.14 26.55 283.73 26.55Z" transform="translate(0, 0)"></path></g></svg></g></svg>